<svg width="957" height="502" viewBox="0 0 957 502" fill="none" xmlns="http://www.w3.org/2000/svg">
<path d="M178.621 415.537L178.585 415.501L178.088 415.386L177.778 415.325L176.831 415.168L176.31 415.089L175.029 414.907L172.881 414.628L170.503 414.343L165.806 413.477L163.47 412.998L158.87 411.761L156.583 411.101L152.086 409.513L149.859 408.67L145.496 406.743L143.336 405.737L139.125 403.482L137.038 402.319L132.99 399.761L130.994 398.446L127.135 395.603L125.229 394.142L121.577 391.027L119.774 389.433L116.346 386.057L114.665 384.342L111.479 380.729L109.914 378.893L106.989 375.063L105.563 373.117L102.918 369.074L101.631 367.032L99.289 362.801L98.1542 360.662L96.1275 356.262L95.1567 354.043L93.4637 349.485L91.3278 342.491L90.9394 341.006L90.3023 338.388L89.9989 337.091L89.5256 334.412L89.4164 333.709L89.2222 332.194L89.1312 331.412L88.9734 329.684L88.8945 328.793L88.7671 326.781L88.7064 325.733L88.6093 323.363L88.5608 322.132L88.488 319.332L88.4516 317.878L88.403 314.581L88.3788 312.865L88.3484 308.998L88.3363 307.992L88.3302 305.859L88.3242 304.774L88.3181 302.477V301.307L88.312 298.828V297.567V294.913V293.555L88.3181 290.7V289.246L88.3242 286.191L88.3302 284.633L88.3424 281.367V279.7L88.3545 276.209L88.3606 274.439L88.3727 270.711L88.397 264.863L88.6093 205.163L90.2416 198.496L91.0365 195.259L92.9722 189.047L94.0038 185.98L96.4067 180.125L97.6688 177.24L100.539 171.743L102.032 169.039L105.363 163.906L107.086 161.378L110.879 156.608L112.833 154.275L117.08 149.875L119.265 147.717L123.967 143.693L131.534 138.074L133.197 136.953L136.577 134.88L138.276 133.874L141.728 132.025L143.464 131.128L146.989 129.498L148.761 128.716L152.347 127.31L154.149 126.637L157.796 125.455L159.629 124.892L163.324 123.94L165.181 123.491L168.919 122.764L170.794 122.425L174.574 121.922L176.473 121.704L180.284 121.425L182.196 121.316L186.03 121.273H187.954L191.813 121.455L193.743 121.576L197.614 121.988L199.55 122.225L203.427 122.861L205.369 123.213L209.246 124.085L211.188 124.552L215.06 125.655L220.861 127.57L222.59 128.201L225.994 129.619L227.687 130.359L231.006 131.995L232.657 132.837L235.879 134.674L237.481 135.619L240.6 137.656L242.147 138.698L245.157 140.917L246.643 142.05L249.532 144.45L250.958 145.668L253.706 148.232L255.066 149.529L257.681 152.251L258.967 153.626L261.425 156.487L262.638 157.936L264.938 160.936L266.073 162.451L268.203 165.579L269.246 167.154L271.2 170.397L272.159 172.033L273.925 175.379L274.787 177.064L276.358 180.513L277.117 182.246L278.482 185.774L280.284 191.156L280.539 191.998L281 193.526L281.225 194.277L281.625 195.683L282.013 197.077L282.62 199.865L282.766 200.593L283.009 202.156L283.124 202.962L283.33 204.75L283.421 205.684L283.585 207.781L283.664 208.878L283.791 211.375L283.846 212.684L283.943 215.666L283.986 217.23L284.052 220.782L284.064 221.709L284.089 223.691L284.101 224.703L284.119 226.855L284.131 227.952L284.143 230.285L284.149 231.479L284.162 234.006V235.297L284.168 238.031L284.174 239.425V242.377V243.88L284.168 247.056V248.674L284.162 252.092V253.832L284.155 257.493L284.149 259.359L284.143 263.281L284.137 265.275L284.125 269.469L284.113 276.075L283.949 341.533L260.12 341.691L236.291 341.849L235.709 340.321L235.691 340.267L235.642 339.873L235.624 339.63L235.581 338.873L235.563 338.448L235.521 337.345L235.503 336.745L235.466 335.297L235.448 334.533L235.418 332.751L235.399 331.824L235.369 329.721L235.351 328.636L235.32 326.224L235.308 324.981L235.278 322.272L235.266 320.878L235.242 317.878L235.229 316.338L235.211 313.059L235.199 311.386L235.181 307.829L235.175 306.022L235.157 302.21L235.151 300.271L235.138 296.21L235.132 294.149L235.126 289.846L235.12 287.664L235.114 283.136L235.108 276.088V273.96V269.905V267.911V264.117V262.25L235.102 258.705V256.965V253.662L235.096 252.038V248.965L235.09 247.456L235.084 244.607V243.207L235.072 240.564L235.066 239.267L235.054 236.831L235.047 235.637L235.035 233.388L235.029 232.285L235.011 230.218L234.999 229.206L234.975 227.315L234.962 226.388L234.938 224.661L234.908 222.963L234.835 220.03L234.793 218.624L234.695 216.212L234.641 215.06L234.52 213.09L234.453 212.151L234.295 210.551L234.21 209.787L234.022 208.472L233.919 207.841L233.688 206.738L233.452 205.672L232.839 203.841L231.698 200.926L231.255 199.817L230.151 197.574L229.562 196.447L228.197 194.192L227.487 193.065L225.909 190.853L225.096 189.756L223.348 187.634L222.45 186.592L220.575 184.61L219.623 183.64L217.651 181.852L216.662 180.985L214.653 179.44L211.631 177.446L209.902 176.434L206.364 174.731L204.58 173.937L200.958 172.676L199.137 172.106L195.442 171.288L193.591 170.93L189.847 170.555L187.966 170.421L184.192 170.488L182.299 170.579L178.506 171.088L176.607 171.403L172.814 172.361L167.141 174.3L165.848 174.822L163.27 176.131L161.983 176.822L159.453 178.452L158.203 179.301L155.77 181.204L154.574 182.186L152.28 184.319L151.158 185.41L149.052 187.737L148.027 188.919L146.152 191.386L145.248 192.641L143.646 195.21L141.595 199.144L141.346 199.683L140.806 201.065L140.533 201.787L139.981 203.381L139.714 204.187L139.216 205.811L138.615 208.054L138.47 208.654L138.233 209.848L138.124 210.478L137.942 212.048L137.899 212.484L137.827 213.496L137.79 214.03L137.729 215.278L137.699 215.933L137.651 217.472L137.626 218.278L137.584 220.151L137.566 221.139L137.535 223.4L137.517 224.588L137.493 227.297L137.481 228.709L137.462 231.909L137.456 233.576L137.444 237.322L137.438 239.267L137.426 243.607V244.734V247.104L137.42 248.31V250.85V252.141V254.85V256.232V259.123L137.414 260.59V263.669V268.499V270.172V273.378V274.954L137.42 277.96V279.439V282.264V283.652V286.288V287.591L137.426 290.058V291.27V293.573L137.432 295.834L137.444 299.883V301.834L137.462 305.307L137.469 306.974L137.493 309.92L137.505 311.332L137.535 313.805L137.547 314.981L137.584 317.035L137.608 318.011L137.651 319.696L137.675 320.496L137.736 321.872L137.766 322.52L137.833 323.629L137.869 324.157L137.954 325.066L138.039 325.927L138.251 327.254L138.646 329.078L139.113 331.036L140.448 334.842L141.176 336.721L142.996 340.345L143.961 342.133L146.213 345.522L147.39 347.182L150.041 350.285L151.407 351.795L154.398 354.558L155.933 355.898L159.228 358.274L160.909 359.413L164.453 361.353L170.005 363.716L170.952 364.044L172.596 364.583L173.439 364.832L175.412 365.232L175.958 365.323L177.232 365.486L177.905 365.565L179.501 365.704L180.351 365.765L182.359 365.88L183.427 365.935L185.933 366.032L187.256 366.074L190.351 366.153L191.164 366.171L192.918 366.208L193.816 366.226L195.745 366.256L196.734 366.268L198.852 366.298L199.932 366.311L202.25 366.341L203.433 366.353L205.964 366.377L207.25 366.383L209.999 366.407L211.401 366.42L214.38 366.438L215.897 366.45L219.119 366.468L220.763 366.48L224.234 366.498L226.006 366.511L229.744 366.529L231.649 366.535L235.66 366.553L237.705 366.565L242.007 366.583L244.192 366.595L248.791 366.614L256.037 366.65L333.1 366.989L333.257 390.554L333.276 392.67L333.288 396.427L333.294 398.24V401.409L333.288 402.925L333.27 405.543L333.257 406.779L333.221 408.864L333.203 409.846L333.142 411.428L333.112 412.155L333.039 413.265L332.996 413.762L332.899 414.428L332.729 414.949L332.693 414.992L332.469 415.077L332.329 415.113L331.868 415.186L331.607 415.222L330.873 415.283L330.466 415.319L329.416 415.374L328.846 415.398L327.444 415.453L326.698 415.477L324.908 415.519L323.955 415.537L321.74 415.574L320.569 415.592L317.881 415.628L316.479 415.64L313.288 415.665L311.625 415.677L307.887 415.701L305.945 415.713L301.631 415.725L299.392 415.737L294.459 415.75H293.179L290.509 415.756H289.149L286.31 415.762L284.865 415.768H281.856H280.327L277.135 415.774H275.515H272.141L270.43 415.78H266.868H265.066H261.31H255.454H250.193L240.066 415.774H237.578L232.736 415.768H230.339L225.703 415.762L223.409 415.756L218.998 415.75L216.825 415.743L212.669 415.737L210.63 415.731L206.759 415.725L204.859 415.719L201.297 415.707L199.556 415.701L196.322 415.689L194.756 415.683L191.886 415.671L190.496 415.665L188.021 415.653L186.831 415.647L184.762 415.628L183.779 415.622L182.153 415.61L181.395 415.598L180.236 415.586L179.714 415.58L179.04 415.562L178.773 415.55L178.621 415.537Z" fill="white"/>
<ellipse cx="158.646" cy="268.499" rx="10.3155" ry="10.3036" fill="white"/>
<path d="M420.253 277.253C420.253 288.473 416.433 298.26 409.868 305.422L415.717 312.226L403.9 321.894L397.574 314.374C391.964 317 385.519 318.432 378.596 318.432C354.604 318.432 337.058 301.244 337.058 277.253C337.058 253.261 354.604 236.073 378.596 236.073C402.707 236.073 420.253 253.261 420.253 277.253ZM378.596 303.393C381.58 303.393 384.444 302.915 386.951 301.961L377.88 291.337L389.696 281.789L398.768 292.412C401.394 288.234 402.826 282.982 402.826 277.253C402.826 262.333 393.277 251.113 378.596 251.113C363.914 251.113 354.485 262.333 354.485 277.253C354.485 292.054 363.914 303.393 378.596 303.393ZM428.327 277.253C428.327 253.261 445.873 236.073 469.865 236.073C493.976 236.073 511.522 253.261 511.522 277.253C511.522 301.244 493.976 318.432 469.865 318.432C445.873 318.432 428.327 301.244 428.327 277.253ZM494.095 277.253C494.095 262.333 484.546 251.113 469.865 251.113C455.183 251.113 445.754 262.333 445.754 277.253C445.754 292.054 455.183 303.393 469.865 303.393C484.546 303.393 494.095 292.054 494.095 277.253ZM519.596 277.253C519.596 253.261 537.142 236.073 561.134 236.073C585.244 236.073 602.791 253.261 602.791 277.253C602.791 301.244 585.244 318.432 561.134 318.432C537.142 318.432 519.596 301.244 519.596 277.253ZM585.364 277.253C585.364 262.333 575.815 251.113 561.134 251.113C546.452 251.113 537.023 262.333 537.023 277.253C537.023 292.054 546.452 303.393 561.134 303.393C575.815 303.393 585.364 292.054 585.364 277.253ZM665.294 317H614.685V237.386H631.634V302.08H665.294V317ZM727.771 317H677.162V237.386H694.112V302.08H727.771V317ZM795.979 317H739.64V237.386H795.979V251.948H756.589V269.256H795.143V283.818H756.589V302.319H795.979V317ZM805.409 277.253C805.409 252.068 824.507 236.073 847.782 236.073C864.254 236.073 874.638 244.071 880.726 253.5L866.641 261.139C862.941 255.529 856.137 251.113 847.782 251.113C833.339 251.113 822.836 262.213 822.836 277.253C822.836 292.292 833.339 303.393 847.782 303.393C855.063 303.393 861.508 300.409 864.97 297.305V287.637H843.724V273.075H881.68V303.512C873.564 312.584 862.225 318.552 847.782 318.552C824.507 318.552 805.409 302.319 805.409 277.253ZM951.474 317H895.135V237.386H951.474V251.948H912.085V269.256H950.638V283.818H912.085V302.319H951.474V317Z" fill="white"/>
</svg>
