<svg width="670" height="196" viewBox="0 0 670 196" fill="none" xmlns="http://www.w3.org/2000/svg">
<path d="M177.503 149.928C151.954 149.928 136.528 131.289 136.528 109.114C136.528 87.1 151.954 68.4605 177.503 68.4605C203.212 68.4605 218.638 87.1 218.638 109.114C218.638 131.289 203.212 149.928 177.503 149.928ZM177.503 131.771C190.197 131.771 197.428 121.326 197.428 109.114C197.428 97.0626 190.197 86.618 177.503 86.618C164.808 86.618 157.738 97.0626 157.738 109.114C157.738 121.326 164.808 131.771 177.503 131.771ZM269.771 149.928C244.222 149.928 228.797 131.289 228.797 109.114C228.797 87.1 244.222 68.4605 269.771 68.4605C295.481 68.4605 310.907 87.1 310.907 109.114C310.907 131.289 295.481 149.928 269.771 149.928ZM269.771 131.771C282.466 131.771 289.697 121.326 289.697 109.114C289.697 97.0626 282.466 86.618 269.771 86.618C257.077 86.618 250.007 97.0626 250.007 109.114C250.007 121.326 257.077 131.771 269.771 131.771Z" fill="#057DCD"/>
<path d="M346.454 148H326.047V40.8225H346.454V148ZM387.096 148H366.689V40.8225H387.096V148ZM402.35 109.114C402.35 86.618 418.901 68.4605 442.521 68.4605C465.66 68.4605 481.407 85.8145 481.407 111.203V115.702H423.721C425.007 125.504 432.88 133.699 446.057 133.699C453.287 133.699 461.804 130.807 466.785 125.986L475.783 139.162C467.91 146.393 455.858 149.928 443.807 149.928C420.186 149.928 402.35 134.02 402.35 109.114ZM442.521 84.6897C429.827 84.6897 424.364 94.1702 423.4 101.883H461.643C461.161 94.4916 456.019 84.6897 442.521 84.6897ZM494.541 167.925L503.7 153.142C509.967 160.051 518.162 162.783 527.964 162.783C537.765 162.783 549.335 158.445 549.335 143.179V135.306C543.229 143.019 534.873 147.518 525.393 147.518C505.95 147.518 491.167 133.86 491.167 107.989C491.167 82.6008 505.789 68.4605 525.393 68.4605C534.712 68.4605 543.068 72.4776 549.335 80.3512V70.3887H569.903V142.697C569.903 172.264 547.085 179.494 527.964 179.494C514.627 179.494 504.182 176.441 494.541 167.925ZM549.335 120.523V95.4557C545.96 90.3137 538.569 86.618 531.82 86.618C520.251 86.618 512.216 94.6523 512.216 107.989C512.216 121.326 520.251 129.36 531.82 129.36C538.569 129.36 545.96 125.504 549.335 120.523ZM585.162 109.114C585.162 86.618 601.712 68.4605 625.333 68.4605C648.472 68.4605 664.219 85.8145 664.219 111.203V115.702H606.533C607.818 125.504 615.692 133.699 628.868 133.699C636.099 133.699 644.615 130.807 649.597 125.986L658.595 139.162C650.721 146.393 638.67 149.928 626.619 149.928C602.998 149.928 585.162 134.02 585.162 109.114ZM625.333 84.6897C612.639 84.6897 607.176 94.1702 606.211 101.883H644.455C643.973 94.4916 638.831 84.6897 625.333 84.6897Z" fill="#1E3D58"/>
<path d="M48.9225 159.409L48.9028 159.389L48.6332 159.327L48.4656 159.294L47.9528 159.209L47.6701 159.166L46.9765 159.067L45.8129 158.916L44.5243 158.762L41.98 158.293L40.7145 158.033L38.2229 157.363L36.9836 157.006L34.5478 156.145L33.3414 155.689L30.978 154.645L29.8078 154.1L27.5265 152.878L26.3957 152.248L24.2032 150.862L23.1217 150.15L21.0311 148.61L19.999 147.819L18.0201 146.131L17.0438 145.268L15.1866 143.439L14.276 142.51L12.5503 140.553L11.7022 139.558L10.1178 137.483L9.34534 136.429L7.91215 134.239L7.21527 133.132L5.94643 130.841L5.33174 129.682L4.23384 127.298L3.70789 126.096L2.79078 123.627L1.63371 119.838L1.42333 119.034L1.07818 117.615L0.913824 116.913L0.657428 115.462L0.598262 115.081L0.493071 114.26L0.443766 113.836L0.358297 112.901L0.315568 112.418L0.246535 111.328L0.213667 110.76L0.161072 109.476L0.134774 108.81L0.0953298 107.293L0.0756078 106.505L0.0493101 104.719L0.0361587 103.789L0.019722 101.695L0.0131514 101.15L0.00986102 99.9938L0.00657568 99.4061L0.00329035 98.1617V97.528L0 96.1852V95.5022V94.0641V93.3287L0.00329035 91.7822V90.9942L0.00657568 89.3394L0.00986102 88.4956L0.0164367 86.7259V85.823L0.0230124 83.9318L0.0262977 82.973L0.0328734 80.9538L0.0460197 77.7854L0.161072 45.4446L1.04531 41.8329L1.47593 40.0796L2.52453 36.7142L3.08334 35.0528L4.38504 31.8811L5.06877 30.3183L6.62359 27.3403L7.43222 25.8759L9.23686 23.0949L10.1704 21.7258L12.2249 19.1418L13.2833 17.8777L15.5843 15.494L16.7677 14.3252L19.3152 12.145L23.4143 9.10139L24.315 8.49398L26.1459 7.37107L27.0663 6.82605L28.9367 5.82463L29.8768 5.3387L31.7866 4.45548L32.7465 4.03193L34.6892 3.2702L35.6655 2.90575L37.641 2.2655L38.6337 1.96015L40.6356 1.44467L41.6415 1.2017L43.6664 0.807701L44.6821 0.623836L46.73 0.351319L47.7588 0.233119L49.8232 0.0820832L50.8586 0.0229857L52.9361 0H53.9781L56.0687 0.0985009L57.114 0.164166L59.2112 0.387436L60.2598 0.515485L62.3603 0.860236L63.4122 1.05066L65.5127 1.52346L66.5646 1.77628L68.6618 2.37385L71.8043 3.41138L72.7411 3.75285L74.5852 4.52115L75.5023 4.92171L77.3004 5.80821L78.1945 6.26459L79.9399 7.25944L80.8077 7.77164L82.4973 8.87484L83.3355 9.43957L84.966 10.6413L85.7713 11.2553L87.336 12.5555L88.1085 13.2154L89.5975 14.6043L90.3339 15.3069L91.7506 16.7811L92.4475 17.5264L93.7788 19.0761L94.4362 19.8609L95.682 21.4861L96.2967 22.3069L97.4505 24.0011L98.0159 24.8548L99.0744 26.6114L99.5937 27.4979L100.55 29.3103L101.017 30.2231L101.868 32.0913L102.279 33.0303L103.019 34.9412L103.995 37.8568L104.133 38.3132L104.383 39.1406L104.505 39.5477L104.722 40.3094L104.932 41.0646L105.261 42.5749L105.34 42.9689L105.471 43.816L105.534 44.2527L105.645 45.2213L105.695 45.7269L105.783 46.863L105.826 47.4573L105.895 48.81L105.925 49.5192L105.977 51.1346L106 51.9817L106.037 53.9057L106.043 54.4081L106.056 55.4817L106.063 56.03L106.073 57.1956L106.079 57.7899L106.086 59.054L106.089 59.7008L106.096 61.0699V61.7693L106.099 63.2501L106.102 64.0052V65.6042V66.4185L106.099 68.1389V69.0156L106.096 70.8674V71.8097L106.092 73.7928L106.089 74.8041L106.086 76.9284L106.083 78.0086L106.076 80.2807L106.069 83.8595L105.981 119.319L93.0721 119.405L80.1635 119.49L79.8479 118.663L79.838 118.633L79.8117 118.42L79.8019 118.289L79.7789 117.878L79.769 117.648L79.746 117.051L79.7361 116.726L79.7164 115.941L79.7066 115.527L79.6901 114.562L79.6802 114.06L79.6638 112.92L79.654 112.333L79.6375 111.026L79.6309 110.353L79.6145 108.885L79.6079 108.13L79.5948 106.505L79.5882 105.671L79.5783 103.894L79.5718 102.988L79.5619 101.061L79.5586 100.082L79.5488 98.0173L79.5455 96.9666L79.5389 94.7668L79.5356 93.6504L79.5323 91.3193L79.529 90.1373L79.5257 87.6846L79.5225 83.8661V82.7137V80.5171V79.4369V77.3815V76.3703L79.5192 74.4495V73.5072V71.7178L79.5159 70.8378V69.1732L79.5126 68.3556L79.5093 66.8125V66.054L79.5027 64.6225L79.4995 63.9199L79.4929 62.6L79.4896 61.9532L79.483 60.735L79.4797 60.1375L79.4699 59.0179L79.4633 58.4695L79.4501 57.4451L79.4436 56.9428L79.4304 56.007L79.414 55.0877L79.3745 53.4986L79.3515 52.7368L79.2989 51.4301L79.2694 50.8062L79.2036 49.7392L79.1674 49.2302L79.082 48.3635L79.036 47.9498L78.9341 47.2373L78.8782 46.8958L78.7533 46.2982L78.6251 45.7204L78.2931 44.7288L77.6751 43.1495L77.4351 42.5487L76.8369 41.3338L76.518 40.7231L75.7784 39.5017L75.3938 38.891L74.5392 37.6926L74.0987 37.0983L73.152 35.9492L72.6655 35.3844L71.6498 34.3108L71.1337 33.7855L70.0654 32.8169L69.5296 32.3474L68.4415 31.5101L66.8045 30.4299L65.8677 29.8816L63.9513 28.959L62.9849 28.5289L61.0225 27.8459L60.0363 27.5373L58.0344 27.094L57.0319 26.9003L55.0037 26.6968L53.9847 26.6245L51.9401 26.6606L50.9145 26.7099L48.86 26.9857L47.8312 27.1564L45.7767 27.6752L42.7032 28.7259L42.0031 29.0082L40.606 29.7174L39.9092 30.0917L38.5384 30.9749L37.8613 31.4346L36.5431 32.4656L35.8956 32.9975L34.653 34.1532L34.0449 34.7442L32.9043 36.005L32.3487 36.6452L31.333 37.9816L30.8432 38.6612L29.9754 40.0533L28.8644 42.1842L28.7296 42.4764L28.437 43.225L28.2891 43.6158L27.99 44.4793L27.8454 44.916L27.5758 45.7959L27.2504 47.0107L27.1715 47.3358L27.0433 47.9826L26.9841 48.324L26.8855 49.1744L26.8625 49.4108L26.8231 49.9591L26.8033 50.2481L26.7705 50.9244L26.754 51.279L26.7277 52.113L26.7146 52.5497L26.6916 53.5642L26.6817 54.0994L26.6653 55.3241L26.6554 55.9676L26.6423 57.4353L26.6357 58.2003L26.6258 59.9339L26.6225 60.8368L26.616 62.8659L26.6127 63.9199L26.6061 66.2707V66.8814V68.1652L26.6028 68.8186V70.1943V70.8937V72.3613V73.1099V74.6761L26.5995 75.4706V77.1385V79.7554V80.6616V82.3984V83.2521L26.6028 84.8806V85.6818V87.2118V87.9637V89.3919V90.0979L26.6061 91.4342V92.0908V93.3385L26.6094 94.5632L26.616 96.7564V97.8137L26.6258 99.695L26.6291 100.598L26.6423 102.194L26.6488 102.959L26.6653 104.298L26.6719 104.935L26.6916 106.048L26.7047 106.577L26.7277 107.49L26.7409 107.923L26.7738 108.668L26.7902 109.02L26.8263 109.621L26.8461 109.906L26.8921 110.399L26.9381 110.865L27.0532 111.584L27.2668 112.572L27.5199 113.633L28.2431 115.695L28.6376 116.713L29.6237 118.676L30.1463 119.645L31.3659 121.48L32.0036 122.38L33.4401 124.061L34.1797 124.878L35.8002 126.375L36.6319 127.101L38.4168 128.388L39.3273 129.005L41.247 130.056L44.2548 131.336L44.7675 131.514L45.6584 131.806L46.1153 131.941L47.1836 132.157L47.4794 132.207L48.1697 132.295L48.5346 132.338L49.3991 132.413L49.8593 132.446L50.9474 132.509L51.5259 132.538L52.8835 132.591L53.6001 132.614L55.2765 132.656L55.717 132.666L56.667 132.686L57.1535 132.696L58.1988 132.712L58.7346 132.719L59.8818 132.735L60.4669 132.742L61.7226 132.758L62.3636 132.765L63.7343 132.778L64.4312 132.781L65.9203 132.794L66.6796 132.801L68.2936 132.811L69.1154 132.817L70.8609 132.827L71.7517 132.834L73.6319 132.844L74.5918 132.85L76.6166 132.86L77.6488 132.863L79.8216 132.873L80.9294 132.88L83.2599 132.889L84.4433 132.896L86.935 132.906L90.8598 132.926L132.606 133.109L132.692 145.875L132.702 147.021L132.708 149.057L132.712 150.038V151.756L132.708 152.576L132.699 153.995L132.692 154.665L132.672 155.794L132.662 156.326L132.629 157.183L132.613 157.577L132.574 158.178L132.551 158.447L132.498 158.808L132.406 159.09L132.386 159.113L132.265 159.159L132.189 159.179L131.939 159.219L131.798 159.238L131.4 159.271L131.18 159.291L130.611 159.32L130.302 159.333L129.543 159.363L129.139 159.376L128.169 159.399L127.653 159.409L126.453 159.429L125.819 159.439L124.362 159.458L123.603 159.465L121.874 159.478L120.973 159.484L118.948 159.498L117.897 159.504L115.559 159.511L114.346 159.517L111.674 159.524H110.98L109.534 159.527H108.798L107.259 159.53L106.477 159.534H104.847H104.018L102.289 159.537H101.412H99.5839L98.6569 159.54H96.7274H95.7511H93.7163H90.5442H87.6943L82.2081 159.537H80.8603L78.2372 159.534H76.9388L74.4274 159.53L73.1849 159.527L70.7951 159.524L69.6183 159.521L67.3666 159.517L66.2622 159.514L64.165 159.511L63.1361 159.507L61.2065 159.501L60.2631 159.498L58.5111 159.491L57.663 159.488L56.1082 159.481L55.3554 159.478L54.0143 159.471L53.37 159.468L52.2491 159.458L51.7166 159.455L50.8356 159.448L50.4247 159.442L49.7969 159.435L49.5142 159.432L49.1493 159.422L49.0047 159.416L48.9225 159.409Z" fill="#057DCD"/>
<circle cx="42.8054" cy="84.4663" r="10.2927" fill="#1E3D58"/>
</svg>
