<svg width="125" height="67" viewBox="0 0 125 67" fill="none" xmlns="http://www.w3.org/2000/svg">
<path d="M63.508 32.8684H61.9621V25.4165H59.2932V24.0556H66.1769V25.4165H63.508V32.8684ZM73.1551 32.8684H71.7678V28.8518C71.7678 27.8608 71.2525 27.557 70.473 27.557C69.7727 27.557 69.1649 27.9798 68.8346 28.4158V32.8684H67.4473V24.0556H68.8346V27.3588C69.2574 26.8567 70.0898 26.3282 71.094 26.3282C72.4681 26.3282 73.1551 27.0417 73.1551 28.3497V32.8684ZM74.5604 29.671C74.5604 27.8212 75.9081 26.3282 77.7975 26.3282C79.7133 26.3282 80.9421 27.7948 80.9421 29.8031V30.1334H76.0138C76.1195 31.0979 76.8462 31.8907 78.0485 31.8907C78.6695 31.8907 79.4094 31.6396 79.8586 31.1904L80.4928 32.1021C79.8586 32.7099 78.9205 33.027 77.9032 33.027C75.9874 33.027 74.5604 31.6925 74.5604 29.671ZM77.7975 27.4645C76.6083 27.4645 76.0666 28.3761 76.0006 29.1557H79.5944C79.568 28.4026 79.0527 27.4645 77.7975 27.4645ZM90.2104 32.8684H88.2813L84.8196 24.0556H86.5769L89.2459 31.1904L91.9148 24.0556H93.6721L90.2104 32.8684ZM99.0155 32.8684H97.6282V32.1814C97.1525 32.7231 96.4126 33.027 95.567 33.027C94.5232 33.027 93.3473 32.3267 93.3473 30.9129C93.3473 29.4464 94.5232 28.8386 95.567 28.8386C96.4259 28.8386 97.1658 29.116 97.6282 29.6578V28.7064C97.6282 27.9665 97.0204 27.5173 96.1352 27.5173C95.4217 27.5173 94.8007 27.7816 94.2458 28.3233L93.6776 27.3588C94.4175 26.6585 95.3424 26.3282 96.3598 26.3282C97.7735 26.3282 99.0155 26.9228 99.0155 28.6404V32.8684ZM97.6282 31.415V30.4505C97.3111 30.0145 96.7165 29.7899 96.1088 29.7899C95.3292 29.7899 94.7479 30.2391 94.7479 30.9394C94.7479 31.6264 95.3292 32.0757 96.1088 32.0757C96.7165 32.0757 97.3111 31.851 97.6282 31.415ZM102.202 32.8684H100.814V26.4867H102.202V27.4248C102.677 26.8171 103.443 26.3414 104.276 26.3414V27.7155C104.157 27.6891 104.012 27.6759 103.84 27.6759C103.259 27.6759 102.479 28.0722 102.202 28.5215V32.8684ZM104.84 32.036L105.474 31.0319C105.923 31.4943 106.808 31.9303 107.641 31.9303C108.473 31.9303 108.896 31.6264 108.896 31.1508C108.896 30.5958 108.222 30.3977 107.443 30.2259C106.346 29.9881 105.038 29.6974 105.038 28.2704C105.038 27.2266 105.936 26.3282 107.548 26.3282C108.632 26.3282 109.451 26.7114 110.032 27.2266L109.451 28.2044C109.068 27.7684 108.354 27.438 107.562 27.438C106.835 27.438 106.372 27.7023 106.372 28.1515C106.372 28.6404 107.007 28.8121 107.76 28.9839C108.87 29.2217 110.231 29.5388 110.231 31.0451C110.231 32.1681 109.292 33.027 107.575 33.027C106.491 33.027 105.5 32.6834 104.84 32.036ZM112.314 25.4297C111.851 25.4297 111.455 25.0466 111.455 24.5709C111.455 24.0953 111.851 23.7121 112.314 23.7121C112.79 23.7121 113.173 24.0953 113.173 24.5709C113.173 25.0466 112.79 25.4297 112.314 25.4297ZM113.014 32.8684H111.627V26.4867H113.014V32.8684ZM116.73 33.027C115.659 33.027 115.091 32.4456 115.091 31.3886V27.7023H114.034V26.4867H115.091V24.7427H116.479V26.4867H117.773V27.7023H116.479V31.0451C116.479 31.4811 116.69 31.7982 117.086 31.7982C117.351 31.7982 117.602 31.6925 117.707 31.5736L118.038 32.6174C117.787 32.8552 117.377 33.027 116.73 33.027ZM118.756 35.3656L118.967 34.1236C119.112 34.1897 119.337 34.2293 119.496 34.2293C119.932 34.2293 120.222 34.0972 120.407 33.6744L120.724 32.9477L118.108 26.4867H119.588L121.451 31.2697L123.314 26.4867H124.807L121.728 34.0179C121.292 35.1013 120.526 35.4449 119.535 35.4581C119.337 35.4581 118.954 35.4184 118.756 35.3656ZM61.4072 46.8684H59.8613V38.0556H63.7326C65.5824 38.0556 66.6129 39.324 66.6129 40.8171C66.6129 42.3101 65.5691 43.5785 63.7326 43.5785H61.4072V46.8684ZM65.0274 40.8171C65.0274 39.9714 64.3932 39.4165 63.5212 39.4165H61.4072V42.2176H63.5212C64.3932 42.2176 65.0274 41.6627 65.0274 40.8171ZM72.8871 46.8684H71.4998V46.1814C71.0242 46.7231 70.2843 47.027 69.4387 47.027C68.3949 47.027 67.219 46.3267 67.219 44.9129C67.219 43.4464 68.3949 42.8386 69.4387 42.8386C70.2975 42.8386 71.0374 43.116 71.4998 43.6578V42.7064C71.4998 41.9665 70.8921 41.5173 70.0068 41.5173C69.2933 41.5173 68.6723 41.7816 68.1174 42.3233L67.5493 41.3588C68.2892 40.6585 69.2141 40.3282 70.2314 40.3282C71.6452 40.3282 72.8871 40.9228 72.8871 42.6404V46.8684ZM71.4998 45.415V44.4505C71.1827 44.0145 70.5882 43.7899 69.9804 43.7899C69.2008 43.7899 68.6195 44.2391 68.6195 44.9394C68.6195 45.6264 69.2008 46.0757 69.9804 46.0757C70.5882 46.0757 71.1827 45.851 71.4998 45.415ZM76.6016 47.027C75.5314 47.027 74.9633 46.4456 74.9633 45.3886V41.7023H73.9063V40.4867H74.9633V38.7427H76.3506V40.4867H77.6454V41.7023H76.3506V45.0451C76.3506 45.4811 76.562 45.7982 76.9584 45.7982C77.2226 45.7982 77.4737 45.6925 77.5794 45.5736L77.9097 46.6174C77.6586 46.8552 77.2491 47.027 76.6016 47.027ZM84.6129 46.8684H83.2256V42.8518C83.2256 41.8608 82.7103 41.557 81.9307 41.557C81.2305 41.557 80.6227 41.9798 80.2924 42.4158V46.8684H78.9051V38.0556H80.2924V41.3588C80.7152 40.8567 81.5476 40.3282 82.5517 40.3282C83.9258 40.3282 84.6129 41.0417 84.6129 42.3497V46.8684ZM93.4304 46.8684H91.977L90.4972 42.1912L89.0174 46.8684H87.564L85.5822 40.4867H87.0223L88.37 45.1243L89.8895 40.4867H91.105L92.6245 45.1243L93.9721 40.4867H95.4123L93.4304 46.8684ZM101.661 46.8684H100.273V46.1814C99.7976 46.7231 99.0577 47.027 98.2121 47.027C97.1683 47.027 95.9924 46.3267 95.9924 44.9129C95.9924 43.4464 97.1683 42.8386 98.2121 42.8386C99.071 42.8386 99.8109 43.116 100.273 43.6578V42.7064C100.273 41.9665 99.6655 41.5173 98.7803 41.5173C98.0668 41.5173 97.4458 41.7816 96.8909 42.3233L96.3227 41.3588C97.0626 40.6585 97.9875 40.3282 99.0049 40.3282C100.419 40.3282 101.661 40.9228 101.661 42.6404V46.8684ZM100.273 45.415V44.4505C99.9562 44.0145 99.3616 43.7899 98.7539 43.7899C97.9743 43.7899 97.393 44.2391 97.393 44.9394C97.393 45.6264 97.9743 46.0757 98.7539 46.0757C99.3616 46.0757 99.9562 45.851 100.273 45.415ZM103.182 49.3656L103.393 48.1236C103.539 48.1897 103.763 48.2293 103.922 48.2293C104.358 48.2293 104.648 48.0972 104.833 47.6744L105.15 46.9477L102.534 40.4867H104.014L105.877 45.2697L107.74 40.4867H109.233L106.155 48.0179C105.719 49.1013 104.952 49.4449 103.961 49.4581C103.763 49.4581 103.38 49.4184 103.182 49.3656Z" fill="white"/>
<mask id="mask0_2_1809" style="mask-type:alpha" maskUnits="userSpaceOnUse" x="10" y="15" width="43" height="38">
<path d="M51.5832 16.1575L51.8973 16.3133L52.064 16.4172L52.133 16.4739L52.2625 16.5925L52.3199 16.6631L52.4316 16.8127L52.4882 16.905L52.558 17.0601L52.5952 17.1873L52.6099 17.2594L52.6549 17.5696L52.6588 17.7386L52.6541 18.0806L52.6332 18.2396L52.6084 18.3954L52.5913 18.466L52.5533 18.6025L52.5301 18.6599L52.3959 18.9763L52.2982 19.2019L52.2494 19.312L52.1516 19.5307L52.1074 19.6277L52.0214 19.8122L51.9872 19.8828L51.9105 20.0604L51.8926 20.11L51.8872 20.1294L51.8787 20.1627V20.1713L51.8639 20.2286L51.8407 20.2938L51.8236 20.3372L51.7422 20.5326L51.691 20.6458L51.6049 20.8382L51.5414 20.9839L51.5096 21.0592L51.446 21.2096L51.4165 21.2802L51.3607 21.4174L51.3374 21.4756L51.1761 21.8695L51.1187 22.0052L51.0924 22.0665L51.0412 22.1836L51.0195 22.2301L50.8892 22.5263L50.8489 22.6217L50.8318 22.6628L50.8008 22.7404L50.7899 22.7683L50.7643 22.8326L50.738 22.8978L50.7209 22.9397L50.6837 23.0296L50.662 23.0823L50.6155 23.194L50.5899 23.256L50.479 23.522L50.4154 23.6732L50.2851 23.9834L50.2169 24.1447L50.1075 24.4045L50.0276 24.5929L49.9858 24.6922L49.8136 25.104L49.7252 25.3157L49.5484 25.7391L49.4662 25.9376L49.3848 26.133L49.3468 26.2245L49.2731 26.4021L49.2406 26.482L49.0451 26.955L48.9211 27.2536L48.8676 27.3831L48.8148 27.5095L48.7916 27.5661L48.7466 27.6739L48.7272 27.7196L48.6915 27.8049L48.6776 27.8383L48.652 27.898L48.6442 27.9166L48.5442 28.1539L48.5132 28.2291L48.5 28.2617L48.4752 28.3214L48.4666 28.3431L48.4294 28.4323L48.3953 28.5129L48.3751 28.5602L48.2867 28.7649L48.2418 28.8657L48.127 29.1364L48.0998 29.2039L48.0921 29.2271L48.0789 29.2659V29.2705L48.0603 29.3256L48.0316 29.3969L48.0107 29.4466L47.9641 29.5536L47.9362 29.6164L47.8781 29.7467L47.8463 29.8165L47.7563 30.0181L47.7028 30.1414L47.6819 30.1926L47.6439 30.2879L47.6322 30.3213L47.6136 30.3764V30.3849L47.5989 30.4384L47.5756 30.4997L47.5593 30.54L47.4787 30.723L47.4275 30.8284L47.2631 31.1797L47.2104 31.2961L47.1871 31.348L47.1445 31.4465L47.129 31.4837L46.9142 32.0002L46.7816 32.3181L46.7172 32.4701L46.4675 33.0664L46.3341 33.3836L46.2829 33.503L46.2403 33.6015L46.2162 33.6558L46.117 33.883L46.072 33.9838L45.9557 34.2544L45.9286 34.3219L45.9208 34.3452L45.9076 34.3839V34.3886L45.889 34.4437L45.8603 34.515L45.8394 34.5646L45.7928 34.6716L45.7649 34.7345L45.7068 34.8647L45.675 34.9345L45.585 35.1346L45.5315 35.254L45.5106 35.3036L45.4726 35.3936L45.4609 35.4238L45.4423 35.4727V35.4773L45.4307 35.5115L45.4121 35.5603L45.3974 35.596L45.3648 35.6759L45.3446 35.7263L45.3004 35.8333L45.2748 35.8953L45.2206 36.0256L45.1895 36.0977L45.1267 36.2474L45.0926 36.3288L44.9491 36.6677L44.8708 36.8515L44.6134 37.4579L44.428 37.8968L44.3358 38.117L44.1535 38.5521L44.0705 38.7498L43.9907 38.9429L43.9534 39.0321L43.8829 39.2027L43.8519 39.2771L43.5564 39.9944L43.3773 40.4279L43.2966 40.6233L43.1408 40.9979L43.0717 41.1638L42.9399 41.4818L42.8825 41.619L42.7732 41.8803L42.7267 41.9897L42.6398 42.1944L42.6049 42.2766L42.5406 42.4278L42.5157 42.4829L42.4731 42.5798L42.4591 42.6085L42.394 42.7884L42.3839 42.838L42.3831 42.8574L42.3839 42.8908L42.3893 42.8993L42.3917 42.9427L42.3676 42.9606H42.3451L42.287 42.9916L42.2629 43.0366V43.0653L42.2544 43.1234L42.2412 43.1754L42.2311 43.2048L42.1846 43.3328L42.1551 43.3948L42.045 43.6337L41.9636 43.8167L41.9318 43.8911L41.8737 44.0253L41.8271 44.1331L41.8015 44.1905L41.6969 44.4293L41.6519 44.5301L41.5356 44.8015L41.5084 44.8698L41.5007 44.893L41.4875 44.9326V44.938L41.4712 44.9969L41.4572 45.0342L41.4464 45.0605L41.4223 45.1179L41.4061 45.1559L41.3712 45.2389L41.3479 45.2908L41.2983 45.4033L41.268 45.4723L41.2029 45.6189L41.1633 45.7073L41.0804 45.8941L41.0315 46.0035L40.9152 46.2741L40.888 46.3416L40.8803 46.3649L40.8671 46.4036V46.4083L40.8485 46.4633L40.8198 46.5347L40.7989 46.5843L40.7523 46.6913L40.7244 46.7541L40.6663 46.8844L40.6345 46.9542L40.5445 47.1543L40.491 47.2745L40.4701 47.3241L40.4321 47.4148L40.4204 47.4451L40.4018 47.4947V47.5001L40.3886 47.5436L40.3685 47.5978L40.3538 47.6343L40.2832 47.8041L40.2374 47.9049L40.0901 48.2384L40.042 48.3493L40.0211 48.3973L39.9808 48.4896L39.966 48.5245L39.8753 48.7385L39.8202 48.8665L39.7954 48.9247L39.7 49.1449L39.6566 49.2434L39.5721 49.4349L39.5279 49.5326L39.4372 49.7319L39.3852 49.8459L39.2983 50.0413L39.2472 50.1615L39.227 50.2127L39.1898 50.3073L39.1789 50.3414L39.1611 50.398V50.4081L39.144 50.4616L39.1192 50.4849L39.1029 50.4864L39.0595 50.5167L39.0138 50.5624L38.9843 50.5958L38.923 50.6687L38.8881 50.7129L38.8176 50.8044L38.7811 50.8548L38.4391 51.2464L38.1677 51.4845L38.0072 51.593L37.6699 51.8055L37.4745 51.9032L37.065 52.094L36.83 52.1831L36.7331 52.2188L36.6742 52.2336L36.6129 52.2483L36.5757 52.2545L36.4958 52.2669L36.447 52.2723L36.3423 52.2824L36.2779 52.2871L36.1399 52.2964L36.0561 52.3002L35.8778 52.3072L35.77 52.3103L35.5428 52.3165L35.4086 52.3189L35.1256 52.3235L34.9604 52.3258L34.613 52.3297L34.4129 52.3313L33.995 52.3336L33.7561 52.3351L33.5118 52.3359L33.3823 52.3367L33.1171 52.3375L32.9768 52.3382L32.6898 52.339H32.5379L32.2285 52.3398H32.0641L31.7306 52.3406H31.5546L31.1963 52.3413H31.0071H30.6225H30.4208L30.0098 52.3421H29.7935H29.3546H29.1243H28.6567L28.4124 52.3429H27.3655H26.7087L26.4008 52.3421L25.7975 52.3413H25.516L24.9655 52.3398L24.7096 52.339L24.2094 52.3375L23.9783 52.3367L23.5278 52.3351L23.3207 52.3336L22.919 52.3313L22.7352 52.3297L22.3801 52.3266L22.2196 52.3251L21.9101 52.322L21.7713 52.3196L21.5054 52.3158L21.3883 52.3142L21.1657 52.3096L21.0695 52.3072L20.8873 52.3018L20.8113 52.2995L20.6694 52.2933L20.6128 52.2902L20.5089 52.284L20.4717 52.2809L20.405 52.2739L20.3848 52.2708L20.3546 52.263L20.3522 52.2591V52.2297L20.3646 52.2002L20.3763 52.18L20.4375 52.0893L20.4872 52.0288L20.5981 51.8993L20.6694 51.8233L20.8206 51.6651L20.909 51.5798L21.2789 51.2084L21.5046 50.9696L21.6085 50.8509L21.8124 50.6128L21.9078 50.4911L22.097 50.2445L22.1885 50.1142L22.37 49.849L22.4607 49.7055L22.6414 49.4109L22.7345 49.2488L22.9229 48.9146L23.0214 48.7292L23.2238 48.3454L23.3323 48.1314L23.5185 47.7638L23.6278 47.5451L23.6774 47.4458L23.772 47.2535L23.8147 47.1644L23.8984 46.9899L23.938 46.9061L24.0876 46.5789L24.1621 46.4083L24.2373 46.2353L24.2761 46.1431L24.3567 45.9531L24.4002 45.8492L24.6088 45.3521L24.7623 44.9931L24.8445 44.8023L24.9701 44.5115L25.0608 44.3006L25.0957 44.2207L25.2136 43.947L25.2532 43.8531L25.2718 43.8105L25.3067 43.729L25.3199 43.6973L25.3741 43.5716L25.4214 43.4631L25.4494 43.401L25.5649 43.1397L25.6207 43.0164L25.7634 42.6713L25.7968 42.5783L25.8068 42.5434L25.8231 42.4837V42.4697L25.8425 42.3782L25.8704 42.3177L25.8883 42.2975L25.9216 42.2471L25.9495 42.1967L25.965 42.1657L26.0286 42.0269L26.0573 41.9525L26.1108 41.8168L26.1558 41.7066L26.1806 41.6469L26.2845 41.4003L26.3311 41.2933L26.4202 41.0878L26.4947 40.9126L26.5366 40.8141L26.711 40.4L26.7909 40.2077L27.0383 39.6183L27.115 39.4384L27.1468 39.364L27.2066 39.2259L27.2267 39.181L27.3306 38.9382L27.3547 38.8762L27.3624 38.8553L27.3741 38.8204V38.8149L27.3888 38.7684L27.4121 38.7087L27.4283 38.6684L27.4656 38.5807L27.4873 38.5303L27.5338 38.4249L27.5594 38.3683L27.6044 38.2675L27.64 38.186L27.6602 38.1387L27.7478 37.9348L27.7975 37.8169L28.0084 37.3121L28.1084 37.067L28.2705 36.6731L28.3977 36.3645L28.4682 36.1947L28.7645 35.4812L28.9149 35.1237L29.063 34.7694L29.1328 34.6042L29.2677 34.2824L29.3274 34.1428L29.3848 34.0063L29.4112 33.945L29.4608 33.8272L29.4833 33.7752L29.5244 33.6783L29.5422 33.6387L29.574 33.5651L29.5857 33.5387L29.6384 33.4146L29.6826 33.3092L29.7074 33.2494L29.8098 32.9982L29.8555 32.8811L29.9354 32.6834L29.9967 32.536L30.0285 32.46L30.0936 32.3088L30.1246 32.2382L30.1843 32.1018L30.2107 32.0451L30.2836 31.8823L30.3262 31.7846L30.3433 31.7443L30.3743 31.669L30.3836 31.6435L30.3984 31.6024V31.5969L30.4146 31.5388L30.4294 31.5015L30.4402 31.4752L30.4643 31.417L30.4806 31.379L30.5162 31.2968L30.5395 31.2441L30.5883 31.1324L30.6194 31.0634L30.6837 30.9168L30.7233 30.8292L30.8055 30.6439L30.8543 30.5345L30.9706 30.2639L30.9978 30.1964L31.0055 30.1732L31.0187 30.1344V30.1298L31.0358 30.0762L31.0629 30.0072L31.0831 29.9599L31.1265 29.8568L31.1529 29.7971L31.2079 29.6722L31.2374 29.6055L31.3855 29.2721L31.4941 29.0201L31.5585 28.8673L31.6251 28.7099L31.6616 28.623L31.7376 28.4423L31.7795 28.3423L31.8663 28.1337L31.9144 28.0182L32.0136 27.7786L32.0687 27.6452L32.1245 27.5118L32.1749 27.3916L32.2052 27.321L32.3339 27.0194L32.3975 26.8697L32.4526 26.741L32.496 26.6394L32.52 26.5828L32.6232 26.3385L32.6813 26.2013L32.924 25.6243L33.0357 25.3576L33.2017 24.9613L33.304 24.7186L33.3505 24.6069L33.4413 24.3898L33.4832 24.2897L33.5638 24.0974L33.601 24.0098L33.6724 23.84L33.7042 23.7632L33.767 23.6143L33.7949 23.5476L33.8996 23.3003L33.9407 23.2025L34.0167 23.0226L34.0461 22.9544L34.0989 22.8295L34.119 22.7846L34.1547 22.7031L34.1679 22.6745L34.1911 22.6233L34.1997 22.6047L34.2214 22.5566L34.2423 22.5093L34.2555 22.4783L34.3152 22.3364L34.3548 22.2425L34.4377 22.0409L34.4858 21.9238L34.5859 21.6795L34.6394 21.5485L34.8611 21.001L34.9682 20.7327L35.0744 20.4675L35.1225 20.3457L35.2163 20.1084L35.2559 20.0069L35.4133 19.6052L35.4575 19.492L35.4753 19.4478L35.5056 19.3687L35.5141 19.3477L35.5645 19.2322L35.6203 19.1104L35.656 19.0329L35.7328 18.8693L35.7754 18.7778L35.8646 18.5909L35.9111 18.4947L36.1841 18.0069L36.3997 17.6929L36.5222 17.544L36.7773 17.2509L36.9177 17.1144L37.2069 16.8484L37.3628 16.7274L37.4644 16.6584L37.5528 16.6057L37.6047 16.577L37.8335 16.4583L37.9622 16.3971L38.2267 16.2769L38.3531 16.2257L38.4779 16.1761L38.5361 16.1551L38.647 16.1156L38.6958 16.1009L38.7524 16.0908L38.8137 16.0838L38.8556 16.0807L38.9471 16.0745L39.0044 16.0722L39.127 16.066L39.1999 16.0629L39.3526 16.0574L39.4403 16.0551L39.624 16.0497L39.7272 16.0473L39.9404 16.0419L40.0591 16.0396L40.3026 16.0349L40.4359 16.0334L40.7105 16.0287L40.8586 16.0264L41.1626 16.0225L41.3262 16.021L41.6604 16.0171L41.8388 16.0156L42.2024 16.0117L42.3955 16.0101L42.7895 16.007L42.9973 16.0055L43.4215 16.0031L43.644 16.0016L44.0969 15.9993L44.335 15.9985L44.8173 15.9962L45.0693 15.9954L51.1722 15.9729M21.054 29.5644H21.4627H21.6597L22.0474 29.5652H22.232L22.5964 29.566H22.7686L23.1067 29.5675H23.2656L23.5751 29.5691L23.7185 29.5699L23.9977 29.5714L24.1256 29.5722L24.3715 29.5737L24.4816 29.5745L24.6917 29.5761L24.7832 29.5776L24.9554 29.5792L25.0267 29.5807L25.1593 29.5831L25.2097 29.5838L25.2997 29.5869L25.3276 29.5877L25.3726 29.5908L25.3772 29.5924L25.4788 29.6513L25.506 29.7164L25.499 29.7723L25.4881 29.832L25.4773 29.8692L25.4517 29.9491L25.4331 29.9971L25.392 30.1011L25.3656 30.1623L25.309 30.2934L25.2741 30.3701L25.0585 30.8595L24.9872 31.0239L24.9562 31.0975L24.8972 31.2363L24.8747 31.2898L24.7336 31.6318L24.6878 31.7419L24.6685 31.7892L24.6312 31.8784L24.6181 31.9102L24.5832 31.994L24.5459 32.0839L24.5211 32.1444L24.4668 32.2747L24.4343 32.3522L24.3668 32.5166L24.328 32.6097L24.2482 32.8028L24.204 32.9082L24.1148 33.1246L24.0675 33.2394L23.8705 33.7147L23.7666 33.9652L23.4618 34.7003L23.3649 34.9322L23.3192 35.0423L23.23 35.2563L23.1889 35.3548L23.109 35.5448L23.0733 35.6293L23.0059 35.7899L22.978 35.8573L22.9252 35.9822L22.9051 36.0295L22.8694 36.1125L22.8585 36.1365L22.7158 36.463L22.667 36.5739L22.6453 36.6243L22.6034 36.7196L22.5879 36.7569L22.4747 37.0166L22.3971 37.1965L22.3692 37.2609L22.3165 37.385L22.2731 37.4904L22.249 37.5502L22.1467 37.8014L22.1009 37.9185L22.021 38.1162L21.9598 38.2636L21.928 38.3396L21.8628 38.4908L21.8318 38.5614L21.7721 38.6978L21.7457 38.7545L21.6729 38.9165L21.6302 39.0142L21.6131 39.0546L21.5821 39.129L21.5728 39.1538L21.5581 39.1949V39.1996L21.5433 39.2453L21.5201 39.3043L21.503 39.3446L21.4658 39.4314L21.4433 39.4826L21.396 39.5881L21.3704 39.6447L21.2843 39.8378L21.2208 39.9836L21.1882 40.0596L21.1246 40.2115L21.0951 40.2829L21.0385 40.4217L21.0153 40.4806L20.8625 40.8606L20.8113 40.9839L20.7888 41.0382L20.7462 41.1398L20.7299 41.177L20.6267 41.4143L20.5942 41.4895L20.5794 41.5221L20.5539 41.5826L20.5445 41.6035L20.5236 41.6524L20.5027 41.7004L20.4895 41.7307L20.4298 41.8726L20.391 41.9633L20.3088 42.158L20.2623 42.2681L20.1669 42.4945L20.1173 42.6116L19.8257 43.2723L19.6419 43.6585L19.5527 43.826L19.3767 44.1439L19.2906 44.2804L19.1185 44.5371L19.0324 44.6449L18.8595 44.8457L18.7711 44.9279L18.5919 45.0799L18.4989 45.1388L18.3104 45.2474L18.2104 45.287L18.0057 45.3568L17.8963 45.38L17.6598 45.4219L17.5381 45.4289L17.4799 45.4196L17.3644 45.3924L17.293 45.3637L17.2194 45.3327L17.1759 45.3125L17.086 45.2699L17.0333 45.2435L16.7603 45.0923L16.5951 44.9775L16.5168 44.907L16.3625 44.7558L16.2842 44.6596L16.1283 44.4533L16.0453 44.3231L15.9616 44.1881L15.9181 44.1121L15.829 43.9563L15.7824 43.8694L15.6871 43.6887L15.6359 43.5895L15.5327 43.3832L15.4777 43.27L15.3645 43.0358L15.304 42.9071L15.1799 42.6426L15.1132 42.4984L14.9767 42.2006L14.9038 42.0385L14.7534 41.7059L14.6727 41.526L14.4486 41.0281L14.3191 40.7389L14.261 40.6101L14.1493 40.362L14.0974 40.2472L13.995 40.0216L13.9446 39.9114L13.8446 39.6912L13.7926 39.5772L13.6856 39.3446L13.6274 39.2182L13.5064 38.9561L13.4382 38.808L13.2955 38.4986L13.2133 38.3202L13.111 38.0969L13.0513 37.9627L13.028 37.9084L12.9846 37.8076L12.9714 37.775L12.9504 37.7215V37.7161L12.9427 37.6928L12.9295 37.6611L12.9202 37.6386L12.8713 37.5292L12.8364 37.4525L12.7597 37.2842L12.7132 37.1849L12.6162 36.9779L12.5627 36.8654L12.4123 36.5467L12.3239 36.3583L12.289 36.2815L12.2254 36.1427L12.2052 36.0977L12.1882 36.0582L12.1827 36.045L12.175 36.0248V36.0233L12.1502 35.9589L12.1106 35.8674L12.0827 35.803L12.0199 35.6627L11.9819 35.5789L11.9028 35.4052L11.8594 35.3106L11.6011 34.7461L11.5251 34.5794L11.4949 34.5127L11.4398 34.3902L11.4228 34.3529L11.3491 34.1916L11.2793 34.0412L11.2374 33.9528L11.056 33.5666L10.9629 33.3712L10.8311 33.0889L10.7543 32.9168L10.7233 32.8447L10.6683 32.7113L10.6504 32.6647L10.6241 32.588V32.5763L10.6016 32.5166L10.5682 32.4918H10.5465L10.4914 32.4461L10.469 32.3794V32.3367L10.4465 32.2274L10.4131 32.1816H10.3914L10.3364 32.1909L10.3139 32.2049V32.2057L10.2984 32.1661L10.2697 32.0855L10.2797 32.0731L10.2844 32.0514L10.2945 32.0002L10.3007 31.9591L10.2945 31.8055L10.2658 31.7148L10.2425 31.6915L10.1836 31.6667L10.165 31.6892L10.1502 31.5876L10.1324 31.2511L10.1309 31.1658L10.1347 31.0107L10.1386 30.9355L10.1526 30.7982L10.1696 30.6648L10.1929 30.5881L10.1975 30.6144L10.2076 30.6237L10.2542 30.6253L10.2844 30.5935L10.2945 30.5648L10.341 30.4717L10.386 30.4035L10.4147 30.367L10.5434 30.2174L10.6241 30.1422L10.7931 29.9933L10.8831 29.9281L11.0645 29.8064L11.1506 29.7637L11.5158 29.5838L18.3787 29.5675L19.7598 29.5652L20.6407 29.5644M10.5201 32.7012L10.5581 32.788L10.638 32.9687L10.683 33.0711L10.776 33.282L10.8272 33.3968L10.9327 33.6325L10.9885 33.7589L11.1033 34.0148L11.163 34.1498L11.4111 34.7027L11.5414 34.9927L11.8059 35.5789L11.9392 35.8728L12.2044 36.4575L12.3316 36.7375L12.5813 37.285L12.6945 37.5323L12.617 37.3633L12.4371 36.9693L12.3433 36.7646L12.1409 36.3187L11.9346 35.8651L11.5042 34.9097L11.398 34.6747L11.1971 34.2265L11.0986 34.0078L10.9211 33.6093L10.8784 33.5139L10.7993 33.3371L10.7613 33.251L10.6923 33.0959L10.6597 33.0207L10.6016 32.8896L10.5294 32.7245L10.4868 32.626L10.4798 32.6089M10.3441 30.2321L10.2991 30.3066L10.265 30.3694L10.2797 30.3306L10.4046 30.1391L10.4581 30.0817M10.6644 29.8638L10.6016 29.9305L10.6613 29.8669L10.7311 29.8056M10.8148 29.7366L10.852 29.7064L10.8528 29.7056M10.9063 29.666L10.9149 29.6598L10.9063 29.666ZM12.5394 29.4225L12.5782 29.421H12.579M17.5668 29.39H17.3574H16.9441H16.7479H16.3625L16.1802 29.3907H15.822H15.6522L15.3195 29.3915L15.1621 29.3923L14.8542 29.3931L14.7092 29.3938L14.4246 29.3954L14.2904 29.3962L14.0283 29.3977L13.9058 29.3985L13.6654 29.4008L13.553 29.4024L13.1226 29.4078L12.9357 29.4125L12.7744 29.4163L12.9334 29.4125L13.1203 29.4086L13.5507 29.4024L13.6631 29.4008L13.9035 29.3985L14.026 29.3977L14.2881 29.3962L14.4223 29.3954L14.7069 29.3938L14.8519 29.3931L15.1605 29.3923L15.3172 29.3915L15.6506 29.3907H15.8197H16.1787L16.3617 29.39H16.7471H16.9433H17.3558H17.5668Z" fill="#3F3F3F"/>
<path d="M19.8829 52.409L19.8744 52.395L19.8821 52.3555L19.8891 52.333L19.9256 52.2795L19.9473 52.2516L20.0101 52.188L20.1303 52.0856L20.2117 52.0236L20.3846 51.8755L20.473 51.7987L20.6576 51.6242L20.8437 51.4451L21.2283 51.031L21.4191 50.8185L21.7836 50.3703L22.2659 49.7073L22.3753 49.5437L22.5831 49.2118L22.6862 49.0443L22.8886 48.693L22.9902 48.5139L23.1941 48.1284L23.2973 47.9299L23.5105 47.4941L23.6191 47.2692L23.8486 46.7683L23.9076 46.6388L24.0293 46.3643L24.0914 46.2239L24.2201 45.9285L24.2852 45.7772L24.4209 45.4585L24.4899 45.2957L24.6342 44.9506L24.7078 44.7753L24.8614 44.4039L25.1033 43.8138L25.1778 43.6323L25.336 43.2554L25.3732 43.167L25.4391 43.0127L25.5167 42.8382L25.536 42.7948L25.5849 42.6824L25.6105 42.6234L25.6655 42.4932L25.823 42.1078L25.8679 41.9938L25.9812 41.7208L26.0099 41.6541L26.0634 41.5293L26.1331 41.3711L26.1533 41.3269L26.2029 41.2129L26.2293 41.1532L26.2851 41.0213L26.4433 40.6344L26.4883 40.5204L26.6015 40.2474L26.6302 40.1807L26.6837 40.0559L26.7535 39.8977L26.7737 39.8535L26.8233 39.7395L26.8497 39.6798L26.9055 39.5479L27.0637 39.161L27.1087 39.047L27.2211 38.7756L27.249 38.7097L27.3018 38.5864L27.37 38.4305L27.3902 38.3871L27.4476 38.256L27.4786 38.1847L27.5515 38.0133L27.7849 37.455L27.8648 37.2588L28.033 36.8524L28.078 36.7447L28.178 36.5043L28.23 36.3794L28.3502 36.0933L28.413 35.9428L28.5588 35.5954L28.5968 35.5039L28.6798 35.3069L28.7224 35.2054L28.8139 34.9875L28.8612 34.8758L28.962 34.6346L29.014 34.5113L29.1264 34.2453L29.183 34.1089L29.3063 33.8165L29.5049 33.345L29.6196 33.0728L29.8523 32.5192L29.9678 32.2454L30.1834 31.7321L30.2353 31.6088L30.3315 31.3808L30.378 31.2707L30.461 31.0729L30.5006 30.9791L30.568 30.8193L30.6471 30.6309L30.6898 30.5293L30.7921 30.2866L30.8449 30.161L30.9573 29.8942L31.0131 29.7608L31.1225 29.5018L31.2675 29.1575L31.3101 29.0559L31.4094 28.8194L31.4606 28.6977L31.566 28.4433L31.6188 28.3169L31.7188 28.0757L31.8483 27.7617L31.9228 27.5802L32.0817 27.2034L32.1197 27.115L32.1856 26.9606L32.2632 26.7862L32.2826 26.7427L32.3314 26.6303L32.357 26.5714L32.4121 26.4411L32.5695 26.0557L32.6145 25.9417L32.7277 25.6687L32.7564 25.602L32.8099 25.4772L32.8797 25.319L32.8998 25.2748L32.9495 25.1608L32.9758 25.1003L33.0317 24.9677L33.1922 24.5761L33.2372 24.4605L33.3403 24.2108L33.3643 24.1519L33.4093 24.0464L33.4644 23.9231L33.4745 23.9007L33.5031 23.8363L33.5187 23.8006L33.5567 23.7138L33.597 23.6223L33.6978 23.3873L33.7505 23.264L33.8676 22.9872L33.9273 22.8468L34.0483 22.5583L34.1088 22.4156L34.222 22.1442L34.2763 22.014L34.3686 21.7906L34.3895 21.7387L34.426 21.6495L34.443 21.6076L34.4702 21.5401L34.4826 21.5099L34.4981 21.468L34.5082 21.4386V21.4339L34.5229 21.3944L34.5322 21.3695L34.5624 21.2967L34.5795 21.2563L34.6214 21.1594L34.6927 20.9981L34.7059 20.9702L34.7385 20.8957L34.7555 20.8562L34.7966 20.7624L34.8393 20.6647L34.9416 20.4243L35.2797 19.6193L35.3604 19.4239L35.5038 19.0866L35.5721 18.9253L35.6946 18.65L35.7543 18.5182L35.8637 18.2933L35.9164 18.1855L36.018 18.0002L36.0676 17.9118L36.1676 17.7551L36.2173 17.6791L36.3212 17.5403L36.6794 17.1402L36.8113 17.0076L37.1129 16.7594L37.2688 16.6392L37.603 16.426L37.7713 16.3252L38.1156 16.1608L38.6181 15.9832L38.6344 15.9785L38.684 15.9708L38.7119 15.9669L38.7864 15.9599L38.8267 15.956L38.9275 15.9498L38.9818 15.9467L39.1097 15.9413L39.1772 15.9382L39.3346 15.9335L39.4168 15.9312L39.6045 15.9266L39.7022 15.925L39.9217 15.9211L40.0357 15.9196L40.2877 15.9165L40.4187 15.9149L40.7057 15.9126L40.8538 15.9118L41.1771 15.9103L41.3431 15.9095L41.7044 15.9087L41.889 15.908H42.2892H42.4939H42.9336H43.1584L43.64 15.9087L43.8866 15.9095L44.4108 15.9111L45.2483 15.9134L51.5296 15.9359L51.8995 16.1181L52.0065 16.1708L52.2003 16.3159L52.2934 16.3949L52.457 16.588L52.5338 16.6896L52.661 16.923L52.8067 17.3131L52.8362 17.4217L52.8548 17.6745L52.8572 17.8055L52.823 18.0948L52.7998 18.2429L52.7152 18.5554L52.533 19.0377L52.5214 19.0641L52.4865 19.1447L52.4671 19.1889L52.419 19.3014L52.3934 19.3611L52.3337 19.4999L52.3035 19.572L52.2352 19.7333L52.1647 19.8985L52.0072 20.2723L51.7614 20.8601L51.6785 21.057L51.5055 21.4719L51.4187 21.679L51.2527 22.0783L51.2116 22.1753L51.1356 22.3575L51.0984 22.4459L51.0309 22.6087L50.9984 22.6863L50.941 22.8228L50.8704 22.9926L50.8503 23.0407L50.8014 23.157L50.7758 23.219L50.7177 23.3586L50.6572 23.5028L50.516 23.8386L50.4439 24.0108L50.2935 24.3706L50.074 24.8925L49.974 25.1313L49.7824 25.5865L49.6886 25.8106L49.5095 26.2379L49.4211 26.4473L49.2536 26.8466L49.1714 27.0428L49.0147 27.4143L48.9387 27.5973L48.7937 27.9431L48.7224 28.1122L48.5882 28.4325L48.5223 28.5891L48.3982 28.8838L48.3378 29.0288L48.2238 29.2994L48.1687 29.432L48.0648 29.6794L48.0144 29.8004L47.9198 30.0253L47.874 30.1354L47.7887 30.3386L47.7476 30.437L47.6716 30.6193L47.6344 30.7077L47.5669 30.869L47.5344 30.9473L47.4747 31.0892L47.3266 31.4451L47.273 31.5731L47.1474 31.867L47.1172 31.9376L47.0606 32.0671L46.9892 32.2268L46.9698 32.2702L46.921 32.3827L46.8954 32.4424L46.8396 32.5734L46.6806 32.9635L46.6356 33.079L46.5325 33.3287L46.5084 33.3877L46.4635 33.4931L46.4084 33.6164L46.3983 33.6389L46.3696 33.7033L46.3541 33.739L46.3161 33.8258L46.2758 33.9173L46.175 34.1523L46.1223 34.2756L46.0052 34.5524L45.9455 34.6928L45.8245 34.9812L45.764 35.1239L45.6508 35.3953L45.5965 35.5256L45.5042 35.749L45.4833 35.8009L45.4468 35.8901L45.4298 35.932L45.4026 35.9994L45.3902 36.0297L45.3747 36.0716L45.3646 36.101V36.1057L45.3499 36.146L45.3406 36.17L45.3096 36.2437L45.2925 36.284L45.2499 36.381L45.177 36.543L45.1506 36.5996L45.0909 36.7353L45.0599 36.8059L44.9955 36.9564L44.9637 37.0316L44.9025 37.1774L44.8234 37.3728L44.7784 37.4875L44.6652 37.7613L44.6372 37.828L44.5845 37.952L44.5171 38.1079L44.4984 38.149L44.4612 38.232L44.4418 38.277L44.3922 38.3925L44.3782 38.4243L44.3449 38.5019L44.3278 38.5422L44.2867 38.6391L44.265 38.6903L44.2138 38.812L44.1867 38.8756L44.1231 39.0253L44.0905 39.1044L44.013 39.2874L43.9735 39.3828L43.8804 39.603L43.8323 39.7178L43.723 39.9799L43.6656 40.1156L43.5369 40.4234L43.4694 40.5832L43.3197 40.9407L43.2422 41.126L43.0693 41.5378L42.9793 41.751L42.7823 42.2225L42.4566 42.9995L42.3302 43.3004L42.0953 43.8603L41.9805 44.1348L41.7626 44.6551L41.547 45.1677L41.1376 46.1417L41.0352 46.386L40.8258 46.8831L40.7204 47.1343L40.5002 47.657L40.3885 47.9222L40.1512 48.4867L39.7673 49.3971L39.7061 49.5421L39.5898 49.8027L39.5324 49.9283L39.4199 50.154L39.3641 50.2625L39.2532 50.4587L39.1974 50.5541L39.0842 50.7255L38.9686 50.8922L38.7158 51.1745L38.2746 51.5614L38.1412 51.663L37.8675 51.8437L37.7302 51.9305L37.4518 52.0779L37.313 52.1477L37.0354 52.2601L36.6252 52.3857L36.6066 52.3904L36.5244 52.3989L36.4763 52.4036L36.3382 52.4113L36.263 52.416L36.073 52.4237L35.9722 52.4276L35.7357 52.4346L35.6109 52.4377L35.3301 52.4447L35.1844 52.4478L34.8625 52.454L34.6974 52.4571L34.3391 52.4633L34.1561 52.4656L33.766 52.471L33.5667 52.4734L33.148 52.478L32.9355 52.4803L32.4912 52.4842L32.0422 52.4881L31.0845 52.4951L30.599 52.4974L29.5925 52.5021L29.0853 52.5036L28.0602 52.5059L27.5476 52.5067L26.5341 52.5059H26.0308L25.0591 52.5028L24.8203 52.5021L24.3566 52.5005L24.1263 52.499L23.6835 52.4966L23.4648 52.4951L23.046 52.492L22.8405 52.4904L22.4513 52.4866L22.2605 52.4842L21.9038 52.4803L21.7293 52.478L21.409 52.4726L21.2539 52.4703L20.974 52.4641L20.8391 52.4617L20.6033 52.4555L20.4909 52.4517L20.3032 52.4447L20.2148 52.4416L20.0791 52.4338L20.0178 52.4299L19.9372 52.4222L19.9039 52.4175M36.8299 52.1833L37.0648 52.0942L37.4743 51.9034L37.6697 51.8057L38.007 51.5932L38.1676 51.4846L38.439 51.2466L38.781 50.855L38.8174 50.8046L38.888 50.7131L38.9229 50.6689L38.9841 50.596L39.0136 50.5626L39.0593 50.5169L39.1028 50.4866L39.1191 50.4851L39.1439 50.4618L39.1609 50.4083V50.3982L39.1788 50.3416L39.1896 50.3075L39.2268 50.2129L39.247 50.1617L39.2982 50.0415L39.385 49.8461L39.437 49.7321L39.5277 49.5328L39.5719 49.4351L39.6565 49.2436L39.6999 49.1451L39.7953 48.9248L39.8201 48.8667L39.8751 48.7387L39.9659 48.5247L39.9806 48.4898L40.0209 48.3975L40.0419 48.3495L40.0899 48.2386L40.2373 47.9051L40.283 47.8043L40.3536 47.6345L40.3683 47.598L40.3885 47.5437L40.4017 47.5003V47.4949L40.4203 47.4453L40.4319 47.415L40.4699 47.3243L40.4909 47.2747L40.5444 47.1545L40.6343 46.9544L40.6661 46.8846L40.7243 46.7543L40.7522 46.6915L40.7987 46.5845L40.8196 46.5349L40.8483 46.4635L40.8669 46.4085V46.4038L40.8801 46.365L40.8879 46.3418L40.915 46.2743L41.0313 46.0037L41.0802 45.8943L41.1632 45.7075L41.2027 45.6191L41.2679 45.4725L41.2981 45.4035L41.3477 45.291L41.371 45.2391L41.4059 45.1561L41.4222 45.1181L41.4462 45.0607L41.4571 45.0343L41.471 44.9971L41.4873 44.9382V44.9328L41.5005 44.8932L41.5083 44.87L41.5354 44.8017L41.6517 44.5303L41.6967 44.4295L41.8014 44.1906L41.827 44.1333L41.8735 44.0255L41.9317 43.8913L41.9635 43.8169L42.0449 43.6339L42.155 43.395L42.1845 43.333L42.231 43.205L42.2411 43.1756L42.2543 43.1236L42.2628 43.0654V43.0368L42.2868 42.9918L42.345 42.9608H42.3675L42.3915 42.9429L42.3892 42.8995L42.3838 42.891L42.383 42.8576L42.3838 42.8382L42.3938 42.7886L42.459 42.6087L42.4729 42.58L42.5156 42.4831L42.5404 42.428L42.6048 42.2768L42.6397 42.1946L42.7265 41.9899L42.773 41.8805L42.8824 41.6192L42.9398 41.482L43.0716 41.164L43.1406 40.9981L43.2965 40.6235L43.3771 40.4281L43.5563 39.9946L43.8517 39.2773L43.8827 39.2029L43.9533 39.0323L43.9905 38.9431L44.0704 38.75L44.1534 38.5523L44.3356 38.1172L44.4279 37.897L44.6132 37.4581L44.8707 36.8517L44.949 36.6679L45.0924 36.329L45.1266 36.2476L45.1894 36.0979L45.2204 36.0258L45.2747 35.8955L45.3003 35.8335L45.3445 35.7265L45.3646 35.6761L45.3972 35.5962L45.4119 35.5605L45.4305 35.5117L45.4422 35.4775V35.4729L45.4608 35.424L45.4724 35.3938L45.5104 35.3038L45.5314 35.2542L45.5849 35.1348L45.6748 34.9347L45.7066 34.8649L45.7648 34.7347L45.7927 34.6718L45.8392 34.5648L45.8602 34.5152L45.8888 34.4439L45.9075 34.3888V34.3841L45.9206 34.3454L45.9284 34.3221L45.9555 34.2546L46.0719 33.984L46.1168 33.8832L46.2161 33.656L46.2401 33.6017L46.2828 33.5032L46.334 33.3838L46.4673 33.0666L46.717 32.4703L46.7814 32.3183L46.914 32.0004L47.1288 31.4839L47.1443 31.4467L47.187 31.3482L47.2102 31.2962L47.263 31.1799L47.4274 30.8286L47.4785 30.7232L47.5592 30.5402L47.5755 30.4998L47.5987 30.4386L47.6135 30.3851V30.3765L47.6321 30.3215L47.6437 30.2881L47.6817 30.1928L47.7027 30.1416L47.7562 30.0183L47.8461 29.8167L47.8779 29.7469L47.9361 29.6166L47.964 29.5538L48.0105 29.4468L48.0315 29.3971L48.0601 29.3258L48.0788 29.2707V29.2661L48.0919 29.2273L48.0997 29.204L48.1268 29.1366L48.2416 28.8659L48.2866 28.7651L48.375 28.5604L48.3951 28.5131L48.4293 28.4325L48.4665 28.3433L48.475 28.3216L48.4998 28.2619L48.513 28.2293L48.544 28.1541L48.6441 27.9168L48.6518 27.8982L48.6774 27.8385L48.6914 27.8051L48.727 27.7198L48.7464 27.6741L48.7914 27.5663L48.8147 27.5097L48.8674 27.3833L48.9209 27.2538L49.045 26.9552L49.2404 26.4822L49.273 26.4023L49.3466 26.2247L49.3846 26.1332L49.4661 25.9378L49.5483 25.7393L49.7251 25.3159L49.8135 25.1042L49.9856 24.6924L50.0275 24.5931L50.1074 24.4047L50.2167 24.1449L50.2849 23.9836L50.4152 23.6734L50.4788 23.5222L50.5897 23.2562L50.6153 23.1942L50.6618 23.0825L50.6835 23.0298L50.7208 22.9399L50.7378 22.898L50.7642 22.8328L50.7898 22.7685L50.8006 22.7406L50.8316 22.663L50.8487 22.6219L50.889 22.5265L51.0193 22.2303L51.041 22.1838L51.0922 22.0667L51.1186 22.0054L51.176 21.8697L51.3372 21.4758L51.3605 21.4176L51.4163 21.2804L51.4458 21.2098L51.5094 21.0594L51.5412 20.9841L51.6048 20.8384L51.6909 20.646L51.742 20.5328L51.8235 20.3374L51.8405 20.294L51.8638 20.2288L51.8785 20.1715V20.1629L51.8871 20.1296L51.8925 20.1102L51.9103 20.0606L51.9871 19.883L52.0212 19.8124L52.1073 19.6279L52.1515 19.5309L52.2492 19.3122L52.298 19.2021L52.3958 18.9765L52.5299 18.6601L52.5532 18.6027L52.5912 18.4662L52.6082 18.3956L52.633 18.2398L52.654 18.0808L52.6586 17.7388L52.6548 17.5698L52.6098 17.2596L52.595 17.1875L52.5578 17.0603L52.488 16.9052L52.4314 16.8129L52.3198 16.6633L52.2624 16.5927L52.1329 16.474L52.0639 16.4174L51.8971 16.3135L51.5831 16.1577L51.1721 15.9731L45.0692 15.9956L44.8172 15.9964L44.3348 15.9987L44.0968 15.9995L43.6439 16.0018L43.4213 16.0033L42.9971 16.0057L42.7893 16.0072L42.3954 16.0103L42.2023 16.0119L41.8386 16.0157L41.6602 16.0173L41.326 16.0212L41.1624 16.0227L40.8584 16.0266L40.7103 16.0289L40.4358 16.0336L40.3024 16.0351L40.0589 16.0398L39.9403 16.0421L39.727 16.0475L39.6239 16.0499L39.4401 16.0553L39.3525 16.0576L39.1997 16.0631L39.1268 16.0662L39.0043 16.0724L38.9469 16.0747L38.8554 16.0809L38.8135 16.084L38.7523 16.091L38.6957 16.101L38.6468 16.1158L38.5359 16.1553L38.4777 16.1763L38.3529 16.2259L38.2265 16.2771L37.9621 16.3973L37.8333 16.4585L37.6046 16.5772L37.5526 16.6059L37.4642 16.6586L37.3626 16.7276L37.2068 16.8486L36.9175 17.1146L36.7772 17.2511L36.522 17.5442L36.3995 17.6931L36.1839 18.0071L35.911 18.4949L35.8644 18.5911L35.7753 18.7779L35.7326 18.8695L35.6558 19.0331L35.6202 19.1106L35.5643 19.2324L35.5139 19.3479L35.5054 19.3689L35.4752 19.4479L35.4573 19.4921L35.4131 19.6054L35.2557 20.0071L35.2161 20.1086L35.1223 20.3459L35.0742 20.4677L34.968 20.7329L34.861 21.0012L34.6392 21.5487L34.5857 21.6797L34.4857 21.924L34.4376 22.0411L34.3546 22.2427L34.3151 22.3365L34.2554 22.4785L34.2422 22.5095L34.2212 22.5568L34.1995 22.6049L34.191 22.6235L34.1677 22.6746L34.1545 22.7033L34.1189 22.7848L34.0987 22.8297L34.046 22.9546L34.0165 23.0228L33.9405 23.2027L33.8994 23.3004L33.7947 23.5478L33.7668 23.6145L33.704 23.7634L33.6722 23.8402L33.6009 24.01L33.5636 24.0976L33.483 24.2899L33.4411 24.39L33.3504 24.6071L33.3039 24.7188L33.2015 24.9615L33.0355 25.3578L32.9239 25.6245L32.6812 26.2015L32.623 26.3387L32.5199 26.583L32.4958 26.6396L32.4524 26.7412L32.3973 26.8699L32.3337 27.0196L32.205 27.322L32.1748 27.3918L32.1244 27.512L32.0685 27.6454L32.0135 27.7787L31.9142 28.0184L31.8661 28.1339L31.7793 28.3425L31.7374 28.4425L31.6614 28.6232L31.625 28.7101L31.5583 28.8675L31.4939 29.0203L31.3854 29.2723L31.2372 29.6057L31.2078 29.6724L31.1527 29.7973L31.1264 29.857L31.0829 29.9601L31.0628 30.0074L31.0356 30.0764L31.0186 30.13V30.1346L31.0054 30.1734L30.9976 30.1966L30.9705 30.2641L30.8542 30.5347L30.8053 30.6441L30.7231 30.8294L30.6836 30.917L30.6192 31.0636L30.5882 31.1326L30.5393 31.2443L30.5161 31.297L30.4804 31.3792L30.4641 31.4172L30.4401 31.4754L30.4292 31.5017L30.4145 31.539L30.3982 31.5971V31.6026L30.3835 31.6437L30.3742 31.6692L30.3431 31.7445L30.3261 31.7848L30.2834 31.8825L30.2105 32.0453L30.1842 32.102L30.1245 32.2384L30.0934 32.309L30.0283 32.4602L29.9965 32.5362L29.9352 32.6836L29.8554 32.8813L29.8096 32.9984L29.7073 33.2496L29.6824 33.3094L29.6382 33.4148L29.5855 33.5389L29.5739 33.5653L29.5421 33.6389L29.5243 33.6785L29.4832 33.7754L29.4607 33.8274L29.411 33.9452L29.3847 34.0065L29.3273 34.143L29.2676 34.2826L29.1326 34.6044L29.0628 34.7695L28.9147 35.1239L28.7643 35.4814L28.4681 36.1948L28.3975 36.3647L28.2703 36.6733L28.1083 37.0672L28.0082 37.3123L27.7973 37.8171L27.7477 37.935L27.66 38.1389L27.6399 38.1862L27.6042 38.2677L27.5592 38.3685L27.5336 38.4251L27.4871 38.5305L27.4654 38.5809L27.4282 38.6686L27.4119 38.7089L27.3886 38.7686L27.3739 38.8151V38.8206L27.3623 38.8555L27.3545 38.8764L27.3305 38.9384L27.2266 39.1812L27.2064 39.2261L27.1467 39.3642L27.1149 39.4386L27.0381 39.6185L26.7907 40.2079L26.7109 40.4002L26.5364 40.8151L26.4945 40.9128L26.4201 41.088L26.3309 41.2935L26.2844 41.4005L26.1805 41.6471L26.1556 41.7068L26.1107 41.817L26.0572 41.9527L26.0285 42.0271L25.9649 42.1659L25.9494 42.1969L25.9214 42.2473L25.8881 42.2977L25.8703 42.3179L25.8424 42.3784L25.823 42.4699V42.4839L25.8067 42.5436L25.7966 42.5785L25.7633 42.6715L25.6206 43.0166L25.5647 43.1399L25.4492 43.4012L25.4213 43.4633L25.374 43.5718L25.3197 43.6975L25.3065 43.7292L25.2716 43.8107L25.253 43.8533L25.2135 43.9471L25.0956 44.2209L25.0607 44.3008L24.97 44.5117L24.8443 44.8025L24.7621 44.9933L24.6086 45.3523L24.4 45.8494L24.3566 45.9533L24.2759 46.1433L24.2371 46.2355L24.1619 46.4085L24.0875 46.5791L23.9378 46.9063L23.8983 46.9901L23.8145 47.1645L23.7719 47.2537L23.6773 47.446L23.6276 47.5453L23.5183 47.764L23.3322 48.1315L23.2236 48.3456L23.0212 48.7294L22.9227 48.9148L22.7343 49.249L22.6412 49.4111L22.4606 49.7057L22.3698 49.8492L22.1884 50.1144L22.0969 50.2447L21.9077 50.4913L21.8123 50.613L21.6083 50.8511L21.5044 50.9697L21.2788 51.2086L20.9089 51.58L20.8205 51.6653L20.6692 51.8235L20.5979 51.8995L20.487 52.029L20.4374 52.0895L20.3761 52.1802L20.3645 52.2004L20.3521 52.2299V52.2593L20.3544 52.2632L20.3846 52.271L20.4048 52.2741L20.4715 52.2811L20.5087 52.2842L20.6126 52.2904L20.6692 52.2935L20.8111 52.2997L20.8871 52.302L21.0694 52.3074L21.1655 52.3097L21.3881 52.3144L21.5052 52.3159L21.7712 52.3198L21.91 52.3222L22.2194 52.3253L22.3799 52.3268L22.7351 52.3299L22.9189 52.3315L23.3205 52.3338L23.5276 52.3353L23.9781 52.3369L24.2092 52.3377L24.7094 52.3392L24.9653 52.34L25.5159 52.3415H25.7974L26.4007 52.3423L26.7085 52.3431H27.3654H28.4122L28.6565 52.3423H29.1241H29.3544H29.7933H30.0097L30.4207 52.3415H30.6223H31.0069H31.1961L31.5544 52.3408H31.7304L32.0639 52.34H32.2283L32.5377 52.3392H32.6897L32.9766 52.3384L33.117 52.3377L33.3822 52.3369L33.5117 52.3361L33.756 52.3353L33.9948 52.3338L34.4128 52.3315L34.6128 52.3299L34.9602 52.326L35.1254 52.3237L35.4085 52.319L35.5426 52.3167L35.7698 52.3105L35.8776 52.3074L36.056 52.3004L36.1397 52.2966L36.2778 52.2873L36.3421 52.2826L36.4468 52.2725L36.4957 52.2671L36.5755 52.2547L36.6128 52.2485L36.674 52.2337L36.733 52.219M17.2921 45.5252L17.1975 45.4958L17.0168 45.419L16.9276 45.3771L16.7555 45.2716L16.6702 45.215L16.5058 45.0793L16.4244 45.008L16.2654 44.8405L16.1863 44.7529L16.0312 44.5512L15.9536 44.4458L15.8009 44.2093L15.7249 44.086L15.5721 43.8107L15.3426 43.3539L15.279 43.2198L15.1572 42.9631L15.0983 42.839L14.9952 42.6203L14.9471 42.5172L14.8734 42.3613L14.8579 42.3272L14.8339 42.2753L14.8106 42.2241L14.8005 42.2031L14.7587 42.1101L14.7346 42.0566L14.6695 41.9131L14.6346 41.8363L14.5547 41.6611L14.4275 41.3827L14.3841 41.2881L14.3058 41.1144L14.2678 41.0314L14.2058 40.8911L14.1771 40.8267L14.1383 40.7367L14.1135 40.6731V40.67L14.0879 40.6096L14.0716 40.5723L14.0196 40.4552L13.9902 40.3909L13.9173 40.2319L13.7932 39.9636L13.749 39.869L13.6459 39.6449L13.5931 39.5293L13.4815 39.2851L13.4264 39.1633L13.3202 38.9284L13.1821 38.6182L13.1015 38.4367L12.9185 38.0273L12.8743 37.9288L12.7936 37.7504L12.6944 37.5325L12.5812 37.2851L12.3315 36.7377L12.2043 36.4577L11.9391 35.873L11.8057 35.5791L11.5413 34.9929L11.411 34.7029L11.1628 34.15L11.1031 34.015L10.9884 33.7591L10.9325 33.6327L10.8271 33.397L10.7759 33.2822L10.6828 33.0713L10.6378 32.9689L10.558 32.7882L10.52 32.7014L10.4556 32.554L10.4254 32.485L10.3788 32.3757L10.3579 32.3261L10.3308 32.2601L10.3137 32.2136V32.2051L10.3362 32.1911L10.3913 32.1818H10.413L10.4463 32.2276L10.4688 32.3369V32.3796L10.4913 32.4463L10.5463 32.492H10.5681L10.6014 32.5168L10.6239 32.5765V32.5882L10.6503 32.6649L10.6681 32.7115L10.7231 32.8448L10.7542 32.917L10.8309 33.0891L10.9628 33.3714L11.0558 33.5668L11.2373 33.953L11.2792 34.0414L11.3489 34.1918L11.4226 34.3531L11.4397 34.3903L11.4947 34.5129L11.525 34.5796L11.601 34.7463L11.8592 35.3108L11.9026 35.4054L11.9817 35.5791L12.0197 35.6629L12.0825 35.8032L12.1105 35.8676L12.15 35.9591L12.1748 36.0235V36.025L12.1826 36.0452L12.188 36.0584L12.2051 36.0979L12.2252 36.1429L12.2888 36.2817L12.3237 36.3585L12.4121 36.5469L12.5625 36.8656L12.6161 36.9781L12.713 37.1851L12.7595 37.2844L12.8363 37.4527L12.8712 37.5294L12.92 37.6388L12.9293 37.6613L12.9425 37.693L12.9503 37.7163V37.7217L12.9712 37.7752L12.9844 37.8078L13.0278 37.9086L13.0511 37.9629L13.1108 38.0971L13.2132 38.3204L13.2954 38.4987L13.438 38.8082L13.5063 38.9563L13.6273 39.2184L13.6854 39.3448L13.7924 39.5774L13.8444 39.6914L13.9444 39.9116L13.9948 40.0218L14.0972 40.2474L14.1491 40.3622L14.2608 40.6103L14.319 40.7391L14.4485 41.0283L14.6726 41.5262L14.7532 41.7061L14.9037 42.0387L14.9766 42.2008L15.113 42.4986L15.1797 42.6428L15.3038 42.9073L15.3643 43.036L15.4775 43.2702L15.5326 43.3834L15.6357 43.5897L15.6869 43.6889L15.7823 43.8696L15.8288 43.9565L15.918 44.1123L15.9614 44.1883L16.0452 44.3233L16.1281 44.4535L16.284 44.6598L16.3623 44.756L16.5166 44.9072L16.595 44.9777L16.7601 45.0925L17.0331 45.2437L17.0858 45.2701L17.1758 45.3127L17.2192 45.3329L17.2929 45.3639L17.3642 45.3926L17.4798 45.4198L17.5379 45.4291L17.6597 45.4221L17.8962 45.3802L18.0055 45.3569L18.2102 45.2872L18.3103 45.2476L18.4987 45.139L18.5918 45.0801L18.7709 44.9281L18.8593 44.8459L19.0322 44.6451L19.1183 44.5373L19.2905 44.2806L19.3765 44.1441L19.5526 43.8262L19.6417 43.6587L19.8255 43.2725L20.1171 42.6118L20.1667 42.4947L20.2621 42.2683L20.3086 42.1582L20.3908 41.9635L20.4296 41.8728L20.4893 41.7309L20.5025 41.7006L20.5235 41.6526L20.5444 41.6037L20.5537 41.5828L20.5793 41.5223L20.594 41.4897L20.6266 41.4145L20.7297 41.1772L20.746 41.14L20.7887 41.0384L20.8111 40.9841L20.8623 40.8608L21.0151 40.4808L21.0384 40.4219L21.095 40.2831L21.1244 40.2117L21.188 40.0598L21.2206 39.9838L21.2842 39.838L21.3703 39.6449L21.3958 39.5883L21.4431 39.4828L21.4656 39.4316L21.5029 39.3448L21.5199 39.3045L21.5432 39.2455L21.5579 39.1998V39.1951L21.5727 39.154L21.582 39.1292L21.613 39.0548L21.63 39.0144L21.6727 38.9167L21.7456 38.7547L21.7719 38.698L21.8317 38.5616L21.8627 38.491L21.9278 38.3398L21.9596 38.2638L22.0209 38.1164L22.1007 37.9187L22.1465 37.8016L22.2489 37.5504L22.2729 37.4906L22.3163 37.3852L22.3691 37.2611L22.397 37.1967L22.4745 37.0168L22.5877 36.7571L22.6032 36.7198L22.6451 36.6245L22.6668 36.574L22.7157 36.4632L22.8584 36.1367L22.8692 36.1126L22.9049 36.0297L22.9251 35.9824L22.9778 35.8575L23.0057 35.7901L23.0732 35.6295L23.1088 35.545L23.1887 35.355L23.2298 35.2565L23.319 35.0425L23.3647 34.9324L23.4617 34.7005L23.7664 33.9654L23.8703 33.7149L24.0673 33.2396L24.1146 33.1248L24.2038 32.9084L24.248 32.803L24.3279 32.6099L24.3666 32.5168L24.4341 32.3524L24.4667 32.2749L24.521 32.1446L24.5458 32.0841L24.583 31.9942L24.6179 31.9104L24.6311 31.8786L24.6683 31.7894L24.6877 31.7421L24.7334 31.632L24.8746 31.29L24.8971 31.2365L24.956 31.0977L24.987 31.0241L25.0584 30.8597L25.2739 30.3703L25.3088 30.2936L25.3654 30.1625L25.3918 30.1013L25.4329 29.9973L25.4515 29.9493L25.4771 29.8694L25.488 29.8322L25.4988 29.7725L25.5058 29.7166L25.4787 29.6515L25.3771 29.5926L25.3724 29.591L25.3274 29.5879L25.2995 29.5871L25.2096 29.584L25.1592 29.5832L25.0266 29.5809L24.9552 29.5794L24.7831 29.5778L24.6916 29.5763L24.4814 29.5747L24.3713 29.5739L24.1255 29.5724L23.9975 29.5716L23.7184 29.5701L23.5749 29.5693L23.2655 29.5677H23.1065L22.7684 29.5662H22.5963L22.2318 29.5654H22.0472L21.6595 29.5646H21.4625H21.0539H20.6405L19.7596 29.5654L18.3785 29.5677L11.5157 29.584L11.1504 29.7639L11.0644 29.8066L10.8829 29.9283L10.7929 29.9935L10.6239 30.1424L10.5432 30.2176L10.4145 30.3672L10.3858 30.4037L10.3408 30.4719L10.2943 30.565L10.2842 30.5937L10.254 30.6255L10.2075 30.6239L10.1974 30.6146L10.1912 30.5789V30.5596L10.2036 30.5068L10.2206 30.451L10.299 30.3068L10.3439 30.2323L10.4634 30.0757L10.6642 29.864L10.7332 29.8035L10.8542 29.705L10.917 29.6585L11.0752 29.5856L11.1202 29.5685L11.2288 29.5398L11.2877 29.5251L11.4288 29.501L11.504 29.4894L11.687 29.47L11.784 29.4607L12.0158 29.4452L12.1384 29.4382L12.4276 29.4266L12.5804 29.4212L12.9355 29.4126L13.1224 29.408L13.5528 29.4026L13.6653 29.401L13.9056 29.3987L14.0282 29.3979L14.2903 29.3964L14.4244 29.3956L14.709 29.394L14.854 29.3933L15.1619 29.3925L15.3193 29.3917L15.652 29.3909H15.8218H16.1801L16.3623 29.3902H16.7477H16.9439H17.3572H17.5666H18.0086H18.705H19.0625H19.7263H20.0496L20.6475 29.3909L20.9383 29.3917L21.4734 29.3925L21.7332 29.3933L22.2085 29.394L22.4396 29.3948L22.8584 29.3971L23.0615 29.3979L23.4276 29.4002L23.6044 29.4018L23.9208 29.4049L24.0727 29.4064L24.3418 29.4103L24.4706 29.4119L24.6962 29.4165L24.804 29.4181L24.9893 29.4235L25.077 29.4258L25.2251 29.432L25.2949 29.4351L25.4081 29.4413L25.4608 29.4444L25.5438 29.4522L25.5818 29.4561L25.6369 29.4646L25.6609 29.4685L25.6911 29.4778L25.7121 29.4933L25.7152 29.5003L25.7097 29.5383L25.7059 29.5608L25.688 29.6275L25.678 29.6639L25.6493 29.7554L25.633 29.8043L25.5934 29.9175L25.5523 30.0346L25.4438 30.3199L25.2538 30.7922L25.1336 31.0791L24.8785 31.691L24.7497 32.0011L24.4845 32.6355L24.3511 32.9534L24.0883 33.5823L23.958 33.8933L23.7091 34.4881L23.5873 34.7781L23.3647 35.3093L23.3112 35.4364L23.2112 35.6745L23.1631 35.7908L23.0732 36.0025L23.0305 36.1057L22.9538 36.2887L22.9165 36.3755L22.8529 36.526L22.8235 36.5965L22.7754 36.7098L22.7219 36.8346L22.7072 36.8695L22.6707 36.9556L22.6505 37.0013L22.6063 37.1068L22.5598 37.2161L22.4505 37.4751L22.1007 38.308L21.9891 38.5747L21.7518 39.1408L21.6952 39.2742L21.5959 39.5092L21.5727 39.5642L21.5316 39.6604L21.4804 39.7814L21.4656 39.8163L21.4284 39.9023L21.409 39.9481L21.3648 40.0536L21.3183 40.1629L21.209 40.4219L20.8592 41.2547L20.8042 41.3881L20.6886 41.6619L20.6312 41.7976L20.5227 42.0535L20.4707 42.176L20.3815 42.3846L20.3614 42.4327L20.3257 42.5141L20.2831 42.6118L20.2358 42.7188L20.1311 42.9654L20.1063 43.0251L20.0605 43.1352L20.0054 43.2709L19.9263 43.4726L19.7472 43.8432L19.6542 44.0224L19.4502 44.345L19.3455 44.4993L19.1222 44.7699L19.009 44.8986L18.7717 45.1127L18.6515 45.2119L18.4057 45.3655L18.2816 45.4337L18.0319 45.5229L17.907 45.5586L17.6581 45.5779L17.5348 45.5787M10.216 32.0011L10.1935 31.9453L10.1679 31.8445L10.1586 31.798L10.1578 31.7259L10.1609 31.6948L10.1834 31.6669L10.2424 31.6917L10.2656 31.715L10.2943 31.8057L10.3005 31.9593L10.2943 32.0004L10.2842 32.0515L10.2796 32.0733L10.268 32.088L10.2625 32.0903L10.247 32.0702L10.2385 32.0554L10.216 32.0011Z" fill="#3F3F3F"/>
</mask>
<g mask="url(#mask0_2_1809)">
<rect x="17.4139" y="55.3989" width="51.6498" height="34.6806" transform="rotate(-64.3096 17.4139 55.3989)" fill="white"/>
</g>
<mask id="mask1_2_1809" style="mask-type:alpha" maskUnits="userSpaceOnUse" x="10" y="15" width="43" height="38">
<path d="M51.5832 16.1575L51.8973 16.3133L52.064 16.4172L52.133 16.4739L52.2625 16.5925L52.3199 16.6631L52.4316 16.8127L52.4882 16.905L52.558 17.0601L52.5952 17.1873L52.6099 17.2594L52.6549 17.5696L52.6588 17.7386L52.6541 18.0806L52.6332 18.2396L52.6084 18.3954L52.5913 18.466L52.5533 18.6025L52.5301 18.6599L52.3959 18.9763L52.2982 19.2019L52.2494 19.312L52.1516 19.5307L52.1074 19.6277L52.0214 19.8122L51.9872 19.8828L51.9105 20.0604L51.8926 20.11L51.8872 20.1294L51.8787 20.1627V20.1713L51.8639 20.2286L51.8407 20.2938L51.8236 20.3372L51.7422 20.5326L51.691 20.6458L51.6049 20.8382L51.5414 20.9839L51.5096 21.0592L51.446 21.2096L51.4165 21.2802L51.3607 21.4174L51.3374 21.4756L51.1761 21.8695L51.1187 22.0052L51.0924 22.0665L51.0412 22.1836L51.0195 22.2301L50.8892 22.5263L50.8489 22.6217L50.8318 22.6628L50.8008 22.7404L50.7899 22.7683L50.7643 22.8326L50.738 22.8978L50.7209 22.9397L50.6837 23.0296L50.662 23.0823L50.6155 23.194L50.5899 23.256L50.479 23.522L50.4154 23.6732L50.2851 23.9834L50.2169 24.1447L50.1075 24.4045L50.0276 24.5929L49.9858 24.6922L49.8136 25.104L49.7252 25.3157L49.5484 25.7391L49.4662 25.9376L49.3848 26.133L49.3468 26.2245L49.2731 26.4021L49.2406 26.482L49.0451 26.955L48.9211 27.2536L48.8676 27.3831L48.8148 27.5095L48.7916 27.5661L48.7466 27.6739L48.7272 27.7196L48.6915 27.8049L48.6776 27.8383L48.652 27.898L48.6442 27.9166L48.5442 28.1539L48.5132 28.2291L48.5 28.2617L48.4752 28.3214L48.4666 28.3431L48.4294 28.4323L48.3953 28.5129L48.3751 28.5602L48.2867 28.7649L48.2418 28.8657L48.127 29.1364L48.0998 29.2039L48.0921 29.2271L48.0789 29.2659V29.2705L48.0603 29.3256L48.0316 29.3969L48.0107 29.4466L47.9641 29.5536L47.9362 29.6164L47.8781 29.7467L47.8463 29.8165L47.7563 30.0181L47.7028 30.1414L47.6819 30.1926L47.6439 30.2879L47.6322 30.3213L47.6136 30.3764V30.3849L47.5989 30.4384L47.5756 30.4997L47.5593 30.54L47.4787 30.723L47.4275 30.8284L47.2631 31.1797L47.2104 31.2961L47.1871 31.348L47.1445 31.4465L47.129 31.4837L46.9142 32.0002L46.7816 32.3181L46.7172 32.4701L46.4675 33.0664L46.3341 33.3836L46.2829 33.503L46.2403 33.6015L46.2162 33.6558L46.117 33.883L46.072 33.9838L45.9557 34.2544L45.9286 34.3219L45.9208 34.3452L45.9076 34.3839V34.3886L45.889 34.4437L45.8603 34.515L45.8394 34.5646L45.7928 34.6716L45.7649 34.7345L45.7068 34.8647L45.675 34.9345L45.585 35.1346L45.5315 35.254L45.5106 35.3036L45.4726 35.3936L45.4609 35.4238L45.4423 35.4727V35.4773L45.4307 35.5115L45.4121 35.5603L45.3974 35.596L45.3648 35.6759L45.3446 35.7263L45.3004 35.8333L45.2748 35.8953L45.2206 36.0256L45.1895 36.0977L45.1267 36.2474L45.0926 36.3288L44.9491 36.6677L44.8708 36.8515L44.6134 37.4579L44.428 37.8968L44.3358 38.117L44.1535 38.5521L44.0705 38.7498L43.9907 38.9429L43.9534 39.0321L43.8829 39.2027L43.8519 39.2771L43.5564 39.9944L43.3773 40.4279L43.2966 40.6233L43.1408 40.9979L43.0717 41.1638L42.9399 41.4818L42.8825 41.619L42.7732 41.8803L42.7267 41.9897L42.6398 42.1944L42.6049 42.2766L42.5406 42.4278L42.5157 42.4829L42.4731 42.5798L42.4591 42.6085L42.394 42.7884L42.3839 42.838L42.3831 42.8574L42.3839 42.8908L42.3893 42.8993L42.3917 42.9427L42.3676 42.9606H42.3451L42.287 42.9916L42.2629 43.0366V43.0653L42.2544 43.1234L42.2412 43.1754L42.2311 43.2048L42.1846 43.3328L42.1551 43.3948L42.045 43.6337L41.9636 43.8167L41.9318 43.8911L41.8737 44.0253L41.8271 44.1331L41.8015 44.1905L41.6969 44.4293L41.6519 44.5301L41.5356 44.8015L41.5084 44.8698L41.5007 44.893L41.4875 44.9326V44.938L41.4712 44.9969L41.4572 45.0342L41.4464 45.0605L41.4223 45.1179L41.4061 45.1559L41.3712 45.2389L41.3479 45.2908L41.2983 45.4033L41.268 45.4723L41.2029 45.6189L41.1633 45.7073L41.0804 45.8941L41.0315 46.0035L40.9152 46.2741L40.888 46.3416L40.8803 46.3649L40.8671 46.4036V46.4083L40.8485 46.4633L40.8198 46.5347L40.7989 46.5843L40.7523 46.6913L40.7244 46.7541L40.6663 46.8844L40.6345 46.9542L40.5445 47.1543L40.491 47.2745L40.4701 47.3241L40.4321 47.4148L40.4204 47.4451L40.4018 47.4947V47.5001L40.3886 47.5436L40.3685 47.5978L40.3538 47.6343L40.2832 47.8041L40.2374 47.9049L40.0901 48.2384L40.042 48.3493L40.0211 48.3973L39.9808 48.4896L39.966 48.5245L39.8753 48.7385L39.8202 48.8665L39.7954 48.9247L39.7 49.1449L39.6566 49.2434L39.5721 49.4349L39.5279 49.5326L39.4372 49.7319L39.3852 49.8459L39.2983 50.0413L39.2472 50.1615L39.227 50.2127L39.1898 50.3073L39.1789 50.3414L39.1611 50.398V50.4081L39.144 50.4616L39.1192 50.4849L39.1029 50.4864L39.0595 50.5167L39.0138 50.5624L38.9843 50.5958L38.923 50.6687L38.8881 50.7129L38.8176 50.8044L38.7811 50.8548L38.4391 51.2464L38.1677 51.4845L38.0072 51.593L37.6699 51.8055L37.4745 51.9032L37.065 52.094L36.83 52.1831L36.7331 52.2188L36.6742 52.2336L36.6129 52.2483L36.5757 52.2545L36.4958 52.2669L36.447 52.2723L36.3423 52.2824L36.2779 52.2871L36.1399 52.2964L36.0561 52.3002L35.8778 52.3072L35.77 52.3103L35.5428 52.3165L35.4086 52.3189L35.1256 52.3235L34.9604 52.3258L34.613 52.3297L34.4129 52.3313L33.995 52.3336L33.7561 52.3351L33.5118 52.3359L33.3823 52.3367L33.1171 52.3375L32.9768 52.3382L32.6898 52.339H32.5379L32.2285 52.3398H32.0641L31.7306 52.3406H31.5546L31.1963 52.3413H31.0071H30.6225H30.4208L30.0098 52.3421H29.7935H29.3546H29.1243H28.6567L28.4124 52.3429H27.3655H26.7087L26.4008 52.3421L25.7975 52.3413H25.516L24.9655 52.3398L24.7096 52.339L24.2094 52.3375L23.9783 52.3367L23.5278 52.3351L23.3207 52.3336L22.919 52.3313L22.7352 52.3297L22.3801 52.3266L22.2196 52.3251L21.9101 52.322L21.7713 52.3196L21.5054 52.3158L21.3883 52.3142L21.1657 52.3096L21.0695 52.3072L20.8873 52.3018L20.8113 52.2995L20.6694 52.2933L20.6128 52.2902L20.5089 52.284L20.4717 52.2809L20.405 52.2739L20.3848 52.2708L20.3546 52.263L20.3522 52.2591V52.2297L20.3646 52.2002L20.3763 52.18L20.4375 52.0893L20.4872 52.0288L20.5981 51.8993L20.6694 51.8233L20.8206 51.6651L20.909 51.5798L21.2789 51.2084L21.5046 50.9696L21.6085 50.8509L21.8124 50.6128L21.9078 50.4911L22.097 50.2445L22.1885 50.1142L22.37 49.849L22.4607 49.7055L22.6414 49.4109L22.7345 49.2488L22.9229 48.9146L23.0214 48.7292L23.2238 48.3454L23.3323 48.1314L23.5185 47.7638L23.6278 47.5451L23.6774 47.4458L23.772 47.2535L23.8147 47.1644L23.8984 46.9899L23.938 46.9061L24.0876 46.5789L24.1621 46.4083L24.2373 46.2353L24.2761 46.1431L24.3567 45.9531L24.4002 45.8492L24.6088 45.3521L24.7623 44.9931L24.8445 44.8023L24.9701 44.5115L25.0608 44.3006L25.0957 44.2207L25.2136 43.947L25.2532 43.8531L25.2718 43.8105L25.3067 43.729L25.3199 43.6973L25.3741 43.5716L25.4214 43.4631L25.4494 43.401L25.5649 43.1397L25.6207 43.0164L25.7634 42.6713L25.7968 42.5783L25.8068 42.5434L25.8231 42.4837V42.4697L25.8425 42.3782L25.8704 42.3177L25.8883 42.2975L25.9216 42.2471L25.9495 42.1967L25.965 42.1657L26.0286 42.0269L26.0573 41.9525L26.1108 41.8168L26.1558 41.7066L26.1806 41.6469L26.2845 41.4003L26.3311 41.2933L26.4202 41.0878L26.4947 40.9126L26.5366 40.8141L26.711 40.4L26.7909 40.2077L27.0383 39.6183L27.115 39.4384L27.1468 39.364L27.2066 39.2259L27.2267 39.181L27.3306 38.9382L27.3547 38.8762L27.3624 38.8553L27.3741 38.8204V38.8149L27.3888 38.7684L27.4121 38.7087L27.4283 38.6684L27.4656 38.5807L27.4873 38.5303L27.5338 38.4249L27.5594 38.3683L27.6044 38.2675L27.64 38.186L27.6602 38.1387L27.7478 37.9348L27.7975 37.8169L28.0084 37.3121L28.1084 37.067L28.2705 36.6731L28.3977 36.3645L28.4682 36.1947L28.7645 35.4812L28.9149 35.1237L29.063 34.7694L29.1328 34.6042L29.2677 34.2824L29.3274 34.1428L29.3848 34.0063L29.4112 33.945L29.4608 33.8272L29.4833 33.7752L29.5244 33.6783L29.5422 33.6387L29.574 33.5651L29.5857 33.5387L29.6384 33.4146L29.6826 33.3092L29.7074 33.2494L29.8098 32.9982L29.8555 32.8811L29.9354 32.6834L29.9967 32.536L30.0285 32.46L30.0936 32.3088L30.1246 32.2382L30.1843 32.1018L30.2107 32.0451L30.2836 31.8823L30.3262 31.7846L30.3433 31.7443L30.3743 31.669L30.3836 31.6435L30.3984 31.6024V31.5969L30.4146 31.5388L30.4294 31.5015L30.4402 31.4752L30.4643 31.417L30.4806 31.379L30.5162 31.2968L30.5395 31.2441L30.5883 31.1324L30.6194 31.0634L30.6837 30.9168L30.7233 30.8292L30.8055 30.6439L30.8543 30.5345L30.9706 30.2639L30.9978 30.1964L31.0055 30.1732L31.0187 30.1344V30.1298L31.0358 30.0762L31.0629 30.0072L31.0831 29.9599L31.1265 29.8568L31.1529 29.7971L31.2079 29.6722L31.2374 29.6055L31.3855 29.2721L31.4941 29.0201L31.5585 28.8673L31.6251 28.7099L31.6616 28.623L31.7376 28.4423L31.7795 28.3423L31.8663 28.1337L31.9144 28.0182L32.0136 27.7786L32.0687 27.6452L32.1245 27.5118L32.1749 27.3916L32.2052 27.321L32.3339 27.0194L32.3975 26.8697L32.4526 26.741L32.496 26.6394L32.52 26.5828L32.6232 26.3385L32.6813 26.2013L32.924 25.6243L33.0357 25.3576L33.2017 24.9613L33.304 24.7186L33.3505 24.6069L33.4413 24.3898L33.4832 24.2897L33.5638 24.0974L33.601 24.0098L33.6724 23.84L33.7042 23.7632L33.767 23.6143L33.7949 23.5476L33.8996 23.3003L33.9407 23.2025L34.0167 23.0226L34.0461 22.9544L34.0989 22.8295L34.119 22.7846L34.1547 22.7031L34.1679 22.6745L34.1911 22.6233L34.1997 22.6047L34.2214 22.5566L34.2423 22.5093L34.2555 22.4783L34.3152 22.3364L34.3548 22.2425L34.4377 22.0409L34.4858 21.9238L34.5859 21.6795L34.6394 21.5485L34.8611 21.001L34.9682 20.7327L35.0744 20.4675L35.1225 20.3457L35.2163 20.1084L35.2559 20.0069L35.4133 19.6052L35.4575 19.492L35.4753 19.4478L35.5056 19.3687L35.5141 19.3477L35.5645 19.2322L35.6203 19.1104L35.656 19.0329L35.7328 18.8693L35.7754 18.7778L35.8646 18.5909L35.9111 18.4947L36.1841 18.0069L36.3997 17.6929L36.5222 17.544L36.7773 17.2509L36.9177 17.1144L37.2069 16.8484L37.3628 16.7274L37.4644 16.6584L37.5528 16.6057L37.6047 16.577L37.8335 16.4583L37.9622 16.3971L38.2267 16.2769L38.3531 16.2257L38.4779 16.1761L38.5361 16.1551L38.647 16.1156L38.6958 16.1009L38.7524 16.0908L38.8137 16.0838L38.8556 16.0807L38.9471 16.0745L39.0044 16.0722L39.127 16.066L39.1999 16.0629L39.3526 16.0574L39.4403 16.0551L39.624 16.0497L39.7272 16.0473L39.9404 16.0419L40.0591 16.0396L40.3026 16.0349L40.4359 16.0334L40.7105 16.0287L40.8586 16.0264L41.1626 16.0225L41.3262 16.021L41.6604 16.0171L41.8388 16.0156L42.2024 16.0117L42.3955 16.0101L42.7895 16.007L42.9973 16.0055L43.4215 16.0031L43.644 16.0016L44.0969 15.9993L44.335 15.9985L44.8173 15.9962L45.0693 15.9954L51.1722 15.9729M21.054 29.5644H21.4627H21.6597L22.0474 29.5652H22.232L22.5964 29.566H22.7686L23.1067 29.5675H23.2656L23.5751 29.5691L23.7185 29.5699L23.9977 29.5714L24.1256 29.5722L24.3715 29.5737L24.4816 29.5745L24.6917 29.5761L24.7832 29.5776L24.9554 29.5792L25.0267 29.5807L25.1593 29.5831L25.2097 29.5838L25.2997 29.5869L25.3276 29.5877L25.3726 29.5908L25.3772 29.5924L25.4788 29.6513L25.506 29.7164L25.499 29.7723L25.4881 29.832L25.4773 29.8692L25.4517 29.9491L25.4331 29.9971L25.392 30.1011L25.3656 30.1623L25.309 30.2934L25.2741 30.3701L25.0585 30.8595L24.9872 31.0239L24.9562 31.0975L24.8972 31.2363L24.8747 31.2898L24.7336 31.6318L24.6878 31.7419L24.6685 31.7892L24.6312 31.8784L24.6181 31.9102L24.5832 31.994L24.5459 32.0839L24.5211 32.1444L24.4668 32.2747L24.4343 32.3522L24.3668 32.5166L24.328 32.6097L24.2482 32.8028L24.204 32.9082L24.1148 33.1246L24.0675 33.2394L23.8705 33.7147L23.7666 33.9652L23.4618 34.7003L23.3649 34.9322L23.3192 35.0423L23.23 35.2563L23.1889 35.3548L23.109 35.5448L23.0733 35.6293L23.0059 35.7899L22.978 35.8573L22.9252 35.9822L22.9051 36.0295L22.8694 36.1125L22.8585 36.1365L22.7158 36.463L22.667 36.5739L22.6453 36.6243L22.6034 36.7196L22.5879 36.7569L22.4747 37.0166L22.3971 37.1965L22.3692 37.2609L22.3165 37.385L22.2731 37.4904L22.249 37.5502L22.1467 37.8014L22.1009 37.9185L22.021 38.1162L21.9598 38.2636L21.928 38.3396L21.8628 38.4908L21.8318 38.5614L21.7721 38.6978L21.7457 38.7545L21.6729 38.9165L21.6302 39.0142L21.6131 39.0546L21.5821 39.129L21.5728 39.1538L21.5581 39.1949V39.1996L21.5433 39.2453L21.5201 39.3043L21.503 39.3446L21.4658 39.4314L21.4433 39.4826L21.396 39.5881L21.3704 39.6447L21.2843 39.8378L21.2208 39.9836L21.1882 40.0596L21.1246 40.2115L21.0951 40.2829L21.0385 40.4217L21.0153 40.4806L20.8625 40.8606L20.8113 40.9839L20.7888 41.0382L20.7462 41.1398L20.7299 41.177L20.6267 41.4143L20.5942 41.4895L20.5794 41.5221L20.5539 41.5826L20.5445 41.6035L20.5236 41.6524L20.5027 41.7004L20.4895 41.7307L20.4298 41.8726L20.391 41.9633L20.3088 42.158L20.2623 42.2681L20.1669 42.4945L20.1173 42.6116L19.8257 43.2723L19.6419 43.6585L19.5527 43.826L19.3767 44.1439L19.2906 44.2804L19.1185 44.5371L19.0324 44.6449L18.8595 44.8457L18.7711 44.9279L18.5919 45.0799L18.4989 45.1388L18.3104 45.2474L18.2104 45.287L18.0057 45.3568L17.8963 45.38L17.6598 45.4219L17.5381 45.4289L17.4799 45.4196L17.3644 45.3924L17.293 45.3637L17.2194 45.3327L17.1759 45.3125L17.086 45.2699L17.0333 45.2435L16.7603 45.0923L16.5951 44.9775L16.5168 44.907L16.3625 44.7558L16.2842 44.6596L16.1283 44.4533L16.0453 44.3231L15.9616 44.1881L15.9181 44.1121L15.829 43.9563L15.7824 43.8694L15.6871 43.6887L15.6359 43.5895L15.5327 43.3832L15.4777 43.27L15.3645 43.0358L15.304 42.9071L15.1799 42.6426L15.1132 42.4984L14.9767 42.2006L14.9038 42.0385L14.7534 41.7059L14.6727 41.526L14.4486 41.0281L14.3191 40.7389L14.261 40.6101L14.1493 40.362L14.0974 40.2472L13.995 40.0216L13.9446 39.9114L13.8446 39.6912L13.7926 39.5772L13.6856 39.3446L13.6274 39.2182L13.5064 38.9561L13.4382 38.808L13.2955 38.4986L13.2133 38.3202L13.111 38.0969L13.0513 37.9627L13.028 37.9084L12.9846 37.8076L12.9714 37.775L12.9504 37.7215V37.7161L12.9427 37.6928L12.9295 37.6611L12.9202 37.6386L12.8713 37.5292L12.8364 37.4525L12.7597 37.2842L12.7132 37.1849L12.6162 36.9779L12.5627 36.8654L12.4123 36.5467L12.3239 36.3583L12.289 36.2815L12.2254 36.1427L12.2052 36.0977L12.1882 36.0582L12.1827 36.045L12.175 36.0248V36.0233L12.1502 35.9589L12.1106 35.8674L12.0827 35.803L12.0199 35.6627L11.9819 35.5789L11.9028 35.4052L11.8594 35.3106L11.6011 34.7461L11.5251 34.5794L11.4949 34.5127L11.4398 34.3902L11.4228 34.3529L11.3491 34.1916L11.2793 34.0412L11.2374 33.9528L11.056 33.5666L10.9629 33.3712L10.8311 33.0889L10.7543 32.9168L10.7233 32.8447L10.6683 32.7113L10.6504 32.6647L10.6241 32.588V32.5763L10.6016 32.5166L10.5682 32.4918H10.5465L10.4914 32.4461L10.469 32.3794V32.3367L10.4465 32.2274L10.4131 32.1816H10.3914L10.3364 32.1909L10.3139 32.2049V32.2057L10.2984 32.1661L10.2697 32.0855L10.2797 32.0731L10.2844 32.0514L10.2945 32.0002L10.3007 31.9591L10.2945 31.8055L10.2658 31.7148L10.2425 31.6915L10.1836 31.6667L10.165 31.6892L10.1502 31.5876L10.1324 31.2511L10.1309 31.1658L10.1347 31.0107L10.1386 30.9355L10.1526 30.7982L10.1696 30.6648L10.1929 30.5881L10.1975 30.6144L10.2076 30.6237L10.2542 30.6253L10.2844 30.5935L10.2945 30.5648L10.341 30.4717L10.386 30.4035L10.4147 30.367L10.5434 30.2174L10.6241 30.1422L10.7931 29.9933L10.8831 29.9281L11.0645 29.8064L11.1506 29.7637L11.5158 29.5838L18.3787 29.5675L19.7598 29.5652L20.6407 29.5644M10.5201 32.7012L10.5581 32.788L10.638 32.9687L10.683 33.0711L10.776 33.282L10.8272 33.3968L10.9327 33.6325L10.9885 33.7589L11.1033 34.0148L11.163 34.1498L11.4111 34.7027L11.5414 34.9927L11.8059 35.5789L11.9392 35.8728L12.2044 36.4575L12.3316 36.7375L12.5813 37.285L12.6945 37.5323L12.617 37.3633L12.4371 36.9693L12.3433 36.7646L12.1409 36.3187L11.9346 35.8651L11.5042 34.9097L11.398 34.6747L11.1971 34.2265L11.0986 34.0078L10.9211 33.6093L10.8784 33.5139L10.7993 33.3371L10.7613 33.251L10.6923 33.0959L10.6597 33.0207L10.6016 32.8896L10.5294 32.7245L10.4868 32.626L10.4798 32.6089M10.3441 30.2321L10.2991 30.3066L10.265 30.3694L10.2797 30.3306L10.4046 30.1391L10.4581 30.0817M10.6644 29.8638L10.6016 29.9305L10.6613 29.8669L10.7311 29.8056M10.8148 29.7366L10.852 29.7064L10.8528 29.7056M10.9063 29.666L10.9149 29.6598L10.9063 29.666ZM12.5394 29.4225L12.5782 29.421H12.579M17.5668 29.39H17.3574H16.9441H16.7479H16.3625L16.1802 29.3907H15.822H15.6522L15.3195 29.3915L15.1621 29.3923L14.8542 29.3931L14.7092 29.3938L14.4246 29.3954L14.2904 29.3962L14.0283 29.3977L13.9058 29.3985L13.6654 29.4008L13.553 29.4024L13.1226 29.4078L12.9357 29.4125L12.7744 29.4163L12.9334 29.4125L13.1203 29.4086L13.5507 29.4024L13.6631 29.4008L13.9035 29.3985L14.026 29.3977L14.2881 29.3962L14.4223 29.3954L14.7069 29.3938L14.8519 29.3931L15.1605 29.3923L15.3172 29.3915L15.6506 29.3907H15.8197H16.1787L16.3617 29.39H16.7471H16.9433H17.3558H17.5668Z" fill="#3F3F3F"/>
<path d="M19.8829 52.409L19.8744 52.395L19.8821 52.3555L19.8891 52.333L19.9256 52.2795L19.9473 52.2516L20.0101 52.188L20.1303 52.0856L20.2117 52.0236L20.3846 51.8755L20.473 51.7987L20.6576 51.6242L20.8437 51.4451L21.2283 51.031L21.4191 50.8185L21.7836 50.3703L22.2659 49.7073L22.3753 49.5437L22.5831 49.2118L22.6862 49.0443L22.8886 48.693L22.9902 48.5139L23.1941 48.1284L23.2973 47.9299L23.5105 47.4941L23.6191 47.2692L23.8486 46.7683L23.9076 46.6388L24.0293 46.3643L24.0914 46.2239L24.2201 45.9285L24.2852 45.7772L24.4209 45.4585L24.4899 45.2957L24.6342 44.9506L24.7078 44.7753L24.8614 44.4039L25.1033 43.8138L25.1778 43.6323L25.336 43.2554L25.3732 43.167L25.4391 43.0127L25.5167 42.8382L25.536 42.7948L25.5849 42.6824L25.6105 42.6234L25.6655 42.4932L25.823 42.1078L25.8679 41.9938L25.9812 41.7208L26.0099 41.6541L26.0634 41.5293L26.1331 41.3711L26.1533 41.3269L26.2029 41.2129L26.2293 41.1532L26.2851 41.0213L26.4433 40.6344L26.4883 40.5204L26.6015 40.2474L26.6302 40.1807L26.6837 40.0559L26.7535 39.8977L26.7737 39.8535L26.8233 39.7395L26.8497 39.6798L26.9055 39.5479L27.0637 39.161L27.1087 39.047L27.2211 38.7756L27.249 38.7097L27.3018 38.5864L27.37 38.4305L27.3902 38.3871L27.4476 38.256L27.4786 38.1847L27.5515 38.0133L27.7849 37.455L27.8648 37.2588L28.033 36.8524L28.078 36.7447L28.178 36.5043L28.23 36.3794L28.3502 36.0933L28.413 35.9428L28.5588 35.5954L28.5968 35.5039L28.6798 35.3069L28.7224 35.2054L28.8139 34.9875L28.8612 34.8758L28.962 34.6346L29.014 34.5113L29.1264 34.2453L29.183 34.1089L29.3063 33.8165L29.5049 33.345L29.6196 33.0728L29.8523 32.5192L29.9678 32.2454L30.1834 31.7321L30.2353 31.6088L30.3315 31.3808L30.378 31.2707L30.461 31.0729L30.5006 30.9791L30.568 30.8193L30.6471 30.6309L30.6898 30.5293L30.7921 30.2866L30.8449 30.161L30.9573 29.8942L31.0131 29.7608L31.1225 29.5018L31.2675 29.1575L31.3101 29.0559L31.4094 28.8194L31.4606 28.6977L31.566 28.4433L31.6188 28.3169L31.7188 28.0757L31.8483 27.7617L31.9228 27.5802L32.0817 27.2034L32.1197 27.115L32.1856 26.9606L32.2632 26.7862L32.2826 26.7427L32.3314 26.6303L32.357 26.5714L32.4121 26.4411L32.5695 26.0557L32.6145 25.9417L32.7277 25.6687L32.7564 25.602L32.8099 25.4772L32.8797 25.319L32.8998 25.2748L32.9495 25.1608L32.9758 25.1003L33.0317 24.9677L33.1922 24.5761L33.2372 24.4605L33.3403 24.2108L33.3643 24.1519L33.4093 24.0464L33.4644 23.9231L33.4745 23.9007L33.5031 23.8363L33.5187 23.8006L33.5567 23.7138L33.597 23.6223L33.6978 23.3873L33.7505 23.264L33.8676 22.9872L33.9273 22.8468L34.0483 22.5583L34.1088 22.4156L34.222 22.1442L34.2763 22.014L34.3686 21.7906L34.3895 21.7387L34.426 21.6495L34.443 21.6076L34.4702 21.5401L34.4826 21.5099L34.4981 21.468L34.5082 21.4386V21.4339L34.5229 21.3944L34.5322 21.3695L34.5624 21.2967L34.5795 21.2563L34.6214 21.1594L34.6927 20.9981L34.7059 20.9702L34.7385 20.8957L34.7555 20.8562L34.7966 20.7624L34.8393 20.6647L34.9416 20.4243L35.2797 19.6193L35.3604 19.4239L35.5038 19.0866L35.5721 18.9253L35.6946 18.65L35.7543 18.5182L35.8637 18.2933L35.9164 18.1855L36.018 18.0002L36.0676 17.9118L36.1676 17.7551L36.2173 17.6791L36.3212 17.5403L36.6794 17.1402L36.8113 17.0076L37.1129 16.7594L37.2688 16.6392L37.603 16.426L37.7713 16.3252L38.1156 16.1608L38.6181 15.9832L38.6344 15.9785L38.684 15.9708L38.7119 15.9669L38.7864 15.9599L38.8267 15.956L38.9275 15.9498L38.9818 15.9467L39.1097 15.9413L39.1772 15.9382L39.3346 15.9335L39.4168 15.9312L39.6045 15.9266L39.7022 15.925L39.9217 15.9211L40.0357 15.9196L40.2877 15.9165L40.4187 15.9149L40.7057 15.9126L40.8538 15.9118L41.1771 15.9103L41.3431 15.9095L41.7044 15.9087L41.889 15.908H42.2892H42.4939H42.9336H43.1584L43.64 15.9087L43.8866 15.9095L44.4108 15.9111L45.2483 15.9134L51.5296 15.9359L51.8995 16.1181L52.0065 16.1708L52.2003 16.3159L52.2934 16.3949L52.457 16.588L52.5338 16.6896L52.661 16.923L52.8067 17.3131L52.8362 17.4217L52.8548 17.6745L52.8572 17.8055L52.823 18.0948L52.7998 18.2429L52.7152 18.5554L52.533 19.0377L52.5214 19.0641L52.4865 19.1447L52.4671 19.1889L52.419 19.3014L52.3934 19.3611L52.3337 19.4999L52.3035 19.572L52.2352 19.7333L52.1647 19.8985L52.0072 20.2723L51.7614 20.8601L51.6785 21.057L51.5055 21.4719L51.4187 21.679L51.2527 22.0783L51.2116 22.1753L51.1356 22.3575L51.0984 22.4459L51.0309 22.6087L50.9984 22.6863L50.941 22.8228L50.8704 22.9926L50.8503 23.0407L50.8014 23.157L50.7758 23.219L50.7177 23.3586L50.6572 23.5028L50.516 23.8386L50.4439 24.0108L50.2935 24.3706L50.074 24.8925L49.974 25.1313L49.7824 25.5865L49.6886 25.8106L49.5095 26.2379L49.4211 26.4473L49.2536 26.8466L49.1714 27.0428L49.0147 27.4143L48.9387 27.5973L48.7937 27.9431L48.7224 28.1122L48.5882 28.4325L48.5223 28.5891L48.3982 28.8838L48.3378 29.0288L48.2238 29.2994L48.1687 29.432L48.0648 29.6794L48.0144 29.8004L47.9198 30.0253L47.874 30.1354L47.7887 30.3386L47.7476 30.437L47.6716 30.6193L47.6344 30.7077L47.5669 30.869L47.5344 30.9473L47.4747 31.0892L47.3266 31.4451L47.273 31.5731L47.1474 31.867L47.1172 31.9376L47.0606 32.0671L46.9892 32.2268L46.9698 32.2702L46.921 32.3827L46.8954 32.4424L46.8396 32.5734L46.6806 32.9635L46.6356 33.079L46.5325 33.3287L46.5084 33.3877L46.4635 33.4931L46.4084 33.6164L46.3983 33.6389L46.3696 33.7033L46.3541 33.739L46.3161 33.8258L46.2758 33.9173L46.175 34.1523L46.1223 34.2756L46.0052 34.5524L45.9455 34.6928L45.8245 34.9812L45.764 35.1239L45.6508 35.3953L45.5965 35.5256L45.5042 35.749L45.4833 35.8009L45.4468 35.8901L45.4298 35.932L45.4026 35.9994L45.3902 36.0297L45.3747 36.0716L45.3646 36.101V36.1057L45.3499 36.146L45.3406 36.17L45.3096 36.2437L45.2925 36.284L45.2499 36.381L45.177 36.543L45.1506 36.5996L45.0909 36.7353L45.0599 36.8059L44.9955 36.9564L44.9637 37.0316L44.9025 37.1774L44.8234 37.3728L44.7784 37.4875L44.6652 37.7613L44.6372 37.828L44.5845 37.952L44.5171 38.1079L44.4984 38.149L44.4612 38.232L44.4418 38.277L44.3922 38.3925L44.3782 38.4243L44.3449 38.5019L44.3278 38.5422L44.2867 38.6391L44.265 38.6903L44.2138 38.812L44.1867 38.8756L44.1231 39.0253L44.0905 39.1044L44.013 39.2874L43.9735 39.3828L43.8804 39.603L43.8323 39.7178L43.723 39.9799L43.6656 40.1156L43.5369 40.4234L43.4694 40.5832L43.3197 40.9407L43.2422 41.126L43.0693 41.5378L42.9793 41.751L42.7823 42.2225L42.4566 42.9995L42.3302 43.3004L42.0953 43.8603L41.9805 44.1348L41.7626 44.6551L41.547 45.1677L41.1376 46.1417L41.0352 46.386L40.8258 46.8831L40.7204 47.1343L40.5002 47.657L40.3885 47.9222L40.1512 48.4867L39.7673 49.3971L39.7061 49.5421L39.5898 49.8027L39.5324 49.9283L39.4199 50.154L39.3641 50.2625L39.2532 50.4587L39.1974 50.5541L39.0842 50.7255L38.9686 50.8922L38.7158 51.1745L38.2746 51.5614L38.1412 51.663L37.8675 51.8437L37.7302 51.9305L37.4518 52.0779L37.313 52.1477L37.0354 52.2601L36.6252 52.3857L36.6066 52.3904L36.5244 52.3989L36.4763 52.4036L36.3382 52.4113L36.263 52.416L36.073 52.4237L35.9722 52.4276L35.7357 52.4346L35.6109 52.4377L35.3301 52.4447L35.1844 52.4478L34.8625 52.454L34.6974 52.4571L34.3391 52.4633L34.1561 52.4656L33.766 52.471L33.5667 52.4734L33.148 52.478L32.9355 52.4803L32.4912 52.4842L32.0422 52.4881L31.0845 52.4951L30.599 52.4974L29.5925 52.5021L29.0853 52.5036L28.0602 52.5059L27.5476 52.5067L26.5341 52.5059H26.0308L25.0591 52.5028L24.8203 52.5021L24.3566 52.5005L24.1263 52.499L23.6835 52.4966L23.4648 52.4951L23.046 52.492L22.8405 52.4904L22.4513 52.4866L22.2605 52.4842L21.9038 52.4803L21.7293 52.478L21.409 52.4726L21.2539 52.4703L20.974 52.4641L20.8391 52.4617L20.6033 52.4555L20.4909 52.4517L20.3032 52.4447L20.2148 52.4416L20.0791 52.4338L20.0178 52.4299L19.9372 52.4222L19.9039 52.4175M36.8299 52.1833L37.0648 52.0942L37.4743 51.9034L37.6697 51.8057L38.007 51.5932L38.1676 51.4846L38.439 51.2466L38.781 50.855L38.8174 50.8046L38.888 50.7131L38.9229 50.6689L38.9841 50.596L39.0136 50.5626L39.0593 50.5169L39.1028 50.4866L39.1191 50.4851L39.1439 50.4618L39.1609 50.4083V50.3982L39.1788 50.3416L39.1896 50.3075L39.2268 50.2129L39.247 50.1617L39.2982 50.0415L39.385 49.8461L39.437 49.7321L39.5277 49.5328L39.5719 49.4351L39.6565 49.2436L39.6999 49.1451L39.7953 48.9248L39.8201 48.8667L39.8751 48.7387L39.9659 48.5247L39.9806 48.4898L40.0209 48.3975L40.0419 48.3495L40.0899 48.2386L40.2373 47.9051L40.283 47.8043L40.3536 47.6345L40.3683 47.598L40.3885 47.5437L40.4017 47.5003V47.4949L40.4203 47.4453L40.4319 47.415L40.4699 47.3243L40.4909 47.2747L40.5444 47.1545L40.6343 46.9544L40.6661 46.8846L40.7243 46.7543L40.7522 46.6915L40.7987 46.5845L40.8196 46.5349L40.8483 46.4635L40.8669 46.4085V46.4038L40.8801 46.365L40.8879 46.3418L40.915 46.2743L41.0313 46.0037L41.0802 45.8943L41.1632 45.7075L41.2027 45.6191L41.2679 45.4725L41.2981 45.4035L41.3477 45.291L41.371 45.2391L41.4059 45.1561L41.4222 45.1181L41.4462 45.0607L41.4571 45.0343L41.471 44.9971L41.4873 44.9382V44.9328L41.5005 44.8932L41.5083 44.87L41.5354 44.8017L41.6517 44.5303L41.6967 44.4295L41.8014 44.1906L41.827 44.1333L41.8735 44.0255L41.9317 43.8913L41.9635 43.8169L42.0449 43.6339L42.155 43.395L42.1845 43.333L42.231 43.205L42.2411 43.1756L42.2543 43.1236L42.2628 43.0654V43.0368L42.2868 42.9918L42.345 42.9608H42.3675L42.3915 42.9429L42.3892 42.8995L42.3838 42.891L42.383 42.8576L42.3838 42.8382L42.3938 42.7886L42.459 42.6087L42.4729 42.58L42.5156 42.4831L42.5404 42.428L42.6048 42.2768L42.6397 42.1946L42.7265 41.9899L42.773 41.8805L42.8824 41.6192L42.9398 41.482L43.0716 41.164L43.1406 40.9981L43.2965 40.6235L43.3771 40.4281L43.5563 39.9946L43.8517 39.2773L43.8827 39.2029L43.9533 39.0323L43.9905 38.9431L44.0704 38.75L44.1534 38.5523L44.3356 38.1172L44.4279 37.897L44.6132 37.4581L44.8707 36.8517L44.949 36.6679L45.0924 36.329L45.1266 36.2476L45.1894 36.0979L45.2204 36.0258L45.2747 35.8955L45.3003 35.8335L45.3445 35.7265L45.3646 35.6761L45.3972 35.5962L45.4119 35.5605L45.4305 35.5117L45.4422 35.4775V35.4729L45.4608 35.424L45.4724 35.3938L45.5104 35.3038L45.5314 35.2542L45.5849 35.1348L45.6748 34.9347L45.7066 34.8649L45.7648 34.7347L45.7927 34.6718L45.8392 34.5648L45.8602 34.5152L45.8888 34.4439L45.9075 34.3888V34.3841L45.9206 34.3454L45.9284 34.3221L45.9555 34.2546L46.0719 33.984L46.1168 33.8832L46.2161 33.656L46.2401 33.6017L46.2828 33.5032L46.334 33.3838L46.4673 33.0666L46.717 32.4703L46.7814 32.3183L46.914 32.0004L47.1288 31.4839L47.1443 31.4467L47.187 31.3482L47.2102 31.2962L47.263 31.1799L47.4274 30.8286L47.4785 30.7232L47.5592 30.5402L47.5755 30.4998L47.5987 30.4386L47.6135 30.3851V30.3765L47.6321 30.3215L47.6437 30.2881L47.6817 30.1928L47.7027 30.1416L47.7562 30.0183L47.8461 29.8167L47.8779 29.7469L47.9361 29.6166L47.964 29.5538L48.0105 29.4468L48.0315 29.3971L48.0601 29.3258L48.0788 29.2707V29.2661L48.0919 29.2273L48.0997 29.204L48.1268 29.1366L48.2416 28.8659L48.2866 28.7651L48.375 28.5604L48.3951 28.5131L48.4293 28.4325L48.4665 28.3433L48.475 28.3216L48.4998 28.2619L48.513 28.2293L48.544 28.1541L48.6441 27.9168L48.6518 27.8982L48.6774 27.8385L48.6914 27.8051L48.727 27.7198L48.7464 27.6741L48.7914 27.5663L48.8147 27.5097L48.8674 27.3833L48.9209 27.2538L49.045 26.9552L49.2404 26.4822L49.273 26.4023L49.3466 26.2247L49.3846 26.1332L49.4661 25.9378L49.5483 25.7393L49.7251 25.3159L49.8135 25.1042L49.9856 24.6924L50.0275 24.5931L50.1074 24.4047L50.2167 24.1449L50.2849 23.9836L50.4152 23.6734L50.4788 23.5222L50.5897 23.2562L50.6153 23.1942L50.6618 23.0825L50.6835 23.0298L50.7208 22.9399L50.7378 22.898L50.7642 22.8328L50.7898 22.7685L50.8006 22.7406L50.8316 22.663L50.8487 22.6219L50.889 22.5265L51.0193 22.2303L51.041 22.1838L51.0922 22.0667L51.1186 22.0054L51.176 21.8697L51.3372 21.4758L51.3605 21.4176L51.4163 21.2804L51.4458 21.2098L51.5094 21.0594L51.5412 20.9841L51.6048 20.8384L51.6909 20.646L51.742 20.5328L51.8235 20.3374L51.8405 20.294L51.8638 20.2288L51.8785 20.1715V20.1629L51.8871 20.1296L51.8925 20.1102L51.9103 20.0606L51.9871 19.883L52.0212 19.8124L52.1073 19.6279L52.1515 19.5309L52.2492 19.3122L52.298 19.2021L52.3958 18.9765L52.5299 18.6601L52.5532 18.6027L52.5912 18.4662L52.6082 18.3956L52.633 18.2398L52.654 18.0808L52.6586 17.7388L52.6548 17.5698L52.6098 17.2596L52.595 17.1875L52.5578 17.0603L52.488 16.9052L52.4314 16.8129L52.3198 16.6633L52.2624 16.5927L52.1329 16.474L52.0639 16.4174L51.8971 16.3135L51.5831 16.1577L51.1721 15.9731L45.0692 15.9956L44.8172 15.9964L44.3348 15.9987L44.0968 15.9995L43.6439 16.0018L43.4213 16.0033L42.9971 16.0057L42.7893 16.0072L42.3954 16.0103L42.2023 16.0119L41.8386 16.0157L41.6602 16.0173L41.326 16.0212L41.1624 16.0227L40.8584 16.0266L40.7103 16.0289L40.4358 16.0336L40.3024 16.0351L40.0589 16.0398L39.9403 16.0421L39.727 16.0475L39.6239 16.0499L39.4401 16.0553L39.3525 16.0576L39.1997 16.0631L39.1268 16.0662L39.0043 16.0724L38.9469 16.0747L38.8554 16.0809L38.8135 16.084L38.7523 16.091L38.6957 16.101L38.6468 16.1158L38.5359 16.1553L38.4777 16.1763L38.3529 16.2259L38.2265 16.2771L37.9621 16.3973L37.8333 16.4585L37.6046 16.5772L37.5526 16.6059L37.4642 16.6586L37.3626 16.7276L37.2068 16.8486L36.9175 17.1146L36.7772 17.2511L36.522 17.5442L36.3995 17.6931L36.1839 18.0071L35.911 18.4949L35.8644 18.5911L35.7753 18.7779L35.7326 18.8695L35.6558 19.0331L35.6202 19.1106L35.5643 19.2324L35.5139 19.3479L35.5054 19.3689L35.4752 19.4479L35.4573 19.4921L35.4131 19.6054L35.2557 20.0071L35.2161 20.1086L35.1223 20.3459L35.0742 20.4677L34.968 20.7329L34.861 21.0012L34.6392 21.5487L34.5857 21.6797L34.4857 21.924L34.4376 22.0411L34.3546 22.2427L34.3151 22.3365L34.2554 22.4785L34.2422 22.5095L34.2212 22.5568L34.1995 22.6049L34.191 22.6235L34.1677 22.6746L34.1545 22.7033L34.1189 22.7848L34.0987 22.8297L34.046 22.9546L34.0165 23.0228L33.9405 23.2027L33.8994 23.3004L33.7947 23.5478L33.7668 23.6145L33.704 23.7634L33.6722 23.8402L33.6009 24.01L33.5636 24.0976L33.483 24.2899L33.4411 24.39L33.3504 24.6071L33.3039 24.7188L33.2015 24.9615L33.0355 25.3578L32.9239 25.6245L32.6812 26.2015L32.623 26.3387L32.5199 26.583L32.4958 26.6396L32.4524 26.7412L32.3973 26.8699L32.3337 27.0196L32.205 27.322L32.1748 27.3918L32.1244 27.512L32.0685 27.6454L32.0135 27.7787L31.9142 28.0184L31.8661 28.1339L31.7793 28.3425L31.7374 28.4425L31.6614 28.6232L31.625 28.7101L31.5583 28.8675L31.4939 29.0203L31.3854 29.2723L31.2372 29.6057L31.2078 29.6724L31.1527 29.7973L31.1264 29.857L31.0829 29.9601L31.0628 30.0074L31.0356 30.0764L31.0186 30.13V30.1346L31.0054 30.1734L30.9976 30.1966L30.9705 30.2641L30.8542 30.5347L30.8053 30.6441L30.7231 30.8294L30.6836 30.917L30.6192 31.0636L30.5882 31.1326L30.5393 31.2443L30.5161 31.297L30.4804 31.3792L30.4641 31.4172L30.4401 31.4754L30.4292 31.5017L30.4145 31.539L30.3982 31.5971V31.6026L30.3835 31.6437L30.3742 31.6692L30.3431 31.7445L30.3261 31.7848L30.2834 31.8825L30.2105 32.0453L30.1842 32.102L30.1245 32.2384L30.0934 32.309L30.0283 32.4602L29.9965 32.5362L29.9352 32.6836L29.8554 32.8813L29.8096 32.9984L29.7073 33.2496L29.6824 33.3094L29.6382 33.4148L29.5855 33.5389L29.5739 33.5653L29.5421 33.6389L29.5243 33.6785L29.4832 33.7754L29.4607 33.8274L29.411 33.9452L29.3847 34.0065L29.3273 34.143L29.2676 34.2826L29.1326 34.6044L29.0628 34.7695L28.9147 35.1239L28.7643 35.4814L28.4681 36.1948L28.3975 36.3647L28.2703 36.6733L28.1083 37.0672L28.0082 37.3123L27.7973 37.8171L27.7477 37.935L27.66 38.1389L27.6399 38.1862L27.6042 38.2677L27.5592 38.3685L27.5336 38.4251L27.4871 38.5305L27.4654 38.5809L27.4282 38.6686L27.4119 38.7089L27.3886 38.7686L27.3739 38.8151V38.8206L27.3623 38.8555L27.3545 38.8764L27.3305 38.9384L27.2266 39.1812L27.2064 39.2261L27.1467 39.3642L27.1149 39.4386L27.0381 39.6185L26.7907 40.2079L26.7109 40.4002L26.5364 40.8151L26.4945 40.9128L26.4201 41.088L26.3309 41.2935L26.2844 41.4005L26.1805 41.6471L26.1556 41.7068L26.1107 41.817L26.0572 41.9527L26.0285 42.0271L25.9649 42.1659L25.9494 42.1969L25.9214 42.2473L25.8881 42.2977L25.8703 42.3179L25.8424 42.3784L25.823 42.4699V42.4839L25.8067 42.5436L25.7966 42.5785L25.7633 42.6715L25.6206 43.0166L25.5647 43.1399L25.4492 43.4012L25.4213 43.4633L25.374 43.5718L25.3197 43.6975L25.3065 43.7292L25.2716 43.8107L25.253 43.8533L25.2135 43.9471L25.0956 44.2209L25.0607 44.3008L24.97 44.5117L24.8443 44.8025L24.7621 44.9933L24.6086 45.3523L24.4 45.8494L24.3566 45.9533L24.2759 46.1433L24.2371 46.2355L24.1619 46.4085L24.0875 46.5791L23.9378 46.9063L23.8983 46.9901L23.8145 47.1645L23.7719 47.2537L23.6773 47.446L23.6276 47.5453L23.5183 47.764L23.3322 48.1315L23.2236 48.3456L23.0212 48.7294L22.9227 48.9148L22.7343 49.249L22.6412 49.4111L22.4606 49.7057L22.3698 49.8492L22.1884 50.1144L22.0969 50.2447L21.9077 50.4913L21.8123 50.613L21.6083 50.8511L21.5044 50.9697L21.2788 51.2086L20.9089 51.58L20.8205 51.6653L20.6692 51.8235L20.5979 51.8995L20.487 52.029L20.4374 52.0895L20.3761 52.1802L20.3645 52.2004L20.3521 52.2299V52.2593L20.3544 52.2632L20.3846 52.271L20.4048 52.2741L20.4715 52.2811L20.5087 52.2842L20.6126 52.2904L20.6692 52.2935L20.8111 52.2997L20.8871 52.302L21.0694 52.3074L21.1655 52.3097L21.3881 52.3144L21.5052 52.3159L21.7712 52.3198L21.91 52.3222L22.2194 52.3253L22.3799 52.3268L22.7351 52.3299L22.9189 52.3315L23.3205 52.3338L23.5276 52.3353L23.9781 52.3369L24.2092 52.3377L24.7094 52.3392L24.9653 52.34L25.5159 52.3415H25.7974L26.4007 52.3423L26.7085 52.3431H27.3654H28.4122L28.6565 52.3423H29.1241H29.3544H29.7933H30.0097L30.4207 52.3415H30.6223H31.0069H31.1961L31.5544 52.3408H31.7304L32.0639 52.34H32.2283L32.5377 52.3392H32.6897L32.9766 52.3384L33.117 52.3377L33.3822 52.3369L33.5117 52.3361L33.756 52.3353L33.9948 52.3338L34.4128 52.3315L34.6128 52.3299L34.9602 52.326L35.1254 52.3237L35.4085 52.319L35.5426 52.3167L35.7698 52.3105L35.8776 52.3074L36.056 52.3004L36.1397 52.2966L36.2778 52.2873L36.3421 52.2826L36.4468 52.2725L36.4957 52.2671L36.5755 52.2547L36.6128 52.2485L36.674 52.2337L36.733 52.219M17.2921 45.5252L17.1975 45.4958L17.0168 45.419L16.9276 45.3771L16.7555 45.2716L16.6702 45.215L16.5058 45.0793L16.4244 45.008L16.2654 44.8405L16.1863 44.7529L16.0312 44.5512L15.9536 44.4458L15.8009 44.2093L15.7249 44.086L15.5721 43.8107L15.3426 43.3539L15.279 43.2198L15.1572 42.9631L15.0983 42.839L14.9952 42.6203L14.9471 42.5172L14.8734 42.3613L14.8579 42.3272L14.8339 42.2753L14.8106 42.2241L14.8005 42.2031L14.7587 42.1101L14.7346 42.0566L14.6695 41.9131L14.6346 41.8363L14.5547 41.6611L14.4275 41.3827L14.3841 41.2881L14.3058 41.1144L14.2678 41.0314L14.2058 40.8911L14.1771 40.8267L14.1383 40.7367L14.1135 40.6731V40.67L14.0879 40.6096L14.0716 40.5723L14.0196 40.4552L13.9902 40.3909L13.9173 40.2319L13.7932 39.9636L13.749 39.869L13.6459 39.6449L13.5931 39.5293L13.4815 39.2851L13.4264 39.1633L13.3202 38.9284L13.1821 38.6182L13.1015 38.4367L12.9185 38.0273L12.8743 37.9288L12.7936 37.7504L12.6944 37.5325L12.5812 37.2851L12.3315 36.7377L12.2043 36.4577L11.9391 35.873L11.8057 35.5791L11.5413 34.9929L11.411 34.7029L11.1628 34.15L11.1031 34.015L10.9884 33.7591L10.9325 33.6327L10.8271 33.397L10.7759 33.2822L10.6828 33.0713L10.6378 32.9689L10.558 32.7882L10.52 32.7014L10.4556 32.554L10.4254 32.485L10.3788 32.3757L10.3579 32.3261L10.3308 32.2601L10.3137 32.2136V32.2051L10.3362 32.1911L10.3913 32.1818H10.413L10.4463 32.2276L10.4688 32.3369V32.3796L10.4913 32.4463L10.5463 32.492H10.5681L10.6014 32.5168L10.6239 32.5765V32.5882L10.6503 32.6649L10.6681 32.7115L10.7231 32.8448L10.7542 32.917L10.8309 33.0891L10.9628 33.3714L11.0558 33.5668L11.2373 33.953L11.2792 34.0414L11.3489 34.1918L11.4226 34.3531L11.4397 34.3903L11.4947 34.5129L11.525 34.5796L11.601 34.7463L11.8592 35.3108L11.9026 35.4054L11.9817 35.5791L12.0197 35.6629L12.0825 35.8032L12.1105 35.8676L12.15 35.9591L12.1748 36.0235V36.025L12.1826 36.0452L12.188 36.0584L12.2051 36.0979L12.2252 36.1429L12.2888 36.2817L12.3237 36.3585L12.4121 36.5469L12.5625 36.8656L12.6161 36.9781L12.713 37.1851L12.7595 37.2844L12.8363 37.4527L12.8712 37.5294L12.92 37.6388L12.9293 37.6613L12.9425 37.693L12.9503 37.7163V37.7217L12.9712 37.7752L12.9844 37.8078L13.0278 37.9086L13.0511 37.9629L13.1108 38.0971L13.2132 38.3204L13.2954 38.4987L13.438 38.8082L13.5063 38.9563L13.6273 39.2184L13.6854 39.3448L13.7924 39.5774L13.8444 39.6914L13.9444 39.9116L13.9948 40.0218L14.0972 40.2474L14.1491 40.3622L14.2608 40.6103L14.319 40.7391L14.4485 41.0283L14.6726 41.5262L14.7532 41.7061L14.9037 42.0387L14.9766 42.2008L15.113 42.4986L15.1797 42.6428L15.3038 42.9073L15.3643 43.036L15.4775 43.2702L15.5326 43.3834L15.6357 43.5897L15.6869 43.6889L15.7823 43.8696L15.8288 43.9565L15.918 44.1123L15.9614 44.1883L16.0452 44.3233L16.1281 44.4535L16.284 44.6598L16.3623 44.756L16.5166 44.9072L16.595 44.9777L16.7601 45.0925L17.0331 45.2437L17.0858 45.2701L17.1758 45.3127L17.2192 45.3329L17.2929 45.3639L17.3642 45.3926L17.4798 45.4198L17.5379 45.4291L17.6597 45.4221L17.8962 45.3802L18.0055 45.3569L18.2102 45.2872L18.3103 45.2476L18.4987 45.139L18.5918 45.0801L18.7709 44.9281L18.8593 44.8459L19.0322 44.6451L19.1183 44.5373L19.2905 44.2806L19.3765 44.1441L19.5526 43.8262L19.6417 43.6587L19.8255 43.2725L20.1171 42.6118L20.1667 42.4947L20.2621 42.2683L20.3086 42.1582L20.3908 41.9635L20.4296 41.8728L20.4893 41.7309L20.5025 41.7006L20.5235 41.6526L20.5444 41.6037L20.5537 41.5828L20.5793 41.5223L20.594 41.4897L20.6266 41.4145L20.7297 41.1772L20.746 41.14L20.7887 41.0384L20.8111 40.9841L20.8623 40.8608L21.0151 40.4808L21.0384 40.4219L21.095 40.2831L21.1244 40.2117L21.188 40.0598L21.2206 39.9838L21.2842 39.838L21.3703 39.6449L21.3958 39.5883L21.4431 39.4828L21.4656 39.4316L21.5029 39.3448L21.5199 39.3045L21.5432 39.2455L21.5579 39.1998V39.1951L21.5727 39.154L21.582 39.1292L21.613 39.0548L21.63 39.0144L21.6727 38.9167L21.7456 38.7547L21.7719 38.698L21.8317 38.5616L21.8627 38.491L21.9278 38.3398L21.9596 38.2638L22.0209 38.1164L22.1007 37.9187L22.1465 37.8016L22.2489 37.5504L22.2729 37.4906L22.3163 37.3852L22.3691 37.2611L22.397 37.1967L22.4745 37.0168L22.5877 36.7571L22.6032 36.7198L22.6451 36.6245L22.6668 36.574L22.7157 36.4632L22.8584 36.1367L22.8692 36.1126L22.9049 36.0297L22.9251 35.9824L22.9778 35.8575L23.0057 35.7901L23.0732 35.6295L23.1088 35.545L23.1887 35.355L23.2298 35.2565L23.319 35.0425L23.3647 34.9324L23.4617 34.7005L23.7664 33.9654L23.8703 33.7149L24.0673 33.2396L24.1146 33.1248L24.2038 32.9084L24.248 32.803L24.3279 32.6099L24.3666 32.5168L24.4341 32.3524L24.4667 32.2749L24.521 32.1446L24.5458 32.0841L24.583 31.9942L24.6179 31.9104L24.6311 31.8786L24.6683 31.7894L24.6877 31.7421L24.7334 31.632L24.8746 31.29L24.8971 31.2365L24.956 31.0977L24.987 31.0241L25.0584 30.8597L25.2739 30.3703L25.3088 30.2936L25.3654 30.1625L25.3918 30.1013L25.4329 29.9973L25.4515 29.9493L25.4771 29.8694L25.488 29.8322L25.4988 29.7725L25.5058 29.7166L25.4787 29.6515L25.3771 29.5926L25.3724 29.591L25.3274 29.5879L25.2995 29.5871L25.2096 29.584L25.1592 29.5832L25.0266 29.5809L24.9552 29.5794L24.7831 29.5778L24.6916 29.5763L24.4814 29.5747L24.3713 29.5739L24.1255 29.5724L23.9975 29.5716L23.7184 29.5701L23.5749 29.5693L23.2655 29.5677H23.1065L22.7684 29.5662H22.5963L22.2318 29.5654H22.0472L21.6595 29.5646H21.4625H21.0539H20.6405L19.7596 29.5654L18.3785 29.5677L11.5157 29.584L11.1504 29.7639L11.0644 29.8066L10.8829 29.9283L10.7929 29.9935L10.6239 30.1424L10.5432 30.2176L10.4145 30.3672L10.3858 30.4037L10.3408 30.4719L10.2943 30.565L10.2842 30.5937L10.254 30.6255L10.2075 30.6239L10.1974 30.6146L10.1912 30.5789V30.5596L10.2036 30.5068L10.2206 30.451L10.299 30.3068L10.3439 30.2323L10.4634 30.0757L10.6642 29.864L10.7332 29.8035L10.8542 29.705L10.917 29.6585L11.0752 29.5856L11.1202 29.5685L11.2288 29.5398L11.2877 29.5251L11.4288 29.501L11.504 29.4894L11.687 29.47L11.784 29.4607L12.0158 29.4452L12.1384 29.4382L12.4276 29.4266L12.5804 29.4212L12.9355 29.4126L13.1224 29.408L13.5528 29.4026L13.6653 29.401L13.9056 29.3987L14.0282 29.3979L14.2903 29.3964L14.4244 29.3956L14.709 29.394L14.854 29.3933L15.1619 29.3925L15.3193 29.3917L15.652 29.3909H15.8218H16.1801L16.3623 29.3902H16.7477H16.9439H17.3572H17.5666H18.0086H18.705H19.0625H19.7263H20.0496L20.6475 29.3909L20.9383 29.3917L21.4734 29.3925L21.7332 29.3933L22.2085 29.394L22.4396 29.3948L22.8584 29.3971L23.0615 29.3979L23.4276 29.4002L23.6044 29.4018L23.9208 29.4049L24.0727 29.4064L24.3418 29.4103L24.4706 29.4119L24.6962 29.4165L24.804 29.4181L24.9893 29.4235L25.077 29.4258L25.2251 29.432L25.2949 29.4351L25.4081 29.4413L25.4608 29.4444L25.5438 29.4522L25.5818 29.4561L25.6369 29.4646L25.6609 29.4685L25.6911 29.4778L25.7121 29.4933L25.7152 29.5003L25.7097 29.5383L25.7059 29.5608L25.688 29.6275L25.678 29.6639L25.6493 29.7554L25.633 29.8043L25.5934 29.9175L25.5523 30.0346L25.4438 30.3199L25.2538 30.7922L25.1336 31.0791L24.8785 31.691L24.7497 32.0011L24.4845 32.6355L24.3511 32.9534L24.0883 33.5823L23.958 33.8933L23.7091 34.4881L23.5873 34.7781L23.3647 35.3093L23.3112 35.4364L23.2112 35.6745L23.1631 35.7908L23.0732 36.0025L23.0305 36.1057L22.9538 36.2887L22.9165 36.3755L22.8529 36.526L22.8235 36.5965L22.7754 36.7098L22.7219 36.8346L22.7072 36.8695L22.6707 36.9556L22.6505 37.0013L22.6063 37.1068L22.5598 37.2161L22.4505 37.4751L22.1007 38.308L21.9891 38.5747L21.7518 39.1408L21.6952 39.2742L21.5959 39.5092L21.5727 39.5642L21.5316 39.6604L21.4804 39.7814L21.4656 39.8163L21.4284 39.9023L21.409 39.9481L21.3648 40.0536L21.3183 40.1629L21.209 40.4219L20.8592 41.2547L20.8042 41.3881L20.6886 41.6619L20.6312 41.7976L20.5227 42.0535L20.4707 42.176L20.3815 42.3846L20.3614 42.4327L20.3257 42.5141L20.2831 42.6118L20.2358 42.7188L20.1311 42.9654L20.1063 43.0251L20.0605 43.1352L20.0054 43.2709L19.9263 43.4726L19.7472 43.8432L19.6542 44.0224L19.4502 44.345L19.3455 44.4993L19.1222 44.7699L19.009 44.8986L18.7717 45.1127L18.6515 45.2119L18.4057 45.3655L18.2816 45.4337L18.0319 45.5229L17.907 45.5586L17.6581 45.5779L17.5348 45.5787M10.216 32.0011L10.1935 31.9453L10.1679 31.8445L10.1586 31.798L10.1578 31.7259L10.1609 31.6948L10.1834 31.6669L10.2424 31.6917L10.2656 31.715L10.2943 31.8057L10.3005 31.9593L10.2943 32.0004L10.2842 32.0515L10.2796 32.0733L10.268 32.088L10.2625 32.0903L10.247 32.0702L10.2385 32.0554L10.216 32.0011Z" fill="#3F3F3F"/>
</mask>
<g mask="url(#mask1_2_1809)">
<rect x="-18.7423" y="45.2161" width="51.6498" height="34.6806" transform="rotate(-64.3096 -18.7423 45.2161)" fill="white"/>
</g>
</svg>
