<svg width="139" height="74" viewBox="0 0 139 74" fill="none" xmlns="http://www.w3.org/2000/svg">
<path d="M69.8056 36.0312H68.3056V27.3462H65.2006V26.0262H72.8956V27.3462H69.8056V36.0312ZM80.6692 36.0312H79.3192V31.3662C79.3192 30.1662 78.7042 29.8062 77.7742 29.8062C76.9342 29.8062 76.1692 30.3162 75.7792 30.8562V36.0312H74.4292V26.0262H75.7792V29.8062C76.2592 29.2212 77.2342 28.6062 78.3442 28.6062C79.8892 28.6062 80.6692 29.3862 80.6692 30.9162V36.0312ZM82.3728 32.4012C82.3728 30.3012 83.8878 28.6062 86.0028 28.6062C88.1778 28.6062 89.5278 30.3012 89.5278 32.5212V32.8512H83.7978C83.9028 34.0812 84.8028 35.1012 86.2578 35.1012C87.0228 35.1012 87.8628 34.8012 88.4028 34.2462L89.0328 35.1312C88.3128 35.8362 87.2928 36.2112 86.1228 36.2112C83.9628 36.2112 82.3728 34.6812 82.3728 32.4012ZM86.0028 29.7162C84.5478 29.7162 83.8578 30.8862 83.7828 31.8762H88.2078C88.1778 30.9162 87.5328 29.7162 86.0028 29.7162ZM99.9285 36.0312H98.0535L94.0785 26.0262H95.7885L98.9835 34.3962L102.194 26.0262H103.904L99.9285 36.0312ZM109.927 36.0312H108.577V35.2362C108.007 35.8662 107.182 36.2112 106.207 36.2112C105.007 36.2112 103.687 35.4012 103.687 33.8112C103.687 32.1612 104.992 31.4412 106.207 31.4412C107.182 31.4412 108.022 31.7562 108.577 32.4012V31.2012C108.577 30.3012 107.842 29.7612 106.807 29.7612C105.982 29.7612 105.277 30.0762 104.632 30.7212L104.047 29.7912C104.857 28.9962 105.847 28.6062 107.017 28.6062C108.592 28.6062 109.927 29.2962 109.927 31.1412V36.0312ZM108.577 34.4412V33.2112C108.172 32.6712 107.467 32.3862 106.717 32.3862C105.742 32.3862 105.052 32.9712 105.052 33.8262C105.052 34.6812 105.742 35.2662 106.717 35.2662C107.467 35.2662 108.172 34.9812 108.577 34.4412ZM113.44 36.0312H112.09V28.7862H113.44V29.8962C113.995 29.1762 114.85 28.6212 115.81 28.6212V29.9862C115.675 29.9562 115.525 29.9412 115.345 29.9412C114.67 29.9412 113.755 30.4512 113.44 30.9912V36.0312ZM116.529 35.0862L117.174 34.0962C117.669 34.6362 118.629 35.1312 119.604 35.1312C120.624 35.1312 121.164 34.7112 121.164 34.0962C121.164 33.3762 120.339 33.1362 119.409 32.9262C118.179 32.6412 116.739 32.3112 116.739 30.7512C116.739 29.5962 117.729 28.6062 119.499 28.6062C120.744 28.6062 121.644 29.0562 122.259 29.6412L121.659 30.5862C121.239 30.0762 120.429 29.7012 119.514 29.7012C118.599 29.7012 118.029 30.0612 118.029 30.6462C118.029 31.2762 118.809 31.4862 119.709 31.6962C120.969 31.9812 122.469 32.3262 122.469 33.9912C122.469 35.2362 121.449 36.2112 119.544 36.2112C118.329 36.2112 117.264 35.8362 116.529 35.0862ZM124.835 27.5712C124.37 27.5712 123.965 27.1962 123.965 26.7162C123.965 26.2362 124.37 25.8462 124.835 25.8462C125.315 25.8462 125.705 26.2362 125.705 26.7162C125.705 27.1962 125.315 27.5712 124.835 27.5712ZM125.525 36.0312H124.175V28.7862H125.525V36.0312ZM129.671 36.2112C128.531 36.2112 127.946 35.5662 127.946 34.4262V29.9712H126.746V28.7862H127.946V26.8062H129.296V28.7862H130.766V29.9712H129.296V34.1262C129.296 34.6362 129.536 35.0112 130.001 35.0112C130.316 35.0112 130.601 34.8762 130.736 34.7262L131.081 35.7462C130.796 36.0162 130.376 36.2112 129.671 36.2112ZM131.901 38.8662L132.111 37.6512C132.276 37.7262 132.531 37.7712 132.711 37.7712C133.206 37.7712 133.536 37.6062 133.761 37.0662L134.181 36.1062L131.196 28.7862H132.636L134.901 34.4712L137.166 28.7862H138.621L135.051 37.4112C134.586 38.5512 133.791 38.9562 132.741 38.9712C132.516 38.9712 132.111 38.9262 131.901 38.8662Z" fill="#057DCD"/>
<path d="M67.3606 51.0312H65.8606V41.0262H70.0756C72.1306 41.0262 73.2706 42.4362 73.2706 44.1012C73.2706 45.7662 72.1156 47.1762 70.0756 47.1762H67.3606V51.0312ZM71.7256 44.1012C71.7256 43.0512 70.9606 42.3462 69.8806 42.3462H67.3606V45.8562H69.8806C70.9606 45.8562 71.7256 45.1512 71.7256 44.1012ZM80.3078 51.0312H78.9578V50.2362C78.3878 50.8662 77.5628 51.2112 76.5878 51.2112C75.3878 51.2112 74.0678 50.4012 74.0678 48.8112C74.0678 47.1612 75.3728 46.4412 76.5878 46.4412C77.5628 46.4412 78.4028 46.7562 78.9578 47.4012V46.2012C78.9578 45.3012 78.2228 44.7612 77.1878 44.7612C76.3628 44.7612 75.6578 45.0762 75.0128 45.7212L74.4278 44.7912C75.2378 43.9962 76.2278 43.6062 77.3978 43.6062C78.9728 43.6062 80.3078 44.2962 80.3078 46.1412V51.0312ZM78.9578 49.4412V48.2112C78.5528 47.6712 77.8478 47.3862 77.0978 47.3862C76.1228 47.3862 75.4328 47.9712 75.4328 48.8262C75.4328 49.6812 76.1228 50.2662 77.0978 50.2662C77.8478 50.2662 78.5528 49.9812 78.9578 49.4412ZM84.4662 51.2112C83.3262 51.2112 82.7412 50.5662 82.7412 49.4262V44.9712H81.5412V43.7862H82.7412V41.8062H84.0912V43.7862H85.5612V44.9712H84.0912V49.1262C84.0912 49.6362 84.3312 50.0112 84.7962 50.0112C85.1112 50.0112 85.3962 49.8762 85.5312 49.7262L85.8762 50.7462C85.5912 51.0162 85.1712 51.2112 84.4662 51.2112ZM93.2962 51.0312H91.9462V46.3662C91.9462 45.1662 91.3312 44.8062 90.4012 44.8062C89.5612 44.8062 88.7962 45.3162 88.4062 45.8562V51.0312H87.0562V41.0262H88.4062V44.8062C88.8862 44.2212 89.8612 43.6062 90.9712 43.6062C92.5162 43.6062 93.2962 44.3862 93.2962 45.9162V51.0312ZM103.13 51.0312H101.735L99.9498 45.4662L98.1648 51.0312H96.7698L94.4898 43.7862H95.8998L97.5498 49.3062L99.3648 43.7862H100.535L102.35 49.3062L104 43.7862H105.41L103.13 51.0312ZM112.432 51.0312H111.082V50.2362C110.512 50.8662 109.687 51.2112 108.712 51.2112C107.512 51.2112 106.192 50.4012 106.192 48.8112C106.192 47.1612 107.497 46.4412 108.712 46.4412C109.687 46.4412 110.527 46.7562 111.082 47.4012V46.2012C111.082 45.3012 110.347 44.7612 109.312 44.7612C108.487 44.7612 107.782 45.0762 107.137 45.7212L106.552 44.7912C107.362 43.9962 108.352 43.6062 109.522 43.6062C111.097 43.6062 112.432 44.2962 112.432 46.1412V51.0312ZM111.082 49.4412V48.2112C110.677 47.6712 109.972 47.3862 109.222 47.3862C108.247 47.3862 107.557 47.9712 107.557 48.8262C107.557 49.6812 108.247 50.2662 109.222 50.2662C109.972 50.2662 110.677 49.9812 111.082 49.4412ZM114.235 53.8662L114.445 52.6512C114.61 52.7262 114.865 52.7712 115.045 52.7712C115.54 52.7712 115.87 52.6062 116.095 52.0662L116.515 51.1062L113.53 43.7862H114.97L117.235 49.4712L119.5 43.7862H120.955L117.385 52.4112C116.92 53.5512 116.125 53.9562 115.075 53.9712C114.85 53.9712 114.445 53.9262 114.235 53.8662Z" fill="#1E3D58"/>
<mask id="mask0_1_66" style="mask-type:alpha" maskUnits="userSpaceOnUse" x="11" y="17" width="48" height="41">
<path d="M56.6847 17.7555L57.0299 17.9268L57.2131 18.041L57.2889 18.1032L57.4312 18.2335L57.4943 18.3111L57.617 18.4756L57.6792 18.577L57.7559 18.7474L57.7968 18.8871L57.813 18.9664L57.8624 19.3073L57.8667 19.493L57.8616 19.8688L57.8386 20.0435L57.8113 20.2148L57.7925 20.2924L57.7508 20.4423L57.7252 20.5054L57.5778 20.8531L57.4704 21.101L57.4167 21.2221L57.3094 21.4624L57.2608 21.5689L57.1662 21.7717L57.1287 21.8492L57.0443 22.0444L57.0247 22.0989L57.0188 22.1202L57.0094 22.1569V22.1662L56.9932 22.2293L56.9677 22.3009L56.9489 22.3486L56.8594 22.5633L56.8032 22.6878L56.7086 22.8991L56.6387 23.0593L56.6038 23.142L56.5339 23.3073L56.5015 23.3848L56.4402 23.5357L56.4146 23.5996L56.2374 24.0325L56.1743 24.1816L56.1453 24.2489L56.0891 24.3776L56.0652 24.4287L55.9221 24.7542L55.8777 24.859L55.859 24.9042L55.8249 24.9894L55.813 25.0201L55.7849 25.0908L55.7559 25.1624L55.7371 25.2084L55.6962 25.3073L55.6724 25.3652L55.6212 25.4879L55.5931 25.5561L55.4713 25.8484L55.4014 26.0146L55.2582 26.3554L55.1832 26.5327L55.0631 26.8182L54.9753 27.0252L54.9293 27.1343L54.7401 27.5868L54.643 27.8194L54.4487 28.2847L54.3584 28.5029L54.2689 28.7176L54.2271 28.8182L54.1462 29.0133L54.1104 29.1011L53.8956 29.6209L53.7593 29.949L53.7005 30.0913L53.6425 30.2302L53.617 30.2924L53.5676 30.4108L53.5462 30.4611L53.507 30.5549L53.4917 30.5915L53.4636 30.6571L53.4551 30.6776L53.3451 30.9383L53.3111 31.021L53.2966 31.0568L53.2693 31.1224L53.2599 31.1462L53.219 31.2442L53.1815 31.3329L53.1594 31.3849L53.0622 31.6098L53.0128 31.7206L52.8867 32.018L52.8569 32.0921L52.8483 32.1177L52.8338 32.1603V32.1654L52.8134 32.2259L52.7819 32.3043L52.7589 32.3589L52.7077 32.4765L52.677 32.5455L52.6131 32.6886L52.5782 32.7653L52.4794 32.9869L52.4206 33.1224L52.3975 33.1786L52.3558 33.2835L52.343 33.3201L52.3226 33.3806V33.39L52.3064 33.4488L52.2808 33.5161L52.2629 33.5604L52.1743 33.7615L52.118 33.8774L51.9374 34.2634L51.8794 34.3913L51.8539 34.4483L51.807 34.5566L51.79 34.5975L51.5539 35.165L51.4082 35.5144L51.3375 35.6814L51.0631 36.3367L50.9165 36.6853L50.8603 36.8165L50.8134 36.9247L50.787 36.9844L50.6779 37.234L50.6285 37.3448L50.5006 37.6422L50.4708 37.7164L50.4623 37.7419L50.4478 37.7845V37.7896L50.4274 37.8502L50.3958 37.9285L50.3728 37.9831L50.3217 38.1007L50.291 38.1697L50.2271 38.3129L50.1922 38.3896L50.0933 38.6094L50.0345 38.7407L50.0115 38.7952L49.9698 38.894L49.957 38.9273L49.9365 38.981V38.9861L49.9237 39.0236L49.9033 39.0773L49.8871 39.1165L49.8513 39.2042L49.8292 39.2596L49.7806 39.3772L49.7525 39.4454L49.6928 39.5885L49.6587 39.6678L49.5897 39.8323L49.5522 39.9217L49.3946 40.2941L49.3085 40.4961L49.0256 41.1625L48.8219 41.6448L48.7205 41.8868L48.5202 42.3649L48.4291 42.5822L48.3413 42.7944L48.3004 42.8923L48.2228 43.0798L48.1888 43.1616L47.8641 43.9499L47.6672 44.4262L47.5786 44.641L47.4073 45.0526L47.3315 45.2349L47.1866 45.5843L47.1236 45.7351L47.0034 46.0223L46.9523 46.1425L46.8568 46.3674L46.8185 46.4578L46.7478 46.6239L46.7205 46.6844L46.6736 46.791L46.6583 46.8225L46.5867 47.0202L46.5756 47.0747L46.5748 47.096L46.5756 47.1327L46.5816 47.142L46.5841 47.1898L46.5577 47.2094H46.533L46.4691 47.2435L46.4427 47.2929V47.3244L46.4333 47.3883L46.4188 47.4454L46.4078 47.4778L46.3566 47.6184L46.3242 47.6866L46.2032 47.949L46.1138 48.1501L46.0788 48.232L46.0149 48.3794L45.9638 48.4978L45.9357 48.5609L45.8206 48.8234L45.7712 48.9341L45.6434 49.2324L45.6135 49.3074L45.605 49.3329L45.5905 49.3764V49.3824L45.5726 49.4471L45.5573 49.488L45.5454 49.517L45.519 49.5801L45.5011 49.6218L45.4627 49.713L45.4371 49.7701L45.3826 49.8937L45.3494 49.9695L45.2778 50.1306L45.2343 50.2277L45.1432 50.4331L45.0895 50.5532L44.9616 50.8506L44.9318 50.9248L44.9233 50.9503L44.9088 50.9929V50.9981L44.8884 51.0586L44.8568 51.137L44.8338 51.1915L44.7827 51.3091L44.752 51.3781L44.6881 51.5213L44.6532 51.598L44.5543 51.8178L44.4955 51.9499L44.4725 52.0044L44.4308 52.1041L44.418 52.1374L44.3975 52.1919V52.1979L44.383 52.2456L44.3609 52.3053L44.3447 52.3453L44.2671 52.5319L44.2169 52.6427L44.055 53.0091L44.0021 53.131L43.9791 53.1838L43.9348 53.2852L43.9186 53.3236L43.8189 53.5588L43.7584 53.6994L43.7311 53.7633L43.6263 54.0053L43.5786 54.1135L43.4857 54.324L43.4371 54.4314L43.3374 54.6504L43.2803 54.7757L43.1849 54.9904L43.1287 55.1225L43.1065 55.1787L43.0656 55.2827L43.0537 55.3202L43.0341 55.3824V55.3935L43.0153 55.4523L42.9881 55.4778L42.9702 55.4795L42.9224 55.5128L42.8722 55.563L42.8398 55.5997L42.7725 55.6798L42.7341 55.7284L42.6566 55.8289L42.6165 55.8843L42.2407 56.3146L41.9425 56.5763L41.7661 56.6956L41.3954 56.929L41.1806 57.0364L40.7307 57.2461L40.4725 57.344L40.366 57.3832L40.3012 57.3994L40.2339 57.4156L40.193 57.4224L40.1052 57.4361L40.0515 57.442L39.9365 57.4531L39.8658 57.4582L39.7141 57.4685L39.622 57.4727L39.4261 57.4804L39.3076 57.4838L39.0579 57.4906L38.9105 57.4932L38.5995 57.4983L38.4179 57.5008L38.0362 57.5051L37.8163 57.5068L37.357 57.5094L37.0946 57.5111L36.8261 57.5119L36.6838 57.5128L36.3924 57.5136L36.2381 57.5145L35.9228 57.5153H35.7558L35.4158 57.5162H35.2352L34.8687 57.517H34.6753L34.2816 57.5179H34.0737H33.651H33.4294L32.9778 57.5187H32.74H32.2577H32.0046H31.4908L31.2224 57.5196H30.0719H29.3502L29.0119 57.5187L28.3489 57.5179H28.0396L27.4345 57.5162L27.1533 57.5153L26.6037 57.5136L26.3497 57.5128L25.8546 57.5111L25.6271 57.5094L25.1857 57.5068L24.9837 57.5051L24.5934 57.5017L24.4171 57.5L24.077 57.4966L23.9245 57.494L23.6322 57.4898L23.5035 57.4881L23.259 57.4829L23.1533 57.4804L22.953 57.4744L22.8695 57.4719L22.7136 57.465L22.6514 57.4616L22.5372 57.4548L22.4963 57.4514L22.423 57.4437L22.4009 57.4403L22.3676 57.4318L22.3651 57.4276V57.3952L22.3787 57.3628L22.3915 57.3406L22.4588 57.2409L22.5133 57.1745L22.6352 57.0322L22.7136 56.9486L22.8798 56.7748L22.9769 56.6811L23.3834 56.2729L23.6314 56.0104L23.7456 55.88L23.9697 55.6184L24.0745 55.4846L24.2824 55.2137L24.383 55.0705L24.5824 54.7791L24.6821 54.6214L24.8806 54.2976L24.9829 54.1195L25.19 53.7522L25.2982 53.5485L25.5206 53.1267L25.6399 52.8915L25.8444 52.4876L25.9646 52.2473L26.0191 52.1382L26.1231 51.9269L26.1699 51.8289L26.262 51.6372L26.3054 51.5451L26.4699 51.1855L26.5517 50.9981L26.6344 50.808L26.677 50.7066L26.7656 50.4978L26.8133 50.3836L27.0425 49.8374L27.2113 49.4429L27.3016 49.2332L27.4396 48.9137L27.5393 48.6819L27.5777 48.5941L27.7072 48.2933L27.7507 48.1902L27.7711 48.1433L27.8095 48.0539L27.824 48.0189L27.8836 47.8809L27.9356 47.7616L27.9663 47.6934L28.0932 47.4062L28.1546 47.2707L28.3114 46.8915L28.348 46.7893L28.3591 46.7509L28.377 46.6853V46.67L28.3983 46.5694L28.429 46.5029L28.4486 46.4808L28.4852 46.4254L28.5159 46.37L28.533 46.3359L28.6028 46.1834L28.6344 46.1016L28.6932 45.9524L28.7426 45.8314L28.7699 45.7658L28.884 45.4948L28.9352 45.3772L29.0332 45.1514L29.115 44.9588L29.161 44.8506L29.3527 44.3956L29.4405 44.1842L29.7123 43.5366L29.7967 43.3389L29.8316 43.2571L29.8973 43.1054L29.9194 43.056L30.0336 42.7892L30.06 42.7211L30.0685 42.6981L30.0813 42.6597V42.6537L30.0975 42.6026L30.1231 42.537L30.141 42.4927L30.1819 42.3964L30.2057 42.341L30.2569 42.2251L30.285 42.1629L30.3344 42.0521L30.3736 41.9627L30.3958 41.9107L30.4921 41.6866L30.5466 41.557L30.7784 41.0023L30.8883 40.733L31.0664 40.3001L31.2062 39.9609L31.2837 39.7743L31.6092 38.9903L31.7746 38.5975L31.9373 38.2081L32.014 38.0265L32.1623 37.6729L32.2279 37.5195L32.291 37.3695L32.3199 37.3022L32.3745 37.1727L32.3992 37.1156L32.4443 37.0091L32.4639 36.9656L32.4989 36.8847L32.5117 36.8557L32.5696 36.7193L32.6182 36.6034L32.6455 36.5378L32.7579 36.2617L32.8082 36.1331L32.896 35.9158L32.9633 35.7539L32.9982 35.6703L33.0698 35.5042L33.1039 35.4266L33.1695 35.2766L33.1985 35.2144L33.2786 35.0355L33.3255 34.9281L33.3442 34.8838L33.3783 34.8011L33.3885 34.773L33.4047 34.7279V34.7219L33.4226 34.658L33.4388 34.6171L33.4507 34.5881L33.4772 34.5242L33.4951 34.4824L33.5343 34.3921L33.5598 34.3342L33.6135 34.2114L33.6476 34.1356L33.7183 33.9746L33.7618 33.8783L33.8521 33.6746L33.9058 33.5544L34.0336 33.257L34.0634 33.1829L34.072 33.1573L34.0864 33.1147V33.1096L34.1052 33.0508L34.135 32.975L34.1572 32.923L34.2049 32.8097L34.2339 32.744L34.2944 32.6068L34.3268 32.5336L34.4895 32.1671L34.6088 31.8902L34.6795 31.7223L34.7528 31.5493L34.7929 31.4539L34.8764 31.2553L34.9224 31.1454L35.0179 30.9162L35.0707 30.7892L35.1798 30.5259L35.2403 30.3793L35.3016 30.2327L35.357 30.1007L35.3902 30.0231L35.5317 29.6916L35.6016 29.5272L35.6621 29.3857L35.7098 29.2741L35.7362 29.2119L35.8496 28.9434L35.9135 28.7926L36.1802 28.1586L36.3029 27.8655L36.4853 27.43L36.5977 27.1633L36.6489 27.0406L36.7486 26.802L36.7946 26.692L36.8832 26.4807L36.9241 26.3844L37.0025 26.1978L37.0375 26.1134L37.1065 25.9498L37.1372 25.8765L37.2522 25.6047L37.2974 25.4973L37.3809 25.2996L37.4133 25.2246L37.4712 25.0874L37.4934 25.038L37.5326 24.9485L37.547 24.917L37.5726 24.8608L37.582 24.8403L37.6058 24.7875L37.6289 24.7355L37.6433 24.7014L37.709 24.5455L37.7524 24.4423L37.8436 24.2208L37.8964 24.0921L38.0064 23.8237L38.0652 23.6797L38.3089 23.078L38.4265 22.7832L38.5432 22.4918L38.5961 22.358L38.6992 22.0972L38.7426 21.9856L38.9156 21.5442L38.9642 21.4198L38.9838 21.3712L39.017 21.2843L39.0264 21.2613L39.0818 21.1343L39.1431 21.0005L39.1823 20.9153L39.2667 20.7355L39.3136 20.6349L39.4116 20.4295L39.4627 20.3239L39.7626 19.7879L39.9995 19.4428L40.1342 19.2791L40.4145 18.957L40.5688 18.807L40.8866 18.5148L41.0579 18.3818L41.1696 18.306L41.2667 18.248L41.3238 18.2165L41.5752 18.0861L41.7166 18.0188L42.0072 17.8867L42.1461 17.8305L42.2833 17.7759L42.3472 17.7529L42.4691 17.7095L42.5228 17.6933L42.585 17.6822L42.6523 17.6745L42.6983 17.6711L42.7989 17.6643L42.8619 17.6617L42.9966 17.6549L43.0767 17.6515L43.2446 17.6456L43.3408 17.643L43.5428 17.637L43.6561 17.6345L43.8905 17.6285L44.0209 17.626L44.2884 17.6208L44.435 17.6191L44.7367 17.614L44.8994 17.6115L45.2335 17.6072L45.4133 17.6055L45.7806 17.6012L45.9766 17.5995L46.3762 17.5953L46.5884 17.5936L47.0213 17.5902L47.2497 17.5885L47.7158 17.5859L47.9604 17.5842L48.458 17.5816L48.7196 17.5808L49.2497 17.5782L49.5266 17.5774L56.2331 17.5527M23.1363 32.4884H23.5853H23.8018L24.2279 32.4892H24.4307L24.8312 32.4901H25.0204L25.3919 32.4918H25.5666L25.9066 32.4935L26.0643 32.4944L26.371 32.4961L26.5116 32.4969L26.7818 32.4986L26.9028 32.4995L27.1337 32.5012L27.2343 32.5029L27.4235 32.5046L27.5019 32.5063L27.6476 32.5088L27.703 32.5097L27.8018 32.5131L27.8325 32.514L27.8819 32.5174L27.887 32.5191L27.9987 32.5838L28.0285 32.6554L28.0208 32.7168L28.0089 32.7824L27.997 32.8233L27.9688 32.9111L27.9484 32.9639L27.9032 33.0781L27.8742 33.1454L27.812 33.2894L27.7737 33.3738L27.5368 33.9115L27.4584 34.0921L27.4243 34.1731L27.3595 34.3256L27.3348 34.3844L27.1797 34.7602L27.1295 34.8812L27.1082 34.9332L27.0673 35.0312L27.0528 35.0662L27.0144 35.1582L26.9735 35.257L26.9462 35.3235L26.8866 35.4667L26.8508 35.5519L26.7767 35.7325L26.7341 35.8348L26.6463 36.047L26.5977 36.1629L26.4997 36.4006L26.4477 36.5268L26.2313 37.0491L26.1171 37.3244L25.7822 38.1322L25.6757 38.387L25.6254 38.508L25.5274 38.7432L25.4822 38.8514L25.3945 39.0602L25.3553 39.1531L25.2811 39.3295L25.2505 39.4036L25.1925 39.5408L25.1704 39.5928L25.1312 39.684L25.1192 39.7104L24.9624 40.0692L24.9087 40.191L24.8849 40.2464L24.8389 40.3512L24.8218 40.3921L24.6974 40.6776L24.6122 40.8753L24.5815 40.946L24.5236 41.0824L24.4758 41.1983L24.4494 41.2639L24.3369 41.54L24.2867 41.6687L24.1989 41.886L24.1316 42.0479L24.0966 42.1314L24.0251 42.2975L23.991 42.3751L23.9254 42.5251L23.8964 42.5873L23.8163 42.7654L23.7694 42.8728L23.7507 42.9171L23.7166 42.9989L23.7064 43.0261L23.6902 43.0713V43.0764L23.674 43.1267L23.6484 43.1915L23.6297 43.2358L23.5888 43.3312L23.564 43.3875L23.5121 43.5033L23.4839 43.5656L23.3894 43.7777L23.3195 43.9379L23.2837 44.0215L23.2138 44.1885L23.1814 44.2669L23.1192 44.4194L23.0937 44.4842L22.9258 44.9017L22.8695 45.0372L22.8448 45.0969L22.798 45.2085L22.7801 45.2494L22.6667 45.5102L22.6309 45.5928L22.6147 45.6286L22.5866 45.6951L22.5764 45.7181L22.5534 45.7718L22.5304 45.8246L22.5159 45.8579L22.4503 46.0138L22.4077 46.1135L22.3173 46.3274L22.2662 46.4484L22.1614 46.6972L22.1069 46.8259L21.7864 47.5519L21.5845 47.9763L21.4865 48.1604L21.2931 48.5098L21.1985 48.6597L21.0093 48.9418L20.9147 49.0602L20.7247 49.281L20.6275 49.3713L20.4307 49.5383L20.3284 49.6031L20.1213 49.7224L20.0114 49.7658L19.7864 49.8425L19.6663 49.8681L19.4064 49.9141L19.2726 49.9218L19.2087 49.9116L19.0817 49.8817L19.0033 49.8502L18.9224 49.8161L18.8746 49.794L18.7758 49.7471L18.7178 49.7181L18.4179 49.5519L18.2364 49.4258L18.1503 49.3483L17.9807 49.1821L17.8947 49.0764L17.7234 48.8498L17.6322 48.7066L17.5402 48.5583L17.4924 48.4748L17.3944 48.3035L17.3433 48.2081L17.2385 48.0095L17.1823 47.9005L17.0689 47.6738L17.0084 47.5494L16.884 47.292L16.8175 47.1506L16.6812 46.86L16.6079 46.7015L16.4579 46.3743L16.3778 46.1962L16.2125 45.8306L16.1239 45.6329L15.8776 45.0858L15.7353 44.7679L15.6714 44.6265L15.5487 44.3538L15.4916 44.2277L15.3791 43.9797L15.3237 43.8587L15.2138 43.6167L15.1567 43.4914L15.0391 43.2358L14.9752 43.0969L14.8422 42.8088L14.7673 42.6461L14.6105 42.3061L14.5201 42.1101L14.4076 41.8647L14.342 41.7172L14.3165 41.6576L14.2687 41.5468L14.2543 41.511L14.2312 41.4522V41.4462L14.2227 41.4207L14.2082 41.3857L14.198 41.361L14.1443 41.2409L14.106 41.1565L14.0216 40.9716L13.9705 40.8625L13.864 40.635L13.8052 40.5114L13.6399 40.1612L13.5427 39.9541L13.5044 39.8698L13.4345 39.7172L13.4123 39.6678L13.3936 39.6243L13.3876 39.6099L13.3791 39.5877V39.586L13.3518 39.5153L13.3084 39.4147L13.2777 39.344L13.2087 39.1897L13.1669 39.0977L13.08 38.9068L13.0323 38.8029L12.7485 38.1825L12.665 37.9993L12.6318 37.926L12.5712 37.7914L12.5525 37.7504L12.4715 37.5732L12.3949 37.4079L12.3488 37.3107L12.1494 36.8864L12.0472 36.6716L11.9023 36.3614L11.8179 36.1723L11.7839 36.093L11.7234 35.9464L11.7038 35.8953L11.6748 35.8109V35.7982L11.6501 35.7325L11.6134 35.7053H11.5896L11.5291 35.655L11.5044 35.5817V35.5348L11.4796 35.4147L11.443 35.3644H11.4191L11.3586 35.3746L11.3339 35.39V35.3908L11.3169 35.3474L11.2853 35.2587L11.2964 35.2451L11.3015 35.2213L11.3126 35.165L11.3194 35.1198L11.3126 34.9511L11.2811 34.8514L11.2555 34.8259L11.1908 34.7986L11.1703 34.8233L11.1541 34.7117L11.1345 34.3418L11.1328 34.2481L11.1371 34.0777L11.1413 33.995L11.1567 33.8442L11.1754 33.6976L11.201 33.6132L11.2061 33.6422L11.2172 33.6524L11.2683 33.6541L11.3015 33.6192L11.3126 33.5877L11.3637 33.4854L11.4132 33.4104L11.4447 33.3704L11.5862 33.2059L11.6748 33.1232L11.8606 32.9596L11.9594 32.8881L12.1588 32.7543L12.2534 32.7074L12.6548 32.5097L20.1963 32.4918L21.714 32.4892L22.6821 32.4884M11.5606 35.9354L11.6023 36.0308L11.6901 36.2294L11.7395 36.3418L11.8418 36.5736L11.898 36.6997L12.0139 36.9588L12.0753 37.0977L12.2014 37.3789L12.267 37.5272L12.5397 38.1348L12.6829 38.4535L12.9735 39.0977L13.12 39.4207L13.4115 40.0632L13.5512 40.3708L13.8256 40.9724L13.95 41.2443L13.8648 41.0585L13.6671 40.6256L13.564 40.4007L13.3416 39.9107L13.1149 39.4122L12.642 38.3623L12.5252 38.1041L12.3045 37.6115L12.1963 37.3712L12.0012 36.9332L11.9543 36.8284L11.8674 36.6341L11.8256 36.5395L11.7498 36.3691L11.714 36.2864L11.6501 36.1424L11.5708 35.9609L11.524 35.8527L11.5163 35.834M11.3672 33.2221L11.3177 33.3039L11.2802 33.3729L11.2964 33.3303L11.4336 33.1198L11.4924 33.0568M11.7191 32.8173L11.6501 32.8906L11.7157 32.8207L11.7924 32.7534M11.8844 32.6776L11.9253 32.6443L11.9262 32.6435M11.985 32.6L11.9943 32.5932L11.985 32.6ZM13.7796 32.3324L13.8222 32.3307H13.8231M19.3041 32.2967H19.074H18.6198H18.4042H17.9807L17.7805 32.2975H17.3868H17.2002L16.8346 32.2984L16.6616 32.2992L16.3233 32.3001L16.1639 32.3009L15.8512 32.3026L15.7038 32.3035L15.4157 32.3052L15.2811 32.306L15.0169 32.3086L14.8934 32.3103L14.4204 32.3163L14.2151 32.3214L14.0378 32.3256L14.2125 32.3214L14.4179 32.3171L14.8908 32.3103L15.0144 32.3086L15.2785 32.306L15.4132 32.3052L15.7012 32.3035L15.8486 32.3026L16.1614 32.3009L16.3207 32.3001L16.6599 32.2992L16.832 32.2984L17.1984 32.2975H17.3842H17.7788L17.9799 32.2967H18.4034H18.619H19.0723H19.3041Z" fill="#3F3F3F"/>
<path d="M21.8493 57.5921L21.84 57.5767L21.8485 57.5333L21.8562 57.5085L21.8962 57.4497L21.9201 57.4191L21.9891 57.3492L22.1212 57.2367L22.2107 57.1685L22.4007 57.0058L22.4978 56.9214L22.7007 56.7297L22.9052 56.5328L23.3278 56.0778L23.5375 55.8443L23.938 55.3517L24.468 54.6231L24.5882 54.4433L24.8165 54.0786L24.9299 53.8946L25.1523 53.5085L25.2639 53.3117L25.488 52.8882L25.6014 52.67L25.8357 52.1911L25.955 51.944L26.2073 51.3935L26.272 51.2512L26.4058 50.9495L26.474 50.7953L26.6154 50.4706L26.687 50.3044L26.8362 49.9542L26.912 49.7752L27.0705 49.396L27.1515 49.2034L27.3202 48.7953L27.5861 48.1468L27.6679 47.9474L27.8417 47.5332L27.8826 47.4361L27.955 47.2665L28.0402 47.0748L28.0616 47.027L28.1152 46.9035L28.1434 46.8387L28.2039 46.6956L28.3769 46.272L28.4263 46.1468L28.5507 45.8468L28.5822 45.7735L28.641 45.6363L28.7177 45.4625L28.7399 45.4139L28.7944 45.2887L28.8234 45.223L28.8847 45.0782L29.0586 44.6529L29.108 44.5277L29.2324 44.2277L29.2639 44.1544L29.3227 44.0172L29.3994 43.8434L29.4216 43.7948L29.4761 43.6696L29.5051 43.6039L29.5665 43.4591L29.7403 43.0338L29.7897 42.9086L29.9133 42.6103L29.944 42.5379L30.0019 42.4024L30.0769 42.2311L30.0991 42.1834L30.1621 42.0394L30.1962 41.961L30.2763 41.7727L30.5328 41.1591L30.6206 40.9435L30.8055 40.497L30.8549 40.3785L30.9648 40.1144L31.0219 39.9772L31.154 39.6627L31.223 39.4974L31.3833 39.1156L31.425 39.0151L31.5162 38.7986L31.5631 38.687L31.6636 38.4476L31.7156 38.3248L31.8264 38.0598L31.8835 37.9243L32.007 37.632L32.0692 37.4821L32.2047 37.1608L32.4229 36.6427L32.549 36.3436L32.8046 35.7351L32.9316 35.4343L33.1685 34.8702L33.2256 34.7347L33.3313 34.4842L33.3824 34.3632L33.4736 34.1459L33.517 34.0428L33.5912 33.8672L33.6781 33.6601L33.725 33.5485L33.8375 33.2818L33.8954 33.1437L34.019 32.8506L34.0803 32.704L34.2005 32.4194L34.3598 32.0411L34.4067 31.9294L34.5158 31.6695L34.572 31.5357L34.6879 31.2562L34.7459 31.1173L34.8558 30.8523L34.9981 30.5072L35.0799 30.3078L35.2546 29.8936L35.2963 29.7965L35.3688 29.6269L35.454 29.4352L35.4753 29.3874L35.529 29.2639L35.5571 29.1991L35.6176 29.056L35.7906 28.6324L35.84 28.5072L35.9644 28.2072L35.996 28.1339L36.0548 27.9967L36.1315 27.8229L36.1536 27.7743L36.2082 27.649L36.2371 27.5826L36.2985 27.4369L36.4749 27.0065L36.5243 26.8796L36.6376 26.6052L36.6641 26.5404L36.7135 26.4245L36.774 26.289L36.7851 26.2643L36.8166 26.1936L36.8336 26.1544L36.8754 26.0589L36.9197 25.9584L37.0305 25.7002L37.0884 25.5647L37.2171 25.2605L37.2827 25.1062L37.4157 24.7892L37.4821 24.6324L37.6065 24.3342L37.6662 24.191L37.7676 23.9456L37.7906 23.8885L37.8307 23.7905L37.8494 23.7445L37.8792 23.6703L37.8929 23.6371L37.9099 23.5911L37.921 23.5587V23.5536L37.9372 23.5101L37.9474 23.4829L37.9806 23.4028L37.9994 23.3584L38.0454 23.2519L38.1238 23.0747L38.1383 23.044L38.1741 22.9622L38.1928 22.9187L38.238 22.8156L38.2849 22.7083L38.3973 22.4441L38.7689 21.5596L38.8575 21.3448L39.0151 20.9741L39.0901 20.7969L39.2248 20.4944L39.2904 20.3495L39.4105 20.1024L39.4685 19.9839L39.5801 19.7803L39.6347 19.6831L39.7446 19.511L39.7991 19.4275L39.9133 19.2749L40.307 18.8352L40.4519 18.6895L40.7834 18.4168L40.9547 18.2847L41.3219 18.0504L41.5068 17.9396L41.8852 17.7589L42.4374 17.5638L42.4553 17.5587L42.5098 17.5502L42.5405 17.5459L42.6223 17.5382L42.6666 17.534L42.7774 17.5272L42.8371 17.5237L42.9777 17.5178L43.0518 17.5144L43.2248 17.5093L43.3151 17.5067L43.5213 17.5016L43.6287 17.4999L43.8699 17.4956L43.9951 17.4939L44.2721 17.4905L44.4161 17.4888L44.7314 17.4863L44.8942 17.4854L45.2495 17.4837L45.4319 17.4828L45.829 17.482L46.0318 17.4811H46.4715H46.6965H47.1796H47.4268L47.956 17.482L48.2269 17.4828L48.803 17.4845L49.7233 17.4871L56.6258 17.5118L57.0323 17.7121L57.1499 17.77L57.3629 17.9294L57.4651 18.0163L57.645 18.2285L57.7293 18.3401L57.8691 18.5966L58.0293 19.0252L58.0617 19.1445L58.0821 19.4223L58.0847 19.5664L58.0472 19.8842L58.0216 20.047L57.9287 20.3904L57.7285 20.9204L57.7157 20.9494L57.6773 21.038L57.656 21.0866L57.6032 21.2102L57.5751 21.2758L57.5095 21.4283L57.4762 21.5076L57.4012 21.6848L57.3237 21.8663L57.1507 22.2771L56.8806 22.923L56.7894 23.1394L56.5994 23.5954L56.5039 23.8229L56.3216 24.2617L56.2764 24.3683L56.1929 24.5685L56.152 24.6657L56.0778 24.8446L56.0421 24.9298L55.979 25.0798L55.9014 25.2664L55.8793 25.3193L55.8256 25.4471L55.7975 25.5153L55.7336 25.6686L55.6671 25.8271L55.512 26.1961L55.4328 26.3853L55.2674 26.7807L55.0263 27.3542L54.9164 27.6167L54.7059 28.1169L54.6028 28.3632L54.4059 28.8327L54.3088 29.0628L54.1247 29.5016L54.0344 29.7172L53.8622 30.1254L53.7787 30.3265L53.6194 30.7066L53.541 30.8923L53.3936 31.2443L53.3211 31.4164L53.1848 31.7402L53.1183 31.8996L52.993 32.197L52.9325 32.3427L52.8184 32.6146L52.763 32.7475L52.659 32.9946L52.6087 33.1156L52.515 33.3389L52.4698 33.4471L52.3863 33.6474L52.3454 33.7445L52.2713 33.9218L52.2355 34.0078L52.1699 34.1638L52.0071 34.5549L51.9483 34.6955L51.8103 35.0185L51.777 35.096L51.7148 35.2383L51.6364 35.4139L51.6151 35.4616L51.5614 35.5852L51.5333 35.6508L51.472 35.7948L51.2973 36.2234L51.2478 36.3504L51.1345 36.6248L51.1081 36.6896L51.0587 36.8055L50.9981 36.9409L50.9871 36.9657L50.9555 37.0364L50.9385 37.0756L50.8967 37.171L50.8524 37.2716L50.7417 37.5298L50.6837 37.6653L50.555 37.9695L50.4894 38.1237L50.3565 38.4407L50.29 38.5975L50.1656 38.8958L50.1059 39.0389L50.0045 39.2844L49.9815 39.3415L49.9415 39.4395L49.9227 39.4855L49.8929 39.5596L49.8793 39.5928L49.8622 39.6389L49.8512 39.6712V39.6764L49.835 39.7207L49.8247 39.7471L49.7906 39.828L49.7719 39.8724L49.725 39.9789L49.6449 40.157L49.616 40.2192L49.5503 40.3683L49.5163 40.4459L49.4455 40.6112L49.4106 40.6938L49.3433 40.854L49.2563 41.0688L49.2069 41.1949L49.0825 41.4957L49.0518 41.569L48.9939 41.7053L48.9197 41.8766L48.8993 41.9218L48.8584 42.013L48.8371 42.0624L48.7826 42.1894L48.7672 42.2243L48.7306 42.3095L48.7118 42.3538L48.6667 42.4604L48.6428 42.5166L48.5865 42.6504L48.5567 42.7203L48.4869 42.8847L48.4511 42.9716L48.3658 43.1728L48.3224 43.2776L48.2201 43.5196L48.1673 43.6457L48.0471 43.9337L47.9841 44.0828L47.8426 44.4212L47.7685 44.5967L47.604 44.9895L47.5188 45.1932L47.3288 45.6457L47.2299 45.88L47.0135 46.3982L46.6556 47.252L46.5167 47.5826L46.2585 48.1979L46.1323 48.4996L45.8929 49.0714L45.656 49.6346L45.2061 50.7049L45.0936 50.9734L44.8635 51.5196L44.7476 51.7957L44.5056 52.3701L44.3829 52.6615L44.1221 53.2819L43.7003 54.2823L43.633 54.4416L43.5051 54.728L43.4421 54.866L43.3185 55.114L43.2572 55.2333L43.1353 55.4489L43.074 55.5537L42.9496 55.742L42.8226 55.9252L42.5448 56.2354L42.0599 56.6607L41.9133 56.7723L41.6125 56.9708L41.4617 57.0663L41.1558 57.2282L41.0032 57.3049L40.6982 57.4284L40.2474 57.5665L40.2269 57.5716L40.1366 57.581L40.0838 57.5861L39.9321 57.5946L39.8494 57.5997L39.6406 57.6082L39.5299 57.6125L39.2699 57.6202L39.1327 57.6236L38.8243 57.6313L38.6641 57.6347L38.3104 57.6415L38.1289 57.6449L37.7352 57.6517L37.5341 57.6543L37.1055 57.6602L36.8865 57.6628L36.4263 57.6679L36.1928 57.6705L35.7045 57.6747L35.2111 57.679L34.1587 57.6866L33.6253 57.6892L32.5192 57.6943L31.9619 57.696L30.8353 57.6986L30.272 57.6994L29.1583 57.6986H28.6052L27.5375 57.6952L27.275 57.6943L26.7654 57.6926L26.5123 57.6909L26.0258 57.6884L25.7854 57.6866L25.3253 57.6832L25.0995 57.6815L24.6717 57.6773L24.4621 57.6747L24.0701 57.6705L23.8783 57.6679L23.5264 57.6619L23.356 57.6594L23.0483 57.6526L22.9001 57.65L22.641 57.6432L22.5174 57.6389L22.3112 57.6313L22.2141 57.6278L22.0649 57.6193L21.9976 57.6151L21.909 57.6065L21.8724 57.6014M40.4723 57.3441L40.7305 57.2461L41.1805 57.0365L41.3952 56.9291L41.7659 56.6956L41.9423 56.5763L42.2406 56.3147L42.6164 55.8843L42.6564 55.829L42.734 55.7284L42.7723 55.6798L42.8396 55.5997L42.872 55.5631L42.9223 55.5128L42.97 55.4796L42.9879 55.4779L43.0152 55.4523L43.0339 55.3935V55.3824L43.0535 55.3202L43.0654 55.2827L43.1063 55.1788L43.1285 55.1225L43.1847 54.9904L43.2802 54.7757L43.3373 54.6504L43.437 54.4314L43.4856 54.324L43.5784 54.1136L43.6262 54.0053L43.731 53.7633L43.7582 53.6994L43.8187 53.5588L43.9184 53.3236L43.9346 53.2853L43.979 53.1839L44.002 53.131L44.0548 53.0092L44.2167 52.6427L44.267 52.532L44.3445 52.3453L44.3607 52.3053L44.3829 52.2456L44.3974 52.1979V52.192L44.4178 52.1374L44.4306 52.1042L44.4724 52.0045L44.4954 51.9499L44.5542 51.8179L44.653 51.598L44.6879 51.5213L44.7519 51.3781L44.7825 51.3091L44.8337 51.1915L44.8567 51.137L44.8882 51.0586L44.9087 50.9981V50.993L44.9231 50.9504L44.9317 50.9248L44.9615 50.8507L45.0893 50.5533L45.143 50.4331L45.2342 50.2277L45.2776 50.1306L45.3492 49.9695L45.3825 49.8937L45.437 49.7701L45.4626 49.713L45.5009 49.6219L45.5188 49.5801L45.5452 49.517L45.5571 49.4881L45.5725 49.4472L45.5904 49.3824V49.3764L45.6049 49.333L45.6134 49.3074L45.6432 49.2324L45.771 48.9342L45.8205 48.8234L45.9355 48.5609L45.9636 48.4979L46.0147 48.3794L46.0787 48.232L46.1136 48.1502L46.2031 47.9491L46.3241 47.6866L46.3565 47.6184L46.4076 47.4778L46.4187 47.4455L46.4332 47.3884L46.4425 47.3244V47.2929L46.4689 47.2435L46.5329 47.2094H46.5576L46.584 47.1898L46.5814 47.1421L46.5755 47.1327L46.5746 47.0961L46.5755 47.0748L46.5865 47.0202L46.6581 46.8225L46.6735 46.791L46.7203 46.6845L46.7476 46.624L46.8183 46.4578L46.8567 46.3675L46.9521 46.1425L47.0033 46.0224L47.1234 45.7352L47.1865 45.5843L47.3313 45.235L47.4072 45.0526L47.5785 44.641L47.6671 44.4263L47.8639 43.9499L48.1886 43.1617L48.2227 43.0799L48.3002 42.8924L48.3411 42.7944L48.4289 42.5822L48.5201 42.3649L48.7203 41.8869L48.8217 41.6448L49.0254 41.1625L49.3083 40.4961L49.3944 40.2942L49.552 39.9218L49.5895 39.8323L49.6586 39.6678L49.6926 39.5886L49.7523 39.4454L49.7804 39.3773L49.829 39.2597L49.8512 39.2043L49.8869 39.1165L49.9031 39.0773L49.9236 39.0236L49.9364 38.9861V38.981L49.9568 38.9273L49.9696 38.8941L50.0114 38.7952L50.0344 38.7407L50.0932 38.6095L50.192 38.3896L50.2269 38.3129L50.2909 38.1698L50.3215 38.1007L50.3727 37.9831L50.3957 37.9286L50.4272 37.8502L50.4477 37.7897V37.7846L50.4621 37.742L50.4707 37.7164L50.5005 37.6423L50.6283 37.3449L50.6777 37.2341L50.7868 36.9844L50.8132 36.9248L50.8601 36.8165L50.9163 36.6853L51.0629 36.3368L51.3373 35.6815L51.408 35.5144L51.5538 35.1651L51.7898 34.5975L51.8068 34.5566L51.8537 34.4484L51.8793 34.3913L51.9372 34.2635L52.1179 33.8774L52.1741 33.7616L52.2627 33.5604L52.2806 33.5161L52.3062 33.4488L52.3224 33.39V33.3806L52.3428 33.3201L52.3556 33.2835L52.3974 33.1787L52.4204 33.1224L52.4792 32.9869L52.578 32.7654L52.613 32.6887L52.6769 32.5455L52.7076 32.4765L52.7587 32.3589L52.7817 32.3044L52.8132 32.226L52.8337 32.1655V32.1604L52.8482 32.1177L52.8567 32.0922L52.8865 32.018L53.0126 31.7206L53.0621 31.6099L53.1592 31.3849L53.1814 31.3329L53.2189 31.2443L53.2598 31.1463L53.2691 31.1224L53.2964 31.0568L53.3109 31.021L53.345 30.9384L53.4549 30.6776L53.4634 30.6572L53.4916 30.5915L53.5069 30.5549L53.5461 30.4612L53.5674 30.4109L53.6168 30.2924L53.6424 30.2302L53.7003 30.0913L53.7591 29.949L53.8955 29.6209L54.1102 29.1011L54.146 29.0133L54.227 28.8182L54.2687 28.7177L54.3582 28.5029L54.4485 28.2848L54.6428 27.8195L54.74 27.5868L54.9291 27.1343L54.9752 27.0253L55.0629 26.8182L55.1831 26.5327L55.2581 26.3555L55.4012 26.0146L55.4711 25.8484L55.593 25.5562L55.6211 25.488L55.6722 25.3653L55.6961 25.3073L55.737 25.2085L55.7557 25.1625L55.7847 25.0909L55.8128 25.0202L55.8248 24.9895L55.8588 24.9043L55.8776 24.8591L55.9219 24.7543L56.0651 24.4288L56.0889 24.3776L56.1452 24.249L56.1741 24.1816L56.2372 24.0325L56.4144 23.5996L56.44 23.5357L56.5014 23.3849L56.5337 23.3073L56.6036 23.142L56.6386 23.0593L56.7084 22.8991L56.803 22.6878L56.8593 22.5634L56.9487 22.3486L56.9675 22.3009L56.9931 22.2293L57.0092 22.1663V22.1569L57.0186 22.1203L57.0246 22.099L57.0442 22.0444L57.1286 21.8493L57.166 21.7717L57.2606 21.5689L57.3092 21.4624L57.4166 21.2221L57.4703 21.1011L57.5776 20.8531L57.7251 20.5054L57.7506 20.4424L57.7924 20.2924L57.8111 20.2149L57.8384 20.0436L57.8614 19.8689L57.8665 19.4931L57.8623 19.3073L57.8128 18.9664L57.7966 18.8872L57.7557 18.7474L57.679 18.577L57.6168 18.4756L57.4941 18.3111L57.4311 18.2336L57.2888 18.1032L57.2129 18.041L57.0297 17.9268L56.6846 17.7555L56.2329 17.5527L49.5265 17.5774L49.2495 17.5783L48.7195 17.5808L48.4579 17.5817L47.9602 17.5843L47.7156 17.586L47.2495 17.5885L47.0211 17.5902L46.5882 17.5936L46.3761 17.5953L45.9764 17.5996L45.7804 17.6013L45.4131 17.6056L45.2333 17.6073L44.8993 17.6115L44.7365 17.6141L44.4349 17.6192L44.2883 17.6209L44.0207 17.626L43.8903 17.6286L43.656 17.6345L43.5426 17.6371L43.3407 17.643L43.2444 17.6456L43.0765 17.6516L42.9964 17.655L42.8618 17.6618L42.7987 17.6644L42.6982 17.6712L42.6521 17.6746L42.5848 17.6822L42.5226 17.6933L42.4689 17.7095L42.3471 17.753L42.2832 17.776L42.146 17.8305L42.0071 17.8868L41.7165 18.0188L41.575 18.0862L41.3236 18.2165L41.2665 18.2481L41.1694 18.306L41.0578 18.3819L40.8865 18.5148L40.5686 18.8071L40.4144 18.9571L40.134 19.2792L39.9994 19.4428L39.7625 19.7879L39.4625 20.3239L39.4114 20.4296L39.3134 20.635L39.2665 20.7355L39.1822 20.9153L39.143 21.0005L39.0816 21.1343L39.0262 21.2613L39.0169 21.2843L38.9836 21.3712L38.964 21.4198L38.9154 21.5442L38.7425 21.9856L38.699 22.0973L38.5959 22.358L38.5431 22.4918L38.4263 22.7832L38.3087 23.0781L38.065 23.6797L38.0062 23.8237L37.8963 24.0922L37.8434 24.2208L37.7523 24.4424L37.7088 24.5455L37.6432 24.7014L37.6287 24.7355L37.6057 24.7875L37.5818 24.8403L37.5725 24.8608L37.5469 24.917L37.5324 24.9486L37.4932 25.038L37.471 25.0875L37.4131 25.2247L37.3807 25.2997L37.2972 25.4974L37.252 25.6047L37.137 25.8766L37.1063 25.9499L37.0373 26.1135L37.0024 26.1978L36.924 26.3845L36.8831 26.4807L36.7944 26.6921L36.7484 26.802L36.6487 27.0406L36.5976 27.1633L36.4851 27.43L36.3027 27.8655L36.18 28.1586L35.9133 28.7926L35.8494 28.9435L35.7361 29.2119L35.7096 29.2741L35.6619 29.3857L35.6014 29.5272L35.5315 29.6917L35.3901 30.024L35.3568 30.1007L35.3015 30.2328L35.2401 30.3794L35.1796 30.5259L35.0705 30.7892L35.0177 30.9162L34.9223 31.1454L34.8762 31.2554L34.7927 31.4539L34.7527 31.5494L34.6794 31.7223L34.6087 31.8902L34.4894 32.1672L34.3266 32.5336L34.2942 32.6069L34.2337 32.7441L34.2047 32.8097L34.157 32.923L34.1349 32.975L34.105 33.0509L34.0863 33.1097V33.1148L34.0718 33.1574L34.0633 33.1829L34.0335 33.2571L33.9056 33.5545L33.8519 33.6746L33.7616 33.8783L33.7182 33.9746L33.6474 34.1356L33.6133 34.2115L33.5597 34.3342L33.5341 34.3921L33.4949 34.4825L33.477 34.5242L33.4506 34.5881L33.4386 34.6171L33.4225 34.658L33.4046 34.7219V34.7279L33.3884 34.7731L33.3781 34.8012L33.3441 34.8838L33.3253 34.9282L33.2784 35.0355L33.1983 35.2145L33.1694 35.2767L33.1038 35.4267L33.0697 35.5042L32.9981 35.6704L32.9631 35.7539L32.8958 35.9158L32.8081 36.1331L32.7578 36.2618L32.6453 36.5379L32.618 36.6035L32.5695 36.7194L32.5115 36.8557L32.4987 36.8847L32.4638 36.9657L32.4442 37.0091L32.399 37.1156L32.3743 37.1727L32.3198 37.3023L32.2908 37.3696L32.2277 37.5196L32.1621 37.6729L32.0138 38.0266L31.9372 38.2081L31.7744 38.5975L31.6091 38.9904L31.2835 39.7744L31.206 39.961L31.0663 40.3001L30.8882 40.733L30.7782 41.0023L30.5464 41.5571L30.4919 41.6866L30.3956 41.9107L30.3734 41.9627L30.3342 42.0522L30.2848 42.1629L30.2567 42.2252L30.2056 42.341L30.1817 42.3964L30.1408 42.4927L30.1229 42.537L30.0974 42.6027L30.0812 42.6538V42.6597L30.0684 42.6981L30.0599 42.7211L30.0334 42.7893L29.9193 43.056L29.8971 43.1054L29.8315 43.2571L29.7965 43.3389L29.7122 43.5366L29.4403 44.1843L29.3526 44.3956L29.1608 44.8515L29.1148 44.9589L29.033 45.1515L28.935 45.3773L28.8839 45.4949L28.7697 45.7659L28.7424 45.8315L28.693 45.9525L28.6342 46.1016L28.6027 46.1834L28.5328 46.3359L28.5158 46.37L28.4851 46.4254L28.4484 46.4808L28.4288 46.503L28.3982 46.5694L28.3769 46.67V46.6853L28.359 46.7509L28.3479 46.7893L28.3112 46.8916L28.1544 47.2708L28.0931 47.4063L27.9661 47.6934L27.9354 47.7616L27.8835 47.8809L27.8238 48.019L27.8093 48.0539L27.771 48.1434L27.7505 48.1902L27.7071 48.2933L27.5775 48.5942L27.5392 48.6819L27.4395 48.9137L27.3014 49.2333L27.2111 49.4429L27.0424 49.8375L26.8131 50.3837L26.7654 50.4979L26.6768 50.7066L26.6342 50.8081L26.5515 50.9981L26.4697 51.1856L26.3053 51.5452L26.2618 51.6372L26.1698 51.8289L26.1229 51.9269L26.0189 52.1383L25.9644 52.2473L25.8442 52.4877L25.6397 52.8916L25.5204 53.1268L25.298 53.5486L25.1898 53.7523L24.9827 54.1195L24.8805 54.2976L24.6819 54.6214L24.5822 54.7791L24.3828 55.0705L24.2822 55.2137L24.0743 55.4847L23.9695 55.6185L23.7454 55.8801L23.6312 56.0105L23.3832 56.2729L22.9767 56.6811L22.8796 56.7748L22.7134 56.9487L22.635 57.0322L22.5132 57.1745L22.4586 57.241L22.3913 57.3407L22.3785 57.3628L22.3649 57.3952V57.4276L22.3675 57.4319L22.4007 57.4404L22.4228 57.4438L22.4961 57.4515L22.537 57.4549L22.6512 57.4617L22.7134 57.4651L22.8694 57.4719L22.9529 57.4745L23.1531 57.4804L23.2588 57.483L23.5034 57.4881L23.6321 57.4898L23.9243 57.4941L24.0769 57.4966L24.4169 57.5L24.5933 57.5017L24.9836 57.5051L25.1855 57.5068L25.6269 57.5094L25.8545 57.5111L26.3496 57.5128L26.6035 57.5137L27.1532 57.5154L27.4344 57.5162L28.0394 57.5179H28.3487L29.0117 57.5188L29.35 57.5196H30.0718H31.2222L31.4906 57.5188H32.0045H32.2576H32.7399H32.9776L33.4293 57.5179H33.6508H34.0735H34.2814L34.6751 57.5171H34.8686L35.235 57.5162H35.4156L35.7557 57.5154H35.9227L36.238 57.5145L36.3922 57.5137L36.6837 57.5128L36.826 57.512L37.0944 57.5111L37.3569 57.5094L37.8162 57.5068L38.036 57.5051L38.4178 57.5009L38.5993 57.4983L38.9103 57.4932L39.0578 57.4907L39.3074 57.4838L39.4259 57.4804L39.6219 57.4728L39.7139 57.4685L39.8656 57.4583L39.9363 57.4532L40.0514 57.4421L40.1051 57.4361L40.1928 57.4225L40.2337 57.4157L40.3011 57.3995L40.3658 57.3833M19.0023 50.0275L18.8983 49.9951L18.6998 49.9107L18.6018 49.8647L18.4126 49.7488L18.3189 49.6866L18.1382 49.5375L18.0487 49.4591L17.874 49.275L17.7871 49.1787L17.6167 48.9572L17.5315 48.8413L17.3636 48.5814L17.2801 48.4459L17.1122 48.1434L16.86 47.6414L16.7901 47.494L16.6563 47.212L16.5916 47.0756L16.4782 46.8353L16.4254 46.722L16.3444 46.5507L16.3274 46.5132L16.301 46.4561L16.2754 46.3999L16.2643 46.3768L16.2183 46.2746L16.1919 46.2158L16.1203 46.0581L16.082 45.9738L15.9942 45.7812L15.8544 45.4753L15.8067 45.3713L15.7206 45.1804L15.6789 45.0892L15.6107 44.935L15.5792 44.8643L15.5366 44.7654L15.5093 44.6955V44.6921L15.4812 44.6257L15.4633 44.5848L15.4062 44.4561L15.3738 44.3854L15.2937 44.2107L15.1574 43.9158L15.1088 43.8119L14.9955 43.5656L14.9375 43.4386L14.8148 43.1702L14.7543 43.0364L14.6376 42.7782L14.4859 42.4373L14.3973 42.2379L14.1961 41.788L14.1476 41.6798L14.0589 41.4838L13.9499 41.2443L13.8255 40.9725L13.5511 40.3709L13.4113 40.0632L13.1199 39.4207L12.9733 39.0977L12.6827 38.4535L12.5396 38.1348L12.2669 37.5272L12.2013 37.379L12.0751 37.0977L12.0138 36.9588L11.8979 36.6998L11.8416 36.5737L11.7394 36.3419L11.69 36.2294L11.6022 36.0308L11.5604 35.9354L11.4897 35.7735L11.4565 35.6977L11.4053 35.5775L11.3823 35.523L11.3525 35.4505L11.3338 35.3994V35.39L11.3585 35.3747L11.419 35.3645H11.4428L11.4795 35.4147L11.5042 35.5349V35.5818L11.5289 35.655L11.5894 35.7053H11.6133L11.6499 35.7326L11.6746 35.7982V35.811L11.7036 35.8954L11.7232 35.9465L11.7837 36.093L11.8178 36.1723L11.9021 36.3615L12.047 36.6717L12.1493 36.8864L12.3487 37.3108L12.3947 37.4079L12.4714 37.5732L12.5523 37.7505L12.5711 37.7914L12.6316 37.926L12.6648 37.9993L12.7483 38.1825L13.0321 38.8029L13.0798 38.9069L13.1667 39.0977L13.2085 39.1898L13.2775 39.344L13.3082 39.4147L13.3517 39.5153L13.3789 39.586V39.5877L13.3875 39.6099L13.3934 39.6244L13.4122 39.6678L13.4343 39.7173L13.5042 39.8698L13.5425 39.9542L13.6397 40.1612L13.805 40.5115L13.8638 40.635L13.9703 40.8626L14.0215 40.9716L14.1058 41.1566L14.1442 41.2409L14.1978 41.3611L14.2081 41.3858L14.2226 41.4207L14.2311 41.4463V41.4522L14.2541 41.511L14.2686 41.5468L14.3163 41.6576L14.3419 41.7173L14.4075 41.8647L14.52 42.1101L14.6103 42.3061L14.7671 42.6461L14.8421 42.8089L14.975 43.0969L15.0389 43.2358L15.1565 43.4915L15.2136 43.6167L15.3235 43.8587L15.3789 43.9797L15.4914 44.2277L15.5485 44.3538L15.6712 44.6265L15.7351 44.768L15.8774 45.0858L16.1237 45.6329L16.2123 45.8306L16.3777 46.1962L16.4578 46.3743L16.6077 46.7015L16.681 46.86L16.8174 47.1506L16.8838 47.2921L17.0083 47.5494L17.0688 47.6738L17.1821 47.9005L17.2383 48.0096L17.3432 48.2081L17.3943 48.3036L17.4923 48.4749L17.54 48.5584L17.632 48.7066L17.7232 48.8498L17.8945 49.0765L17.9806 49.1821L18.1501 49.3483L18.2362 49.4259L18.4177 49.552L18.7177 49.7182L18.7756 49.7471L18.8745 49.794L18.9222 49.8162L19.0031 49.8502L19.0815 49.8818L19.2085 49.9116L19.2724 49.9218L19.4062 49.9141L19.6661 49.8681L19.7863 49.8426L20.0112 49.7659L20.1212 49.7224L20.3283 49.6031L20.4305 49.5383L20.6274 49.3713L20.7245 49.281L20.9145 49.0603L21.0091 48.9418L21.1983 48.6598L21.2929 48.5098L21.4863 48.1604L21.5843 47.9763L21.7863 47.552L22.1067 46.8259L22.1612 46.6973L22.2661 46.4484L22.3172 46.3274L22.4075 46.1135L22.4501 46.0138L22.5157 45.8579L22.5302 45.8247L22.5532 45.7718L22.5762 45.7181L22.5865 45.6951L22.6146 45.6287L22.6308 45.5929L22.6666 45.5102L22.7799 45.2495L22.7978 45.2085L22.8447 45.0969L22.8694 45.0373L22.9256 44.9018L23.0935 44.4842L23.1191 44.4195L23.1813 44.2669L23.2136 44.1885L23.2835 44.0215L23.3193 43.938L23.3892 43.7778L23.4838 43.5656L23.5119 43.5034L23.5639 43.3875L23.5886 43.3312L23.6295 43.2358L23.6482 43.1915L23.6738 43.1267L23.69 43.0765V43.0713L23.7062 43.0262L23.7164 42.9989L23.7505 42.9171L23.7692 42.8728L23.8161 42.7654L23.8962 42.5873L23.9252 42.5251L23.9908 42.3751L24.0249 42.2976L24.0965 42.1314L24.1314 42.0479L24.1987 41.886L24.2865 41.6687L24.3368 41.54L24.4493 41.2639L24.4757 41.1983L24.5234 41.0824L24.5814 40.9461L24.612 40.8753L24.6972 40.6776L24.8217 40.3922L24.8387 40.3513L24.8847 40.2465L24.9086 40.1911L24.9623 40.0692L25.1191 39.7104L25.131 39.684L25.1702 39.5928L25.1923 39.5409L25.2503 39.4037L25.281 39.3295L25.3551 39.1531L25.3943 39.0603L25.4821 38.8515L25.5272 38.7432L25.6252 38.5081L25.6755 38.3871L25.782 38.1323L26.1169 37.3244L26.2311 37.0492L26.4476 36.5268L26.4996 36.4007L26.5976 36.1629L26.6461 36.047L26.7339 35.8348L26.7765 35.7326L26.8506 35.5519L26.8864 35.4667L26.9461 35.3236L26.9734 35.2571L27.0143 35.1582L27.0526 35.0662L27.0671 35.0313L27.108 34.9333L27.1293 34.8813L27.1796 34.7603L27.3347 34.3845L27.3594 34.3257L27.4241 34.1731L27.4582 34.0922L27.5366 33.9115L27.7735 33.3738L27.8119 33.2895L27.8741 33.1454L27.9031 33.0781L27.9482 32.9639L27.9687 32.9111L27.9968 32.8233L28.0087 32.7824L28.0207 32.7168L28.0283 32.6555L27.9985 32.5839L27.8869 32.5191L27.8818 32.5174L27.8323 32.514L27.8016 32.5131L27.7028 32.5097L27.6474 32.5089L27.5017 32.5063L27.4233 32.5046L27.2341 32.5029L27.1336 32.5012L26.9026 32.4995L26.7816 32.4987L26.5115 32.497L26.3709 32.4961L26.0641 32.4944L25.9065 32.4935L25.5664 32.4918H25.3918L25.0202 32.4901H24.831L24.4305 32.4893H24.2277L23.8016 32.4884H23.5852H23.1361H22.6819L21.7139 32.4893L20.1962 32.4918L12.6546 32.5097L12.2532 32.7074L12.1586 32.7543L11.9592 32.8881L11.8604 32.9597L11.6746 33.1233L11.586 33.206L11.4445 33.3704L11.413 33.4105L11.3636 33.4855L11.3125 33.5877L11.3014 33.6192L11.2681 33.6542L11.217 33.6525L11.2059 33.6423L11.1991 33.6031V33.5817L11.2128 33.5238L11.2315 33.4624L11.3176 33.3039L11.367 33.2221L11.4982 33.05L11.7189 32.8174L11.7948 32.7509L11.9277 32.6427L11.9967 32.5915L12.1706 32.5114L12.22 32.4927L12.3393 32.4612L12.4041 32.445L12.5592 32.4186L12.6418 32.4058L12.8429 32.3845L12.9494 32.3742L13.2042 32.3572L13.3389 32.3495L13.6567 32.3368L13.8246 32.3308L14.2149 32.3214L14.4203 32.3163L14.8932 32.3103L15.0168 32.3086L15.2809 32.3061L15.4156 32.3052L15.7036 32.3035L15.851 32.3027L16.1638 32.301L16.3231 32.3001L16.6614 32.2993L16.8344 32.2984L17.2 32.2976H17.3866H17.7803L17.9806 32.2967H18.4041H18.6197H19.0739H19.304H19.7897H20.5549H20.9478H21.6772H22.0326L22.6896 32.2976L23.0091 32.2984L23.5971 32.2993L23.8826 32.3001L24.405 32.301L24.6589 32.3018L25.1191 32.3044L25.3423 32.3052L25.7445 32.3078L25.9388 32.3095L26.2865 32.3129L26.4535 32.3146L26.7492 32.3189L26.8907 32.3206L27.1387 32.3257L27.2571 32.3274L27.4608 32.3333L27.5571 32.3359L27.7198 32.3427L27.7965 32.3461L27.9209 32.3529L27.9789 32.3564L28.0701 32.3649L28.1118 32.3691L28.1723 32.3785L28.1988 32.3828L28.232 32.393L28.255 32.41L28.2584 32.4177L28.2524 32.4595L28.2482 32.4842L28.2286 32.5575L28.2175 32.5975L28.186 32.6981L28.1681 32.7518L28.1246 32.8762L28.0795 33.0048L27.9601 33.3184L27.7514 33.8374L27.6193 34.1527L27.3389 34.825L27.1975 35.1659L26.906 35.863L26.7595 36.2124L26.4706 36.9034L26.3274 37.2452L26.0539 37.8988L25.9201 38.2175L25.6755 38.8012L25.6167 38.941L25.5068 39.2026L25.454 39.3304L25.3551 39.563L25.3082 39.6764L25.2239 39.8775L25.183 39.9729L25.1131 40.1382L25.0807 40.2158L25.0279 40.3402L24.9691 40.4774L24.9529 40.5157L24.9128 40.6103L24.8907 40.6606L24.8421 40.7765L24.791 40.8966L24.6708 41.1813L24.2865 42.0965L24.1638 42.3896L23.903 43.0117L23.8408 43.1583L23.7318 43.4165L23.7062 43.477L23.661 43.5826L23.6048 43.7156L23.5886 43.7539L23.5477 43.8485L23.5264 43.8988L23.4778 44.0147L23.4267 44.1348L23.3065 44.4195L22.9222 45.3347L22.8617 45.4812L22.7347 45.782L22.6717 45.9312L22.5524 46.2124L22.4953 46.347L22.3973 46.5763L22.3751 46.6291L22.3359 46.7186L22.2891 46.8259L22.2371 46.9435L22.122 47.2145L22.0948 47.2801L22.0445 47.4011L21.984 47.5503L21.8971 47.7718L21.7002 48.1792L21.598 48.376L21.3738 48.7305L21.2588 48.9001L21.0134 49.1975L20.889 49.3389L20.6282 49.5741L20.4961 49.6832L20.226 49.8519L20.0896 49.9269L19.8153 50.0249L19.6781 50.0641L19.4045 50.0854L19.269 50.0863M11.2264 35.1659L11.2017 35.1046L11.1736 34.9938L11.1633 34.9426L11.1625 34.8634L11.1659 34.8293L11.1906 34.7986L11.2554 34.8259L11.2809 34.8515L11.3125 34.9512L11.3193 35.1199L11.3125 35.1651L11.3014 35.2213L11.2963 35.2452L11.2835 35.2613L11.2775 35.2639L11.2605 35.2417L11.2511 35.2256L11.2264 35.1659Z" fill="#3F3F3F"/>
</mask>
<g mask="url(#mask0_1_66)">
<rect x="19.1361" y="60.8777" width="56.7579" height="38.1105" transform="rotate(-64.3096 19.1361 60.8777)" fill="#1E3D58"/>
</g>
<mask id="mask1_1_66" style="mask-type:alpha" maskUnits="userSpaceOnUse" x="11" y="17" width="48" height="41">
<path d="M56.6847 17.7555L57.0299 17.9268L57.2131 18.041L57.2889 18.1032L57.4312 18.2335L57.4943 18.3111L57.617 18.4756L57.6792 18.577L57.7559 18.7474L57.7968 18.8871L57.813 18.9664L57.8624 19.3073L57.8667 19.493L57.8616 19.8688L57.8386 20.0435L57.8113 20.2148L57.7925 20.2924L57.7508 20.4423L57.7252 20.5054L57.5778 20.8531L57.4704 21.101L57.4167 21.2221L57.3094 21.4624L57.2608 21.5689L57.1662 21.7717L57.1287 21.8492L57.0443 22.0444L57.0247 22.0989L57.0188 22.1202L57.0094 22.1569V22.1662L56.9932 22.2293L56.9677 22.3009L56.9489 22.3486L56.8594 22.5633L56.8032 22.6878L56.7086 22.8991L56.6387 23.0593L56.6038 23.142L56.5339 23.3073L56.5015 23.3848L56.4402 23.5357L56.4146 23.5996L56.2374 24.0325L56.1743 24.1816L56.1453 24.2489L56.0891 24.3776L56.0652 24.4287L55.9221 24.7542L55.8777 24.859L55.859 24.9042L55.8249 24.9894L55.813 25.0201L55.7849 25.0908L55.7559 25.1624L55.7371 25.2084L55.6962 25.3073L55.6724 25.3652L55.6212 25.4879L55.5931 25.5561L55.4713 25.8484L55.4014 26.0146L55.2582 26.3554L55.1832 26.5327L55.0631 26.8182L54.9753 27.0252L54.9293 27.1343L54.7401 27.5868L54.643 27.8194L54.4487 28.2847L54.3584 28.5029L54.2689 28.7176L54.2271 28.8182L54.1462 29.0133L54.1104 29.1011L53.8956 29.6209L53.7593 29.949L53.7005 30.0913L53.6425 30.2302L53.617 30.2924L53.5676 30.4108L53.5462 30.4611L53.507 30.5549L53.4917 30.5915L53.4636 30.6571L53.4551 30.6776L53.3451 30.9383L53.3111 31.021L53.2966 31.0568L53.2693 31.1224L53.2599 31.1462L53.219 31.2442L53.1815 31.3329L53.1594 31.3849L53.0622 31.6098L53.0128 31.7206L52.8867 32.018L52.8569 32.0921L52.8483 32.1177L52.8338 32.1603V32.1654L52.8134 32.2259L52.7819 32.3043L52.7589 32.3589L52.7077 32.4765L52.677 32.5455L52.6131 32.6886L52.5782 32.7653L52.4794 32.9869L52.4206 33.1224L52.3975 33.1786L52.3558 33.2835L52.343 33.3201L52.3226 33.3806V33.39L52.3064 33.4488L52.2808 33.5161L52.2629 33.5604L52.1743 33.7615L52.118 33.8774L51.9374 34.2634L51.8794 34.3913L51.8539 34.4483L51.807 34.5566L51.79 34.5975L51.5539 35.165L51.4082 35.5144L51.3375 35.6814L51.0631 36.3367L50.9165 36.6853L50.8603 36.8165L50.8134 36.9247L50.787 36.9844L50.6779 37.234L50.6285 37.3448L50.5006 37.6422L50.4708 37.7164L50.4623 37.7419L50.4478 37.7845V37.7896L50.4274 37.8502L50.3958 37.9285L50.3728 37.9831L50.3217 38.1007L50.291 38.1697L50.2271 38.3129L50.1922 38.3896L50.0933 38.6094L50.0345 38.7407L50.0115 38.7952L49.9698 38.894L49.957 38.9273L49.9365 38.981V38.9861L49.9237 39.0236L49.9033 39.0773L49.8871 39.1165L49.8513 39.2042L49.8292 39.2596L49.7806 39.3772L49.7525 39.4454L49.6928 39.5885L49.6587 39.6678L49.5897 39.8323L49.5522 39.9217L49.3946 40.2941L49.3085 40.4961L49.0256 41.1625L48.8219 41.6448L48.7205 41.8868L48.5202 42.3649L48.4291 42.5822L48.3413 42.7944L48.3004 42.8923L48.2228 43.0798L48.1888 43.1616L47.8641 43.9499L47.6672 44.4262L47.5786 44.641L47.4073 45.0526L47.3315 45.2349L47.1866 45.5843L47.1236 45.7351L47.0034 46.0223L46.9523 46.1425L46.8568 46.3674L46.8185 46.4578L46.7478 46.6239L46.7205 46.6844L46.6736 46.791L46.6583 46.8225L46.5867 47.0202L46.5756 47.0747L46.5748 47.096L46.5756 47.1327L46.5816 47.142L46.5841 47.1898L46.5577 47.2094H46.533L46.4691 47.2435L46.4427 47.2929V47.3244L46.4333 47.3883L46.4188 47.4454L46.4078 47.4778L46.3566 47.6184L46.3242 47.6866L46.2032 47.949L46.1138 48.1501L46.0788 48.232L46.0149 48.3794L45.9638 48.4978L45.9357 48.5609L45.8206 48.8234L45.7712 48.9341L45.6434 49.2324L45.6135 49.3074L45.605 49.3329L45.5905 49.3764V49.3824L45.5726 49.4471L45.5573 49.488L45.5454 49.517L45.519 49.5801L45.5011 49.6218L45.4627 49.713L45.4371 49.7701L45.3826 49.8937L45.3494 49.9695L45.2778 50.1306L45.2343 50.2277L45.1432 50.4331L45.0895 50.5532L44.9616 50.8506L44.9318 50.9248L44.9233 50.9503L44.9088 50.9929V50.9981L44.8884 51.0586L44.8568 51.137L44.8338 51.1915L44.7827 51.3091L44.752 51.3781L44.6881 51.5213L44.6532 51.598L44.5543 51.8178L44.4955 51.9499L44.4725 52.0044L44.4308 52.1041L44.418 52.1374L44.3975 52.1919V52.1979L44.383 52.2456L44.3609 52.3053L44.3447 52.3453L44.2671 52.5319L44.2169 52.6427L44.055 53.0091L44.0021 53.131L43.9791 53.1838L43.9348 53.2852L43.9186 53.3236L43.8189 53.5588L43.7584 53.6994L43.7311 53.7633L43.6263 54.0053L43.5786 54.1135L43.4857 54.324L43.4371 54.4314L43.3374 54.6504L43.2803 54.7757L43.1849 54.9904L43.1287 55.1225L43.1065 55.1787L43.0656 55.2827L43.0537 55.3202L43.0341 55.3824V55.3935L43.0153 55.4523L42.9881 55.4778L42.9702 55.4795L42.9224 55.5128L42.8722 55.563L42.8398 55.5997L42.7725 55.6798L42.7341 55.7284L42.6566 55.8289L42.6165 55.8843L42.2407 56.3146L41.9425 56.5763L41.7661 56.6956L41.3954 56.929L41.1806 57.0364L40.7307 57.2461L40.4725 57.344L40.366 57.3832L40.3012 57.3994L40.2339 57.4156L40.193 57.4224L40.1052 57.4361L40.0515 57.442L39.9365 57.4531L39.8658 57.4582L39.7141 57.4685L39.622 57.4727L39.4261 57.4804L39.3076 57.4838L39.0579 57.4906L38.9105 57.4932L38.5995 57.4983L38.4179 57.5008L38.0362 57.5051L37.8163 57.5068L37.357 57.5094L37.0946 57.5111L36.8261 57.5119L36.6838 57.5128L36.3924 57.5136L36.2381 57.5145L35.9228 57.5153H35.7558L35.4158 57.5162H35.2352L34.8687 57.517H34.6753L34.2816 57.5179H34.0737H33.651H33.4294L32.9778 57.5187H32.74H32.2577H32.0046H31.4908L31.2224 57.5196H30.0719H29.3502L29.0119 57.5187L28.3489 57.5179H28.0396L27.4345 57.5162L27.1533 57.5153L26.6037 57.5136L26.3497 57.5128L25.8546 57.5111L25.6271 57.5094L25.1857 57.5068L24.9837 57.5051L24.5934 57.5017L24.4171 57.5L24.077 57.4966L23.9245 57.494L23.6322 57.4898L23.5035 57.4881L23.259 57.4829L23.1533 57.4804L22.953 57.4744L22.8695 57.4719L22.7136 57.465L22.6514 57.4616L22.5372 57.4548L22.4963 57.4514L22.423 57.4437L22.4009 57.4403L22.3676 57.4318L22.3651 57.4276V57.3952L22.3787 57.3628L22.3915 57.3406L22.4588 57.2409L22.5133 57.1745L22.6352 57.0322L22.7136 56.9486L22.8798 56.7748L22.9769 56.6811L23.3834 56.2729L23.6314 56.0104L23.7456 55.88L23.9697 55.6184L24.0745 55.4846L24.2824 55.2137L24.383 55.0705L24.5824 54.7791L24.6821 54.6214L24.8806 54.2976L24.9829 54.1195L25.19 53.7522L25.2982 53.5485L25.5206 53.1267L25.6399 52.8915L25.8444 52.4876L25.9646 52.2473L26.0191 52.1382L26.1231 51.9269L26.1699 51.8289L26.262 51.6372L26.3054 51.5451L26.4699 51.1855L26.5517 50.9981L26.6344 50.808L26.677 50.7066L26.7656 50.4978L26.8133 50.3836L27.0425 49.8374L27.2113 49.4429L27.3016 49.2332L27.4396 48.9137L27.5393 48.6819L27.5777 48.5941L27.7072 48.2933L27.7507 48.1902L27.7711 48.1433L27.8095 48.0539L27.824 48.0189L27.8836 47.8809L27.9356 47.7616L27.9663 47.6934L28.0932 47.4062L28.1546 47.2707L28.3114 46.8915L28.348 46.7893L28.3591 46.7509L28.377 46.6853V46.67L28.3983 46.5694L28.429 46.5029L28.4486 46.4808L28.4852 46.4254L28.5159 46.37L28.533 46.3359L28.6028 46.1834L28.6344 46.1016L28.6932 45.9524L28.7426 45.8314L28.7699 45.7658L28.884 45.4948L28.9352 45.3772L29.0332 45.1514L29.115 44.9588L29.161 44.8506L29.3527 44.3956L29.4405 44.1842L29.7123 43.5366L29.7967 43.3389L29.8316 43.2571L29.8973 43.1054L29.9194 43.056L30.0336 42.7892L30.06 42.7211L30.0685 42.6981L30.0813 42.6597V42.6537L30.0975 42.6026L30.1231 42.537L30.141 42.4927L30.1819 42.3964L30.2057 42.341L30.2569 42.2251L30.285 42.1629L30.3344 42.0521L30.3736 41.9627L30.3958 41.9107L30.4921 41.6866L30.5466 41.557L30.7784 41.0023L30.8883 40.733L31.0664 40.3001L31.2062 39.9609L31.2837 39.7743L31.6092 38.9903L31.7746 38.5975L31.9373 38.2081L32.014 38.0265L32.1623 37.6729L32.2279 37.5195L32.291 37.3695L32.3199 37.3022L32.3745 37.1727L32.3992 37.1156L32.4443 37.0091L32.4639 36.9656L32.4989 36.8847L32.5117 36.8557L32.5696 36.7193L32.6182 36.6034L32.6455 36.5378L32.7579 36.2617L32.8082 36.1331L32.896 35.9158L32.9633 35.7539L32.9982 35.6703L33.0698 35.5042L33.1039 35.4266L33.1695 35.2766L33.1985 35.2144L33.2786 35.0355L33.3255 34.9281L33.3442 34.8838L33.3783 34.8011L33.3885 34.773L33.4047 34.7279V34.7219L33.4226 34.658L33.4388 34.6171L33.4507 34.5881L33.4772 34.5242L33.4951 34.4824L33.5343 34.3921L33.5598 34.3342L33.6135 34.2114L33.6476 34.1356L33.7183 33.9746L33.7618 33.8783L33.8521 33.6746L33.9058 33.5544L34.0336 33.257L34.0634 33.1829L34.072 33.1573L34.0864 33.1147V33.1096L34.1052 33.0508L34.135 32.975L34.1572 32.923L34.2049 32.8097L34.2339 32.744L34.2944 32.6068L34.3268 32.5336L34.4895 32.1671L34.6088 31.8902L34.6795 31.7223L34.7528 31.5493L34.7929 31.4539L34.8764 31.2553L34.9224 31.1454L35.0179 30.9162L35.0707 30.7892L35.1798 30.5259L35.2403 30.3793L35.3016 30.2327L35.357 30.1007L35.3902 30.0231L35.5317 29.6916L35.6016 29.5272L35.6621 29.3857L35.7098 29.2741L35.7362 29.2119L35.8496 28.9434L35.9135 28.7926L36.1802 28.1586L36.3029 27.8655L36.4853 27.43L36.5977 27.1633L36.6489 27.0406L36.7486 26.802L36.7946 26.692L36.8832 26.4807L36.9241 26.3844L37.0025 26.1978L37.0375 26.1134L37.1065 25.9498L37.1372 25.8765L37.2522 25.6047L37.2974 25.4973L37.3809 25.2996L37.4133 25.2246L37.4712 25.0874L37.4934 25.038L37.5326 24.9485L37.547 24.917L37.5726 24.8608L37.582 24.8403L37.6058 24.7875L37.6289 24.7355L37.6433 24.7014L37.709 24.5455L37.7524 24.4423L37.8436 24.2208L37.8964 24.0921L38.0064 23.8237L38.0652 23.6797L38.3089 23.078L38.4265 22.7832L38.5432 22.4918L38.5961 22.358L38.6992 22.0972L38.7426 21.9856L38.9156 21.5442L38.9642 21.4198L38.9838 21.3712L39.017 21.2843L39.0264 21.2613L39.0818 21.1343L39.1431 21.0005L39.1823 20.9153L39.2667 20.7355L39.3136 20.6349L39.4116 20.4295L39.4627 20.3239L39.7626 19.7879L39.9995 19.4428L40.1342 19.2791L40.4145 18.957L40.5688 18.807L40.8866 18.5148L41.0579 18.3818L41.1696 18.306L41.2667 18.248L41.3238 18.2165L41.5752 18.0861L41.7166 18.0188L42.0072 17.8867L42.1461 17.8305L42.2833 17.7759L42.3472 17.7529L42.4691 17.7095L42.5228 17.6933L42.585 17.6822L42.6523 17.6745L42.6983 17.6711L42.7989 17.6643L42.8619 17.6617L42.9966 17.6549L43.0767 17.6515L43.2446 17.6456L43.3408 17.643L43.5428 17.637L43.6561 17.6345L43.8905 17.6285L44.0209 17.626L44.2884 17.6208L44.435 17.6191L44.7367 17.614L44.8994 17.6115L45.2335 17.6072L45.4133 17.6055L45.7806 17.6012L45.9766 17.5995L46.3762 17.5953L46.5884 17.5936L47.0213 17.5902L47.2497 17.5885L47.7158 17.5859L47.9604 17.5842L48.458 17.5816L48.7196 17.5808L49.2497 17.5782L49.5266 17.5774L56.2331 17.5527M23.1363 32.4884H23.5853H23.8018L24.2279 32.4892H24.4307L24.8312 32.4901H25.0204L25.3919 32.4918H25.5666L25.9066 32.4935L26.0643 32.4944L26.371 32.4961L26.5116 32.4969L26.7818 32.4986L26.9028 32.4995L27.1337 32.5012L27.2343 32.5029L27.4235 32.5046L27.5019 32.5063L27.6476 32.5088L27.703 32.5097L27.8018 32.5131L27.8325 32.514L27.8819 32.5174L27.887 32.5191L27.9987 32.5838L28.0285 32.6554L28.0208 32.7168L28.0089 32.7824L27.997 32.8233L27.9688 32.9111L27.9484 32.9639L27.9032 33.0781L27.8742 33.1454L27.812 33.2894L27.7737 33.3738L27.5368 33.9115L27.4584 34.0921L27.4243 34.1731L27.3595 34.3256L27.3348 34.3844L27.1797 34.7602L27.1295 34.8812L27.1082 34.9332L27.0673 35.0312L27.0528 35.0662L27.0144 35.1582L26.9735 35.257L26.9462 35.3235L26.8866 35.4667L26.8508 35.5519L26.7767 35.7325L26.7341 35.8348L26.6463 36.047L26.5977 36.1629L26.4997 36.4006L26.4477 36.5268L26.2313 37.0491L26.1171 37.3244L25.7822 38.1322L25.6757 38.387L25.6254 38.508L25.5274 38.7432L25.4822 38.8514L25.3945 39.0602L25.3553 39.1531L25.2811 39.3295L25.2505 39.4036L25.1925 39.5408L25.1704 39.5928L25.1312 39.684L25.1192 39.7104L24.9624 40.0692L24.9087 40.191L24.8849 40.2464L24.8389 40.3512L24.8218 40.3921L24.6974 40.6776L24.6122 40.8753L24.5815 40.946L24.5236 41.0824L24.4758 41.1983L24.4494 41.2639L24.3369 41.54L24.2867 41.6687L24.1989 41.886L24.1316 42.0479L24.0966 42.1314L24.0251 42.2975L23.991 42.3751L23.9254 42.5251L23.8964 42.5873L23.8163 42.7654L23.7694 42.8728L23.7507 42.9171L23.7166 42.9989L23.7064 43.0261L23.6902 43.0713V43.0764L23.674 43.1267L23.6484 43.1915L23.6297 43.2358L23.5888 43.3312L23.564 43.3875L23.5121 43.5033L23.4839 43.5656L23.3894 43.7777L23.3195 43.9379L23.2837 44.0215L23.2138 44.1885L23.1814 44.2669L23.1192 44.4194L23.0937 44.4842L22.9258 44.9017L22.8695 45.0372L22.8448 45.0969L22.798 45.2085L22.7801 45.2494L22.6667 45.5102L22.6309 45.5928L22.6147 45.6286L22.5866 45.6951L22.5764 45.7181L22.5534 45.7718L22.5304 45.8246L22.5159 45.8579L22.4503 46.0138L22.4077 46.1135L22.3173 46.3274L22.2662 46.4484L22.1614 46.6972L22.1069 46.8259L21.7864 47.5519L21.5845 47.9763L21.4865 48.1604L21.2931 48.5098L21.1985 48.6597L21.0093 48.9418L20.9147 49.0602L20.7247 49.281L20.6275 49.3713L20.4307 49.5383L20.3284 49.6031L20.1213 49.7224L20.0114 49.7658L19.7864 49.8425L19.6663 49.8681L19.4064 49.9141L19.2726 49.9218L19.2087 49.9116L19.0817 49.8817L19.0033 49.8502L18.9224 49.8161L18.8746 49.794L18.7758 49.7471L18.7178 49.7181L18.4179 49.5519L18.2364 49.4258L18.1503 49.3483L17.9807 49.1821L17.8947 49.0764L17.7234 48.8498L17.6322 48.7066L17.5402 48.5583L17.4924 48.4748L17.3944 48.3035L17.3433 48.2081L17.2385 48.0095L17.1823 47.9005L17.0689 47.6738L17.0084 47.5494L16.884 47.292L16.8175 47.1506L16.6812 46.86L16.6079 46.7015L16.4579 46.3743L16.3778 46.1962L16.2125 45.8306L16.1239 45.6329L15.8776 45.0858L15.7353 44.7679L15.6714 44.6265L15.5487 44.3538L15.4916 44.2277L15.3791 43.9797L15.3237 43.8587L15.2138 43.6167L15.1567 43.4914L15.0391 43.2358L14.9752 43.0969L14.8422 42.8088L14.7673 42.6461L14.6105 42.3061L14.5201 42.1101L14.4076 41.8647L14.342 41.7172L14.3165 41.6576L14.2687 41.5468L14.2543 41.511L14.2312 41.4522V41.4462L14.2227 41.4207L14.2082 41.3857L14.198 41.361L14.1443 41.2409L14.106 41.1565L14.0216 40.9716L13.9705 40.8625L13.864 40.635L13.8052 40.5114L13.6399 40.1612L13.5427 39.9541L13.5044 39.8698L13.4345 39.7172L13.4123 39.6678L13.3936 39.6243L13.3876 39.6099L13.3791 39.5877V39.586L13.3518 39.5153L13.3084 39.4147L13.2777 39.344L13.2087 39.1897L13.1669 39.0977L13.08 38.9068L13.0323 38.8029L12.7485 38.1825L12.665 37.9993L12.6318 37.926L12.5712 37.7914L12.5525 37.7504L12.4715 37.5732L12.3949 37.4079L12.3488 37.3107L12.1494 36.8864L12.0472 36.6716L11.9023 36.3614L11.8179 36.1723L11.7839 36.093L11.7234 35.9464L11.7038 35.8953L11.6748 35.8109V35.7982L11.6501 35.7325L11.6134 35.7053H11.5896L11.5291 35.655L11.5044 35.5817V35.5348L11.4796 35.4147L11.443 35.3644H11.4191L11.3586 35.3746L11.3339 35.39V35.3908L11.3169 35.3474L11.2853 35.2587L11.2964 35.2451L11.3015 35.2213L11.3126 35.165L11.3194 35.1198L11.3126 34.9511L11.2811 34.8514L11.2555 34.8259L11.1908 34.7986L11.1703 34.8233L11.1541 34.7117L11.1345 34.3418L11.1328 34.2481L11.1371 34.0777L11.1413 33.995L11.1567 33.8442L11.1754 33.6976L11.201 33.6132L11.2061 33.6422L11.2172 33.6524L11.2683 33.6541L11.3015 33.6192L11.3126 33.5877L11.3637 33.4854L11.4132 33.4104L11.4447 33.3704L11.5862 33.2059L11.6748 33.1232L11.8606 32.9596L11.9594 32.8881L12.1588 32.7543L12.2534 32.7074L12.6548 32.5097L20.1963 32.4918L21.714 32.4892L22.6821 32.4884M11.5606 35.9354L11.6023 36.0308L11.6901 36.2294L11.7395 36.3418L11.8418 36.5736L11.898 36.6997L12.0139 36.9588L12.0753 37.0977L12.2014 37.3789L12.267 37.5272L12.5397 38.1348L12.6829 38.4535L12.9735 39.0977L13.12 39.4207L13.4115 40.0632L13.5512 40.3708L13.8256 40.9724L13.95 41.2443L13.8648 41.0585L13.6671 40.6256L13.564 40.4007L13.3416 39.9107L13.1149 39.4122L12.642 38.3623L12.5252 38.1041L12.3045 37.6115L12.1963 37.3712L12.0012 36.9332L11.9543 36.8284L11.8674 36.6341L11.8256 36.5395L11.7498 36.3691L11.714 36.2864L11.6501 36.1424L11.5708 35.9609L11.524 35.8527L11.5163 35.834M11.3672 33.2221L11.3177 33.3039L11.2802 33.3729L11.2964 33.3303L11.4336 33.1198L11.4924 33.0568M11.7191 32.8173L11.6501 32.8906L11.7157 32.8207L11.7924 32.7534M11.8844 32.6776L11.9253 32.6443L11.9262 32.6435M11.985 32.6L11.9943 32.5932L11.985 32.6ZM13.7796 32.3324L13.8222 32.3307H13.8231M19.3041 32.2967H19.074H18.6198H18.4042H17.9807L17.7805 32.2975H17.3868H17.2002L16.8346 32.2984L16.6616 32.2992L16.3233 32.3001L16.1639 32.3009L15.8512 32.3026L15.7038 32.3035L15.4157 32.3052L15.2811 32.306L15.0169 32.3086L14.8934 32.3103L14.4204 32.3163L14.2151 32.3214L14.0378 32.3256L14.2125 32.3214L14.4179 32.3171L14.8908 32.3103L15.0144 32.3086L15.2785 32.306L15.4132 32.3052L15.7012 32.3035L15.8486 32.3026L16.1614 32.3009L16.3207 32.3001L16.6599 32.2992L16.832 32.2984L17.1984 32.2975H17.3842H17.7788L17.9799 32.2967H18.4034H18.619H19.0723H19.3041Z" fill="#3F3F3F"/>
<path d="M21.8493 57.5921L21.84 57.5767L21.8485 57.5333L21.8562 57.5085L21.8962 57.4497L21.9201 57.4191L21.9891 57.3492L22.1212 57.2367L22.2107 57.1685L22.4007 57.0058L22.4978 56.9214L22.7007 56.7297L22.9052 56.5328L23.3278 56.0778L23.5375 55.8443L23.938 55.3517L24.468 54.6231L24.5882 54.4433L24.8165 54.0786L24.9299 53.8946L25.1523 53.5085L25.2639 53.3117L25.488 52.8882L25.6014 52.67L25.8357 52.1911L25.955 51.944L26.2073 51.3935L26.272 51.2512L26.4058 50.9495L26.474 50.7953L26.6154 50.4706L26.687 50.3044L26.8362 49.9542L26.912 49.7752L27.0705 49.396L27.1515 49.2034L27.3202 48.7953L27.5861 48.1468L27.6679 47.9474L27.8417 47.5332L27.8826 47.4361L27.955 47.2665L28.0402 47.0748L28.0616 47.027L28.1152 46.9035L28.1434 46.8387L28.2039 46.6956L28.3769 46.272L28.4263 46.1468L28.5507 45.8468L28.5822 45.7735L28.641 45.6363L28.7177 45.4625L28.7399 45.4139L28.7944 45.2887L28.8234 45.223L28.8847 45.0782L29.0586 44.6529L29.108 44.5277L29.2324 44.2277L29.2639 44.1544L29.3227 44.0172L29.3994 43.8434L29.4216 43.7948L29.4761 43.6696L29.5051 43.6039L29.5665 43.4591L29.7403 43.0338L29.7897 42.9086L29.9133 42.6103L29.944 42.5379L30.0019 42.4024L30.0769 42.2311L30.0991 42.1834L30.1621 42.0394L30.1962 41.961L30.2763 41.7727L30.5328 41.1591L30.6206 40.9435L30.8055 40.497L30.8549 40.3785L30.9648 40.1144L31.0219 39.9772L31.154 39.6627L31.223 39.4974L31.3833 39.1156L31.425 39.0151L31.5162 38.7986L31.5631 38.687L31.6636 38.4476L31.7156 38.3248L31.8264 38.0598L31.8835 37.9243L32.007 37.632L32.0692 37.4821L32.2047 37.1608L32.4229 36.6427L32.549 36.3436L32.8046 35.7351L32.9316 35.4343L33.1685 34.8702L33.2256 34.7347L33.3313 34.4842L33.3824 34.3632L33.4736 34.1459L33.517 34.0428L33.5912 33.8672L33.6781 33.6601L33.725 33.5485L33.8375 33.2818L33.8954 33.1437L34.019 32.8506L34.0803 32.704L34.2005 32.4194L34.3598 32.0411L34.4067 31.9294L34.5158 31.6695L34.572 31.5357L34.6879 31.2562L34.7459 31.1173L34.8558 30.8523L34.9981 30.5072L35.0799 30.3078L35.2546 29.8936L35.2963 29.7965L35.3688 29.6269L35.454 29.4352L35.4753 29.3874L35.529 29.2639L35.5571 29.1991L35.6176 29.056L35.7906 28.6324L35.84 28.5072L35.9644 28.2072L35.996 28.1339L36.0548 27.9967L36.1315 27.8229L36.1536 27.7743L36.2082 27.649L36.2371 27.5826L36.2985 27.4369L36.4749 27.0065L36.5243 26.8796L36.6376 26.6052L36.6641 26.5404L36.7135 26.4245L36.774 26.289L36.7851 26.2643L36.8166 26.1936L36.8336 26.1544L36.8754 26.0589L36.9197 25.9584L37.0305 25.7002L37.0884 25.5647L37.2171 25.2605L37.2827 25.1062L37.4157 24.7892L37.4821 24.6324L37.6065 24.3342L37.6662 24.191L37.7676 23.9456L37.7906 23.8885L37.8307 23.7905L37.8494 23.7445L37.8792 23.6703L37.8929 23.6371L37.9099 23.5911L37.921 23.5587V23.5536L37.9372 23.5101L37.9474 23.4829L37.9806 23.4028L37.9994 23.3584L38.0454 23.2519L38.1238 23.0747L38.1383 23.044L38.1741 22.9622L38.1928 22.9187L38.238 22.8156L38.2849 22.7083L38.3973 22.4441L38.7689 21.5596L38.8575 21.3448L39.0151 20.9741L39.0901 20.7969L39.2248 20.4944L39.2904 20.3495L39.4105 20.1024L39.4685 19.9839L39.5801 19.7803L39.6347 19.6831L39.7446 19.511L39.7991 19.4275L39.9133 19.2749L40.307 18.8352L40.4519 18.6895L40.7834 18.4168L40.9547 18.2847L41.3219 18.0504L41.5068 17.9396L41.8852 17.7589L42.4374 17.5638L42.4553 17.5587L42.5098 17.5502L42.5405 17.5459L42.6223 17.5382L42.6666 17.534L42.7774 17.5272L42.8371 17.5237L42.9777 17.5178L43.0518 17.5144L43.2248 17.5093L43.3151 17.5067L43.5213 17.5016L43.6287 17.4999L43.8699 17.4956L43.9951 17.4939L44.2721 17.4905L44.4161 17.4888L44.7314 17.4863L44.8942 17.4854L45.2495 17.4837L45.4319 17.4828L45.829 17.482L46.0318 17.4811H46.4715H46.6965H47.1796H47.4268L47.956 17.482L48.2269 17.4828L48.803 17.4845L49.7233 17.4871L56.6258 17.5118L57.0323 17.7121L57.1499 17.77L57.3629 17.9294L57.4651 18.0163L57.645 18.2285L57.7293 18.3401L57.8691 18.5966L58.0293 19.0252L58.0617 19.1445L58.0821 19.4223L58.0847 19.5664L58.0472 19.8842L58.0216 20.047L57.9287 20.3904L57.7285 20.9204L57.7157 20.9494L57.6773 21.038L57.656 21.0866L57.6032 21.2102L57.5751 21.2758L57.5095 21.4283L57.4762 21.5076L57.4012 21.6848L57.3237 21.8663L57.1507 22.2771L56.8806 22.923L56.7894 23.1394L56.5994 23.5954L56.5039 23.8229L56.3216 24.2617L56.2764 24.3683L56.1929 24.5685L56.152 24.6657L56.0778 24.8446L56.0421 24.9298L55.979 25.0798L55.9014 25.2664L55.8793 25.3193L55.8256 25.4471L55.7975 25.5153L55.7336 25.6686L55.6671 25.8271L55.512 26.1961L55.4328 26.3853L55.2674 26.7807L55.0263 27.3542L54.9164 27.6167L54.7059 28.1169L54.6028 28.3632L54.4059 28.8327L54.3088 29.0628L54.1247 29.5016L54.0344 29.7172L53.8622 30.1254L53.7787 30.3265L53.6194 30.7066L53.541 30.8923L53.3936 31.2443L53.3211 31.4164L53.1848 31.7402L53.1183 31.8996L52.993 32.197L52.9325 32.3427L52.8184 32.6146L52.763 32.7475L52.659 32.9946L52.6087 33.1156L52.515 33.3389L52.4698 33.4471L52.3863 33.6474L52.3454 33.7445L52.2713 33.9218L52.2355 34.0078L52.1699 34.1638L52.0071 34.5549L51.9483 34.6955L51.8103 35.0185L51.777 35.096L51.7148 35.2383L51.6364 35.4139L51.6151 35.4616L51.5614 35.5852L51.5333 35.6508L51.472 35.7948L51.2973 36.2234L51.2478 36.3504L51.1345 36.6248L51.1081 36.6896L51.0587 36.8055L50.9981 36.9409L50.9871 36.9657L50.9555 37.0364L50.9385 37.0756L50.8967 37.171L50.8524 37.2716L50.7417 37.5298L50.6837 37.6653L50.555 37.9695L50.4894 38.1237L50.3565 38.4407L50.29 38.5975L50.1656 38.8958L50.1059 39.0389L50.0045 39.2844L49.9815 39.3415L49.9415 39.4395L49.9227 39.4855L49.8929 39.5596L49.8793 39.5928L49.8622 39.6389L49.8512 39.6712V39.6764L49.835 39.7207L49.8247 39.7471L49.7906 39.828L49.7719 39.8724L49.725 39.9789L49.6449 40.157L49.616 40.2192L49.5503 40.3683L49.5163 40.4459L49.4455 40.6112L49.4106 40.6938L49.3433 40.854L49.2563 41.0688L49.2069 41.1949L49.0825 41.4957L49.0518 41.569L48.9939 41.7053L48.9197 41.8766L48.8993 41.9218L48.8584 42.013L48.8371 42.0624L48.7826 42.1894L48.7672 42.2243L48.7306 42.3095L48.7118 42.3538L48.6667 42.4604L48.6428 42.5166L48.5865 42.6504L48.5567 42.7203L48.4869 42.8847L48.4511 42.9716L48.3658 43.1728L48.3224 43.2776L48.2201 43.5196L48.1673 43.6457L48.0471 43.9337L47.9841 44.0828L47.8426 44.4212L47.7685 44.5967L47.604 44.9895L47.5188 45.1932L47.3288 45.6457L47.2299 45.88L47.0135 46.3982L46.6556 47.252L46.5167 47.5826L46.2585 48.1979L46.1323 48.4996L45.8929 49.0714L45.656 49.6346L45.2061 50.7049L45.0936 50.9734L44.8635 51.5196L44.7476 51.7957L44.5056 52.3701L44.3829 52.6615L44.1221 53.2819L43.7003 54.2823L43.633 54.4416L43.5051 54.728L43.4421 54.866L43.3185 55.114L43.2572 55.2333L43.1353 55.4489L43.074 55.5537L42.9496 55.742L42.8226 55.9252L42.5448 56.2354L42.0599 56.6607L41.9133 56.7723L41.6125 56.9708L41.4617 57.0663L41.1558 57.2282L41.0032 57.3049L40.6982 57.4284L40.2474 57.5665L40.2269 57.5716L40.1366 57.581L40.0838 57.5861L39.9321 57.5946L39.8494 57.5997L39.6406 57.6082L39.5299 57.6125L39.2699 57.6202L39.1327 57.6236L38.8243 57.6313L38.6641 57.6347L38.3104 57.6415L38.1289 57.6449L37.7352 57.6517L37.5341 57.6543L37.1055 57.6602L36.8865 57.6628L36.4263 57.6679L36.1928 57.6705L35.7045 57.6747L35.2111 57.679L34.1587 57.6866L33.6253 57.6892L32.5192 57.6943L31.9619 57.696L30.8353 57.6986L30.272 57.6994L29.1583 57.6986H28.6052L27.5375 57.6952L27.275 57.6943L26.7654 57.6926L26.5123 57.6909L26.0258 57.6884L25.7854 57.6866L25.3253 57.6832L25.0995 57.6815L24.6717 57.6773L24.4621 57.6747L24.0701 57.6705L23.8783 57.6679L23.5264 57.6619L23.356 57.6594L23.0483 57.6526L22.9001 57.65L22.641 57.6432L22.5174 57.6389L22.3112 57.6313L22.2141 57.6278L22.0649 57.6193L21.9976 57.6151L21.909 57.6065L21.8724 57.6014M40.4723 57.3441L40.7305 57.2461L41.1805 57.0365L41.3952 56.9291L41.7659 56.6956L41.9423 56.5763L42.2406 56.3147L42.6164 55.8843L42.6564 55.829L42.734 55.7284L42.7723 55.6798L42.8396 55.5997L42.872 55.5631L42.9223 55.5128L42.97 55.4796L42.9879 55.4779L43.0152 55.4523L43.0339 55.3935V55.3824L43.0535 55.3202L43.0654 55.2827L43.1063 55.1788L43.1285 55.1225L43.1847 54.9904L43.2802 54.7757L43.3373 54.6504L43.437 54.4314L43.4856 54.324L43.5784 54.1136L43.6262 54.0053L43.731 53.7633L43.7582 53.6994L43.8187 53.5588L43.9184 53.3236L43.9346 53.2853L43.979 53.1839L44.002 53.131L44.0548 53.0092L44.2167 52.6427L44.267 52.532L44.3445 52.3453L44.3607 52.3053L44.3829 52.2456L44.3974 52.1979V52.192L44.4178 52.1374L44.4306 52.1042L44.4724 52.0045L44.4954 51.9499L44.5542 51.8179L44.653 51.598L44.6879 51.5213L44.7519 51.3781L44.7825 51.3091L44.8337 51.1915L44.8567 51.137L44.8882 51.0586L44.9087 50.9981V50.993L44.9231 50.9504L44.9317 50.9248L44.9615 50.8507L45.0893 50.5533L45.143 50.4331L45.2342 50.2277L45.2776 50.1306L45.3492 49.9695L45.3825 49.8937L45.437 49.7701L45.4626 49.713L45.5009 49.6219L45.5188 49.5801L45.5452 49.517L45.5571 49.4881L45.5725 49.4472L45.5904 49.3824V49.3764L45.6049 49.333L45.6134 49.3074L45.6432 49.2324L45.771 48.9342L45.8205 48.8234L45.9355 48.5609L45.9636 48.4979L46.0147 48.3794L46.0787 48.232L46.1136 48.1502L46.2031 47.9491L46.3241 47.6866L46.3565 47.6184L46.4076 47.4778L46.4187 47.4455L46.4332 47.3884L46.4425 47.3244V47.2929L46.4689 47.2435L46.5329 47.2094H46.5576L46.584 47.1898L46.5814 47.1421L46.5755 47.1327L46.5746 47.0961L46.5755 47.0748L46.5865 47.0202L46.6581 46.8225L46.6735 46.791L46.7203 46.6845L46.7476 46.624L46.8183 46.4578L46.8567 46.3675L46.9521 46.1425L47.0033 46.0224L47.1234 45.7352L47.1865 45.5843L47.3313 45.235L47.4072 45.0526L47.5785 44.641L47.6671 44.4263L47.8639 43.9499L48.1886 43.1617L48.2227 43.0799L48.3002 42.8924L48.3411 42.7944L48.4289 42.5822L48.5201 42.3649L48.7203 41.8869L48.8217 41.6448L49.0254 41.1625L49.3083 40.4961L49.3944 40.2942L49.552 39.9218L49.5895 39.8323L49.6586 39.6678L49.6926 39.5886L49.7523 39.4454L49.7804 39.3773L49.829 39.2597L49.8512 39.2043L49.8869 39.1165L49.9031 39.0773L49.9236 39.0236L49.9364 38.9861V38.981L49.9568 38.9273L49.9696 38.8941L50.0114 38.7952L50.0344 38.7407L50.0932 38.6095L50.192 38.3896L50.2269 38.3129L50.2909 38.1698L50.3215 38.1007L50.3727 37.9831L50.3957 37.9286L50.4272 37.8502L50.4477 37.7897V37.7846L50.4621 37.742L50.4707 37.7164L50.5005 37.6423L50.6283 37.3449L50.6777 37.2341L50.7868 36.9844L50.8132 36.9248L50.8601 36.8165L50.9163 36.6853L51.0629 36.3368L51.3373 35.6815L51.408 35.5144L51.5538 35.1651L51.7898 34.5975L51.8068 34.5566L51.8537 34.4484L51.8793 34.3913L51.9372 34.2635L52.1179 33.8774L52.1741 33.7616L52.2627 33.5604L52.2806 33.5161L52.3062 33.4488L52.3224 33.39V33.3806L52.3428 33.3201L52.3556 33.2835L52.3974 33.1787L52.4204 33.1224L52.4792 32.9869L52.578 32.7654L52.613 32.6887L52.6769 32.5455L52.7076 32.4765L52.7587 32.3589L52.7817 32.3044L52.8132 32.226L52.8337 32.1655V32.1604L52.8482 32.1177L52.8567 32.0922L52.8865 32.018L53.0126 31.7206L53.0621 31.6099L53.1592 31.3849L53.1814 31.3329L53.2189 31.2443L53.2598 31.1463L53.2691 31.1224L53.2964 31.0568L53.3109 31.021L53.345 30.9384L53.4549 30.6776L53.4634 30.6572L53.4916 30.5915L53.5069 30.5549L53.5461 30.4612L53.5674 30.4109L53.6168 30.2924L53.6424 30.2302L53.7003 30.0913L53.7591 29.949L53.8955 29.6209L54.1102 29.1011L54.146 29.0133L54.227 28.8182L54.2687 28.7177L54.3582 28.5029L54.4485 28.2848L54.6428 27.8195L54.74 27.5868L54.9291 27.1343L54.9752 27.0253L55.0629 26.8182L55.1831 26.5327L55.2581 26.3555L55.4012 26.0146L55.4711 25.8484L55.593 25.5562L55.6211 25.488L55.6722 25.3653L55.6961 25.3073L55.737 25.2085L55.7557 25.1625L55.7847 25.0909L55.8128 25.0202L55.8248 24.9895L55.8588 24.9043L55.8776 24.8591L55.9219 24.7543L56.0651 24.4288L56.0889 24.3776L56.1452 24.249L56.1741 24.1816L56.2372 24.0325L56.4144 23.5996L56.44 23.5357L56.5014 23.3849L56.5337 23.3073L56.6036 23.142L56.6386 23.0593L56.7084 22.8991L56.803 22.6878L56.8593 22.5634L56.9487 22.3486L56.9675 22.3009L56.9931 22.2293L57.0092 22.1663V22.1569L57.0186 22.1203L57.0246 22.099L57.0442 22.0444L57.1286 21.8493L57.166 21.7717L57.2606 21.5689L57.3092 21.4624L57.4166 21.2221L57.4703 21.1011L57.5776 20.8531L57.7251 20.5054L57.7506 20.4424L57.7924 20.2924L57.8111 20.2149L57.8384 20.0436L57.8614 19.8689L57.8665 19.4931L57.8623 19.3073L57.8128 18.9664L57.7966 18.8872L57.7557 18.7474L57.679 18.577L57.6168 18.4756L57.4941 18.3111L57.4311 18.2336L57.2888 18.1032L57.2129 18.041L57.0297 17.9268L56.6846 17.7555L56.2329 17.5527L49.5265 17.5774L49.2495 17.5783L48.7195 17.5808L48.4579 17.5817L47.9602 17.5843L47.7156 17.586L47.2495 17.5885L47.0211 17.5902L46.5882 17.5936L46.3761 17.5953L45.9764 17.5996L45.7804 17.6013L45.4131 17.6056L45.2333 17.6073L44.8993 17.6115L44.7365 17.6141L44.4349 17.6192L44.2883 17.6209L44.0207 17.626L43.8903 17.6286L43.656 17.6345L43.5426 17.6371L43.3407 17.643L43.2444 17.6456L43.0765 17.6516L42.9964 17.655L42.8618 17.6618L42.7987 17.6644L42.6982 17.6712L42.6521 17.6746L42.5848 17.6822L42.5226 17.6933L42.4689 17.7095L42.3471 17.753L42.2832 17.776L42.146 17.8305L42.0071 17.8868L41.7165 18.0188L41.575 18.0862L41.3236 18.2165L41.2665 18.2481L41.1694 18.306L41.0578 18.3819L40.8865 18.5148L40.5686 18.8071L40.4144 18.9571L40.134 19.2792L39.9994 19.4428L39.7625 19.7879L39.4625 20.3239L39.4114 20.4296L39.3134 20.635L39.2665 20.7355L39.1822 20.9153L39.143 21.0005L39.0816 21.1343L39.0262 21.2613L39.0169 21.2843L38.9836 21.3712L38.964 21.4198L38.9154 21.5442L38.7425 21.9856L38.699 22.0973L38.5959 22.358L38.5431 22.4918L38.4263 22.7832L38.3087 23.0781L38.065 23.6797L38.0062 23.8237L37.8963 24.0922L37.8434 24.2208L37.7523 24.4424L37.7088 24.5455L37.6432 24.7014L37.6287 24.7355L37.6057 24.7875L37.5818 24.8403L37.5725 24.8608L37.5469 24.917L37.5324 24.9486L37.4932 25.038L37.471 25.0875L37.4131 25.2247L37.3807 25.2997L37.2972 25.4974L37.252 25.6047L37.137 25.8766L37.1063 25.9499L37.0373 26.1135L37.0024 26.1978L36.924 26.3845L36.8831 26.4807L36.7944 26.6921L36.7484 26.802L36.6487 27.0406L36.5976 27.1633L36.4851 27.43L36.3027 27.8655L36.18 28.1586L35.9133 28.7926L35.8494 28.9435L35.7361 29.2119L35.7096 29.2741L35.6619 29.3857L35.6014 29.5272L35.5315 29.6917L35.3901 30.024L35.3568 30.1007L35.3015 30.2328L35.2401 30.3794L35.1796 30.5259L35.0705 30.7892L35.0177 30.9162L34.9223 31.1454L34.8762 31.2554L34.7927 31.4539L34.7527 31.5494L34.6794 31.7223L34.6087 31.8902L34.4894 32.1672L34.3266 32.5336L34.2942 32.6069L34.2337 32.7441L34.2047 32.8097L34.157 32.923L34.1349 32.975L34.105 33.0509L34.0863 33.1097V33.1148L34.0718 33.1574L34.0633 33.1829L34.0335 33.2571L33.9056 33.5545L33.8519 33.6746L33.7616 33.8783L33.7182 33.9746L33.6474 34.1356L33.6133 34.2115L33.5597 34.3342L33.5341 34.3921L33.4949 34.4825L33.477 34.5242L33.4506 34.5881L33.4386 34.6171L33.4225 34.658L33.4046 34.7219V34.7279L33.3884 34.7731L33.3781 34.8012L33.3441 34.8838L33.3253 34.9282L33.2784 35.0355L33.1983 35.2145L33.1694 35.2767L33.1038 35.4267L33.0697 35.5042L32.9981 35.6704L32.9631 35.7539L32.8958 35.9158L32.8081 36.1331L32.7578 36.2618L32.6453 36.5379L32.618 36.6035L32.5695 36.7194L32.5115 36.8557L32.4987 36.8847L32.4638 36.9657L32.4442 37.0091L32.399 37.1156L32.3743 37.1727L32.3198 37.3023L32.2908 37.3696L32.2277 37.5196L32.1621 37.6729L32.0138 38.0266L31.9372 38.2081L31.7744 38.5975L31.6091 38.9904L31.2835 39.7744L31.206 39.961L31.0663 40.3001L30.8882 40.733L30.7782 41.0023L30.5464 41.5571L30.4919 41.6866L30.3956 41.9107L30.3734 41.9627L30.3342 42.0522L30.2848 42.1629L30.2567 42.2252L30.2056 42.341L30.1817 42.3964L30.1408 42.4927L30.1229 42.537L30.0974 42.6027L30.0812 42.6538V42.6597L30.0684 42.6981L30.0599 42.7211L30.0334 42.7893L29.9193 43.056L29.8971 43.1054L29.8315 43.2571L29.7965 43.3389L29.7122 43.5366L29.4403 44.1843L29.3526 44.3956L29.1608 44.8515L29.1148 44.9589L29.033 45.1515L28.935 45.3773L28.8839 45.4949L28.7697 45.7659L28.7424 45.8315L28.693 45.9525L28.6342 46.1016L28.6027 46.1834L28.5328 46.3359L28.5158 46.37L28.4851 46.4254L28.4484 46.4808L28.4288 46.503L28.3982 46.5694L28.3769 46.67V46.6853L28.359 46.7509L28.3479 46.7893L28.3112 46.8916L28.1544 47.2708L28.0931 47.4063L27.9661 47.6934L27.9354 47.7616L27.8835 47.8809L27.8238 48.019L27.8093 48.0539L27.771 48.1434L27.7505 48.1902L27.7071 48.2933L27.5775 48.5942L27.5392 48.6819L27.4395 48.9137L27.3014 49.2333L27.2111 49.4429L27.0424 49.8375L26.8131 50.3837L26.7654 50.4979L26.6768 50.7066L26.6342 50.8081L26.5515 50.9981L26.4697 51.1856L26.3053 51.5452L26.2618 51.6372L26.1698 51.8289L26.1229 51.9269L26.0189 52.1383L25.9644 52.2473L25.8442 52.4877L25.6397 52.8916L25.5204 53.1268L25.298 53.5486L25.1898 53.7523L24.9827 54.1195L24.8805 54.2976L24.6819 54.6214L24.5822 54.7791L24.3828 55.0705L24.2822 55.2137L24.0743 55.4847L23.9695 55.6185L23.7454 55.8801L23.6312 56.0105L23.3832 56.2729L22.9767 56.6811L22.8796 56.7748L22.7134 56.9487L22.635 57.0322L22.5132 57.1745L22.4586 57.241L22.3913 57.3407L22.3785 57.3628L22.3649 57.3952V57.4276L22.3675 57.4319L22.4007 57.4404L22.4228 57.4438L22.4961 57.4515L22.537 57.4549L22.6512 57.4617L22.7134 57.4651L22.8694 57.4719L22.9529 57.4745L23.1531 57.4804L23.2588 57.483L23.5034 57.4881L23.6321 57.4898L23.9243 57.4941L24.0769 57.4966L24.4169 57.5L24.5933 57.5017L24.9836 57.5051L25.1855 57.5068L25.6269 57.5094L25.8545 57.5111L26.3496 57.5128L26.6035 57.5137L27.1532 57.5154L27.4344 57.5162L28.0394 57.5179H28.3487L29.0117 57.5188L29.35 57.5196H30.0718H31.2222L31.4906 57.5188H32.0045H32.2576H32.7399H32.9776L33.4293 57.5179H33.6508H34.0735H34.2814L34.6751 57.5171H34.8686L35.235 57.5162H35.4156L35.7557 57.5154H35.9227L36.238 57.5145L36.3922 57.5137L36.6837 57.5128L36.826 57.512L37.0944 57.5111L37.3569 57.5094L37.8162 57.5068L38.036 57.5051L38.4178 57.5009L38.5993 57.4983L38.9103 57.4932L39.0578 57.4907L39.3074 57.4838L39.4259 57.4804L39.6219 57.4728L39.7139 57.4685L39.8656 57.4583L39.9363 57.4532L40.0514 57.4421L40.1051 57.4361L40.1928 57.4225L40.2337 57.4157L40.3011 57.3995L40.3658 57.3833M19.0023 50.0275L18.8983 49.9951L18.6998 49.9107L18.6018 49.8647L18.4126 49.7488L18.3189 49.6866L18.1382 49.5375L18.0487 49.4591L17.874 49.275L17.7871 49.1787L17.6167 48.9572L17.5315 48.8413L17.3636 48.5814L17.2801 48.4459L17.1122 48.1434L16.86 47.6414L16.7901 47.494L16.6563 47.212L16.5916 47.0756L16.4782 46.8353L16.4254 46.722L16.3444 46.5507L16.3274 46.5132L16.301 46.4561L16.2754 46.3999L16.2643 46.3768L16.2183 46.2746L16.1919 46.2158L16.1203 46.0581L16.082 45.9738L15.9942 45.7812L15.8544 45.4753L15.8067 45.3713L15.7206 45.1804L15.6789 45.0892L15.6107 44.935L15.5792 44.8643L15.5366 44.7654L15.5093 44.6955V44.6921L15.4812 44.6257L15.4633 44.5848L15.4062 44.4561L15.3738 44.3854L15.2937 44.2107L15.1574 43.9158L15.1088 43.8119L14.9955 43.5656L14.9375 43.4386L14.8148 43.1702L14.7543 43.0364L14.6376 42.7782L14.4859 42.4373L14.3973 42.2379L14.1961 41.788L14.1476 41.6798L14.0589 41.4838L13.9499 41.2443L13.8255 40.9725L13.5511 40.3709L13.4113 40.0632L13.1199 39.4207L12.9733 39.0977L12.6827 38.4535L12.5396 38.1348L12.2669 37.5272L12.2013 37.379L12.0751 37.0977L12.0138 36.9588L11.8979 36.6998L11.8416 36.5737L11.7394 36.3419L11.69 36.2294L11.6022 36.0308L11.5604 35.9354L11.4897 35.7735L11.4565 35.6977L11.4053 35.5775L11.3823 35.523L11.3525 35.4505L11.3338 35.3994V35.39L11.3585 35.3747L11.419 35.3645H11.4428L11.4795 35.4147L11.5042 35.5349V35.5818L11.5289 35.655L11.5894 35.7053H11.6133L11.6499 35.7326L11.6746 35.7982V35.811L11.7036 35.8954L11.7232 35.9465L11.7837 36.093L11.8178 36.1723L11.9021 36.3615L12.047 36.6717L12.1493 36.8864L12.3487 37.3108L12.3947 37.4079L12.4714 37.5732L12.5523 37.7505L12.5711 37.7914L12.6316 37.926L12.6648 37.9993L12.7483 38.1825L13.0321 38.8029L13.0798 38.9069L13.1667 39.0977L13.2085 39.1898L13.2775 39.344L13.3082 39.4147L13.3517 39.5153L13.3789 39.586V39.5877L13.3875 39.6099L13.3934 39.6244L13.4122 39.6678L13.4343 39.7173L13.5042 39.8698L13.5425 39.9542L13.6397 40.1612L13.805 40.5115L13.8638 40.635L13.9703 40.8626L14.0215 40.9716L14.1058 41.1566L14.1442 41.2409L14.1978 41.3611L14.2081 41.3858L14.2226 41.4207L14.2311 41.4463V41.4522L14.2541 41.511L14.2686 41.5468L14.3163 41.6576L14.3419 41.7173L14.4075 41.8647L14.52 42.1101L14.6103 42.3061L14.7671 42.6461L14.8421 42.8089L14.975 43.0969L15.0389 43.2358L15.1565 43.4915L15.2136 43.6167L15.3235 43.8587L15.3789 43.9797L15.4914 44.2277L15.5485 44.3538L15.6712 44.6265L15.7351 44.768L15.8774 45.0858L16.1237 45.6329L16.2123 45.8306L16.3777 46.1962L16.4578 46.3743L16.6077 46.7015L16.681 46.86L16.8174 47.1506L16.8838 47.2921L17.0083 47.5494L17.0688 47.6738L17.1821 47.9005L17.2383 48.0096L17.3432 48.2081L17.3943 48.3036L17.4923 48.4749L17.54 48.5584L17.632 48.7066L17.7232 48.8498L17.8945 49.0765L17.9806 49.1821L18.1501 49.3483L18.2362 49.4259L18.4177 49.552L18.7177 49.7182L18.7756 49.7471L18.8745 49.794L18.9222 49.8162L19.0031 49.8502L19.0815 49.8818L19.2085 49.9116L19.2724 49.9218L19.4062 49.9141L19.6661 49.8681L19.7863 49.8426L20.0112 49.7659L20.1212 49.7224L20.3283 49.6031L20.4305 49.5383L20.6274 49.3713L20.7245 49.281L20.9145 49.0603L21.0091 48.9418L21.1983 48.6598L21.2929 48.5098L21.4863 48.1604L21.5843 47.9763L21.7863 47.552L22.1067 46.8259L22.1612 46.6973L22.2661 46.4484L22.3172 46.3274L22.4075 46.1135L22.4501 46.0138L22.5157 45.8579L22.5302 45.8247L22.5532 45.7718L22.5762 45.7181L22.5865 45.6951L22.6146 45.6287L22.6308 45.5929L22.6666 45.5102L22.7799 45.2495L22.7978 45.2085L22.8447 45.0969L22.8694 45.0373L22.9256 44.9018L23.0935 44.4842L23.1191 44.4195L23.1813 44.2669L23.2136 44.1885L23.2835 44.0215L23.3193 43.938L23.3892 43.7778L23.4838 43.5656L23.5119 43.5034L23.5639 43.3875L23.5886 43.3312L23.6295 43.2358L23.6482 43.1915L23.6738 43.1267L23.69 43.0765V43.0713L23.7062 43.0262L23.7164 42.9989L23.7505 42.9171L23.7692 42.8728L23.8161 42.7654L23.8962 42.5873L23.9252 42.5251L23.9908 42.3751L24.0249 42.2976L24.0965 42.1314L24.1314 42.0479L24.1987 41.886L24.2865 41.6687L24.3368 41.54L24.4493 41.2639L24.4757 41.1983L24.5234 41.0824L24.5814 40.9461L24.612 40.8753L24.6972 40.6776L24.8217 40.3922L24.8387 40.3513L24.8847 40.2465L24.9086 40.1911L24.9623 40.0692L25.1191 39.7104L25.131 39.684L25.1702 39.5928L25.1923 39.5409L25.2503 39.4037L25.281 39.3295L25.3551 39.1531L25.3943 39.0603L25.4821 38.8515L25.5272 38.7432L25.6252 38.5081L25.6755 38.3871L25.782 38.1323L26.1169 37.3244L26.2311 37.0492L26.4476 36.5268L26.4996 36.4007L26.5976 36.1629L26.6461 36.047L26.7339 35.8348L26.7765 35.7326L26.8506 35.5519L26.8864 35.4667L26.9461 35.3236L26.9734 35.2571L27.0143 35.1582L27.0526 35.0662L27.0671 35.0313L27.108 34.9333L27.1293 34.8813L27.1796 34.7603L27.3347 34.3845L27.3594 34.3257L27.4241 34.1731L27.4582 34.0922L27.5366 33.9115L27.7735 33.3738L27.8119 33.2895L27.8741 33.1454L27.9031 33.0781L27.9482 32.9639L27.9687 32.9111L27.9968 32.8233L28.0087 32.7824L28.0207 32.7168L28.0283 32.6555L27.9985 32.5839L27.8869 32.5191L27.8818 32.5174L27.8323 32.514L27.8016 32.5131L27.7028 32.5097L27.6474 32.5089L27.5017 32.5063L27.4233 32.5046L27.2341 32.5029L27.1336 32.5012L26.9026 32.4995L26.7816 32.4987L26.5115 32.497L26.3709 32.4961L26.0641 32.4944L25.9065 32.4935L25.5664 32.4918H25.3918L25.0202 32.4901H24.831L24.4305 32.4893H24.2277L23.8016 32.4884H23.5852H23.1361H22.6819L21.7139 32.4893L20.1962 32.4918L12.6546 32.5097L12.2532 32.7074L12.1586 32.7543L11.9592 32.8881L11.8604 32.9597L11.6746 33.1233L11.586 33.206L11.4445 33.3704L11.413 33.4105L11.3636 33.4855L11.3125 33.5877L11.3014 33.6192L11.2681 33.6542L11.217 33.6525L11.2059 33.6423L11.1991 33.6031V33.5817L11.2128 33.5238L11.2315 33.4624L11.3176 33.3039L11.367 33.2221L11.4982 33.05L11.7189 32.8174L11.7948 32.7509L11.9277 32.6427L11.9967 32.5915L12.1706 32.5114L12.22 32.4927L12.3393 32.4612L12.4041 32.445L12.5592 32.4186L12.6418 32.4058L12.8429 32.3845L12.9494 32.3742L13.2042 32.3572L13.3389 32.3495L13.6567 32.3368L13.8246 32.3308L14.2149 32.3214L14.4203 32.3163L14.8932 32.3103L15.0168 32.3086L15.2809 32.3061L15.4156 32.3052L15.7036 32.3035L15.851 32.3027L16.1638 32.301L16.3231 32.3001L16.6614 32.2993L16.8344 32.2984L17.2 32.2976H17.3866H17.7803L17.9806 32.2967H18.4041H18.6197H19.0739H19.304H19.7897H20.5549H20.9478H21.6772H22.0326L22.6896 32.2976L23.0091 32.2984L23.5971 32.2993L23.8826 32.3001L24.405 32.301L24.6589 32.3018L25.1191 32.3044L25.3423 32.3052L25.7445 32.3078L25.9388 32.3095L26.2865 32.3129L26.4535 32.3146L26.7492 32.3189L26.8907 32.3206L27.1387 32.3257L27.2571 32.3274L27.4608 32.3333L27.5571 32.3359L27.7198 32.3427L27.7965 32.3461L27.9209 32.3529L27.9789 32.3564L28.0701 32.3649L28.1118 32.3691L28.1723 32.3785L28.1988 32.3828L28.232 32.393L28.255 32.41L28.2584 32.4177L28.2524 32.4595L28.2482 32.4842L28.2286 32.5575L28.2175 32.5975L28.186 32.6981L28.1681 32.7518L28.1246 32.8762L28.0795 33.0048L27.9601 33.3184L27.7514 33.8374L27.6193 34.1527L27.3389 34.825L27.1975 35.1659L26.906 35.863L26.7595 36.2124L26.4706 36.9034L26.3274 37.2452L26.0539 37.8988L25.9201 38.2175L25.6755 38.8012L25.6167 38.941L25.5068 39.2026L25.454 39.3304L25.3551 39.563L25.3082 39.6764L25.2239 39.8775L25.183 39.9729L25.1131 40.1382L25.0807 40.2158L25.0279 40.3402L24.9691 40.4774L24.9529 40.5157L24.9128 40.6103L24.8907 40.6606L24.8421 40.7765L24.791 40.8966L24.6708 41.1813L24.2865 42.0965L24.1638 42.3896L23.903 43.0117L23.8408 43.1583L23.7318 43.4165L23.7062 43.477L23.661 43.5826L23.6048 43.7156L23.5886 43.7539L23.5477 43.8485L23.5264 43.8988L23.4778 44.0147L23.4267 44.1348L23.3065 44.4195L22.9222 45.3347L22.8617 45.4812L22.7347 45.782L22.6717 45.9312L22.5524 46.2124L22.4953 46.347L22.3973 46.5763L22.3751 46.6291L22.3359 46.7186L22.2891 46.8259L22.2371 46.9435L22.122 47.2145L22.0948 47.2801L22.0445 47.4011L21.984 47.5503L21.8971 47.7718L21.7002 48.1792L21.598 48.376L21.3738 48.7305L21.2588 48.9001L21.0134 49.1975L20.889 49.3389L20.6282 49.5741L20.4961 49.6832L20.226 49.8519L20.0896 49.9269L19.8153 50.0249L19.6781 50.0641L19.4045 50.0854L19.269 50.0863M11.2264 35.1659L11.2017 35.1046L11.1736 34.9938L11.1633 34.9426L11.1625 34.8634L11.1659 34.8293L11.1906 34.7986L11.2554 34.8259L11.2809 34.8515L11.3125 34.9512L11.3193 35.1199L11.3125 35.1651L11.3014 35.2213L11.2963 35.2452L11.2835 35.2613L11.2775 35.2639L11.2605 35.2417L11.2511 35.2256L11.2264 35.1659Z" fill="#3F3F3F"/>
</mask>
<g mask="url(#mask1_1_66)">
<rect x="-20.5959" y="49.6879" width="56.7579" height="38.1105" transform="rotate(-64.3096 -20.5959 49.6879)" fill="#057DCD"/>
</g>
</svg>
