<svg width="235" height="60" viewBox="0 0 235 60" fill="none" xmlns="http://www.w3.org/2000/svg">
<path d="M114.636 3.01939H125.515V5.78618H117.789V8.68143H124.612V11.4528H117.789V14.4123H125.644V17.1791H114.636V3.01939Z" fill="white"/>
<path d="M128.026 13.3845V6.3643H131.182V12.4164C131.182 13.8984 131.889 14.605 133.05 14.605C134.275 14.605 135.046 13.8342 135.046 12.4164V6.3643H138.203V17.1791H135.046V15.6328C134.339 16.5321 133.371 17.3718 131.825 17.3718C129.443 17.3764 128.026 15.8301 128.026 13.3845Z" fill="white"/>
<path d="M140.964 6.30011H144.121V8.48876C144.763 7.00672 145.795 6.04316 147.663 6.1074V9.32843H147.47C145.41 9.32843 144.121 10.5535 144.121 13.1276V17.1195H140.964V6.30011Z" fill="white"/>
<path d="M148.756 11.8383C148.756 8.68148 151.33 6.17165 154.744 6.17165C158.157 6.17165 160.731 8.68148 160.731 11.774V11.8383C160.731 14.9308 158.157 17.5049 154.744 17.5049C151.33 17.4407 148.756 14.9262 148.756 11.8383ZM157.639 11.8383C157.639 10.2278 156.478 8.81455 154.744 8.81455C152.94 8.81455 151.848 10.1681 151.848 11.774V11.8383C151.848 13.4488 153.009 14.862 154.744 14.862C156.611 14.7978 157.639 13.3846 157.639 11.8383Z" fill="white"/>
<path d="M163.048 6.29995H166.205V7.84623C166.976 6.81844 168.008 6.10724 169.683 6.10724C172.257 6.10724 174.703 8.10318 174.703 11.7096V11.7739C174.703 15.3803 172.257 17.3763 169.683 17.3763C168.008 17.3763 166.981 16.6054 166.205 15.7657V20.4H163.048V6.29995ZM171.482 11.7739C171.482 9.90641 170.257 8.75014 168.779 8.75014C167.297 8.75014 166.077 9.97523 166.077 11.7739V11.8381C166.077 13.6413 167.302 14.8618 168.779 14.8618C170.261 14.7976 171.482 13.5771 171.482 11.7739Z" fill="white"/>
<path d="M176.442 11.8383C176.442 8.68148 178.695 6.17165 181.916 6.17165C185.586 6.17165 187.325 9.00267 187.325 12.0952C187.325 12.3522 187.325 12.6091 187.261 12.9303H179.534C179.855 14.3481 180.824 15.0547 182.237 15.0547C183.269 15.0547 184.04 14.7335 184.939 13.9581L186.743 15.5044C185.715 16.7937 184.233 17.5003 182.237 17.5003C178.887 17.4407 176.442 15.119 176.442 11.8383ZM184.228 10.8701C184.035 9.51657 183.2 8.55301 181.911 8.55301C180.622 8.55301 179.787 9.45233 179.53 10.8701H184.228Z" fill="white"/>
<path d="M188.931 14.0908C188.931 11.7094 190.799 10.6128 193.373 10.6128C194.47 10.6128 195.305 10.8055 196.075 11.0625V10.8698C196.075 9.58044 195.24 8.87383 193.694 8.87383C192.469 8.87383 191.634 9.06654 190.606 9.45197L189.835 7.13484C191.06 6.62095 192.281 6.23552 194.148 6.23552C195.887 6.23552 197.108 6.68518 197.883 7.46061C198.718 8.29569 199.108 9.45655 199.108 10.9386V17.2476H196.085V16.0867C195.314 16.9218 194.281 17.4403 192.735 17.4403C190.67 17.3761 188.931 16.2152 188.931 14.0908ZM196.14 13.3842V12.8703C195.626 12.6133 194.915 12.4849 194.144 12.4849C192.79 12.4849 191.955 12.9988 191.955 13.9669V14.0312C191.955 14.8662 192.662 15.3205 193.694 15.3205C195.176 15.2471 196.14 14.4762 196.14 13.3842Z" fill="white"/>
<path d="M201.871 6.29995H205.027V7.84623C205.734 6.94691 206.702 6.10724 208.248 6.10724C210.63 6.10724 211.983 7.65352 211.983 10.1634V17.179H208.826V11.1269C208.826 9.64487 208.12 8.93826 206.895 8.93826C205.67 8.93826 204.963 9.70911 204.963 11.1269V17.179H201.806V6.29995H201.871Z" fill="white"/>
<path d="M114.375 33.8576V25.7453H117.532V33.7933C117.532 36.1104 118.693 37.2713 120.62 37.2713C122.552 37.2713 123.708 36.1104 123.708 33.8576V25.7453H126.865V33.7291C126.865 38.0422 124.419 40.1023 120.556 40.1023C116.761 40.1666 114.375 38.0422 114.375 33.8576Z" fill="white"/>
<path d="M129.893 29.0906H133.05V30.6368C133.757 29.7375 134.725 28.8979 136.271 28.8979C138.653 28.8979 140.006 30.4441 140.006 32.954V39.9696H136.849V33.9175C136.849 32.4355 136.143 31.7289 134.918 31.7289C133.693 31.7289 132.986 32.4997 132.986 33.9175V39.9696H129.829V29.0906H129.893Z" fill="white"/>
<path d="M142.832 25.1626H146.117V27.9294H142.832V25.1626ZM142.896 29.0903H146.053V39.9693H142.896V29.0903Z" fill="white"/>
<path d="M147.985 29.0903H151.33L153.844 36.3674L156.29 29.0903H159.571L155.193 40.0381H152.362L147.985 29.0903Z" fill="white"/>
<path d="M160.217 34.5645C160.217 31.4077 162.47 28.8979 165.691 28.8979C169.362 28.8979 171.101 31.7289 171.101 34.8214C171.101 35.0784 171.101 35.3353 171.037 35.6565H163.31C163.631 37.0743 164.599 37.7809 166.012 37.7809C167.045 37.7809 167.816 37.4598 168.715 36.6843L170.518 38.2306C169.49 39.4557 168.008 40.2265 166.012 40.2265C162.663 40.2311 160.217 37.9094 160.217 34.5645ZM168.008 33.6606C167.815 32.307 166.976 31.3435 165.691 31.3435C164.406 31.3435 163.567 32.2428 163.31 33.6606H168.008Z" fill="white"/>
<path d="M173.414 29.0905H176.571V31.2791C177.213 29.7971 178.246 28.8335 180.113 28.8977V32.1188H179.92C177.86 32.1188 176.571 33.3439 176.571 35.9179V39.9098H173.414V29.0905Z" fill="white"/>
<path d="M181.205 38.4921L182.558 36.4962C183.783 37.3313 185.004 37.7855 186.036 37.7855C186.936 37.7855 187.326 37.4643 187.326 36.9504V36.8862C187.326 36.2438 186.229 35.9869 185.009 35.6611C183.462 35.2114 181.723 34.5003 181.723 32.3758V32.3116C181.723 30.123 183.527 28.8979 185.779 28.8979C187.197 28.8979 188.739 29.3475 189.9 30.1872L188.675 32.3116C187.578 31.6692 186.486 31.2838 185.651 31.2838C184.88 31.2838 184.49 31.605 184.49 32.0547V32.1189C184.49 32.697 185.518 33.0182 186.743 33.4082C188.289 33.9221 190.092 34.6333 190.092 36.6292V36.6935C190.092 39.0749 188.225 40.1715 185.844 40.1715C184.421 40.1669 182.687 39.6484 181.205 38.4921Z" fill="white"/>
<path d="M192.469 25.1626H195.754V27.9294H192.469V25.1626ZM192.597 29.0903H195.754V39.9693H192.597V29.0903Z" fill="white"/>
<path d="M199.168 36.8813V31.7331H197.815V29.0948H199.168V26.328H202.325V29.0948H204.899V31.7331H202.325V36.3674C202.325 37.074 202.646 37.3952 203.353 37.3952C203.931 37.3952 204.45 37.2667 204.899 37.0097V39.4553C204.257 39.8408 203.481 40.0977 202.454 40.0977C200.453 40.1665 199.168 39.3911 199.168 36.8813Z" fill="white"/>
<path d="M207.083 42.4838L208.111 40.2309C208.496 40.4879 209.01 40.6806 209.464 40.6806C209.978 40.6806 210.3 40.4879 210.561 39.974L206.248 29.095H209.598L212.107 36.5006L214.553 29.095H217.838L213.589 40.2309C212.754 42.4196 211.85 43.2547 209.983 43.2547C208.758 43.2547 207.923 42.9977 207.083 42.4838Z" fill="white"/>
<path d="M114.444 47.0538H119.078C120.303 47.0538 121.267 47.375 121.909 48.0174C122.359 48.467 122.616 49.0452 122.616 49.6921C122.616 51.0457 121.781 51.8165 120.877 52.1377C122.166 52.5231 123.194 53.2343 123.194 54.7118C123.194 56.515 121.648 57.607 119.267 57.607H114.44L114.444 47.0538ZM118.821 51.7523C120.303 51.7523 121.331 51.1099 121.331 49.8848C121.331 48.857 120.496 48.1458 118.95 48.1458H115.665V51.8165H118.821V51.7523ZM119.271 56.5838C120.882 56.5838 121.909 55.8772 121.909 54.7164C121.909 53.5555 120.946 52.9132 119.014 52.9132H115.6V56.6481H119.271V56.5838Z" fill="white"/>
<path d="M125.259 54.7164V49.8252H126.42V54.3952C126.42 55.8772 127.255 56.7765 128.609 56.7765C129.962 56.7765 130.99 55.813 130.99 54.3309V49.8252H132.151V57.6804H130.99V56.3269C130.476 57.162 129.636 57.8732 128.223 57.8732C126.415 57.8686 125.259 56.5838 125.259 54.7164Z" fill="white"/>
<path d="M134.27 56.648L134.848 55.8129C135.683 56.4553 136.652 56.8407 137.615 56.8407C138.579 56.8407 139.29 56.3268 139.29 55.6156C139.29 54.8447 138.326 54.519 137.294 54.262C136.069 53.9408 134.656 53.4912 134.656 52.0734C134.656 50.7198 135.817 49.8205 137.358 49.8205C138.322 49.8205 139.418 50.1417 140.253 50.6556L139.74 51.5549C138.969 51.1052 138.129 50.784 137.358 50.784C136.395 50.784 135.812 51.2979 135.812 51.9449C135.812 52.7157 136.776 52.9727 137.872 53.2985C139.097 53.6839 140.446 54.1335 140.446 55.5513C140.446 57.0334 139.221 57.9327 137.615 57.9327C136.459 57.8042 135.174 57.3546 134.27 56.648Z" fill="white"/>
<path d="M142.704 46.7967H144.057V48.0861H142.704V46.7967ZM142.768 49.8205H143.993V57.6757H142.768V49.8205Z" fill="white"/>
<path d="M146.696 49.8205H147.921V51.1741C148.435 50.339 149.274 49.6278 150.687 49.6278C152.619 49.6278 153.775 50.9171 153.775 52.7846V57.6758H152.55V53.1058C152.55 51.6237 151.779 50.7244 150.362 50.7244C149.008 50.7244 147.98 51.688 147.98 53.17V57.6758H146.755L146.696 49.8205Z" fill="white"/>
<path d="M159.768 56.8407C160.864 56.8407 161.635 56.391 162.278 55.7441L163.048 56.3865C162.213 57.2858 161.245 57.8685 159.763 57.8685C157.574 57.8685 155.771 56.1938 155.771 53.7482C155.771 51.4953 157.382 49.6278 159.635 49.6278C162.016 49.6278 163.37 51.4953 163.37 53.8124C163.37 53.9409 163.37 54.0693 163.37 54.1978H156.996C157.125 55.8726 158.414 56.8407 159.768 56.8407ZM162.149 53.2985C162.021 51.8807 161.186 50.6602 159.575 50.6602C158.221 50.6602 157.129 51.7568 157.001 53.2985H162.149Z" fill="white"/>
<path d="M164.787 56.648L165.365 55.8129C166.2 56.4553 167.168 56.8407 168.132 56.8407C169.096 56.8407 169.807 56.3268 169.807 55.6156C169.807 54.8447 168.843 54.519 167.811 54.262C166.586 53.9408 165.173 53.4912 165.173 52.0734C165.173 50.7198 166.333 49.8205 167.875 49.8205C168.839 49.8205 169.935 50.1417 170.77 50.6556L170.256 51.5549C169.486 51.1052 168.646 50.784 167.875 50.784C166.912 50.784 166.329 51.2979 166.329 51.9449C166.329 52.7157 167.292 52.9727 168.389 53.2985C169.614 53.6839 170.963 54.1335 170.963 55.5513C170.963 57.0334 169.738 57.9327 168.132 57.9327C166.912 57.8042 165.686 57.3546 164.787 56.648Z" fill="white"/>
<path d="M172.321 56.648L172.9 55.8129C173.735 56.4553 174.703 56.8407 175.666 56.8407C176.63 56.8407 177.341 56.3268 177.341 55.6156C177.341 54.8447 176.378 54.519 175.345 54.262C174.12 53.9408 172.707 53.4912 172.707 52.0734C172.707 50.7198 173.868 49.8205 175.409 49.8205C176.373 49.8205 177.47 50.1417 178.305 50.6556L177.791 51.5549C177.02 51.1052 176.18 50.784 175.409 50.784C174.446 50.784 173.863 51.2979 173.863 51.9449C173.863 52.7157 174.827 52.9727 175.923 53.2985C177.148 53.6839 178.497 54.1335 178.497 55.5513C178.497 57.0334 177.272 57.9327 175.666 57.9327C174.51 57.8042 173.221 57.3546 172.321 56.648Z" fill="white"/>
<path d="M184.811 56.1294L185.581 55.2301C186.742 56.2624 187.77 56.7121 189.316 56.7121C190.798 56.7121 191.762 55.9413 191.762 54.9089C191.762 53.9453 191.248 53.3626 188.931 52.9129C186.421 52.3991 185.26 51.5594 185.26 49.825C185.26 48.1502 186.742 46.9297 188.802 46.9297C190.413 46.9297 191.505 47.3794 192.602 48.219L191.895 49.1184C190.863 48.2833 189.899 47.9575 188.738 47.9575C187.32 47.9575 186.421 48.7284 186.421 49.6965C186.421 50.6601 186.999 51.2428 189.381 51.7567C191.826 52.2706 192.923 53.1103 192.923 54.7804V54.8446C192.923 56.6479 191.376 57.8684 189.252 57.8684C187.577 57.8041 186.16 57.2902 184.811 56.1294Z" fill="white"/>
<path d="M194.791 53.8123C194.791 51.5594 196.53 49.6919 198.911 49.6919C200.457 49.6919 201.357 50.3343 202.132 51.1097L201.361 51.9448C200.719 51.3024 200.008 50.784 198.916 50.784C197.305 50.784 196.02 52.1375 196.02 53.8077C196.02 55.4824 197.31 56.8314 198.98 56.8314C200.012 56.8314 200.783 56.3175 201.426 55.6706L202.196 56.3772C201.361 57.2765 200.457 57.9235 198.911 57.9235C196.525 57.8684 194.791 56.0009 194.791 53.8123Z" fill="white"/>
<path d="M204.124 46.6041H205.349V51.1741C205.863 50.339 206.703 49.6278 208.116 49.6278C210.048 49.6278 211.204 50.9171 211.204 52.7846V57.6758H209.979V53.1058C209.979 51.6237 209.208 50.7244 207.79 50.7244C206.437 50.7244 205.409 51.688 205.409 53.17V57.6758H204.184L204.124 46.6041Z" fill="white"/>
<path d="M213.135 53.8123C213.135 51.5594 214.874 49.6919 217.319 49.6919C219.701 49.6919 221.504 51.5594 221.504 53.7481C221.504 55.9367 219.701 57.8684 217.319 57.8684C214.874 57.8684 213.135 56.0009 213.135 53.8123ZM220.283 53.8123C220.283 52.0733 218.994 50.7243 217.324 50.7243C215.585 50.7243 214.429 52.0779 214.429 53.7481C214.429 55.4228 215.718 56.7718 217.388 56.7718C219.058 56.7764 220.283 55.4228 220.283 53.8123Z" fill="white"/>
<path d="M223.179 53.8123C223.179 51.5594 224.918 49.6919 227.364 49.6919C229.745 49.6919 231.549 51.5594 231.549 53.7481C231.549 55.9367 229.745 57.8684 227.364 57.8684C224.918 57.8684 223.179 56.0009 223.179 53.8123ZM230.264 53.8123C230.264 52.0733 228.975 50.7243 227.304 50.7243C225.565 50.7243 224.409 52.0779 224.409 53.7481C224.409 55.4228 225.698 56.7718 227.369 56.7718C229.103 56.7764 230.264 55.4228 230.264 53.8123Z" fill="white"/>
<path d="M234.962 46.6041H233.737V57.6758H234.962V46.6041Z" fill="white"/>
<path d="M86.565 24.1349H80.7056H80.4487V24.3919V46.5399C80.4487 49.6967 77.5534 53.1058 72.9146 53.1058C68.0234 53.1058 65.3805 49.7563 65.3805 46.5399V24.3276V24.0064H65.1235H58.8834H55.6623C55.4054 21.4324 55.1484 19.308 54.373 17.3763C52.8267 13.6413 51.2162 11.0673 49.2249 8.94285C44.141 3.66164 37.185 0.894852 29.0728 0.894852C20.7678 0.894852 13.5549 3.72588 8.2783 9.00708C2.86862 14.4122 0.0375977 21.3635 0.0375977 29.0903C0.0375977 36.6887 2.41896 43.5116 6.8605 48.857C12.1417 55.1018 20.5751 58.901 29.5224 59.0937C35.1891 59.2221 43.4298 58.3228 50.6381 53.8125L48.4494 49.0497C43.2325 52.2065 37.5704 53.427 31.2614 53.2343C26.4345 53.1058 20.2539 52.3992 14.4588 47.5677C12.5914 46.0214 6.41084 40.0336 6.41084 29.2188C6.41084 22.8456 8.66372 17.0505 12.7841 12.9301C16.9044 8.87402 22.6353 6.5569 29.0085 6.5569C35.8957 6.5569 40.9199 8.80978 45.233 13.834C47.8071 16.8578 49.546 21.6893 49.546 25.8739C49.546 31.0221 47.8713 35.2112 44.6549 38.1707C41.6311 40.9375 37.4465 42.4196 32.4223 42.4196C30.6833 42.4838 25.9848 41.9057 23.2822 39.5243C18.905 35.7251 18.8407 30.6412 18.905 29.4804H42.792H43.0489V29.2234C43.0489 29.2234 43.0489 26.1997 42.8562 24.268C42.2138 17.702 37.965 10.7461 28.0496 10.7461C21.8048 10.7461 16.7209 13.9671 13.821 19.7576C12.4032 22.5886 11.6966 25.6812 11.6966 28.9619C11.8251 39.9694 19.2307 48.0173 30.174 48.9213C32.1057 49.114 32.9408 48.9855 33.005 48.9855C42.0808 48.9213 48.454 44.8652 52.3817 38.6204C53.3452 37.1383 54.8915 33.9861 55.4742 29.6088H58.6952V45.7048C58.6952 45.9618 58.6952 46.2187 58.6952 46.4114V47.4438C59.1449 54.7209 65.9724 59.0982 72.6668 59.0982C79.5539 59.0982 86.6384 54.464 86.6384 46.673V24.3322V24.0753H86.5741V24.1349H86.565ZM28.1092 16.2796C35.1891 16.2796 36.4784 21.5608 36.6711 24.0707H19.1573C19.8685 19.1107 23.1492 16.2796 28.1092 16.2796Z" fill="white"/>
<path d="M101.308 3.34032H99.8898V57.483H101.308V3.34032Z" fill="white"/>
</svg>
