<svg width="231" height="64" viewBox="0 0 231 64" fill="none" xmlns="http://www.w3.org/2000/svg">
<path d="M94.2404 42.5916C94.2404 42.1174 93.9242 41.8013 93.2919 41.6432V41.3271C93.6081 41.3271 94.7936 41.4061 95.1097 41.4061C95.3468 41.4061 96.5323 41.3271 96.8485 41.3271V41.6432C96.2952 41.8013 95.9791 42.1175 95.9791 42.5916V48.5194C95.9791 50.4162 97.0065 51.4436 99.1405 51.4436C101.037 51.4436 102.46 50.5742 102.46 48.5984V42.5126C102.46 42.0384 102.144 41.7223 101.512 41.5642V41.3271C101.749 41.3271 102.697 41.4061 103.013 41.4061C103.329 41.4061 104.278 41.3271 104.515 41.3271V41.6432C103.803 41.8013 103.566 42.1175 103.566 42.5916V48.3613C103.566 50.9694 102.065 52.4712 98.8242 52.4712C95.8209 52.4712 94.2401 51.1276 94.2401 48.6775L94.2404 42.5916ZM107.202 51.9966C107.913 51.8385 108.15 51.5224 108.15 51.0482V42.8288C108.15 42.1175 107.755 41.8014 107.123 41.6433V41.3271H109.415L116.528 49.7046V42.5913C116.528 42.1171 116.212 41.801 115.58 41.6429V41.3268C115.817 41.3268 116.765 41.4058 117.081 41.4058C117.398 41.4058 118.346 41.3268 118.583 41.3268V41.6429C117.872 41.801 117.556 42.1172 117.556 42.5913V52.4705H117.16C116.923 52.3915 116.37 52.1544 115.58 51.285L109.178 43.8556V51.1269C109.178 51.6011 109.415 51.9173 110.126 52.0753V52.3915C109.889 52.3915 108.941 52.3124 108.625 52.3124C108.308 52.3124 107.36 52.3915 107.123 52.3915L107.202 51.9966ZM163.474 49.7836H163.79C163.949 50.4159 164.265 50.9691 164.818 51.2853C165.292 51.6804 166.161 51.8385 166.794 51.8385C168.216 51.8385 169.165 51.1272 169.165 50.0207C169.165 48.8352 167.979 48.282 166.636 47.5707C165.608 47.0174 163.553 46.2271 163.553 44.2512C163.553 42.4334 164.976 41.2479 167.189 41.2479C168.691 41.2479 169.323 41.6431 170.35 41.564V43.777H170.034C169.639 42.4334 168.453 42.0383 167.11 42.0383C165.608 42.0383 165.134 42.9077 165.134 43.698C165.134 44.8835 166.32 45.5158 167.663 46.148C169.165 46.7803 170.824 47.6497 170.824 49.5465C170.824 51.3643 169.402 52.6289 166.873 52.6289C165.371 52.6289 164.423 52.1547 163.632 52.0756L163.474 49.7836ZM194.061 47.7287L191.136 43.0656C190.662 42.2752 190.267 41.801 189.714 41.6429V41.3268C190.109 41.3268 191.215 41.4058 191.452 41.4058C191.769 41.4058 192.875 41.3268 193.349 41.3268V41.6429C192.954 41.722 192.796 41.88 192.796 42.1962C192.796 42.4333 192.954 42.7494 193.112 43.0656C193.27 43.3027 195.246 46.6222 195.246 46.6222L197.301 43.0656C197.538 42.6704 197.617 42.3543 197.617 42.1172C197.617 41.8801 197.459 41.722 197.143 41.722V41.3268C197.459 41.3268 198.249 41.4059 198.487 41.4059C198.724 41.4059 199.593 41.3268 199.909 41.3268V41.643C199.119 41.9591 198.645 42.6704 198.17 43.4608L195.562 47.8868M195.72 47.3335V51.0482C195.72 51.4434 196.036 51.9176 196.669 51.9966V52.3127C196.353 52.3127 195.167 52.2337 194.851 52.2337C194.535 52.2337 193.428 52.3127 193.033 52.3127V51.9966C193.665 51.8385 193.982 51.4433 193.982 51.0482V47.4916M140.161 41.3268H146.958C147.195 41.3268 147.511 41.3268 147.748 41.1687H148.064L147.985 43.3817H147.669C147.432 42.6704 147.116 42.1172 145.851 42.1172H142.927V46.069H145.219C145.535 46.069 145.93 46.069 146.088 45.9899C146.562 45.9109 146.8 45.5948 146.958 45.1205H147.274V47.8867H146.958C146.8 47.4125 146.642 47.0964 146.088 47.0173C145.93 46.9383 145.535 46.9383 145.219 46.9383H142.927V51.4434H146.167C147.59 51.4434 147.985 50.8901 148.301 50.0208H148.617L148.301 52.3128C147.274 52.2337 146.642 52.2337 145.456 52.2337H142.058C141.741 52.2337 140.556 52.3128 140.161 52.3128V51.9966C140.793 51.8386 141.109 51.6015 141.109 50.9692V42.5917C141.109 42.0385 140.793 41.7224 140.161 41.6433L140.161 41.3268ZM122.773 42.6704C122.773 42.1171 122.457 41.801 121.824 41.6429V41.3268C122.22 41.3268 123.326 41.4058 123.721 41.4058C124.037 41.4058 125.223 41.3268 125.618 41.3268V41.6429C124.986 41.801 124.591 42.0381 124.591 42.6704V50.9688C124.591 51.5221 124.907 51.8382 125.618 51.9962V52.3124C125.223 52.3124 124.116 52.2333 123.721 52.2333C123.405 52.2333 122.22 52.3124 121.824 52.3124V51.9962C122.536 51.8382 122.852 51.6011 122.852 50.9688L122.773 42.6704ZM174.383 42.6704C174.383 42.1171 174.067 41.801 173.435 41.6429V41.3268C173.83 41.3268 175.016 41.4058 175.332 41.4058C175.648 41.4058 176.833 41.3268 177.229 41.3268V41.6429C176.596 41.801 176.28 42.0381 176.28 42.6704V50.9688C176.28 51.5221 176.596 51.8382 177.229 51.9962V52.3124C176.833 52.3124 175.727 52.2333 175.332 52.2333C175.016 52.2333 173.83 52.3124 173.435 52.3124V51.9962C174.146 51.8382 174.383 51.6011 174.383 50.9688V42.6704ZM183.867 41.4058C180.153 41.4058 179.52 41.3268 178.809 41.2477V43.4607H179.125C179.441 42.4333 179.994 42.1962 180.706 42.1962H183.077V50.8898C183.077 51.4431 182.761 51.7592 182.049 51.9172V52.2334C182.445 52.2334 183.63 52.1543 183.946 52.1543C184.262 52.1543 185.448 52.2334 185.843 52.2334V51.9172C185.211 51.7592 184.816 51.443 184.816 50.8898V42.1962H187.108C187.819 42.1962 188.372 42.4333 188.688 43.4607H189.004V41.2477C188.135 41.3268 187.582 41.4058 183.867 41.4058ZM154.071 50.9688C154.071 51.5221 154.387 51.8382 155.099 51.9963V52.3124C154.704 52.3124 153.518 52.2334 153.202 52.2334C152.886 52.2334 151.779 52.3124 151.384 52.3124V51.9963C152.016 51.8382 152.333 51.6011 152.333 50.9688V42.5914C152.333 42.0381 152.016 41.722 151.384 41.643V41.3268C151.779 41.3268 152.886 41.4059 153.202 41.4059C153.755 41.4059 155.257 41.3268 155.889 41.3268C158.497 41.3268 159.92 42.4333 159.92 44.2511C159.92 45.6737 158.813 46.7011 157.154 47.0963C157.154 47.0963 157.549 47.3334 157.944 47.7286C158.418 48.2819 159.683 50.0206 160.157 50.6529C160.631 51.2851 161.343 51.9965 162.054 51.9965V52.2336C161.738 52.3126 161.185 52.3916 160.789 52.3916C159.92 52.3916 159.209 52.0755 158.497 51.2852C157.865 50.5738 156.917 49.0722 156.284 48.2819C155.889 47.8077 155.415 47.4125 154.625 47.2544C154.467 47.2544 154.309 47.1754 154.15 47.1754L154.071 50.9688ZM154.071 46.5428C154.387 46.6218 154.941 46.6218 155.415 46.6218C157.47 46.6218 158.102 45.4363 158.102 44.4089C158.102 42.9072 157.154 42.0378 155.336 42.0378C154.941 42.0378 154.466 42.1169 154.071 42.1959V46.5428ZM128.148 42.67C127.911 42.1168 127.516 41.7216 126.884 41.6426V41.3264C127.279 41.3264 128.622 41.4055 128.938 41.4055C129.176 41.4055 130.361 41.3264 130.756 41.3264V41.6426C130.44 41.7216 129.966 41.8797 129.966 42.2749C129.966 42.512 130.124 42.9072 130.44 43.5394L133.285 49.9414L135.973 43.5394C136.21 42.9862 136.368 42.591 136.368 42.3539C136.368 42.0378 136.052 41.8007 135.577 41.7216V41.3264C135.893 41.3264 136.763 41.4055 137.079 41.4055C137.316 41.4055 138.344 41.3264 138.739 41.3264V41.6426C138.106 41.8006 137.632 42.1958 137.316 43.0652L133.364 52.3121H132.495L128.148 42.67ZM138.264 13.5064C137.79 12.4789 137.079 11.7676 135.972 11.5305V10.9772C136.684 10.9772 139.134 11.0563 139.687 11.0563C140.161 11.0563 142.532 10.9772 143.323 10.9772V11.5305C142.69 11.6886 141.9 12.0047 141.9 12.716C141.9 13.1902 142.216 13.9015 142.769 15.087L148.144 27.2582L153.202 15.087C153.597 14.1386 153.914 13.3483 153.914 12.795C153.914 12.1627 153.281 11.6885 152.491 11.5305V10.9772C153.202 10.9772 154.783 11.0562 155.336 11.0562C155.81 11.0562 157.707 10.9772 158.498 10.9772V11.5305C157.233 11.8466 156.443 12.6369 155.731 14.2176L148.302 31.7633H146.642L138.264 13.5064ZM66.3413 31.0521C67.2897 30.815 68.001 30.4198 68.001 29.3133V13.2693C68.001 12.2419 67.3687 11.7676 66.3413 11.5305V10.8982C66.8155 10.8982 69.0285 10.9773 69.5817 10.9773C70.214 10.9773 72.506 10.8982 72.9802 10.8982V11.4515C72.0318 11.6886 71.3205 12.0838 71.3205 13.1903V19.9874H83.3336V13.2693C83.3336 12.1628 82.7013 11.6886 81.6739 11.5305V10.8982C82.1481 10.8982 84.4401 10.9773 85.0724 10.9773C85.6256 10.9773 87.8386 10.8982 88.3918 10.8982V11.4515C87.4434 11.6886 86.7321 12.0838 86.7321 13.1903V29.2343C86.7321 30.2617 87.3644 30.7359 88.3918 30.973V31.5263C87.9176 31.5263 85.6256 31.4472 85.0724 31.4472C84.4401 31.4472 82.2272 31.5263 81.6739 31.5263V31.0521C82.6223 30.815 83.3336 30.4198 83.3336 29.3133V21.7258H71.3205V29.3133C71.3205 30.4198 71.9528 30.8149 72.9802 31.0521V31.6053C72.506 31.6053 70.135 31.5263 69.5817 31.5263C69.0285 31.5263 66.8946 31.6053 66.3413 31.6053V31.0521ZM204.812 31.0521C206.076 30.815 206.708 30.3407 206.708 29.2343V13.2693C206.708 12.1628 205.997 11.6886 204.812 11.5305V10.8982C205.523 10.8982 207.736 10.9773 208.368 10.9773C209.395 10.9773 212.162 10.7402 214.375 10.7402C221.725 10.7402 226.23 14.8501 226.23 21.0936C226.23 27.1794 221.567 31.684 213.98 31.684C211.767 31.684 209.237 31.526 208.21 31.526C207.578 31.526 205.523 31.605 204.812 31.605V31.0521ZM210.028 30.0246C210.818 30.1827 212.162 30.2617 213.268 30.2617C219.433 30.2617 222.673 26.5471 222.673 21.331C222.673 15.9565 219.275 12.1632 213.505 12.1632C212.32 12.1632 210.818 12.2422 210.028 12.4003V30.0246ZM121.431 29.1553C121.431 30.1827 122.142 30.815 123.328 31.0521V31.6053C122.616 31.6053 120.403 31.5263 119.692 31.5263C119.139 31.5263 116.926 31.6053 116.215 31.6053V31.0521C117.4 30.815 118.032 30.2617 118.032 29.1553V13.3484C118.032 12.4 117.479 11.7677 116.215 11.5306V10.8983C116.926 10.8983 119.06 10.9773 119.692 10.9773C120.719 10.9773 123.565 10.8192 124.75 10.8192C129.73 10.8192 132.496 12.8742 132.496 16.3518C132.496 19.118 130.441 20.9359 127.28 21.7263C127.28 21.7263 127.991 22.1214 128.702 22.9908C129.572 24.0182 132.022 27.4959 132.97 28.6814C133.919 29.8669 135.183 31.2105 136.527 31.2105V31.6847C135.894 31.8428 134.867 31.9218 134.077 31.9218C132.417 31.9218 131.073 31.2895 129.73 29.7089C128.623 28.3653 126.647 25.4409 125.541 24.0182C124.829 23.0698 123.96 22.3585 122.379 22.1214C122.063 22.0424 121.747 22.0424 121.431 21.9633L121.431 29.1553ZM121.431 20.7778C122.063 20.8568 123.091 20.9359 124.039 20.9359C127.912 20.9359 129.097 18.7229 129.097 16.7469C129.097 13.9807 127.2 12.2419 123.881 12.2419C123.17 12.2419 122.142 12.3209 121.431 12.479V20.7778ZM186.714 29.1553C186.714 30.1827 187.425 30.815 188.611 31.0521V31.6053C187.9 31.6053 185.687 31.5263 185.054 31.5263C184.501 31.5263 182.288 31.6053 181.577 31.6053V31.0521C182.762 30.815 183.395 30.2617 183.395 29.1553V13.3484C183.395 12.4 182.841 11.7677 181.577 11.5306V10.8983C182.288 10.8983 184.422 10.9773 185.054 10.9773C186.082 10.9773 188.927 10.8192 190.034 10.8192C195.013 10.8192 197.779 12.8742 197.779 16.3518C197.779 19.118 195.724 20.9359 192.563 21.7263C192.563 21.7263 193.274 22.1214 193.985 22.9908C194.855 24.0182 197.305 27.4959 198.253 28.6814C199.202 29.8669 200.466 31.2105 201.81 31.2105V31.6847C201.178 31.8428 200.15 31.9218 199.36 31.9218C197.7 31.9218 196.357 31.2895 195.013 29.7089C193.906 28.3653 191.931 25.4409 190.824 24.0182C190.113 23.0698 189.243 22.3585 187.663 22.1214C187.346 22.0424 187.03 22.0424 186.714 21.9633L186.714 29.1553ZM186.714 20.7778C187.346 20.8568 188.374 20.9359 189.322 20.9359C193.195 20.9359 194.381 18.7229 194.381 16.7469C194.381 13.9807 192.484 12.2419 189.164 12.2419C188.453 12.2419 187.425 12.3209 186.714 12.479V20.7778ZM91.397 31.0521C92.7406 30.736 93.4519 29.8666 93.9261 28.7601L100.565 12.7952C100.881 12.1629 101.197 10.8193 101.197 10.8193H103.094C103.094 10.8193 103.41 12.1629 103.727 12.8742L110.761 28.8392C111.235 29.9456 111.788 30.736 113.211 31.0521V31.6054C112.42 31.6054 110.128 31.5264 109.575 31.5264C109.022 31.5264 106.809 31.6054 106.019 31.6054V31.0521C107.046 30.815 107.362 30.2618 107.362 29.7876C107.362 29.3924 107.204 28.8392 106.967 28.365L105.465 24.9665H97.7199L96.3763 28.444C96.2182 28.8392 96.0601 29.3924 96.0601 29.7876C96.0601 30.3408 96.3763 30.815 97.4828 31.1312V31.6844C96.7714 31.6844 94.9537 31.6054 94.5585 31.6054L91.5552 31.6844L91.397 31.0521ZM104.596 23.3066L101.276 15.64L98.1939 23.3066H104.596ZM157.153 31.0521C158.497 30.736 159.208 29.8666 159.682 28.7601L166.321 12.7952C166.637 12.1629 166.953 10.8193 166.953 10.8193H168.85C168.85 10.8193 169.166 12.1629 169.483 12.8742L176.517 28.8392C176.991 29.9456 177.544 30.736 178.967 31.0521V31.6054C178.176 31.6054 175.884 31.5264 175.331 31.5264C174.778 31.5264 172.565 31.6054 171.775 31.6054V31.0521C172.802 30.815 173.118 30.2618 173.118 29.7876C173.118 29.3924 172.96 28.8392 172.723 28.365L171.221 24.9665H163.476L162.132 28.444C161.974 28.8392 161.816 29.3924 161.816 29.7876C161.816 30.3408 162.132 30.815 163.239 31.1312V31.6844C162.527 31.6844 160.71 31.6054 160.314 31.6054L157.311 31.6844V31.0521H157.153ZM170.273 23.3066L166.953 15.64L163.871 23.3066H170.273Z" fill="white"/>
<path d="M5.08879 4.49763H51.3232V21.9643C51.3232 29.9466 48.3199 46.939 28.403 59.5848C28.403 59.5848 6.74741 50.5751 5.08765 21.9643L5.08879 4.49763Z" fill="white"/>
<path d="M20.2918 32.0535C20.1757 32.0487 20.075 32.1067 19.9938 32.177C19.8357 32.314 19.741 32.5034 19.7361 32.5135C19.5597 32.7604 19.1885 32.8226 18.8515 32.8129C18.5146 32.8033 18.2248 32.7265 18.2248 32.7265L18.2063 32.7218L18.1878 32.7281C17.7033 32.8896 17.4877 33.0956 17.399 33.273C17.3546 33.3617 17.3434 33.4419 17.3434 33.4999C17.3434 33.5454 17.3492 33.5655 17.3527 33.5786V35.3893C17.335 35.4891 17.2888 35.5503 17.2245 35.5931C17.1594 35.6366 17.0725 35.6595 16.9853 35.6687C16.8108 35.687 16.6411 35.6502 16.6411 35.6502H16.6395C16.0318 35.5287 15.6151 35.6711 15.3552 35.8478C15.0995 36.0217 14.9974 36.2239 14.994 36.2306C14.734 36.5825 14.906 37.0765 14.906 37.0765V37.0796C14.9228 37.1245 14.9423 37.167 14.9646 37.2062C14.9649 37.2069 14.9677 37.2154 14.9677 37.2154C15.2048 37.8477 16.0745 37.8468 16.0745 37.8468C16.3906 38.0839 16.9435 37.9255 16.9435 37.9255C17.106 37.9255 17.2004 37.993 17.2585 38.0783C17.2873 38.1948 17.2739 38.3114 17.2739 38.3114L17.2723 38.3253L17.2754 38.3376C17.2807 38.3587 17.2917 38.4683 17.297 38.6186C17.3024 38.7688 17.3045 38.9665 17.3063 39.1959C17.31 39.6546 17.3081 40.2377 17.3032 40.8105C17.2933 41.9561 17.2739 43.0627 17.2739 43.0627C17.2739 43.4492 17.1982 43.6755 17.1982 43.6755L17.1951 43.6847V43.6955C17.1951 43.7148 17.1888 43.7246 17.1673 43.7418C17.1459 43.7589 17.1081 43.7778 17.0578 43.7912C16.957 43.8181 16.8125 43.8283 16.6672 43.8283C16.3766 43.8283 16.0822 43.7897 16.0822 43.7897L16.0745 43.7882L16.0667 43.7897C15.2437 43.872 14.9889 44.6108 14.9862 44.6186V44.6201C14.9209 44.7735 14.9266 44.929 14.9707 45.0694C14.9929 45.1398 15.025 45.207 15.0618 45.27C15.2087 45.6288 15.6005 45.9091 15.6005 45.9091C15.6005 46.0672 17.1025 46.1453 17.1025 46.1453C17.1935 46.168 17.2555 46.232 17.3016 46.3089C17.3062 46.3229 17.3118 46.3364 17.3155 46.3505C17.3525 46.489 17.3526 46.6191 17.3526 46.6191C17.3413 46.6613 17.337 46.7086 17.334 46.7766C17.3307 46.8533 17.3291 46.9481 17.331 47.0544C17.3347 47.2672 17.347 47.5275 17.3618 47.78C17.3915 48.2848 17.4313 48.7586 17.4313 48.7586L17.4329 48.7617V48.7648C17.4413 48.8152 17.4658 48.8587 17.4961 48.8975C17.4962 48.8977 17.4977 48.9114 17.4977 48.9114C17.5767 49.3856 19.0784 49.2279 19.0784 49.2279C19.0784 49.2279 24.3418 49.1064 25.764 49.1291C25.9672 49.1321 26.0916 49.1393 26.1114 49.1491C26.2694 49.1491 26.6655 49.0704 26.6655 49.0704L27.2181 49.4656C27.4404 49.6385 27.6707 49.6878 27.8819 49.674C27.9241 49.6717 27.9664 49.6659 28.0069 49.6586C28.4121 49.5852 28.7201 49.3066 28.7201 49.3066L29.5104 49.1492C29.6685 49.1492 36.0708 49.0705 36.0708 49.0705C36.6241 49.2285 36.8612 48.9902 36.8612 48.9902L37.8877 48.9115C37.9272 48.9115 37.9641 48.9084 37.9989 48.9022C38.2499 48.8562 38.3791 48.6554 38.4465 48.4592C38.4666 48.4202 38.4877 48.3814 38.5021 48.3419C38.5859 48.1115 38.5839 47.885 38.5839 47.885V46.5482C38.5971 46.4425 38.6215 46.3598 38.6487 46.2858C38.7928 46.0318 38.9945 45.9878 38.9945 45.9878L39.9423 45.8288L40.4177 45.5927C40.6001 45.5471 40.6963 45.4195 40.7512 45.2654C40.7652 45.2435 40.7802 45.2226 40.7913 45.199C40.8568 45.0598 40.8762 44.8976 40.8762 44.7437C40.8762 44.4358 40.7944 44.1525 40.7944 44.1525L40.7929 44.1462L40.7913 44.1398C40.6183 43.7937 40.2191 43.6527 39.8744 43.5918C39.5296 43.531 39.2261 43.5517 39.2261 43.5517H39.2245C38.844 43.5897 38.7005 43.4808 38.6348 43.3742C38.5692 43.2675 38.5839 43.1519 38.5839 43.1519V43.1472L38.6642 38.2492C38.6954 38.0656 38.7487 37.9194 38.8016 37.8C38.8634 37.6818 38.9158 37.6101 38.9158 37.6101C39.1529 37.6892 39.9423 37.4511 39.9423 37.4511C40.3965 37.4057 40.5857 37.1272 40.6678 36.897C40.6751 36.8835 40.6862 36.8701 40.6925 36.8568C40.7967 36.6381 40.796 36.4366 40.796 36.4308C40.8382 36.1208 40.6226 35.8647 40.4085 35.6914C40.1935 35.5173 39.9686 35.4166 39.9686 35.4166L39.9562 35.4103H38.8463C38.8156 35.4039 38.7906 35.3877 38.7645 35.3531C38.7379 35.3179 38.7125 35.2656 38.6935 35.2019C38.6556 35.0745 38.6382 34.9024 38.6333 34.7326C38.6236 34.3929 38.6626 34.0611 38.6626 34.0611L38.6642 34.0564V33.4209C38.6642 33.1134 38.4446 32.8975 38.2381 32.7633C38.0316 32.629 37.8275 32.5688 37.8275 32.5688L37.8182 32.5657H36.4089C36.377 32.5129 36.3415 32.4611 36.2885 32.4268C36.2185 32.3814 36.1374 32.3476 36.0601 32.3218C35.9053 32.2702 35.7621 32.2508 35.7621 32.2508C35.5045 32.1699 35.1215 32.1706 35.1215 32.1706H35.1014L35.0844 32.1814C34.5924 32.5221 33.7291 32.6649 32.9928 32.714C32.2565 32.7631 31.6483 32.7248 31.6483 32.7248L29.1692 32.5643L29.1476 32.5844C29.1549 32.5773 29.1392 32.5899 29.1136 32.5983C29.0881 32.6068 29.0514 32.6171 29.0102 32.6261C28.9277 32.644 28.8229 32.6608 28.72 32.6755C28.5142 32.7049 28.3171 32.7249 28.3171 32.7249L28.277 32.7279L28.2631 32.7681C28.195 32.9724 27.9883 33.0429 27.9883 33.0429L27.7707 33.1169C27.6262 32.9942 27.4009 32.901 27.1872 32.836C26.9616 32.7673 26.7743 32.7296 26.7658 32.7279C26.7642 32.7272 26.7626 32.7256 26.7611 32.7249C26.7536 32.7218 26.746 32.7201 26.7395 32.7185C26.7264 32.7155 26.714 32.7138 26.6978 32.7122C26.6655 32.7091 26.6239 32.7083 26.5728 32.7075C26.4704 32.7067 26.3306 32.7097 26.1653 32.7154C25.8345 32.7265 25.402 32.7478 24.972 32.7725C24.1128 32.8219 23.2647 32.882 23.2632 32.8821C22.2834 32.9213 21.6215 32.7641 21.2056 32.5996C20.7895 32.4351 20.6252 32.2693 20.6252 32.2693C20.5208 32.1268 20.4056 32.058 20.2918 32.0535ZM20.2871 32.1831C20.3563 32.1862 20.4363 32.2247 20.5279 32.3529L20.5295 32.356L20.5326 32.3607C20.5326 32.3607 20.7241 32.549 21.1578 32.7204C21.5914 32.8918 22.2719 33.052 23.2679 33.0121H23.2726C23.2726 33.0121 24.1209 32.9519 24.9798 32.9025C25.4093 32.8779 25.8413 32.8565 26.17 32.8454C26.3344 32.8399 26.4742 32.8368 26.5729 32.8375C26.6222 32.8379 26.661 32.8398 26.6871 32.8422C26.6981 32.843 26.7052 32.8445 26.7103 32.8453L26.7134 32.8483L26.7319 32.8531C26.7319 32.8531 26.928 32.8915 27.1518 32.9596C27.3756 33.0277 27.6294 33.1315 27.7276 33.2297L27.7554 33.2576L28.0301 33.1665C28.0301 33.1665 28.1988 33.0676 28.3126 32.8963C28.2246 33.1102 28.0085 33.1835 28.0085 33.1835L27.7723 33.3425C27.5352 33.1053 26.7443 32.9473 26.7443 32.9473C26.6652 32.8682 23.2664 33.1047 23.2664 33.1047C21.2906 33.1838 20.579 32.4734 20.579 32.4734C20.1838 31.9201 19.7886 32.7096 19.7886 32.7096C19.3934 33.2628 18.2079 32.9473 18.2079 32.9473C17.7705 33.0931 17.5747 33.2717 17.4839 33.4227C17.4901 33.3952 17.4996 33.3652 17.5164 33.3317C17.5849 33.1945 17.7696 33.0098 18.2218 32.8562C18.2472 32.8626 18.5113 32.933 18.8501 32.9427C19.2046 32.9528 19.6238 32.8955 19.8426 32.5892L19.8457 32.5861L19.8488 32.5814C19.8488 32.5814 19.9447 32.3904 20.0788 32.2742C20.1459 32.2161 20.2179 32.1804 20.2871 32.1831ZM35.1402 32.302C35.1683 32.3023 35.5262 32.3067 35.7345 32.376L35.7407 32.3776L35.7453 32.3791C35.7453 32.3791 35.88 32.3983 36.0216 32.4455C36.0924 32.4691 36.1649 32.4988 36.2208 32.535C36.2297 32.5406 36.2344 32.5475 36.2424 32.5535C36.0526 32.4367 35.7546 32.393 35.7546 32.393C35.5175 32.3139 35.1217 32.3143 35.1217 32.3143C34.0943 33.0256 31.6439 32.8684 31.6439 32.8684L29.1941 32.7094C29.116 32.7875 28.3521 32.8651 28.3343 32.8669C28.3376 32.8613 28.342 32.8571 28.3451 32.8515C28.3566 32.8507 28.5374 32.8326 28.7403 32.8036C28.8449 32.7886 28.9518 32.7717 29.0398 32.7527C29.0837 32.7431 29.1227 32.7327 29.1555 32.7218C29.174 32.7154 29.188 32.7049 29.2034 32.6971L31.6408 32.853C31.6408 32.853 32.2582 32.8935 33.0039 32.8438C33.7407 32.7946 34.6033 32.6628 35.1402 32.302ZM36.3782 32.6956H37.7984C37.8029 32.6971 37.9158 32.7404 38.0469 32.8083C37.9144 32.7421 37.8092 32.7095 37.8092 32.7095H36.3859C36.3844 32.7048 36.3803 32.7004 36.3782 32.6956ZM38.0732 32.8222C38.1071 32.8405 38.1349 32.8501 38.1704 32.8731C38.1801 32.8794 38.1885 32.8881 38.1982 32.8947C38.1555 32.8672 38.1136 32.8433 38.0732 32.8222ZM38.6366 35.3862C38.6454 35.4011 38.6526 35.4174 38.6628 35.4309C38.7032 35.4842 38.7578 35.5255 38.8249 35.539L38.831 35.5405H39.927C39.9363 35.5444 40.133 35.6355 40.3283 35.7936C40.4652 35.9045 40.5857 36.0433 40.6401 36.1965C40.4987 35.9691 40.2377 35.7949 40.0783 35.7041C39.998 35.6584 39.9424 35.6346 39.9424 35.6346H38.8372C38.7404 35.6153 38.6774 35.5189 38.6366 35.3862ZM17.3792 35.627C17.1805 36.003 16.6275 35.8709 16.6275 35.8709C15.4419 35.6338 15.0468 36.425 15.0468 36.425C15.036 36.4394 15.0297 36.4548 15.0205 36.4698C15.0385 36.4117 15.0628 36.3553 15.1008 36.3046L15.107 36.2951C15.107 36.2951 15.1971 36.1132 15.4311 35.954C15.6649 35.795 16.0385 35.6617 16.6151 35.7765C16.6151 35.7765 16.8001 35.8177 17.001 35.7966C17.1015 35.786 17.2085 35.7612 17.299 35.7009C17.3288 35.6809 17.3547 35.6551 17.3792 35.627ZM38.535 43.4516C38.6305 43.597 38.8385 43.7209 39.2374 43.6816C39.2374 43.6816 39.5278 43.6624 39.8548 43.7201C40.1811 43.7778 40.5308 43.9122 40.6745 44.1972C40.6749 44.1987 40.6836 44.2383 40.6869 44.2512C40.3162 43.7036 39.2327 43.7742 39.2327 43.7742C38.716 43.8259 38.5736 43.6091 38.535 43.4516ZM17.2681 43.8236C17.267 43.8275 17.2604 43.8529 17.2604 43.8529C17.2604 43.8924 17.2418 43.9258 17.2094 43.9517C17.177 43.9776 17.1307 43.9971 17.0751 44.0119C16.7417 44.1009 16.0748 44.0119 16.0748 44.0119C15.5027 44.0692 15.2223 44.4547 15.1101 44.6649C15.1101 44.6649 15.3299 43.996 16.081 43.9193C16.0944 43.9208 16.374 43.9579 16.6691 43.9579C16.8202 43.9579 16.9706 43.9486 17.0921 43.9162C17.1528 43.9 17.2077 43.8783 17.2511 43.8437C17.2579 43.8381 17.2621 43.83 17.2681 43.8236ZM22.7743 10.1152L22.7512 10.1352C21.5178 11.1374 19.7256 10.6755 19.7256 10.6755L19.7179 10.674H19.7101C17.9694 10.674 17.4086 10.7527 17.4086 10.7527L17.3839 10.7574L17.3684 10.7759C17.1885 10.9918 16.968 10.9888 16.7741 10.9334C16.5849 10.8792 16.4414 10.7733 16.4345 10.7682C16.3989 10.7162 16.342 10.6866 16.2802 10.6648C16.2102 10.64 16.13 10.6256 16.0533 10.6154C15.8998 10.5949 15.7584 10.5938 15.7584 10.5938H15.7553L15.7538 10.5953C14.0193 10.7136 12.9377 10.6143 12.2929 10.4873C11.9705 10.4238 11.7575 10.3527 11.6261 10.299C11.4946 10.2451 11.4486 10.211 11.4486 10.211L11.4563 10.2189C11.4311 10.1937 11.407 10.1846 11.3776 10.1756C11.3481 10.1667 11.3143 10.1599 11.2772 10.1541C11.2032 10.1424 11.1154 10.1359 11.0303 10.1309C10.8599 10.1206 10.6999 10.12 10.6999 10.12H10.6598L10.6413 10.1555C10.5725 10.293 10.3594 10.5814 10.3433 10.6032C10.3338 10.6062 10.3125 10.6126 10.2739 10.6171C10.2293 10.6218 10.1712 10.6261 10.1056 10.6279C9.97452 10.6318 9.81223 10.6294 9.65488 10.6248C9.34018 10.615 9.04516 10.5955 9.04516 10.5955L9.04207 10.594H9.0405C8.71086 10.594 8.51245 10.7006 8.40145 10.8116C8.29044 10.9227 8.26561 11.0416 8.26561 11.0416L8.26405 11.0464L8.18532 12.5576V12.5624C8.22442 13.0315 8.17708 13.2214 8.14519 13.2724C8.12924 13.298 8.12886 13.2925 8.12821 13.2925L8.07418 13.257L8.03714 13.3111C8.01652 13.342 7.93776 13.3838 7.82566 13.4083C7.71356 13.4328 7.57426 13.4452 7.43819 13.45C7.16608 13.4597 6.91182 13.4407 6.91182 13.4407L6.90565 13.4392L6.89949 13.4407C6.68477 13.4622 6.52408 13.5673 6.41171 13.7078C6.29933 13.8483 6.23191 14.0221 6.19097 14.1909C6.1091 14.5287 6.13077 14.8532 6.13077 14.8532V14.861C6.17367 15.0755 6.29597 15.226 6.44876 15.3225C6.60155 15.419 6.78413 15.4657 6.95814 15.4861C7.2966 15.526 7.59399 15.4692 7.61109 15.466H7.61266C8.03338 15.5048 8.18619 15.6348 8.24247 15.7393C8.29884 15.844 8.26717 15.9353 8.26717 15.9353L8.26407 15.9446V15.9554C8.26407 16.1189 8.28445 17.4184 8.30421 18.683C8.32389 19.9429 8.34265 21.1546 8.3428 21.1637C8.324 21.3328 8.27863 21.4392 8.22548 21.5048C8.17233 21.5705 8.11166 21.5989 8.04951 21.6113C7.92522 21.6362 7.80098 21.5867 7.80098 21.5867L7.78863 21.5803H7.77628C6.89218 21.5803 6.48566 21.8889 6.31598 22.207C6.1471 22.5237 6.21041 22.837 6.21101 22.8399C6.25437 23.4137 6.61604 23.6784 6.95658 23.7815C7.29832 23.8851 7.62499 23.8433 7.62499 23.8433L7.61725 23.8448C8.04015 23.8448 8.2135 23.9565 8.28719 24.0547C8.36089 24.153 8.34431 24.2431 8.34431 24.2431L8.34122 24.2631L8.35048 24.2832C8.34781 24.2777 8.35973 24.3235 8.36282 24.3836C8.36592 24.4435 8.36772 24.5234 8.36592 24.6151C8.36229 24.7985 8.34983 25.0306 8.33505 25.2572C8.30548 25.7107 8.26558 26.1449 8.26558 26.1449V26.1528L8.26715 26.162C8.34977 26.6164 8.61255 26.8029 8.84911 26.8566C9.06832 26.9064 9.24895 26.8551 9.27671 26.8474H9.27981L15.5886 27.0064C16.4893 27.6625 17.0709 27.6814 17.4193 27.5019C17.7528 27.3301 17.8404 27.0233 17.8515 26.9879L17.9611 27.0049C18.0317 27.0166 18.1697 27.0226 18.3718 27.028C18.5738 27.0336 18.8358 27.037 19.1374 27.0389C19.7406 27.0428 20.5012 27.0404 21.2522 27.0358C22.0031 27.0311 22.7451 27.0235 23.3083 27.0173C23.8689 27.011 24.2528 27.0065 24.2901 27.0065H24.2947C24.5538 27.0641 24.7562 27.051 24.9122 26.991C25.0711 26.93 25.1787 26.8217 25.2487 26.7086C25.3879 26.4837 25.3876 26.2361 25.3876 26.2331V26.2301L25.4664 24.3468C25.4985 24.2231 25.6328 24.1323 25.772 24.0767C25.9067 24.0228 26.0282 24.0055 26.0375 24.0041C26.9149 24.1201 27.345 23.8106 27.5333 23.4654C27.7217 23.1199 27.6803 22.7507 27.6799 22.7476V22.7461C27.6382 22.1709 27.2973 21.8871 26.976 21.7628C26.6544 21.6383 26.3462 21.6609 26.3462 21.6609L26.3509 21.6594C25.9319 21.6594 25.7396 21.5137 25.6424 21.3723C25.5456 21.2315 25.5451 21.0957 25.5451 21.0944V21.0929C25.567 20.9555 25.5804 20.6149 25.5914 20.1528C25.6025 19.6854 25.6096 19.1076 25.6146 18.5443C25.6244 17.4177 25.6254 16.3508 25.6254 16.3508C25.6254 16.2539 25.6804 16.0976 25.7381 15.9726C25.7885 15.8633 25.8266 15.7997 25.8384 15.7797C26.3252 15.8292 26.697 15.8001 26.9575 15.7071C27.2295 15.61 27.397 15.4513 27.4932 15.2857C27.6834 14.9582 27.5985 14.6129 27.5966 14.6049C27.6327 14.3081 27.5881 14.0835 27.4839 13.9273C27.3774 13.7675 27.219 13.6783 27.061 13.6309C26.7545 13.539 26.4488 13.5949 26.4297 13.5985C25.8888 13.5985 25.7033 13.4486 25.6378 13.3176C25.5723 13.186 25.6208 13.053 25.6208 13.053L25.6224 13.0467L25.6239 13.0404C25.7436 12.2828 25.7042 11.7604 25.6332 11.4257C25.5622 11.0911 25.4541 10.9379 25.4541 10.9379L25.448 10.9287L25.4372 10.9208C25.3565 10.867 25.24 10.8465 25.0991 10.8313C24.9582 10.816 24.7952 10.8112 24.6407 10.8112C24.3316 10.8112 24.0541 10.8313 24.0541 10.8313L24.034 10.8328L24.0201 10.8436C23.9636 10.886 23.9023 10.8813 23.8179 10.8389C23.7335 10.7966 23.6385 10.7152 23.5524 10.6243C23.3802 10.4425 23.2437 10.2291 23.2437 10.2291L23.2282 10.2059L22.7743 10.1152ZM45.1416 10.1152L45.1185 10.1352C43.8851 11.1374 42.0929 10.6755 42.0929 10.6755L42.0852 10.674H42.0759C40.4141 10.674 39.8546 10.7527 39.8546 10.7527L39.8299 10.7574L39.8145 10.7759C39.6346 10.9918 39.4141 10.9888 39.2202 10.9334C39.0336 10.8801 38.8931 10.7777 38.8821 10.7697C38.8466 10.7166 38.7887 10.6869 38.7262 10.6648C38.6562 10.64 38.576 10.6256 38.4993 10.6154C38.3459 10.5949 38.2045 10.5938 38.2045 10.5938H38.2014L38.1999 10.5953C36.4654 10.7136 35.3839 10.6143 34.739 10.4873C34.4166 10.4238 34.2037 10.3527 34.0722 10.299C33.9407 10.2451 33.8947 10.211 33.8947 10.211L33.9024 10.2189C33.8773 10.1937 33.8516 10.1846 33.8222 10.1756C33.7927 10.1667 33.7604 10.1599 33.7234 10.1541C33.6493 10.1424 33.56 10.1359 33.4748 10.1309C33.3045 10.1208 33.146 10.12 33.146 10.12H33.1059L33.0874 10.1555C33.0185 10.2933 32.803 10.5843 32.7879 10.6047C32.7776 10.6078 32.7562 10.6128 32.7184 10.6171C32.6739 10.6218 32.6173 10.6261 32.5517 10.6279C32.4206 10.6318 32.2583 10.6294 32.101 10.6248C31.7863 10.615 31.4897 10.5955 31.4897 10.5955L31.4881 10.594H31.4866C31.1189 10.594 30.9028 10.6979 30.7811 10.8086C30.6594 10.9192 30.6314 11.0416 30.6314 11.0416V12.641C30.6704 13.0702 30.6212 13.2403 30.5928 13.28C30.5786 13.2999 30.5799 13.2925 30.5774 13.2924C30.5748 13.2922 30.5727 13.2924 30.5727 13.2924L30.5202 13.2569L30.4832 13.3109C30.4626 13.3418 30.3838 13.3837 30.2717 13.4082C30.1596 13.4327 30.0188 13.445 29.8827 13.4498C29.6106 13.4596 29.3563 13.4406 29.3563 13.4406L29.3517 13.4391L29.3455 13.4406C29.1125 13.4618 28.9371 13.5644 28.8129 13.7046C28.6888 13.8447 28.6137 14.02 28.5675 14.1893C28.4751 14.5279 28.4965 14.853 28.4965 14.853V14.8561L28.4981 14.8608C28.541 15.0753 28.6633 15.2259 28.816 15.3224C28.9688 15.4188 29.1499 15.4655 29.3239 15.486C29.6624 15.5258 29.9613 15.4691 29.9784 15.4659H29.98C30.4007 15.5046 30.552 15.6346 30.6082 15.7391C30.6646 15.8438 30.6345 15.9352 30.6345 15.9352L30.6329 15.9367V15.9397C30.6179 15.9996 30.6136 16.1018 30.6082 16.267C30.6027 16.4322 30.5993 16.6508 30.5974 16.903C30.5937 17.4075 30.5956 18.0504 30.6005 18.6828C30.6103 19.943 30.6312 21.1544 30.6314 21.1634C30.6126 21.3326 30.5656 21.4389 30.5125 21.5046C30.4593 21.5703 30.3987 21.5987 30.3365 21.6111C30.2122 21.636 30.0895 21.5864 30.0895 21.5864L30.0772 21.5801H30.0633C29.1792 21.5801 28.7727 21.8887 28.603 22.2068C28.4341 22.5234 28.4974 22.8367 28.498 22.8397C28.5414 23.4135 28.9031 23.6781 29.2436 23.7813C29.5853 23.8849 29.9135 23.843 29.9135 23.843L29.9058 23.8446C30.288 23.8446 30.4612 23.9554 30.5464 24.0576C30.6316 24.1598 30.6313 24.2536 30.6313 24.2536V24.2691L30.6375 24.283C30.6348 24.2774 30.6467 24.3233 30.6498 24.3833C30.6529 24.4433 30.6532 24.5231 30.6514 24.6148C30.6478 24.7983 30.6353 25.0303 30.6205 25.257C30.5909 25.7104 30.5526 26.1446 30.5526 26.1446L30.551 26.1525L30.5526 26.1617C30.6352 26.6161 30.8995 26.8026 31.1361 26.8564C31.3551 26.9062 31.5357 26.8568 31.5637 26.8485H31.5668L37.8756 27.0075C38.7762 27.6636 39.3563 27.6825 39.7048 27.503C40.0408 27.3299 40.1488 27.0017 40.1586 26.9704L40.1601 26.9689C40.1885 26.9145 40.2489 26.8886 40.279 26.8886C40.2942 26.8886 40.2929 26.8917 40.2898 26.8871C40.2867 26.8824 40.2929 26.8856 40.279 26.9133L40.2404 26.9921L40.3268 27.006C40.3974 27.0177 40.5354 27.0237 40.7374 27.0291C40.9395 27.0347 41.2015 27.0381 41.5031 27.04C42.1063 27.044 42.8669 27.0415 43.6179 27.0369C44.3688 27.0322 45.1093 27.0246 45.6725 27.0185C46.2357 27.0121 46.6263 27.0076 46.6604 27.0076C46.9382 27.0651 47.1503 27.0507 47.3103 26.9906C47.4731 26.9296 47.5799 26.8209 47.6452 26.7066C47.7759 26.478 47.7517 26.2234 47.7517 26.2234L47.7533 26.2327L47.832 24.3463C47.8641 24.2226 47.9969 24.1319 48.1361 24.0762C48.272 24.0218 48.3959 24.0063 48.4031 24.0052C49.2806 24.1212 49.7106 23.8102 49.899 23.465C50.0874 23.1194 50.0444 22.7518 50.0441 22.7487V22.7457C50.0023 22.1705 49.663 21.8867 49.3417 21.7624C49.0201 21.6378 48.7104 21.6605 48.7104 21.6605L48.7165 21.6589C48.2567 21.6589 48.0682 21.5117 47.9817 21.3734C47.8953 21.2351 47.9123 21.1001 47.9123 21.1001V21.0924C47.9123 20.6254 47.991 16.3517 47.991 16.3517V16.3502C47.991 16.2532 48.046 16.097 48.1037 15.972C48.1542 15.8626 48.1938 15.7991 48.2056 15.779C48.6923 15.8286 49.0642 15.7995 49.3247 15.7065C49.5967 15.6093 49.7642 15.4507 49.8604 15.2851C50.0505 14.9575 49.9657 14.6123 49.9638 14.6043C49.9998 14.3074 49.9537 14.0829 49.8496 13.9267C49.743 13.7669 49.5847 13.6777 49.4266 13.6303C49.1189 13.538 48.812 13.5947 48.7952 13.5979C48.2544 13.5979 48.0704 13.4479 48.0049 13.3169C47.9394 13.1859 47.9879 13.053 47.9879 13.053L47.9909 13.0403C48.1105 12.2828 48.0712 11.7603 48.0002 11.4257C47.9292 11.091 47.8212 10.9378 47.8212 10.9378L47.8134 10.9286L47.8041 10.9207C47.7234 10.8669 47.607 10.8464 47.4661 10.8312C47.3252 10.8159 47.1621 10.8111 47.0076 10.8111C46.6986 10.8111 46.4195 10.8312 46.4195 10.8312L46.401 10.8327L46.3856 10.8435C46.329 10.886 46.2693 10.8812 46.1849 10.8388C46.1005 10.7966 46.0039 10.7151 45.9178 10.6242C45.7457 10.4425 45.6107 10.2291 45.6107 10.2291L45.5952 10.2059L45.1416 10.1152Z" fill="black"/>
<path d="M28.3252 59.8193L28.1671 59.7402C28.009 59.6612 6.43247 50.3353 4.77271 21.9616V4.17882H51.5607V21.8826C51.5607 28.8378 49.3477 46.5412 28.4825 59.6612L28.3252 59.8193ZM5.32596 4.73054V21.8811C6.90665 48.7527 26.5073 58.3951 28.3252 59.1855C48.7952 46.1448 51.0082 28.7572 51.0082 21.8811V4.73054H5.32596Z" fill="black"/>
<path d="M11.7276 10.8205C11.7276 10.8205 11.2534 10.8209 11.3324 11.137L11.1749 23.1498C11.1749 23.1498 11.1746 23.7036 12.044 23.7827C12.044 23.7827 13.1499 23.8617 13.387 23.7827H15.917C15.917 23.7827 16.3909 24.2557 16.3909 23.7024C16.3909 23.7024 16.7064 13.9824 16.5484 11.9275C16.5484 11.9275 16.5481 11.0569 15.8367 11.0569C15.8367 11.0569 12.9927 11.294 12.7556 11.0569L11.7276 10.8205ZM22.6984 10.839C22.5942 10.8298 22.4264 10.8594 22.1596 10.978C22.1596 10.978 22.2399 11.295 18.6833 11.137C18.6043 11.137 17.2604 11.1362 17.1814 11.6896C17.1814 11.6896 17.1027 17.3802 17.1027 17.5383L17.0224 22.2805L16.9437 23.9399C16.9437 23.9399 17.1808 24.2557 17.3388 24.0186C17.3388 24.0186 18.5244 23.7031 19.3147 23.8612C19.3147 23.8612 21.6867 24.0973 22.2399 23.7022C22.2399 23.7022 22.6348 23.8602 22.7138 23.307C22.7138 23.307 22.8716 12.7955 22.7925 12.6375C22.7925 12.6375 22.9503 11.1361 22.8713 10.978C22.8713 10.978 22.872 10.8545 22.6984 10.839ZM9.66843 11.1339C9.51329 11.1386 9.28746 11.2357 8.96145 11.5321L8.88273 13.1128C8.88273 13.1128 8.88272 13.9822 8.09236 13.9032C8.09236 13.9032 7.22204 13.9032 6.74786 14.2983C6.74786 14.2983 6.51138 15.0874 7.38077 15.0084C7.38077 15.0084 8.72496 15.0092 8.80399 15.5626L8.72372 21.2524C8.72372 21.2524 9.0411 22.2018 8.01366 22.2018C8.01366 22.2018 6.74785 22.1215 6.74785 22.9119C6.74785 22.9119 6.98588 23.5454 8.09235 23.3873C8.09235 23.3873 8.88302 23.5451 8.80398 24.2564V25.678C8.80398 25.678 8.72371 26.2319 9.51405 26.311H15.3627C15.3627 26.311 15.6792 26.3106 15.6792 25.9945C15.6792 25.9945 15.6795 25.6781 15.2053 25.6781L10.3844 25.5206C10.3844 25.5206 9.59285 25.7584 9.51382 24.5729C9.51382 24.5729 9.59034 14.4241 9.59254 13.9774C9.59259 13.9776 9.59411 13.9821 9.59411 13.9821C9.59411 13.9821 9.59277 13.9448 9.59254 13.9405C9.59256 13.9365 9.59411 13.8249 9.59411 13.8232C9.59262 13.8201 9.59247 13.8201 9.59102 13.8168C9.58262 13.4284 9.58114 12.0535 9.98929 11.3732C9.98929 11.3732 9.92699 11.1261 9.66843 11.1339ZM24.6342 11.1632C24.295 11.1925 24.2946 11.6108 24.2946 11.6108C24.4526 11.7689 24.5308 12.3225 24.5308 12.3225C24.6098 13.587 24.5308 15.0093 24.5308 16.3529C24.4517 20.858 24.2946 24.9679 24.2946 24.9679C24.2946 25.8373 23.8207 25.5992 23.8207 25.5992H18.6031C18.0499 25.5992 18.0505 25.9157 18.0505 25.9157C18.1295 26.3899 18.6031 26.2321 18.6031 26.2321C19.0773 26.3112 24.2945 26.2321 24.2945 26.2321C25.0848 26.3112 25.0061 25.2828 25.0061 25.2828C25.0852 23.465 25.2423 23.3069 25.2423 23.3069C25.4004 23.2279 26.2704 23.2282 26.2704 23.2282C27.693 23.3072 27.0608 22.3591 27.0608 22.3591C26.9027 22.122 25.954 22.1214 25.954 22.1214C25.0846 22.2005 25.1636 21.2524 25.1636 21.2524L25.2423 15.7989C25.0843 15.3246 25.4801 15.0888 25.4801 15.0888H26.3491C27.5346 15.1678 27.2182 14.3772 27.2182 14.3772C27.2182 13.982 26.1917 13.823 26.1917 13.823C25.2433 13.9811 25.321 13.4278 25.321 13.4278V12.0849C25.4791 11.2155 24.9259 11.2158 24.9259 11.2158C24.8073 11.1714 24.7124 11.1564 24.6342 11.1632ZM23.5181 11.3392C23.4173 11.3527 23.3063 11.433 23.1878 11.6109V23.4659C23.1878 23.4659 23.5039 24.4927 23.9781 24.4137C23.9781 24.4137 24.0569 24.1775 24.0569 23.7824L24.2159 12.4798C24.2159 12.4798 23.9551 11.2805 23.5181 11.3392ZM10.7799 11.4519C10.0686 11.4519 9.98954 12.7964 9.98954 12.7964L9.90927 24.0188C9.9883 24.572 10.147 24.4927 10.147 24.4927C10.8583 24.0184 10.7799 23.2284 10.7799 23.2284C10.7799 23.2284 10.8586 12.5593 10.8586 12.4012C10.8586 12.2431 10.7799 11.4519 10.7799 11.4519ZM11.1087 24.0927C11.0749 24.0942 11.0371 24.0998 10.9976 24.1112C10.8395 24.1563 10.6446 24.2923 10.4804 24.6206L10.4773 24.6269L10.4758 24.6333C10.4758 24.6333 10.4288 24.7806 10.465 24.925C10.483 24.9972 10.5292 25.0738 10.6131 25.1133C10.6942 25.1515 10.8017 25.1529 10.9419 25.1149H14.801L15.8368 25.3541L15.8507 25.3511C15.8507 25.3511 15.9247 25.334 16.0158 25.3001C16.107 25.2663 16.2181 25.2167 16.2999 25.1349C16.3407 25.0941 16.3749 25.0437 16.3894 24.9836C16.4039 24.9236 16.396 24.8547 16.3647 24.7876C16.3021 24.6534 16.1532 24.5168 15.8707 24.3554L15.8553 24.3461H12.1305C12.1247 24.3446 11.9564 24.308 11.7631 24.2597C11.5666 24.2106 11.3418 24.1455 11.2831 24.1162L11.28 24.1146H11.2784C11.2784 24.1146 11.2099 24.0873 11.1087 24.0927ZM22.8511 24.3011C22.6288 24.29 22.3186 24.3351 22.3186 24.3351C21.6863 24.7303 17.9716 24.4138 17.9716 24.4138C17.7345 24.4138 17.4174 24.809 17.4174 24.809C17.3384 25.5203 18.5245 25.2042 18.4455 25.2042H22.8711C23.5825 25.3622 23.5828 25.0467 23.5828 25.0467C23.5828 24.8096 23.0302 24.3351 23.0302 24.3351C22.9906 24.3153 22.9252 24.3048 22.8511 24.3011ZM17.004 25.1872C16.9837 25.1887 16.9635 25.1943 16.9438 25.2041C16.9438 25.2041 16.2321 25.2049 16.2321 26.1535C16.2321 26.1535 16.3112 26.8636 17.0225 26.8636C17.0225 26.8636 17.6554 26.7058 17.6554 25.9945C17.6554 25.9945 17.3079 25.1611 17.004 25.1872ZM34.0147 10.8205C34.0147 10.8205 33.5405 10.8208 33.6196 11.1369L33.4621 23.1497C33.4621 23.1497 33.4618 23.7036 34.3312 23.7826C34.3312 23.7826 35.4386 23.8616 35.6756 23.7826H38.2041C38.2041 23.7826 38.678 24.2559 38.678 23.6236C38.678 23.6236 38.9951 13.9021 38.837 11.8472C38.837 11.8472 38.8367 10.9781 38.1254 10.9781C38.1254 10.9781 35.2799 11.2152 35.0428 10.9781L34.0147 10.8205ZM44.9546 10.9177C44.8612 10.9217 44.7246 10.9579 44.527 11.0567C44.527 11.0567 44.6057 11.3737 41.0492 11.2157C40.9701 11.2157 39.5472 11.136 39.5472 11.7683C39.5472 11.7683 39.4685 17.4589 39.4685 17.617L39.3897 22.3592L39.2323 24.0186C39.2323 24.0186 39.4694 24.3344 39.6275 24.0973C39.6275 24.0973 40.813 23.7818 41.6033 23.9399C41.6033 23.9399 43.9738 24.1776 44.527 23.7824C44.527 23.7824 44.9219 23.9405 45.0009 23.3872C45.0009 23.3872 45.1587 12.8758 45.0796 12.7177C45.0796 12.7177 45.2389 11.2148 45.1599 11.0567C45.1599 11.0567 45.16 10.9084 44.9546 10.9177ZM31.8769 11.1338C31.7218 11.1386 31.496 11.2357 31.17 11.5321V13.0325C31.17 13.0325 31.17 13.9019 30.3796 13.8229C30.3796 13.8229 29.5108 13.8229 29.0366 14.2181C29.0366 14.2181 28.7986 15.0087 29.668 14.9297C29.668 14.9297 31.0121 14.9305 31.0912 15.4839L31.0125 21.1737C31.0125 21.1737 31.3286 22.1215 30.2221 22.1215C30.2221 22.1215 28.9579 22.0428 28.9579 22.8331C28.9579 22.8331 29.1943 23.4651 30.3008 23.307C30.3008 23.307 31.0912 23.4664 31.0912 24.1777V25.5994C31.0912 25.5994 31.0128 26.1532 31.7241 26.2323H37.5713C37.5713 26.2323 37.8877 26.232 37.8877 25.9158C37.8877 25.9158 37.888 25.5994 37.4138 25.5994L32.6716 25.5207C32.6716 25.5207 31.8816 25.7584 31.8026 24.5729C31.8026 24.5729 31.8816 13.9809 31.8026 13.8228V13.9818C31.8026 13.9818 31.7235 12.1634 32.1977 11.373C32.1977 11.373 32.1355 11.1261 31.8769 11.1338ZM46.9213 11.1632C46.5822 11.1925 46.5817 11.6108 46.5817 11.6108C46.6608 11.7689 46.8195 12.3224 46.8195 12.3224C46.8985 13.587 46.8195 15.0093 46.8195 16.3529C46.7404 20.858 46.5817 24.9679 46.5817 24.9679C46.5817 25.8372 46.1078 25.5992 46.1078 25.5992H40.8918C40.3385 25.5992 40.3376 25.9157 40.3376 25.9157C40.4167 26.3899 40.9705 26.2324 40.9705 26.1534C41.4447 26.2324 46.6604 26.1534 46.6604 26.1534C47.4507 26.2324 47.372 25.204 47.372 25.204C47.451 23.3862 47.6097 23.2282 47.6097 23.2282C47.7678 23.1491 48.6363 23.1494 48.6363 23.1494C49.9798 23.2285 49.3479 22.2804 49.3479 22.2804C49.1898 22.0433 48.2411 22.0427 48.2411 22.0427C47.3717 22.1217 47.4507 21.1736 47.4507 21.1736L47.531 15.7201C47.3729 15.2459 47.7672 15.0085 47.7672 15.0085H48.6363C49.8218 15.0875 49.5069 14.2984 49.5069 14.2984C49.5069 13.9032 48.4788 13.7442 48.4788 13.7442C47.5304 13.9023 47.6097 13.3491 47.6097 13.3491V12.0849C47.7678 11.2155 47.2146 11.2158 47.2146 11.2158C47.096 11.1714 46.9996 11.1564 46.9213 11.1632ZM45.8053 11.3685C45.7044 11.3768 45.5935 11.4478 45.4749 11.6108V23.4659C45.4749 23.4659 45.7911 24.4927 46.2653 24.4137C46.2653 24.4137 46.3456 24.1775 46.3456 23.7824L46.503 12.4798C46.503 12.4798 46.2422 11.3326 45.8053 11.3685ZM33.0671 11.4518C32.3557 11.4518 32.2767 12.7963 32.2767 12.7963L32.198 24.0187C32.277 24.572 32.4341 24.4926 32.4341 24.4926C33.1455 24.0184 33.067 23.2284 33.067 23.2284C33.067 23.2284 33.1458 12.5593 33.1458 12.4012C33.1458 12.2431 33.0671 11.4518 33.0671 11.4518ZM33.5194 24.0805C33.3814 24.0765 33.127 24.1382 32.9096 24.5729C32.9096 24.5729 32.7516 25.1262 33.3048 24.9681H37.1765L38.2045 25.2043C38.2045 25.2043 39.311 24.9675 38.2045 24.3352H34.4906C34.4906 24.3352 33.778 24.1765 33.6199 24.0975C33.6199 24.0975 33.5821 24.0825 33.5194 24.0805ZM45.1816 24.221C44.9809 24.2249 44.7648 24.2565 44.7648 24.2565C44.1325 24.6516 40.4178 24.3352 40.4178 24.3352C40.1807 24.3352 39.8637 24.7304 39.8637 24.7304C39.7056 25.4417 40.8917 25.1255 40.8917 25.1255H45.3174C46.0287 25.2836 46.029 24.9681 46.029 24.9681C46.029 24.731 45.4748 24.2564 45.4748 24.2564C45.4156 24.2268 45.302 24.2187 45.1816 24.221ZM39.3715 25.1086C39.3506 25.1101 39.331 25.1157 39.3113 25.1255C39.3113 25.1255 38.5993 25.1248 38.6784 26.0733C38.6784 26.0733 38.7574 26.785 39.4688 26.785C39.4688 26.785 40.1017 26.7063 40.1017 25.9159C40.1017 25.9159 39.6841 25.0825 39.3715 25.1086ZM27.6142 40.4584C27.6142 40.4584 27.6142 41.3278 27.5351 42.1972C27.4561 42.6714 27.6932 44.8843 27.5351 45.9908C27.5351 45.9908 27.5351 46.386 26.7448 46.0699C26.7448 46.0699 21.9235 46.1489 21.8445 45.9908C21.8445 45.9908 20.5009 46.0699 20.4219 45.3586C20.4219 45.3586 20.58 40.2212 20.5009 40.0631C20.5009 40.0631 20.4219 37.2969 20.5009 36.9808C20.5009 36.9808 20.58 34.3727 20.5009 34.0565C20.5009 34.0565 20.5009 33.4242 20.4219 33.1871C20.4219 33.1871 20.4219 32.792 21.0542 33.0291C21.0542 33.0291 21.2913 33.4243 22.4768 33.2662C22.4768 33.2662 23.3462 33.4242 24.2156 33.2662C24.2156 33.2662 26.1124 33.1081 26.5866 33.2662C26.5866 33.2662 27.3769 33.1081 27.535 33.9775V36.2695L27.7721 37.0598L28.0092 36.9018L28.0882 36.3485V33.8985C28.0882 33.8985 28.2463 33.4243 28.8786 33.3452C28.8786 33.3452 29.827 33.2662 29.985 33.3452C30.1431 33.4242 32.198 33.5033 32.7512 33.4242C33.3045 33.3452 33.3835 33.8194 35.1223 32.95C35.1223 32.95 35.5965 32.95 35.5965 33.2662C35.5965 33.2662 35.4384 36.4275 35.5965 37.0598C35.5965 37.0598 35.5965 42.9085 35.4384 43.3037L35.5175 45.2005C35.5175 45.2005 35.5965 45.9909 34.2529 46.0699C34.2529 46.0699 35.0433 46.1489 29.9059 45.9909C29.9059 45.9909 29.1156 45.9118 28.1672 46.3861C28.1672 46.3861 28.0091 46.307 28.0091 45.8328C28.0091 45.8328 28.1672 44.094 28.0091 42.3553L27.9301 40.4584L27.6142 40.4584ZM35.9126 45.5958C35.9126 45.5958 36.3868 46.4651 36.5449 46.5442C36.5449 46.5442 36.9401 47.0184 36.861 46.149L36.9401 35.3214C36.9401 35.3214 36.861 34.9262 36.9401 34.373L36.4658 33.5826C36.4658 33.5826 35.9916 33.1874 35.9916 33.8197V45.2796L35.9126 45.5958ZM20.1847 46.07C20.1847 46.07 20.738 46.6232 21.6074 46.6232L26.6657 46.7023C26.6657 46.7023 27.2189 46.7813 27.2189 47.0184C27.2189 47.0184 27.1399 47.4926 26.4286 47.3346L20.2637 47.2555L19.5524 47.3346C19.5524 47.3346 19.0782 47.2555 19.7895 46.3862L20.1847 46.07ZM19.0783 33.6617C19.0783 33.6617 18.6041 34.452 18.6831 34.6891V47.1765C18.6831 47.1765 18.6041 48.0459 19.3154 47.8088C19.3154 47.8088 25.8754 47.6507 26.3496 47.8088C26.3496 47.8088 26.9819 47.8878 26.7448 48.2039C26.7448 48.2039 26.7448 48.441 26.3496 48.362C26.3496 48.362 23.2673 48.6781 20.4219 48.5201C20.4219 48.5201 18.5251 48.5991 18.446 48.441C18.446 48.441 18.1299 48.362 18.1299 47.3346C18.1299 47.3346 18.1299 46.3071 18.0508 46.1491C18.0508 46.1491 18.1299 45.5958 17.1815 45.5168C17.1815 45.5168 15.8379 45.7539 15.8379 44.9635C15.8379 44.9635 15.996 44.4103 17.3396 44.4893C17.3396 44.4893 18.288 44.6474 18.0509 43.857L18.1299 38.3245C18.1299 38.3245 18.288 37.3761 17.5767 37.297H16.7863C16.7863 37.297 15.6798 37.297 15.7589 36.6647C15.7589 36.6647 16.154 36.0324 17.2605 36.1115C17.2605 36.1115 18.0509 36.2696 18.1299 35.3211C18.1299 35.3211 18.1299 33.4243 18.5251 33.3452C18.446 33.3452 19.3944 33.4246 19.0783 33.6617ZM19.7106 33.5824C19.7106 33.5824 19.9477 33.5823 19.9477 34.0566L19.8687 45.3584C19.8687 45.3584 19.9477 46.0697 19.3154 46.6229C19.3154 46.6229 18.9993 47.0181 18.9993 46.3858L19.1573 34.8469C19.1573 34.8469 19.1574 33.9775 19.7106 33.5824ZM28.5623 46.8601C28.5623 46.8601 29.1946 46.3859 29.5107 46.4649C29.5107 46.4649 32.9092 46.702 33.9367 46.5439C34.9642 46.3859 34.3319 46.4649 34.3319 46.4649C34.3319 46.4649 35.2013 46.4649 35.5174 46.1488C35.5174 46.1488 35.7545 46.0697 35.9126 46.3068L36.4659 46.9391C36.4659 46.9391 36.4659 47.3343 35.8336 47.2553C35.8336 47.2553 29.7478 47.2553 29.5107 47.3343C29.5897 47.3343 28.4833 47.4924 28.5623 46.8601ZM28.9574 47.8875C28.9574 47.8875 29.4317 47.6504 29.7478 47.7295C30.0639 47.8085 34.4109 47.6504 34.4109 47.6504C34.4109 47.6504 36.3078 47.8085 36.6239 47.4923L37.0981 47.3343C37.0981 47.3343 37.2562 47.0972 37.2562 46.781V45.4374L37.3352 45.0423V34.6889C37.3352 34.6889 37.4933 33.8985 37.0191 33.4243C37.0191 33.4243 37.0191 33.1082 37.1772 33.1872C37.3352 33.2663 37.2562 33.1872 37.2562 33.1872C37.2562 33.1872 37.8885 33.0292 38.0466 33.2663C38.0466 33.2663 38.3627 34.1357 38.0466 34.6889C38.0466 34.6889 37.9675 35.7954 38.5208 35.7954C38.5208 35.7954 38.7579 36.0325 39.1531 35.8744C39.1531 35.8744 40.1015 35.9534 40.1015 36.2696C40.1015 36.2696 40.1015 36.9809 39.4692 36.8228L38.5998 36.9019C38.5998 36.9019 37.9675 37.0599 38.0465 37.6922C38.1256 38.4036 38.0465 43.5409 38.0465 43.5409C38.0465 43.5409 38.0465 44.1732 38.9949 44.0942C38.9949 44.0942 40.1804 44.0151 40.1804 44.4103C40.1804 44.4103 40.4966 45.1216 39.6272 45.2007C39.6272 45.2007 38.0465 45.1216 38.2046 45.5959C38.2046 45.5959 38.1255 46.6233 38.0465 46.8604C38.0465 46.8604 38.2046 47.7298 38.0465 47.8878C38.0465 47.8878 37.9675 48.362 36.94 48.283C36.94 48.283 30.5381 48.283 29.5106 48.362C29.4316 48.5201 28.7994 48.4408 28.9574 47.8875ZM27.8509 47.1765C27.8509 47.1765 28.4832 47.2555 28.4832 47.8878C28.4832 48.5201 28.4832 48.8362 28.167 48.9153C27.7719 48.9943 27.3767 48.8362 27.2977 48.362C27.1396 47.8878 27.2976 47.3346 27.8509 47.1765Z" fill="white"/>
<path d="M16.0745 15.1656L15.7584 15.877C15.7584 15.877 14.968 19.5125 14.4939 20.224C14.4939 20.224 14.4148 21.0143 13.7825 20.382C13.7825 20.382 12.2809 15.7979 12.2018 15.6398L11.7276 15.3237C11.7276 15.3237 11.4115 14.9285 11.9647 14.8495H13.3873C13.3873 14.8495 13.8616 15.2447 13.2293 15.6398C13.2293 15.6398 13.3083 16.2721 14.0986 18.5641C14.0986 18.5641 14.3357 19.4335 14.5728 18.8012L15.3632 16.1141L15.1261 15.3237C15.1261 15.3237 14.889 14.9285 15.2051 14.9285C15.2051 14.9285 15.9955 14.8495 16.0745 15.1656ZM18.2085 15.7979V19.7497L18.1294 20.0659C18.1294 20.0659 17.7342 20.5401 18.0504 20.6191C18.0504 20.6191 17.7342 20.8562 20.4214 20.8562C20.4214 20.8562 21.4488 21.0143 21.2118 19.6707C21.2118 19.6707 21.1327 19.1965 20.7375 19.9078C20.7375 19.9078 20.6585 20.5401 19.2359 20.303C19.2359 20.303 18.9197 20.0659 18.9197 19.7497V18.09C18.9197 18.09 18.9197 17.6948 19.552 17.6948C19.552 17.6948 20.2634 18.1691 20.3424 17.9319C20.3424 17.9319 20.5795 17.2997 20.3424 16.9835C20.3424 16.9835 20.0263 16.9835 19.9472 17.0626C19.9472 17.0626 19.7101 17.5368 19.0779 17.2207C19.0779 17.2207 18.7617 16.5884 18.9988 16.1142C18.9988 16.1142 18.9198 15.1658 19.5521 15.2448C19.5521 15.2448 20.3424 15.4028 20.3424 15.64C20.3424 15.64 20.5005 16.1142 20.7376 15.5609L20.5796 15.0077C20.5796 15.0077 20.5005 14.7706 20.2634 14.8496C20.2634 14.8496 18.9989 15.0077 18.8408 14.8496L17.8134 14.9286C17.8134 14.9286 17.6553 15.3238 18.1295 15.4819C18.1295 15.5609 18.2085 15.6398 18.2085 15.7979ZM40.8916 15.1657C40.8126 14.8496 41.5239 14.8496 41.5239 14.8496L41.9191 14.9286C42.1562 14.9286 42.4723 15.0077 42.4723 15.0077C42.7094 15.4029 42.3142 15.64 42.3142 15.64L42.1562 16.1142V20.066C42.2352 20.2241 42.5514 20.6193 42.5514 20.6193C42.5514 20.9354 42.1562 20.8564 42.1562 20.8564H41.0497C40.7336 20.8564 40.8126 20.4612 40.8126 20.4612C41.2078 20.3031 41.2868 19.5918 41.2868 19.5918V15.8771L40.8916 15.1657ZM35.8333 18.6433L35.7542 19.8288L36.0704 20.382C36.3075 20.6982 35.9123 20.9353 35.9123 20.9353L34.7268 20.7772C34.4897 20.6982 34.7268 20.303 34.7268 20.303C35.0429 20.1449 35.0429 19.6707 35.0429 19.6707V15.877C35.0429 15.719 34.7268 15.3238 34.7268 15.3238C34.4897 15.3238 34.5687 14.9286 34.5687 14.9286C34.6478 14.7705 35.2801 14.8496 35.2801 14.8496H36.8607C38.3624 15.3238 38.1253 16.4303 38.1253 16.4303C38.2043 17.5367 37.0978 17.9319 37.0978 17.9319L37.0188 18.5642L38.1253 20.303C38.2834 20.461 38.2834 20.6191 38.2834 20.6191C38.1253 21.0143 37.493 20.6191 37.493 20.6191L36.1494 18.4851C35.9913 18.3271 35.8333 18.6433 35.8333 18.6433ZM35.8333 15.6399V17.6158C36.5446 18.169 36.9397 17.3787 36.9397 17.3787C37.8881 16.5093 36.9397 15.6399 36.7817 15.4028C36.6236 15.1657 35.9123 15.4028 35.9123 15.4028L35.8333 15.6399ZM24.2943 37.7697C24.2943 37.7697 24.3734 40.5359 24.2943 40.9311V41.5634C24.2943 41.5634 24.4524 41.9586 24.6895 42.1166C24.6895 42.1166 24.8476 42.6699 24.4524 42.5909C24.4524 42.5909 23.504 42.5118 23.2669 42.5909C23.2669 42.5909 22.7137 42.5909 23.2669 41.9586C23.2669 41.9586 23.425 41.7215 23.425 41.0102C23.425 41.0102 23.425 37.8488 23.504 37.6907C23.504 37.6907 23.5831 37.2955 23.346 37.1375H22.8717L22.3185 37.6907C22.3185 37.6907 22.1604 38.244 21.9233 37.6907V37.3746L22.2394 36.5052H22.4765C22.4765 36.5052 22.7927 36.7423 23.1088 36.8213H24.8476L25.4799 36.5052C25.4799 36.5052 25.717 36.5052 25.638 36.9004C25.638 36.9004 25.717 37.7697 25.2428 37.8488C25.2428 37.8488 24.9266 37.7697 24.7685 37.2955C24.7685 37.2165 24.2943 36.9003 24.2943 37.7697ZM32.5137 36.7423C32.5137 36.7423 31.0911 36.5842 31.0911 38.1649C31.0911 38.1649 30.933 39.1923 32.5137 39.9037C32.5137 39.9037 33.6992 40.4569 33.6202 41.1682C33.6202 41.1682 33.4621 42.4327 32.1976 41.8005C32.1976 41.8005 31.5653 41.4844 31.6443 41.1682C31.6443 41.1682 31.4863 40.773 31.2491 40.8521C31.2491 40.8521 31.012 40.9311 31.0911 42.1956C31.0911 42.1956 31.0911 42.6699 31.6443 42.1956L31.9605 42.2747C31.9605 42.2747 32.9879 43.065 33.8573 42.1166C33.8573 42.1166 34.8057 41.2472 34.0944 40.2198C34.0944 40.2198 33.6202 39.4294 32.7508 39.1133C32.7508 39.1133 31.9605 38.7181 31.7234 38.0859C31.7234 38.0859 31.9605 36.9794 32.9879 37.5326C32.9879 37.5326 33.3831 38.0068 33.6202 38.0859C33.6202 38.0859 33.9364 38.0859 33.8573 37.3745L33.7783 36.8213C33.7783 36.8213 33.6993 36.4261 33.146 36.8213C33.146 36.7423 32.6718 36.9794 32.5137 36.7423ZM28.0086 35.9519C28.2457 36.11 28.3248 36.5052 28.3248 36.5052C29.1151 38.481 29.7474 41.4054 29.7474 41.4054C29.9055 41.8006 30.3006 42.0377 30.3006 42.0377C30.9329 42.2748 30.3006 42.4329 30.3006 42.4329C30.0635 42.5119 29.1942 42.4329 29.1942 42.4329C28.72 42.3538 28.9571 42.1958 28.9571 42.1958C29.1151 42.0377 28.9571 41.2474 28.9571 41.2474C28.9571 40.9312 28.5619 40.457 28.5619 40.457C28.4038 40.378 28.1667 40.6941 28.1667 40.6941C28.1667 40.6941 27.7715 40.8522 27.6925 40.6941C27.6135 40.536 27.3764 40.378 27.3764 40.378C26.9021 40.378 26.7441 41.4844 26.7441 41.4844C26.9812 42.4328 26.7441 42.2748 26.7441 42.2748C26.507 42.591 25.7957 42.3538 25.7957 42.3538C25.4795 42.2748 25.7166 42.0377 25.7166 42.0377C26.1118 41.9587 26.2699 41.4845 26.2699 41.4845C26.428 41.2473 27.6925 36.3471 27.6925 36.3471C27.6135 36.2681 27.6925 35.7938 28.0086 35.9519ZM27.3763 38.481C27.3763 38.6391 27.0602 39.7455 27.0602 39.7455L27.2973 40.1407H28.0877C28.2457 40.1407 28.3248 39.9826 28.3248 39.7455C28.3248 39.5875 27.9296 38.402 27.9296 38.402L27.7715 38.1649L27.3763 38.481Z" fill="black"/>
</svg>
