<svg width="121" height="120" viewBox="0 0 121 120" fill="none" xmlns="http://www.w3.org/2000/svg">
<path d="M33.5002 57.5889C29.5615 57.5889 29.2486 54.5889 29.2486 53.7055C29.2486 52.6564 29.4879 50.7055 32.0462 49.7669C34.6044 48.8282 35.1566 48.7178 36.9787 48.1472V47.7055C36.9787 46.8221 36.9787 46.6564 36.7762 46.0859C36.4633 45.0736 35.4695 44.3926 34.0891 44.3926C32.7824 44.3926 31.6597 45.1288 31.1443 46.2147L30.4081 45.773C30.8498 44.1534 32.5247 42.5337 35.3959 42.5337C37.3836 42.5337 38.764 43.1043 39.5738 44.3558C40.1811 45.3681 40.2548 46.7301 40.2548 48.1104C40.2548 49.362 40.1811 50.7423 40.1811 51.865C40.1811 52.6012 40.1075 53.319 40.1075 53.7239C40.1075 54.7362 40.31 55.546 41.1198 55.546C41.4879 55.546 41.5615 55.4172 41.856 55.2331L42.2977 55.8037C41.5615 56.8159 40.6781 57.6258 39.2241 57.6258C38.1014 57.6258 37.2916 57.0552 36.9603 56.135C36.5002 56.7791 35.3038 57.5889 33.5002 57.5889ZM36.9787 49.9509C35.0462 50.5215 34.3468 50.8343 33.7946 51.1288C32.9112 51.5705 32.5431 52.3804 32.5431 53.4294C32.5431 54.2393 32.856 55.546 34.7333 55.546C35.3406 55.546 36.2241 55.4172 37.0339 54.865V49.9325H36.9787V49.9509ZM4.4572 56.8159C4.4572 55.362 4.4572 54.1288 4.32837 52.638H5.21181C5.21181 53.5767 5.45107 54.2577 5.89279 54.6994C6.50015 55.3804 7.95414 55.8221 9.26088 55.8221C12.0032 55.8221 13.31 54.773 13.31 52.5092C13.31 50.5767 12.1321 49.7669 10.5124 48.6258L10.2732 48.4233L8.52469 47.2454C6.09524 45.6258 4.84371 44.3742 4.84371 41.8159C4.84371 40.5644 5.34064 36.4417 11.3959 36.4417C12.9603 36.4417 14.948 36.6442 16.1443 36.8098C16.1443 37.0123 16.0707 37.9325 16.0707 38.7423C16.0707 39.681 16.0707 39.9202 16.1443 41.0429H15.4081C15.4081 40.0307 15.0952 39.4233 14.6719 38.9816C14.1014 38.411 12.813 38.0982 11.4327 38.0982C8.1934 38.0982 7.8253 39.7178 7.8253 40.9693C7.8253 42.6626 8.70874 43.2699 10.6228 44.5215L12.813 45.9755C14.6719 47.227 16.4204 48.4049 16.4204 51.5337C16.4204 56.7791 11.4879 57.3313 9.42653 57.3313C7.53082 57.5889 5.948 57.3129 4.4572 56.8159ZM43.6597 43.4724C44.3959 43.546 45.5186 43.4724 46.6044 43.2699C47.5431 43.0675 47.856 42.957 48.537 42.6626L48.8498 42.865V43.9877C49.586 43.4172 51.04 42.6074 53.1014 42.6074C55.7333 42.6074 57.4265 43.8589 57.9051 46.0491C58.0339 46.6196 58.1075 47.908 58.1075 48.681V52.9325C58.1075 55.3067 58.2364 56.0061 58.6781 56.4294C58.9173 56.6319 59.4143 56.8712 60.1321 56.8712V57.5521C59.1934 57.4785 57.5002 57.4233 56.5247 57.4233C55.2179 57.4233 53.7271 57.4969 52.9173 57.5521V56.8712C53.6535 56.7975 54.0952 56.5583 54.3713 56.3742C54.813 55.9325 54.8683 55.1227 54.9419 53.3006C54.9419 52.7301 55.0155 51.6074 55.0155 50.7975C55.0155 49.7485 55.0155 48.6074 54.8867 47.4847C54.6842 45.6258 53.7087 44.7423 51.813 44.7423C50.5063 44.7423 49.6965 45.0552 49.0707 45.3497V52.9693C49.0707 55.3435 49.1995 56.0429 49.6413 56.4662C49.8805 56.6687 50.4511 56.908 51.0216 56.908V57.5889C49.8437 57.5153 48.3897 57.4601 47.4695 57.4601C45.537 57.4601 44.9112 57.5337 43.7885 57.5889V56.8712C44.3959 56.8712 45.04 56.6319 45.3529 56.2638C45.7946 55.7669 45.8498 54.5153 45.8498 52.0859V47.7607C45.8498 45.9386 45.7762 45.2024 45.537 44.8159C45.3345 44.5031 44.856 44.2454 43.8437 44.2454V43.4356H43.7149V43.4724H43.6597ZM61.7149 56.7791C62.3222 56.7791 62.9664 56.5767 63.2793 56.1718C63.721 55.6748 63.7762 54.4233 63.7762 51.9939V44.7239H61.9173V43.9141C62.7272 43.6012 63.4081 43.2331 63.7762 42.9018C63.7762 41.5951 63.8498 39.957 64.0155 39.0184C64.586 36.0184 66.5186 34.5276 69.813 34.5276C71.267 34.5276 72.6106 35.0245 73.494 35.7055L73.5676 36.0184L72.1137 38.0061H71.7456C71.2486 36.8282 70.494 36.1472 69.1873 36.1472C68.7456 36.1472 68.1382 36.2761 67.7333 36.6442C67.1259 37.2515 66.9971 38.2086 66.9971 40.0859V42.8834H70.2364V44.7055H66.9971V52.7669C66.9971 54.6994 67.0707 55.638 67.31 56.0061C67.6781 56.6135 69.0032 56.6871 69.6106 56.6871V57.4233C68.5615 57.3497 66.8683 57.2945 65.6719 57.2945C63.8498 57.2945 62.6719 57.3681 61.7333 57.4233L61.7149 56.7791ZM78.4449 57.6994C74.0278 57.6994 71.3959 54.957 71.3959 50.3374C71.3959 46.7301 73.3284 42.5337 78.7578 42.5337C83.175 42.5337 85.8069 45.2761 85.8069 49.8957C85.8069 53.5031 83.856 57.6994 78.4449 57.6994ZM78.629 44.2086C77.7456 44.2086 77.0646 44.4478 76.5676 44.8896C75.3897 45.9018 74.8192 47.6319 74.8192 50.1902C74.8192 51.2024 75.0216 56.0613 78.5738 56.0613C79.4572 56.0613 80.1382 55.8221 80.6351 55.3804C81.813 54.3681 82.3836 52.638 82.3836 50.0797C82.3652 49.0859 82.1995 44.2086 78.629 44.2086ZM87.2977 43.3988C88.31 43.4724 89.3591 43.3251 90.4818 43.1595C91.3652 43.0307 91.9357 42.8466 92.2302 42.6626L92.4695 42.7914V44.0429C93.1505 43.362 94.2916 42.6626 95.8376 42.6626C96.9603 42.6626 97.6965 42.9755 98.3959 43.546V43.9877L97.1443 46.2515H96.537C96.1689 45.5705 95.4143 44.9448 94.1075 44.9448C93.5002 44.9448 92.9848 45.0736 92.5431 45.3865V52.8221C92.5431 54.7546 92.6167 55.6196 92.856 56.0061C93.2241 56.6135 94.4756 56.6871 95.1566 56.6135V57.4233C94.1443 57.3497 92.4143 57.2945 91.2179 57.2945C89.8376 57.2945 88.4204 57.2945 87.2793 57.4233V56.6871C88.0891 56.6135 88.5308 56.4478 88.8437 56.0797C89.2854 55.5828 89.3407 54.3865 89.3407 51.9018V47.8528C89.3407 46.0307 89.3407 45.2945 89.0278 44.908C88.7885 44.5951 88.2916 44.411 87.3345 44.411V43.4724L87.2977 43.3988ZM107.727 35.411C108.611 35.411 109.715 35.2086 111.169 34.9693C111.979 34.8405 112.476 34.6564 112.733 34.6012L112.973 34.7301C112.844 35.908 112.844 38.6135 112.844 40.5276V52.3804C112.844 54.1288 112.844 55.2515 113.083 55.6196C113.322 55.9325 113.819 56.1902 114.776 56.1902V56.9264C113.838 56.9264 112.789 57.0552 111.666 57.2393C110.93 57.3681 110.359 57.4785 110.046 57.6074L109.678 57.4785V56.227C108.942 56.7975 107.562 57.6074 105.629 57.6074C101.635 57.6074 99.0768 54.865 99.0768 50.5583C99.0768 49.1043 99.3161 47.8159 99.813 46.6196C101.065 43.9877 103.568 42.4969 106.733 42.4969C107.911 42.4969 108.923 42.6258 109.531 42.7362V39.6626C109.531 37.8405 109.531 36.9202 109.218 36.4785C109.016 36.1656 108.721 36.0368 107.654 35.9816V35.3926H107.727V35.411ZM107.212 55.5644C108.224 55.5644 108.905 55.4356 109.586 54.9939V45.2761C109.347 45.0368 108.463 44.2638 106.715 44.2638C103.917 44.2638 102.537 46.1963 102.537 50.2086C102.482 51.8834 102.979 55.5644 107.212 55.5644ZM27.813 56.0061C27.3713 56.5767 26.2486 57.6994 23.8744 57.6994C21.6106 57.6994 20.3775 56.8896 19.8253 55.0675C19.586 54.3865 19.586 52.9509 19.586 52.1227C19.586 49.8221 19.586 47.9448 19.6597 45.7546V44.7423H17.7087V44.1718C18.4449 43.8589 19.0155 43.5644 19.5308 43.1595C20.6535 42.2761 21.3897 41.227 22.2179 39.6626H22.8253V42.9018H27.7578V44.7239H22.8253V52.3435C22.8253 54.6442 23.267 55.8957 25.3836 55.8957C26.3959 55.8957 27.0768 55.5828 27.4449 55.3251L27.813 56.0061Z" fill="white"/>
<path d="M96.9969 73.569C96.7577 73.569 96.4264 73.6427 96.2607 73.8083C96.0583 73.9371 96.0583 74.1212 96.0583 74.25C96.0583 74.4893 96.1319 74.6917 96.2976 75.1887L97.6779 78.796C97.8804 79.3666 98.046 79.8083 98.1197 80.1028L99.8129 75.1703C100.015 74.5997 100.052 74.4893 100.052 74.2316C100.052 74.1028 99.9785 73.9923 99.8497 73.8635C99.6473 73.7347 99.408 73.6242 99.1135 73.6242V73.0537C99.316 73.0537 99.7209 73.0537 99.9233 73.1273C100.126 73.1273 100.494 73.2009 100.807 73.2009C101.414 73.2009 102.298 73.1273 102.666 73.1273V73.6979C102.426 73.7715 101.856 73.6242 101.359 75.0782L97.8068 84.5568C97.3098 85.9371 96.6289 87.6304 94.1994 87.6304C93.1871 87.6304 92.5061 87.3911 91.9356 86.8942V86.6549L92.819 85.6058H93.0583C93.2976 86.1764 93.7945 86.4157 94.5123 86.4157C95.635 86.4157 96.1319 85.4034 96.8865 83.4157L97.089 82.8451L94.1074 75.0598C94.1074 74.9862 94.0338 74.8574 93.9785 74.7469C93.9049 74.5445 93.7393 74.1764 93.7393 74.1764C93.5368 73.8083 93.2423 73.6795 92.8558 73.6795V73.1089C93.4264 73.1825 94.4203 73.1825 94.9172 73.1825C95.2301 73.1825 95.727 73.1825 96.2239 73.1089C96.4632 73.1089 96.9049 73.0353 97.1074 73.0353V73.5322H97.0338V73.569H96.9969ZM63.9417 73.4402C64.5491 73.5138 65.2485 73.3666 65.9295 73.2377C66.5 73.1089 66.8129 73.0353 67.0522 72.9249L67.2546 72.9985V73.8083C67.6963 73.3666 68.3773 72.9249 69.3712 72.9249C70.1074 72.9249 70.5491 73.1273 70.9908 73.4954V73.8083L70.2546 75.2623H69.8865C69.6473 74.8206 69.2055 74.4525 68.3221 74.4525C67.954 74.4525 67.6411 74.5813 67.3098 74.7653V79.4586C67.3098 80.7101 67.3834 81.2807 67.5123 81.5199C67.7515 81.888 68.5246 81.9617 68.9663 81.9617V82.4586C68.3589 82.385 67.2178 82.385 66.4632 82.385C65.5798 82.385 64.6411 82.385 63.9601 82.5138V82.0169C64.4571 82.0169 64.77 81.8144 64.9724 81.6488C65.2853 81.3359 65.2853 80.5997 65.2853 78.9617V76.3298C65.2853 75.2071 65.2853 74.7101 65.0828 74.4709C64.954 74.2684 64.5859 74.158 64.0338 74.158V73.477H63.9417V73.4402ZM22.3834 82.4954C19.7515 82.4954 18.2055 81.6856 17.635 79.9371C17.3221 79.0537 17.3221 77.9494 17.3221 77.066V72.0782C17.3221 70.5874 17.2485 70.3298 16.954 70.0905C16.8252 69.9617 16.5123 69.8512 16.0706 69.7776V69.2807C16.6779 69.3543 17.7638 69.4095 18.3712 69.4095C19.4203 69.4095 20.0644 69.4095 20.7454 69.2807V69.8512C20.3037 69.8512 20.0092 69.9801 19.7331 70.2193C19.4203 70.5322 19.4203 71.1028 19.4203 72.7224V77.1396C19.4203 79.7715 19.6595 81.4647 22.6043 81.4647C25.6043 81.4647 25.7883 79.7163 25.7883 77.0476V72.1887C25.7883 70.6979 25.7147 70.4402 25.4203 70.2009C25.2178 70.0721 24.9233 69.9617 24.5368 69.888V69.3911C25.1074 69.3911 25.8436 69.4647 26.5982 69.4647C27.2791 69.4647 27.9785 69.4647 28.7884 69.3359V69.9065C28.3466 69.9065 28.0522 70.0353 27.7761 70.2746C27.4632 70.5874 27.4632 71.158 27.4632 72.7776V76.5322C27.4632 77.7101 27.4632 79.0353 27.0951 80.0844C26.5061 81.6856 24.9969 82.4954 22.3834 82.4954ZM40.181 81.9249C40.6779 81.8512 40.9908 81.796 41.2301 81.5568C41.543 81.2439 41.543 80.5077 41.543 78.8696V76.2377C41.543 75.115 41.543 74.5445 41.3405 74.3052C41.2117 74.1028 40.9724 73.9923 40.2914 73.9371V73.3666C40.6595 73.4402 41.6718 73.293 42.408 73.1641C42.7761 73.0905 43.1442 72.9617 43.4203 72.8512L43.6227 73.0537C43.5491 73.6611 43.5491 74.9862 43.5491 76.7347V79.4218C43.5491 80.6733 43.6227 81.2439 43.7515 81.4831C43.954 81.7224 44.3221 81.9249 44.8742 81.9249V82.3666C44.3773 82.293 43.4203 82.293 42.6104 82.293C41.6718 82.293 40.6779 82.3666 40.181 82.4218V81.9249ZM42.4816 71.25C41.7454 71.25 41.3037 70.8083 41.3037 70.1273C41.3037 69.4463 41.8006 68.9494 42.5552 68.9494C43.2914 68.9494 43.7331 69.3911 43.7331 70.0721C43.7147 70.8083 43.2178 71.25 42.4816 71.25ZM79.6411 81.9249C80.1381 81.8512 80.4509 81.796 80.6902 81.5568C81.0031 81.2439 81.0031 80.5077 81.0031 78.8696V76.2377C81.0031 75.115 81.0031 74.5445 80.8006 74.3052C80.6718 74.1028 80.4325 73.9923 79.7515 73.9371V73.3666C80.1197 73.4402 81.1319 73.293 81.8681 73.1641C82.2362 73.0905 82.6779 72.9617 82.8804 72.8512L83.0828 73.0537C83.0092 73.6611 83.0092 74.9862 83.0092 76.7347V79.4218C83.0092 80.6733 83.0828 81.2439 83.2117 81.4831C83.4141 81.7224 83.7822 81.9249 84.3344 81.9249V82.3666C83.7638 82.293 82.8436 82.293 82.0338 82.293C81.0951 82.293 80.1012 82.3666 79.6043 82.4218V81.9249H79.6411ZM81.9417 71.25C81.2055 71.25 80.7638 70.8083 80.7638 70.1273C80.7638 69.4463 81.2607 68.9494 82.0154 68.9494C82.7515 68.9494 83.1933 69.3911 83.1933 70.0721C83.1933 70.8083 82.6779 71.25 81.9417 71.25ZM72.0767 82.0537C72.0767 81.115 72.0031 80.1212 71.9479 79.6242H72.5552C72.5552 80.1212 72.6841 80.5629 72.9233 80.8022C73.2914 81.2439 73.7331 81.4095 74.543 81.4095H74.6718C75.6841 81.4095 76.2362 80.9678 76.2362 80.1028C76.2362 79.4218 75.7945 79.0905 75.0583 78.6488L73.7515 77.839C73.0706 77.3973 72.2607 76.7899 72.2607 75.4647C72.2607 74.4157 72.7025 73.6058 73.5675 73.1641C74.1381 72.8512 75.0215 72.8512 75.4264 72.8512C76.1626 72.8512 77.2485 72.9801 77.8558 73.0905C77.7822 73.3298 77.7822 73.9739 77.7822 74.2132C77.7822 74.4157 77.7822 75.2623 77.8558 75.4647H77.2485C77.2485 75.0966 77.1196 74.7285 76.8804 74.4157C76.6411 74.1028 76.0706 73.9187 75.3896 73.9187C74.4509 73.9187 73.9356 74.2868 73.9356 75.0966C73.9356 75.704 74.4325 76.0353 74.8742 76.3482H74.9479L76.1994 77.0844C77.0092 77.5813 78.0583 78.2071 78.0583 79.6426C78.0583 82.0721 75.7945 82.4402 74.5061 82.4402C73.77 82.4218 72.9601 82.3666 72.0767 82.0537ZM91.6779 81.4463C91.365 81.7592 90.6657 82.4954 89.1749 82.4954C87.7209 82.4954 86.9111 81.9985 86.6166 80.8022C86.4877 80.3604 86.4877 79.4218 86.4877 78.9433C86.4877 77.4525 86.4877 76.2561 86.4877 74.8942V74.2868H85.2362V73.9187C85.7331 73.7163 86.046 73.5506 86.4141 73.3114C87.0951 72.7408 87.592 72.0598 88.1626 71.0476H88.6043V73.1089H91.7147V74.2316H88.6043V79.0905C88.6043 80.5445 88.8436 81.3911 90.2239 81.3911C90.8313 81.3911 91.273 81.1887 91.5307 81.023L91.6779 81.4463ZM49.4571 73.0721C49.2546 73.0721 48.8497 73.0721 48.5736 73.1457C48.0767 73.1457 47.5614 73.2193 47.1933 73.2193C46.5123 73.2193 45.5 73.1457 45.2055 73.1457V73.7163C45.3344 73.7163 45.8129 73.6427 46.1442 74.2868C46.273 74.5261 46.3466 74.7285 46.3834 74.8574C46.4571 74.9862 46.5123 75.0966 46.5123 75.1703L49.5123 82.6611L50.4509 82.4586L53.7638 75.0966C53.7638 75.023 53.8374 74.9678 53.8927 74.8574C53.9663 74.7838 53.9663 74.6549 54.2055 74.2868C54.408 73.9187 54.8129 73.7163 55.1442 73.7163V73.1457C54.7761 73.1457 53.9663 73.2193 53.3221 73.2193C53.0092 73.2193 52.7147 73.2193 52.3834 73.1457C52.1442 73.1457 51.7761 73.0721 51.5 73.0721V73.569C51.8129 73.569 52.1074 73.6979 52.2362 73.8083C52.3098 73.8819 52.4387 74.0476 52.4387 74.1764C52.4387 74.3788 52.365 74.5445 52.1994 75.115L50.3773 79.5322C50.3037 79.293 50.1749 78.9249 50.0092 78.4095L48.7577 75.0966C48.5552 74.5997 48.5184 74.4157 48.5184 74.158C48.5184 74.0292 48.5184 73.9187 48.6473 73.8451C48.8497 73.6426 49.1442 73.5322 49.4571 73.5322V73.0353V73.0721ZM29.0644 73.4402C29.5614 73.5138 30.2423 73.4402 30.9233 73.3114C31.4939 73.1825 31.7331 73.1089 32.1749 72.9433L32.3773 73.0721V73.8083C32.819 73.4402 33.8313 72.9249 35.0644 72.9249C36.7577 72.9249 37.8068 73.7347 38.138 75.115C38.2117 75.4831 38.2669 76.293 38.2669 76.8083V79.4954C38.2669 80.9862 38.3405 81.4279 38.635 81.7592C38.7638 81.888 39.1319 81.9985 39.5184 81.9985V82.4402C38.9111 82.4402 37.8252 82.3666 37.2178 82.3666C36.3344 82.3666 35.3957 82.4402 34.9172 82.4954V82.0537C35.3589 81.9801 35.6534 81.8512 35.8558 81.7408C36.0951 81.5015 36.1687 80.931 36.2239 79.8083C36.2239 79.4402 36.2239 78.7592 36.2239 78.1887C36.2239 77.5077 36.2239 76.7347 36.1503 76.0721C36.0215 74.8942 35.4141 74.3236 34.2178 74.3236C33.408 74.3236 32.8374 74.5261 32.4693 74.6917V79.5874C32.4693 81.0782 32.543 81.5199 32.8374 81.8512C32.9663 81.9801 33.3344 82.0905 33.7209 82.0905V82.5322C32.9111 82.3298 31.9724 82.3298 31.3466 82.3298C30.0951 82.3298 29.727 82.3298 29.046 82.4586V82.0169C29.4141 82.0169 29.8558 81.8881 30.0583 81.6488C30.2976 81.3359 30.3712 80.5261 30.3712 78.9617V76.3298C30.3712 75.2071 30.3712 74.7101 30.1687 74.4709C30.0399 74.2684 29.727 74.1028 29.1196 74.158V73.4586H29.0644V73.4402ZM59.3957 82.4954C56.5982 82.4954 55.0706 80.8758 55.0706 77.931C55.0706 77.4341 55.1994 72.8696 59.4325 72.8696C60.6841 72.8696 61.8068 73.3666 62.3037 74.25C62.8742 75.1334 62.9111 75.9985 62.9111 76.7531V77.3236H57.1135C57.1135 77.8206 57.1871 78.2071 57.2423 78.5015C57.5552 80.3236 58.5491 81.1887 60.316 81.1887C61.3282 81.1887 61.9356 80.9862 62.5061 80.6181L62.7454 81.0598C62.1565 81.888 60.9049 82.4954 59.3957 82.4954ZM57.1503 76.2561H60.7577C60.7577 75.1334 60.5552 73.8819 58.9356 73.8819C57.5184 73.9555 57.2239 75.2991 57.1503 76.2561Z" fill="white"/>
</svg>
