<svg width="195" height="62" viewBox="0 0 195 62" fill="none" xmlns="http://www.w3.org/2000/svg">
<path d="M8.26452 44.9691C8.26452 47.2432 6.89641 47.8125 5.75933 47.8125C4.62226 47.8125 3.25415 47.2432 3.25415 44.9691V40.8049H4.14069V45.2001C4.14069 46.1257 4.54571 47.0985 5.75933 47.0985C6.97435 47.0985 7.37934 46.1257 7.37934 45.2001V40.8049H8.26452V44.9691Z" fill="white"/>
<path d="M17.7678 40.8049H18.9425L21.6996 45.5954C21.8443 45.8459 22.0753 46.308 22.1616 46.5404H22.2103C22.1909 46.308 22.1616 45.9809 22.1616 45.6817V40.8049H23.0482V47.6677H21.8638L19.1164 42.8202C18.9717 42.5697 18.7407 42.1062 18.6544 41.8752H18.6056C18.6251 42.1062 18.6544 42.4333 18.6544 42.7325V47.6677H17.7678V40.8049Z" fill="white"/>
<path d="M33.4466 47.6677H32.5601V40.8049H33.4466V47.6677Z" fill="white"/>
<path d="M44.8948 45.9809C44.9909 46.2607 45.0591 46.5404 45.1259 46.8188H45.1746C45.2414 46.5404 45.3096 46.2607 45.4057 45.9809L47.1217 40.8049H48.0361L45.6951 47.6677H44.5483L42.2644 40.8049H43.2373L44.8948 45.9809Z" fill="white"/>
<path d="M56.844 40.8049H60.9678V41.5189H57.7305V43.7541H60.805V44.4681H57.7305V46.9538H61.0652V47.6677H56.844V40.8049Z" fill="white"/>
<path d="M70.2383 40.8049H72.6001C73.7762 40.8049 74.7017 41.3825 74.7017 42.6462C74.7017 43.967 73.7957 44.2844 73.4491 44.3999L75.0872 47.6677H74.0267L72.6099 44.5641H71.1262V47.6677H70.2383V40.8049ZM71.1262 43.8515H72.5236C73.5256 43.8515 73.8152 43.2433 73.8152 42.713C73.8152 41.5662 72.8214 41.5189 72.4262 41.5189H71.1262V43.8515Z" fill="white"/>
<path d="M84.4642 46.038C84.5894 46.5209 84.975 47.0985 85.8907 47.0985C86.7578 47.0985 87.2199 46.4819 87.2199 45.9029C87.2199 45.1625 86.7481 44.9301 86.4976 44.8146L84.84 44.0436C84.1942 43.7443 83.8184 43.2531 83.8184 42.5405C83.8184 41.2002 84.9847 40.6602 85.9673 40.6602C86.9402 40.6602 87.7404 40.9984 88.0675 41.9127L87.2004 42.2022C87.0362 41.5579 86.4586 41.3742 85.9673 41.3742C85.1184 41.3742 84.762 41.8557 84.762 42.482C84.762 43.157 85.2255 43.3686 85.6681 43.562L86.9012 44.1006C87.3257 44.2844 88.1649 44.6991 88.1649 45.8849C88.1649 46.5306 87.7696 47.8125 85.8128 47.8125C84.3097 47.8125 83.7502 46.8661 83.6055 46.3567L84.4642 46.038Z" fill="white"/>
<path d="M98.2831 47.6677H97.3965V40.8049H98.2831V47.6677Z" fill="white"/>
<path d="M109.105 41.576H107.112V40.8049H111.987V41.576H109.991V47.6677H109.105V41.576Z" fill="white"/>
<path d="M120.805 40.8052H124.929V41.5191H121.692V43.7543H124.765V44.4683H121.692V46.954H125.025V47.668H120.805V40.8052ZM123.001 38.9945H124.044L122.676 40.3723H122.001L123.001 38.9945Z" fill="white"/>
<path d="M8.27738 58.4138C8.27738 60.688 6.90788 61.2558 5.77081 61.2558C4.63373 61.2558 3.26562 60.688 3.26562 58.4138V54.2511H4.1522V58.6449C4.1522 59.569 4.55719 60.5432 5.77081 60.5432C6.98582 60.5432 7.38945 59.569 7.38945 58.6449V54.2511H8.27738V58.4138Z" fill="white"/>
<path d="M17.7207 54.2511H18.8967L21.6524 59.0387C21.7972 59.2893 22.0282 59.7527 22.1159 59.9838H22.1632C22.1451 59.7527 22.1159 59.4256 22.1159 59.1264V54.2511H23.0011V61.111H21.8167L19.0707 56.2649C18.926 56.0144 18.6949 55.5509 18.6072 55.3199H18.5599C18.578 55.5509 18.6072 55.8794 18.6072 56.1786V61.111H17.7207V54.2511Z" fill="white"/>
<path d="M33.3438 61.1109H32.4573V54.2495H33.3438V61.1109Z" fill="white"/>
<path d="M44.7325 59.4256C44.8299 59.7054 44.8967 59.9837 44.9649 60.2635H45.0136C45.0804 59.9837 45.1472 59.7054 45.2432 59.4256L46.9593 54.2511H47.8751L45.5327 61.111H44.3873L42.1021 54.2511H43.0763L44.7325 59.4256Z" fill="white"/>
<path d="M56.6252 54.2511H60.7505V54.9622H57.5118V57.1988H60.5862V57.9114H57.5118V60.3999H60.8465V61.111H56.6252V54.2511Z" fill="white"/>
<path d="M69.9619 54.2511H72.3237C73.4984 54.2511 74.4239 54.8286 74.4239 56.0896C74.4239 57.4104 73.5179 57.7305 73.1713 57.8446L74.8095 61.111H73.7489L72.3321 58.0088H70.8484V61.111H69.9619V54.2511ZM70.8484 57.2948H72.2458C73.2478 57.2948 73.5374 56.688 73.5374 56.1592C73.5374 55.011 72.545 54.9622 72.1497 54.9622H70.8484V57.2948Z" fill="white"/>
<path d="M84.1274 59.4827C84.2541 59.9657 84.6396 60.5433 85.554 60.5433C86.4224 60.5433 86.8845 59.9267 86.8845 59.3491C86.8845 58.6059 86.4127 58.3735 86.1622 58.2593L84.5046 57.4883C83.8588 57.1905 83.483 56.6992 83.483 55.9852C83.483 54.6463 84.6493 54.1063 85.6319 54.1063C86.6048 54.1063 87.405 54.4431 87.7321 55.3589L86.865 55.6483C86.7008 55.0012 86.1232 54.8189 85.6319 54.8189C84.7829 54.8189 84.4266 55.3018 84.4266 55.9281C84.4266 56.6017 84.8901 56.8133 85.3327 57.0053L86.5658 57.5467C86.9903 57.7304 87.8295 58.1438 87.8295 59.3296C87.8295 59.974 87.4343 61.2558 85.4775 61.2558C83.9743 61.2558 83.4148 60.3122 83.2715 59.8014L84.1274 59.4827Z" fill="white"/>
<path d="M97.8894 61.1109H97.0029V54.2495H97.8894V61.1109Z" fill="white"/>
<path d="M108.653 55.022H106.66V54.2511H111.536V55.022H109.541V61.111H108.653V55.022Z" fill="white"/>
<path d="M122.079 58.3081L119.65 54.2511H120.71L122.253 56.9399C122.359 57.1209 122.445 57.3254 122.531 57.5175H122.551C122.639 57.3254 122.735 57.1209 122.842 56.9399L124.392 54.2511H125.394L122.966 58.3081V61.111H122.079V58.3081Z" fill="white"/>
<path d="M3.31079 50.4108V50.8423L125.256 50.8311V50.3983L3.31079 50.4108Z" fill="white"/>
<path d="M9.40512 31.0695H10.3571C12.3404 31.0695 12.776 30.3166 12.776 28.254V21.9868L5.16162 8.34468C3.61536 5.5681 3.09901 5.21184 1.15611 5.21184H0.799805V4.02184C2.50472 4.0622 4.17069 4.14158 5.79627 4.14158C7.46222 4.14158 9.16852 4.0622 10.8331 4.02184V5.21184H10.1191C9.2868 5.21184 8.65218 5.49014 8.65218 6.48108C8.65218 7.03639 9.12814 8.10667 9.52479 8.82065L15.3939 19.4092L20.8663 8.94039C21.185 8.34471 21.938 6.83743 21.938 6.12485C21.938 5.44984 21.462 5.21184 20.3903 5.21184H19.6374V4.02184C21.263 4.0622 22.3346 4.14158 23.5636 4.14158C24.8718 4.14158 26.2205 4.0622 27.4897 4.02184V5.21184H26.4988C24.8732 5.21184 24.5155 5.72679 23.2866 8.02738L16.2665 21.1545V28.254C16.2665 30.5935 17.1392 31.0695 18.6854 31.0695H19.4787V32.2594C17.8128 32.2191 16.1079 32.1398 14.4419 32.1398C12.6966 32.1398 10.8734 32.2191 9.40512 32.2594V31.0695Z" fill="white"/>
<path d="M45.0597 3.50694C52.951 3.50694 59.8528 9.89233 59.8528 18.1399C59.8528 25.1211 54.4583 32.7744 44.94 32.7744C36.3737 32.7744 30.1873 26.311 30.1873 18.4587C30.1873 9.61398 37.2463 3.50694 45.0597 3.50694ZM44.94 5.17285C39.3882 5.17285 34.1524 8.58412 34.1524 17.7837C34.1524 24.2081 38.3569 31.2685 45.178 31.2685C52.5154 31.2685 55.8862 25.874 55.8862 18.577C55.8862 12.1915 51.8807 5.17285 44.94 5.17285Z" fill="white"/>
<path d="M66.0784 31.0695H66.7923C68.6169 31.0695 69.4103 30.3945 69.4103 27.8169V8.46435C69.4103 5.88679 68.6169 5.21184 66.7923 5.21184H66.0784V4.02184C67.466 4.0622 69.3699 4.14158 71.1555 4.14158C73.811 4.14158 75.7149 4.02184 77.4602 4.02184C84.4803 4.02184 85.7496 9.53466 85.7496 11.3593C85.7496 16.5547 82.1004 18.14 80.1172 18.776L85.4323 27.5803C87.6132 31.1488 88.2479 31.3868 91.4601 31.5858V32.4181C90.7071 32.4181 89.9931 32.4571 89.2388 32.4571C85.7496 32.4571 84.1226 32.0214 82.021 28.5713L77.3809 20.9958C76.4693 19.5289 75.953 19.4496 72.8995 19.3703V26.8663C72.8995 30.6339 73.5745 31.0695 75.1611 31.0695H76.3107V32.2594C74.5654 32.2191 72.8994 32.1398 71.1555 32.1398C69.3699 32.1398 67.466 32.2191 66.0784 32.2594V31.0695ZM72.8995 17.586C73.5745 17.824 74.5654 17.863 75.5967 17.863C79.1652 17.863 82.1004 16.2374 82.1004 12.1122C82.1004 10.367 80.9104 5.52913 75.3976 5.52913C74.4457 5.52913 73.6928 5.60848 72.8995 5.68781V17.586Z" fill="white"/>
<path d="M97.6458 31.0695H98.3598C100.184 31.0695 100.978 30.3945 100.978 27.8169V8.46435C100.978 5.88679 100.184 5.21184 98.3598 5.21184H97.6458V4.02184C99.0333 4.0622 100.937 4.14158 102.723 4.14158C104.467 4.14158 106.134 4.0622 107.878 4.02184V5.21184H106.727C105.142 5.21184 104.467 5.64885 104.467 9.41637V18.7356L113.153 9.05864C113.55 8.62301 115.057 7.0364 115.057 6.24309C115.057 5.52912 114.502 5.21184 113.747 5.21184H113.033V4.02184C114.501 4.0622 116.166 4.14158 117.714 4.14158C119.3 4.14158 120.847 4.0622 122.433 4.02184V5.21184H121.719C119.776 5.21184 119.101 5.56813 116.762 8.02738L109.107 16.0788L119.339 28.0563C121.561 30.6728 122.712 31.0695 124.336 31.0695H124.931V32.2594C123.662 32.2191 122.352 32.1398 121.085 32.1398C119.815 32.1398 118.507 32.2191 117.238 32.2594C117.04 31.1098 116.92 30.5142 114.66 27.9366L106.529 18.6173L104.467 20.7982V26.8663C104.467 30.6339 105.142 31.0695 106.727 31.0695H107.878V32.2594C106.134 32.2191 104.467 32.1398 102.723 32.1398C100.937 32.1398 99.0333 32.2191 97.6458 32.2594V31.0695Z" fill="white"/>
<path d="M175.812 53.829C165.569 53.829 156.699 47.4965 156.699 33.6539V0.744202H133.81V61.1317H194.2V39.0986C192.384 47.8792 186 53.829 175.812 53.829Z" fill="white"/>
<path d="M175.812 41.4659C181.308 41.4659 182.995 36.6365 182.995 31.9129V0.744202H168.941V31.9129C168.941 36.8328 170.689 41.4659 175.812 41.4659Z" fill="white"/>
</svg>
